<svg width="100" height="60" viewBox="0 0 100 60" fill="none"
    xmlns="http://www.w3.org/2000/svg">
    <rect width="100" height="60" fill="white"/>
    <rect width="100" height="60" rx="4" fill="white"/>
    <path fill-rule="evenodd" clip-rule="evenodd" d="M84.4075 34.6657H80.8745C80.5217 34.6657 80.2874 34.6789 80.09 34.8118C79.8855 34.9427 79.8067 35.1371 79.8067 35.3937C79.8067 35.6988 79.9794 35.9063 80.2306 35.9961C80.4351 36.067 80.6548 36.0878 80.9777 36.0878L82.0283 36.1158C83.0885 36.1419 83.7962 36.3236 84.2277 36.7667C84.3062 36.8284 84.3534 36.8977 84.4075 36.967V34.6657ZM84.4075 39.9977C83.9366 40.6843 83.019 41.0323 81.7769 41.0323H78.0332V39.298H81.7617C82.1316 39.298 82.3904 39.2495 82.5462 39.0978C82.6812 38.9727 82.7754 38.791 82.7754 38.5703C82.7754 38.3347 82.6812 38.1476 82.5386 38.0354C82.398 37.912 82.1932 37.8559 81.8556 37.8559C80.0354 37.7942 77.7646 37.912 77.7646 35.3527C77.7646 34.1796 78.5117 32.9448 80.5459 32.9448H84.4073V31.3357H80.8197C79.737 31.3357 78.9505 31.5942 78.3935 31.9961V31.3357H73.087C72.2384 31.3357 71.2423 31.5454 70.7712 31.9961V31.3357H61.2951V31.9961C60.541 31.4537 59.2684 31.3357 58.6811 31.3357H52.4306V31.9961C51.834 31.4201 50.5071 31.3357 49.6984 31.3357H42.703L41.1023 33.0629L39.603 31.3357H29.1533V42.6207H39.4063L41.0558 40.8662L42.6096 42.6207L48.9296 42.6263V39.9716H49.5509C50.3895 39.9845 51.3785 39.9509 52.251 39.5748V42.6204H57.4639V39.6792H57.7153C58.0363 39.6792 58.0678 39.6924 58.0678 40.0121V42.6202H73.9035C74.9089 42.6202 75.9598 42.3636 76.5418 41.8981V42.6202H81.5648C82.61 42.6202 83.6308 42.4741 84.4075 42.1V39.9977ZM76.6748 36.7667C77.0523 37.1562 77.2546 37.6479 77.2546 38.4803C77.2546 40.2201 76.1643 41.0323 74.2093 41.0323H70.4336V39.298H74.1941C74.5618 39.298 74.8226 39.2495 74.986 39.0978C75.1193 38.9727 75.2149 38.791 75.2149 38.5703C75.2149 38.3347 75.1115 38.1476 74.9784 38.0354C74.8302 37.912 74.6257 37.8559 74.2881 37.8559C72.4752 37.7942 70.2049 37.912 70.2049 35.3527C70.2049 34.1796 70.9441 32.9448 72.9764 32.9448H76.8627V34.6662H73.3067C72.9542 34.6662 72.725 34.6793 72.53 34.8123C72.3177 34.9432 72.2389 35.1376 72.2389 35.3942C72.2389 35.6993 72.4192 35.9068 72.6631 35.9966C72.8676 36.0675 73.0872 36.0883 73.4175 36.0883L74.461 36.1163C75.5134 36.1419 76.2357 36.3234 76.6748 36.7667ZM59.1826 36.2673C58.9233 36.4207 58.6026 36.4338 58.2254 36.4338H55.8704V34.6174H58.2574C58.6026 34.6174 58.948 34.6247 59.1826 34.7635C59.4338 34.8944 59.584 35.1449 59.584 35.491C59.584 35.8371 59.4338 36.1158 59.1826 36.2673ZM60.3533 37.2738C60.7848 37.4325 61.1376 37.7172 61.3029 37.9528C61.5767 38.3476 61.6163 38.7161 61.6241 39.429V41.0323H59.6779V40.0204C59.6779 39.5339 59.7249 38.8134 59.3646 38.4373C59.0813 38.1476 58.6496 38.0784 57.9424 38.0784H55.8707V41.0323H53.9228V32.9446H58.3983C59.3797 32.9446 60.0945 32.9878 60.7308 33.3263C61.3426 33.6948 61.7274 34.1996 61.7274 35.1222C61.7271 36.4131 60.8636 37.0718 60.3533 37.2738ZM62.8022 32.9446H69.2722V34.6172H64.7328V36.0875H69.1613V37.7376H64.7328V39.3468L69.2722 39.3541V41.0323H62.8022V32.9446ZM49.7231 36.677H47.218V34.6174H49.7456C50.4455 34.6174 50.9313 34.9018 50.9313 35.609C50.9313 36.3085 50.468 36.677 49.7231 36.677ZM45.2872 40.2967L42.3109 37.0023L45.2872 33.8126V40.2967ZM37.601 39.3468H32.8348V37.7376H37.0907V36.0875H32.8348V34.6172H37.6949L39.8153 36.974L37.601 39.3468ZM53.0125 35.609C53.0125 37.8557 51.3313 38.3196 49.6368 38.3196H47.218V41.0323H43.4501L41.0631 38.3549L38.5824 41.0323H30.9038V32.9446H38.7006L41.0856 35.5956L43.5514 32.9446H49.7456C51.2841 32.9446 53.0125 33.3692 53.0125 35.609Z" fill="#0072CE"/>
    <path fill-rule="evenodd" clip-rule="evenodd" d="M21.655 23.6243L20.3282 20.4009L19.0089 23.6243H21.655ZM50.8846 22.3408C50.6182 22.502 50.3031 22.5073 49.9257 22.5073H47.5707V20.7114H49.9577C50.2955 20.7114 50.648 20.7265 50.877 20.8572C51.1285 20.975 51.2841 21.2257 51.2841 21.5721C51.2841 21.9254 51.1361 22.2098 50.8846 22.3408ZM67.6846 23.6243L66.3431 20.4009L65.0089 23.6243H67.6846ZM36.3684 27.1133H34.3811L34.3737 20.7806L31.5628 27.1133H29.8608L27.0425 20.775V27.1133H23.0997L22.3549 25.3098H18.3186L17.5662 27.1133H15.4607L18.9321 19.0276H21.8123L25.1093 26.6831V19.0276H28.2732L30.8101 24.5128L33.1406 19.0276H36.3681V27.1133H36.3684ZM44.2889 27.1133H37.8131V19.0276H44.2889V20.7114H39.7517V22.1688H44.1801V23.8263H39.7517V25.441H44.2889V27.1133ZM53.4196 21.2052C53.4196 22.4944 52.5566 23.1605 52.0536 23.3605C52.4778 23.5214 52.8401 23.8058 53.0125 24.0414C53.2863 24.4435 53.3335 24.8028 53.3335 25.5249V27.1133H51.3782L51.3709 26.0937C51.3709 25.6071 51.4176 24.9074 51.0649 24.5184C50.7816 24.234 50.3499 24.1723 49.652 24.1723H47.571V27.1133H45.6326V19.0276H50.0913C51.082 19.0276 51.8119 19.0537 52.4387 19.4149C53.0519 19.7761 53.4196 20.3034 53.4196 21.2052ZM56.5219 27.1133H54.5439V19.0276H56.5219V27.1133ZM79.4691 27.1133H76.722L73.0476 21.0445V27.1133H69.0997L68.3453 25.3098H64.3184L63.5865 27.1133H61.3181C60.3758 27.1133 59.1828 26.9055 58.5072 26.219C57.8259 25.5325 57.4715 24.6026 57.4715 23.1322C57.4715 21.933 57.6833 20.8367 58.5165 19.9705C59.1432 19.3251 60.1246 19.0276 61.4605 19.0276H63.3372V20.7602H61.4999C60.7924 20.7602 60.393 20.865 60.0082 21.2391C59.6777 21.5796 59.4509 22.2232 59.4509 23.0707C59.4509 23.937 59.6236 24.5616 59.984 24.9696C60.2824 25.2896 60.8247 25.3866 61.335 25.3866H62.2056L64.9377 19.0279H67.8424L71.1244 26.6758V19.0279H74.076L77.4835 24.6591V19.0279H79.4691V27.1133ZM15.4382 28.7015H18.7504L19.4972 26.9055H21.1692L21.914 28.7015H28.431V27.3284L29.0127 28.7074H32.3958L32.9775 27.308V28.7015H49.1732L49.1656 25.7534H49.479C49.6984 25.761 49.7625 25.7812 49.7625 26.1424V28.7015H58.139V28.0152C58.8147 28.3762 59.8656 28.7015 61.2484 28.7015H64.7724L65.5265 26.9055H67.1985L67.936 28.7015H74.7269V26.9955L75.7553 28.7015H81.1971V17.4243H75.8116V18.7562L75.0574 17.4243H69.5312V18.7562L68.8387 17.4243H61.3741C60.1246 17.4243 59.0263 17.5982 58.139 18.0828V17.4243H52.9878V18.0828C52.4232 17.5833 51.6539 17.4243 50.7985 17.4243H31.9792L30.7164 20.337L29.4197 17.4243H23.4921V18.7562L22.8409 17.4243H17.7856L15.438 22.7861V28.7015H15.4382Z" fill="#0072CE"/>
</svg>
