<svg width="100" height="60" viewBox="0 0 100 60" fill="none"
    xmlns="http://www.w3.org/2000/svg">
    <rect width="100" height="60" fill="white"/>
    <rect width="100" height="60" rx="4" fill="white"/>
    <path fill-rule="evenodd" clip-rule="evenodd" d="M19.5481 35.9832C19.5481 34.7764 18.9176 34.8557 18.3145 34.843V34.4941C18.8374 34.5196 19.3737 34.5196 19.898 34.5196C20.4613 34.5196 21.2262 34.4941 22.2199 34.4941C25.6949 34.4941 27.5877 36.8146 27.5877 39.1909C27.5877 40.5207 26.8094 43.8614 22.0584 43.8614C21.3746 43.8614 20.743 43.8349 20.1125 43.8349C19.5091 43.8349 18.9176 43.8473 18.3145 43.8614V43.5123C19.1188 43.431 19.5091 43.4048 19.5481 42.4924V35.9832ZM20.8632 42.277C20.8632 43.3108 21.6021 43.431 22.2594 43.431C25.1589 43.431 26.1103 41.2441 26.1103 39.2448C26.1103 36.7353 24.5002 34.924 21.9106 34.924C21.3591 34.924 21.1054 34.9632 20.8632 34.9776V42.277Z" fill="#1A1919"/>
    <path fill-rule="evenodd" clip-rule="evenodd" d="M28.0576 43.5121H28.3119C28.6876 43.5121 28.9562 43.5121 28.9562 43.0682V39.4317C28.9562 38.8421 28.7553 38.7606 28.258 38.493V38.2788C28.8888 38.0892 29.6409 37.836 29.694 37.7956C29.7885 37.7417 29.8678 37.7274 29.9361 37.7274C30.0019 37.7274 30.0295 37.8081 30.0295 37.9164V43.0682C30.0295 43.5121 30.3253 43.5121 30.7015 43.5121H30.9287V43.8612C30.4723 43.8612 30.0019 43.8347 29.5204 43.8347C29.0372 43.8347 28.5538 43.8471 28.0576 43.8612V43.5121ZM29.4933 35.6615C29.1436 35.6615 28.8357 35.3395 28.8357 34.9906C28.8357 34.6545 29.1583 34.3452 29.4933 34.3452C29.8416 34.3452 30.1511 34.628 30.1511 34.9906C30.1511 35.3536 29.8551 35.6615 29.4933 35.6615Z" fill="#1A1919"/>
    <path fill-rule="evenodd" clip-rule="evenodd" d="M32.204 39.5126C32.204 39.017 32.0558 38.8829 31.4262 38.6275V38.3727C32.0022 38.185 32.552 38.0098 33.1968 37.7275C33.2375 37.7275 33.2765 37.7544 33.2765 37.8616V38.7342C34.0427 38.185 34.7002 37.7275 35.6008 37.7275C36.7399 37.7275 37.1423 38.5598 37.1423 39.6066V43.0683C37.1423 43.5123 37.4384 43.5123 37.8137 43.5123H38.0559V43.8614C37.5846 43.8614 37.1155 43.8348 36.6329 43.8348C36.1495 43.8348 35.666 43.8473 35.1829 43.8614V43.5123H35.425C35.8009 43.5123 36.0682 43.5123 36.0682 43.0683V39.5941C36.0682 38.8282 35.6008 38.4528 34.8349 38.4528C34.405 38.4528 33.7206 38.8011 33.2765 39.0977V43.0683C33.2765 43.5123 33.573 43.5123 33.949 43.5123H34.19V43.8614C33.7206 43.8614 33.2507 43.8348 32.7667 43.8348C32.2847 43.8348 31.801 43.8473 31.3184 43.8614V43.5123H31.5605C31.9359 43.5123 32.204 43.5123 32.204 43.0683V39.5126Z" fill="#1A1919"/>
    <path fill-rule="evenodd" clip-rule="evenodd" d="M39.0758 40.1577C39.0484 40.2785 39.0484 40.4795 39.0758 40.9361C39.1549 42.2106 39.9752 43.2569 41.0477 43.2569C41.7868 43.2569 42.3643 42.8541 42.8599 42.3585L43.0473 42.5465C42.4298 43.3649 41.6652 44.0631 40.5657 44.0631C38.4312 44.0631 38.002 41.9953 38.002 41.1371C38.002 38.5065 39.7729 37.7275 40.7113 37.7275C41.7996 37.7275 42.9679 38.4119 42.9804 39.8349C42.9804 39.9164 42.9804 39.996 42.9679 40.0768L42.8466 40.1577H39.0758ZM41.4521 39.7279C41.7868 39.7279 41.8261 39.5532 41.8261 39.3915C41.8261 38.7082 41.4104 38.1579 40.6585 38.1579C39.8406 38.1579 39.2768 38.7608 39.1159 39.7279H41.4521Z" fill="#1A1919"/>
    <path fill-rule="evenodd" clip-rule="evenodd" d="M43.29 43.5123H43.6527C44.0269 43.5123 44.2956 43.5123 44.2956 43.0683V39.2981C44.2956 38.8829 43.7995 38.8011 43.598 38.6939V38.4932C44.5776 38.0769 45.1146 37.7275 45.2374 37.7275C45.3159 37.7275 45.3562 37.7679 45.3562 37.9028V39.1107H45.3844C45.7189 38.5875 46.2836 37.7275 47.1017 37.7275C47.437 37.7275 47.866 37.9556 47.866 38.439C47.866 38.8011 47.6123 39.1248 47.2366 39.1248C46.8192 39.1248 46.8192 38.8011 46.3491 38.8011C46.1213 38.8011 45.3698 39.1107 45.3698 39.9164V43.0683C45.3698 43.5123 45.6379 43.5123 46.0138 43.5123H46.7645V43.8614C46.0265 43.8473 45.4648 43.8348 44.8871 43.8348C44.3368 43.8348 43.7729 43.8473 43.29 43.8614V43.5123Z" fill="#1A1919"/>
    <path fill-rule="evenodd" clip-rule="evenodd" d="M48.4559 41.9953C48.6309 42.8809 49.1666 43.6336 50.1481 43.6336C50.9387 43.6336 51.2336 43.1498 51.2336 42.6805C51.2336 41.0961 48.3089 41.6067 48.3089 39.4462C48.3089 38.6938 48.9131 37.7278 50.3894 37.7278C50.8181 37.7278 51.395 37.8494 51.918 38.1181L52.0122 39.4858H51.7038C51.5697 38.6408 51.1006 38.1579 50.2407 38.1579C49.7039 38.1579 49.1945 38.4661 49.1945 39.0432C49.1945 40.6143 52.3072 40.1303 52.3072 42.2374C52.3072 43.1225 51.5968 44.0631 49.9991 44.0631C49.4629 44.0631 48.831 43.8749 48.3628 43.6065L48.2144 42.063L48.4559 41.9953Z" fill="#1A1919"/>
    <path fill-rule="evenodd" clip-rule="evenodd" d="M64.4254 36.9223H64.0906C63.8352 35.3537 62.7213 34.7221 61.2193 34.7221C59.6741 34.7221 57.4338 35.7548 57.4338 38.9755C57.4338 41.6874 59.367 43.6336 61.4332 43.6336C62.7605 43.6336 63.8634 42.7206 64.1313 41.3106L64.44 41.3908L64.1313 43.3508C63.5677 43.7002 62.0507 44.0631 61.164 44.0631C58.0251 44.0631 56.0391 42.0362 56.0391 39.017C56.0391 36.265 58.495 34.2917 61.1253 34.2917C62.2119 34.2917 63.2583 34.6417 64.2918 35.0043L64.4254 36.9223Z" fill="#1A1919"/>
    <path fill-rule="evenodd" clip-rule="evenodd" d="M64.9097 43.5121H65.1637C65.5407 43.5121 65.8086 43.5121 65.8086 43.0682V35.5951C65.8086 34.7219 65.6076 34.6954 65.0971 34.5475V34.3325C65.6336 34.1583 66.1977 33.9173 66.4802 33.7551C66.6259 33.6757 66.7343 33.6072 66.7738 33.6072C66.8559 33.6072 66.8824 33.6887 66.8824 33.7965V43.0682C66.8824 43.5121 67.1779 43.5121 67.5533 43.5121H67.7805V43.8612C67.3255 43.8612 66.8559 43.8346 66.3724 43.8346C65.8895 43.8346 65.4069 43.8471 64.9097 43.8612V43.5121Z" fill="#1A1919"/>
    <path fill-rule="evenodd" clip-rule="evenodd" d="M73.5263 43.1223C73.5263 43.3647 73.6731 43.3775 73.9006 43.3775C74.0625 43.3775 74.2629 43.3647 74.4387 43.3647V43.6472C73.8613 43.7003 72.7604 43.9822 72.505 44.063L72.4381 44.022V42.9349C71.6337 43.5922 71.0157 44.063 70.0615 44.063C69.337 44.063 68.586 43.5922 68.586 42.4664V39.0298C68.586 38.6804 68.5327 38.3449 67.7822 38.2788V38.0231C68.2657 38.0098 69.337 37.9297 69.512 37.9297C69.661 37.9297 69.661 38.0231 69.661 38.3189V41.7809C69.661 42.1839 69.661 43.3368 70.8283 43.3368C71.2838 43.3368 71.8878 42.9888 72.4511 42.5198V38.9087C72.4511 38.6406 71.8073 38.493 71.325 38.3595V38.1182C72.5315 38.0364 73.2839 37.9297 73.418 37.9297C73.5263 37.9297 73.5263 38.0231 73.5263 38.1713V43.1223Z" fill="#1A1919"/>
    <path fill-rule="evenodd" clip-rule="evenodd" d="M76.1962 38.6937C76.7327 38.2384 77.4577 37.7274 78.1957 37.7274C79.7528 37.7274 80.6923 39.0843 80.6923 40.5467C80.6923 42.3042 79.4034 44.063 77.4834 44.063C76.4914 44.063 75.9679 43.7398 75.6182 43.5922L75.2169 43.901L74.9355 43.7539C75.0554 42.9623 75.1232 42.1839 75.1232 41.3649V35.5951C75.1232 34.7219 74.9211 34.6954 74.4111 34.5475V34.3325C74.9485 34.1583 75.5115 33.9173 75.7932 33.7551C75.9413 33.6757 76.0483 33.6072 76.0892 33.6072C76.1691 33.6072 76.1962 33.689 76.1962 33.7965V38.6937ZM76.1962 42.3442C76.1962 42.8539 76.6796 43.7136 77.5785 43.7136C79.0142 43.7136 79.6179 42.3042 79.6179 41.1092C79.6179 39.6603 78.5186 38.4527 77.4721 38.4527C76.9735 38.4527 76.5583 38.7752 76.1962 39.0843V42.3442Z" fill="#1A1919"/>
    <path fill-rule="evenodd" clip-rule="evenodd" d="M18.2993 51.6644H18.4019C18.6645 51.6644 18.942 51.6285 18.942 51.2484V47.4229C18.942 47.0423 18.6645 47.0061 18.4019 47.0061H18.2993V46.7866C18.584 46.7866 19.0221 46.8156 19.3809 46.8156C19.7458 46.8156 20.1833 46.7866 20.5266 46.7866V47.0061H20.4235C20.162 47.0061 19.884 47.0423 19.884 47.4229V51.2484C19.884 51.6285 20.162 51.6644 20.4235 51.6644H20.5266V51.8839C20.1764 51.8839 19.7372 51.8557 19.3734 51.8557C19.0149 51.8557 18.584 51.8839 18.2993 51.8839V51.6644Z" fill="#1A1919"/>
    <path fill-rule="evenodd" clip-rule="evenodd" d="M25.5431 50.4446L25.5578 50.4303V47.6927C25.5578 47.0934 25.1409 47.0058 24.922 47.0058H24.7611V46.7866C25.105 46.7866 25.4408 46.8156 25.7836 46.8156C26.0829 46.8156 26.3837 46.7866 26.6819 46.7866V47.0058H26.5733C26.2656 47.0058 25.9223 47.0641 25.9223 47.9332V51.2556C25.9223 51.5116 25.9295 51.767 25.9655 51.9936H25.6879L21.9279 47.8013V50.8106C21.9279 51.4463 22.0515 51.6644 22.6137 51.6644H22.7381V51.8839C22.4241 51.8839 22.1104 51.8554 21.7964 51.8554C21.4685 51.8554 21.1322 51.8839 20.8032 51.8839V51.6644H20.9058C21.4094 51.6644 21.5628 51.3211 21.5628 50.7387V47.662C21.5628 47.2535 21.2259 47.0058 20.8986 47.0058H20.8032V46.7866C21.0802 46.7866 21.3654 46.8156 21.6424 46.8156C21.8622 46.8156 22.0739 46.7866 22.2928 46.7866L25.5431 50.4446Z" fill="#1A1919"/>
    <path fill-rule="evenodd" clip-rule="evenodd" d="M27.7763 47.1516C27.2279 47.1516 27.2066 47.2837 27.0971 47.8161H26.8779C26.9067 47.6115 26.9429 47.4073 26.9656 47.1955C26.9949 46.9902 27.0095 46.7864 27.0095 46.5753H27.1845C27.2433 46.7945 27.4258 46.7864 27.624 46.7864H31.3903C31.5885 46.7864 31.7707 46.7793 31.7856 46.5601L31.96 46.5899C31.9318 46.7864 31.902 46.9838 31.8807 47.1814C31.8663 47.3785 31.8663 47.575 31.8663 47.7721L31.6468 47.8534C31.6319 47.5836 31.5957 47.1516 31.1065 47.1516H29.9088V51.0365C29.9088 51.5998 30.1647 51.6643 30.5147 51.6643H30.654V51.8837C30.369 51.8837 29.8576 51.8555 29.464 51.8555C29.0254 51.8555 28.5137 51.8837 28.2287 51.8837V51.6643H28.3681C28.7705 51.6643 28.9739 51.6283 28.9739 51.0517V47.1516H27.7763Z" fill="#1A1919"/>
    <path fill-rule="evenodd" clip-rule="evenodd" d="M32.1934 51.6644H32.2962C32.5582 51.6644 32.8366 51.6285 32.8366 51.2484V47.4229C32.8366 47.0423 32.5582 47.0061 32.2962 47.0061H32.1934V46.7866C32.6373 46.7866 33.3985 46.8156 34.0108 46.8156C34.6252 46.8156 35.3837 46.7866 35.8801 46.7866C35.8674 47.1006 35.8743 47.5838 35.8959 47.9044L35.6759 47.9625C35.6408 47.4876 35.5531 47.1089 34.7861 47.1089H33.7722V49.0208H34.6396C35.0777 49.0208 35.1731 48.7735 35.2165 48.3787H35.4354C35.4207 48.664 35.413 48.9487 35.413 49.2331C35.413 49.5112 35.4207 49.7884 35.4354 50.0654L35.2165 50.1091C35.1731 49.6715 35.1512 49.3868 34.6468 49.3868H33.7722V51.0873C33.7722 51.5627 34.194 51.5627 34.6617 51.5627C35.5382 51.5627 35.9249 51.5038 36.1441 50.6724L36.3478 50.7227C36.253 51.1105 36.1659 51.4964 36.1004 51.8839C35.6325 51.8839 34.7927 51.8557 34.1368 51.8557C33.4781 51.8557 32.6099 51.8839 32.1934 51.8839V51.6644Z" fill="#1A1919"/>
    <path fill-rule="evenodd" clip-rule="evenodd" d="M37.3341 47.56C37.3341 47.0277 37.0416 47.0058 36.815 47.0058H36.6831V46.7866C36.9169 46.7866 37.3697 46.8156 37.8156 46.8156C38.2528 46.8156 38.6039 46.7866 38.9909 46.7866C39.9096 46.7866 40.7292 47.0346 40.7292 48.0722C40.7292 48.729 40.2908 49.13 39.7142 49.3578L40.9622 51.226C41.1673 51.5351 41.3122 51.6216 41.6709 51.6644V51.8839C41.4293 51.8839 41.1958 51.8557 40.9556 51.8557C40.7292 51.8557 40.4945 51.8839 40.2693 51.8839C39.7065 51.1467 39.2241 50.3584 38.7498 49.5173H38.2686V51.0809C38.2686 51.6432 38.5309 51.6644 38.8656 51.6644H38.998V51.8839C38.5809 51.8839 38.1591 51.8557 37.742 51.8557C37.3915 51.8557 37.0482 51.8839 36.6831 51.8839V51.6644H36.815C37.0861 51.6644 37.3341 51.5409 37.3341 51.2711V47.56ZM38.2686 49.2539H38.6254C39.3565 49.2539 39.7502 48.9772 39.7502 48.115C39.7502 47.4658 39.3339 47.0495 38.6832 47.0495C38.464 47.0495 38.3706 47.0719 38.2686 47.0791V49.2539Z" fill="#1A1919"/>
    <path fill-rule="evenodd" clip-rule="evenodd" d="M46.6285 50.4446L46.6412 50.4303V47.6927C46.6412 47.0934 46.2263 47.0058 46.0071 47.0058H45.8471V46.7866C46.1904 46.7866 46.5251 46.8156 46.8692 46.8156C47.1694 46.8156 47.4666 46.7866 47.7681 46.7866V47.0058H47.6581C47.3513 47.0058 47.0083 47.0641 47.0083 47.9332V51.2556C47.0083 51.5116 47.0155 51.767 47.0514 51.9936H46.775L43.0147 47.8013V50.8106C43.0147 51.4463 43.138 51.6644 43.7002 51.6644H43.8246V51.8839C43.5109 51.8839 43.1963 51.8554 42.8826 51.8554C42.5528 51.8554 42.2175 51.8839 41.8892 51.8839V51.6644H41.9906C42.4948 51.6644 42.649 51.3211 42.649 50.7387V47.662C42.649 47.2535 42.3126 47.0058 41.9842 47.0058H41.8892V46.7866C42.1656 46.7866 42.4525 46.8156 42.7294 46.8156C42.9464 46.8156 43.1593 46.7866 43.3787 46.7866L46.6285 50.4446Z" fill="#1A1919"/>
    <path fill-rule="evenodd" clip-rule="evenodd" d="M48.9422 50.8398C48.8687 51.0872 48.7805 51.279 48.7805 51.4086C48.7805 51.6284 49.0882 51.6646 49.3284 51.6646H49.4099V51.8838C49.1167 51.868 48.8187 51.8556 48.5249 51.8556C48.262 51.8556 48.0005 51.868 47.7368 51.8838V51.6646H47.7813C48.0655 51.6646 48.3073 51.4963 48.4157 51.1894L49.5841 47.8388C49.6794 47.5679 49.811 47.203 49.8555 46.9322C50.0877 46.8523 50.381 46.7072 50.5192 46.6184C50.5418 46.611 50.5554 46.6035 50.5775 46.6035C50.5996 46.6035 50.6131 46.6035 50.6292 46.6265C50.6507 46.6842 50.672 46.75 50.6947 46.8083L52.0389 50.6281C52.1265 50.8829 52.2133 51.153 52.3067 51.3733C52.3957 51.5781 52.5491 51.6646 52.791 51.6646H52.8347V51.8838C52.5057 51.868 52.1762 51.8556 51.8274 51.8556C51.4695 51.8556 51.1032 51.868 50.7309 51.8838V51.6646H50.8113C50.9783 51.6646 51.2649 51.6356 51.2649 51.4529C51.2649 51.3586 51.1989 51.1612 51.1173 50.9266L50.8329 50.0799H49.1755L48.9422 50.8398ZM50.0084 47.6047H49.9932L49.3146 49.6714H50.6789L50.0084 47.6047Z" fill="#1A1919"/>
    <path fill-rule="evenodd" clip-rule="evenodd" d="M53.1555 47.1516C52.6079 47.1516 52.5858 47.2837 52.4758 47.8161H52.2563C52.2851 47.6115 52.3224 47.4073 52.3451 47.1955C52.3735 46.9902 52.3876 46.7864 52.3876 46.5753H52.5643C52.6215 46.7945 52.8045 46.7864 53.0016 46.7864H56.7701C56.9664 46.7864 57.1488 46.7793 57.1632 46.5601L57.3379 46.5899C57.3108 46.7864 57.2818 46.9838 57.2588 47.1814C57.2428 47.3785 57.2428 47.575 57.2428 47.7721L57.0247 47.8534C57.0117 47.5836 56.9749 47.1516 56.4846 47.1516H55.2872V51.0365C55.2872 51.5998 55.5431 51.6643 55.8931 51.6643H56.0327V51.8837C55.7474 51.8837 55.2372 51.8555 54.8419 51.8555C54.4046 51.8555 53.8921 51.8837 53.6074 51.8837V51.6643H53.7465C54.1489 51.6643 54.3526 51.6283 54.3526 51.0517V47.1516H53.1555Z" fill="#1A1919"/>
    <path fill-rule="evenodd" clip-rule="evenodd" d="M57.6084 51.6644H57.7107C57.9738 51.6644 58.2502 51.6285 58.2502 51.2484V47.4229C58.2502 47.0423 57.9738 47.0061 57.7107 47.0061H57.6084V46.7866C57.8934 46.7866 58.3307 46.8156 58.6881 46.8156C59.054 46.8156 59.4924 46.7866 59.8363 46.7866V47.0061H59.7337C59.4697 47.0061 59.1922 47.0423 59.1922 47.4229V51.2484C59.1922 51.6285 59.4697 51.6644 59.7337 51.6644H59.8363V51.8839C59.4855 51.8839 59.0468 51.8557 58.6823 51.8557C58.3237 51.8557 57.8934 51.8839 57.6084 51.8839V51.6644Z" fill="#1A1919"/>
    <path fill-rule="evenodd" clip-rule="evenodd" d="M62.7478 46.677C64.3046 46.677 65.5454 47.642 65.5454 49.1973C65.5454 50.8771 64.3402 51.9935 62.7854 51.9935C61.2367 51.9935 60.0542 50.9417 60.0542 49.3715C60.0542 47.8534 61.2295 46.677 62.7478 46.677ZM62.8581 51.672C64.2753 51.672 64.5224 50.4224 64.5224 49.3576C64.5224 48.2904 63.9469 46.9985 62.734 46.9985C61.4564 46.9985 61.0764 48.1378 61.0764 49.1155C61.0764 50.4224 61.6756 51.672 62.8581 51.672Z" fill="#1A1919"/>
    <path fill-rule="evenodd" clip-rule="evenodd" d="M70.4659 50.4446L70.4811 50.4303V47.6927C70.4811 47.0934 70.0634 47.0058 69.8445 47.0058H69.6856V46.7866C70.0278 46.7866 70.3645 46.8156 70.7066 46.8156C71.0068 46.8156 71.3062 46.7866 71.6058 46.7866V47.0058H71.4961C71.1901 47.0058 70.8454 47.0641 70.8454 47.9332V51.2556C70.8454 51.5116 70.8531 51.767 70.8902 51.9936H70.6124L66.851 47.8013V50.8106C66.851 51.4463 66.9757 51.6644 67.5368 51.6644H67.662V51.8839C67.3477 51.8839 67.0343 51.8554 66.7203 51.8554C66.3913 51.8554 66.0552 51.8839 65.7266 51.8839V51.6644H65.8291C66.3338 51.6644 66.4861 51.3211 66.4861 50.7387V47.662C66.4861 47.2535 66.1514 47.0058 65.8211 47.0058H65.7266V46.7866C66.0041 46.7866 66.2885 46.8156 66.5666 46.8156C66.7852 46.8156 66.9958 46.7866 67.2159 46.7866L70.4659 50.4446Z" fill="#1A1919"/>
    <path fill-rule="evenodd" clip-rule="evenodd" d="M72.7791 50.8398C72.7075 51.0872 72.6193 51.279 72.6193 51.4086C72.6193 51.6284 72.927 51.6646 73.1664 51.6646H73.2479V51.8838C72.9555 51.868 72.6558 51.8556 72.3634 51.8556C72.1005 51.8556 71.8379 51.868 71.5762 51.8838V51.6646H71.6176C71.904 51.6646 72.1459 51.4963 72.2525 51.1894L73.4234 47.8388C73.5177 47.5679 73.6498 47.203 73.6918 46.9322C73.9265 46.8523 74.2178 46.7072 74.3585 46.6184C74.379 46.611 74.3936 46.6035 74.4163 46.6035C74.4376 46.6035 74.4514 46.6035 74.4663 46.6265C74.4884 46.6842 74.5103 46.75 74.5324 46.8083L75.876 50.6281C75.9631 50.8829 76.0513 51.153 76.1466 51.3733C76.2342 51.5781 76.3874 51.6646 76.6281 51.6646H76.6732V51.8838C76.344 51.868 76.015 51.8556 75.6643 51.8556C75.3072 51.8556 74.9415 51.868 74.5686 51.8838V51.6646H74.6496C74.8165 51.6646 75.1029 51.6356 75.1029 51.4529C75.1029 51.3586 75.0374 51.1612 74.9558 50.9266L74.6711 50.0799H73.0138L72.7791 50.8398ZM73.8469 47.6047H73.8322L73.1514 49.6714H74.5191L73.8469 47.6047Z" fill="#1A1919"/>
    <path fill-rule="evenodd" clip-rule="evenodd" d="M78.5125 51.1677C78.5125 51.4613 78.7153 51.5478 78.9497 51.5782C79.2485 51.6 79.5775 51.6 79.9144 51.5627C80.2207 51.526 80.4835 51.3518 80.6146 51.1677C80.7307 51.0074 80.7964 50.8029 80.8412 50.6425H81.0524C80.972 51.0588 80.87 51.4682 80.7823 51.8839C80.1411 51.8839 79.4965 51.8557 78.8549 51.8557C78.2117 51.8557 77.5696 51.8839 76.9272 51.8839V51.6644H77.0284C77.2918 51.6644 77.5776 51.6285 77.5776 51.1757V47.4229C77.5776 47.0423 77.2918 47.0058 77.0284 47.0058H76.9272V46.7866C77.3137 46.7866 77.694 46.8156 78.0804 46.8156C78.4536 46.8156 78.8179 46.7866 79.1913 46.7866V47.0058H79.0078C78.7303 47.0058 78.5125 47.0136 78.5125 47.4005V51.1677Z" fill="#1A1919"/>
    <path fill-rule="evenodd" clip-rule="evenodd" d="M80.963 46.5796C81.4036 46.5796 81.7323 46.9179 81.7323 47.3502C81.7323 47.7823 81.4036 48.117 80.963 48.117C80.5235 48.117 80.1943 47.7823 80.1943 47.3502C80.1943 46.9179 80.5235 46.5796 80.963 46.5796ZM80.963 47.9741C81.308 47.9741 81.5714 47.6808 81.5714 47.3502C81.5714 47.0191 81.311 46.7236 80.963 46.7236C80.617 46.7236 80.3538 47.0191 80.3538 47.3502C80.3538 47.6808 80.617 47.9741 80.963 47.9741ZM80.5808 47.7557V47.7184C80.6747 47.7049 80.6924 47.7073 80.6924 47.6499V47.0799C80.6924 46.9997 80.6844 46.9721 80.5838 46.9765V46.9373H80.9774C81.1126 46.9373 81.2372 47.0019 81.2372 47.1418C81.2372 47.256 81.162 47.3408 81.0554 47.3737L81.182 47.5501C81.2408 47.6297 81.308 47.7049 81.3511 47.7314V47.7557H81.2016C81.1297 47.7557 81.0661 47.6048 80.9252 47.4022H80.84V47.657C80.84 47.7073 80.8577 47.7049 80.9523 47.7184V47.7557H80.5808ZM80.84 47.3502H80.9307C81.0299 47.3502 81.0758 47.2753 81.0758 47.154C81.0758 47.0318 81.005 46.9884 80.9257 46.9884H80.84V47.3502Z" fill="#1A1919"/>
    <path fill-rule="evenodd" clip-rule="evenodd" d="M35.354 21.0066C35.354 14.1762 40.8911 8.63916 47.7212 8.63916C54.5515 8.63916 60.0886 14.1762 60.0886 21.0066C60.0886 27.837 54.5515 33.3743 47.7212 33.3743C40.8911 33.3743 35.354 27.837 35.354 21.0066Z" fill="white"/>
    <path fill-rule="evenodd" clip-rule="evenodd" d="M55.2004 20.7631C55.1955 17.596 53.2158 14.8949 50.4263 13.8252V27.7005C53.2158 26.6294 55.1955 23.9308 55.2004 20.7631ZM45.1048 27.6977V13.8266C42.3178 14.8996 40.3412 17.5968 40.3337 20.7631C40.3412 23.9286 42.3178 26.6255 45.1048 27.6977ZM47.7669 9.03531C41.2901 9.0378 36.0427 14.2863 36.0416 20.7631C36.0427 27.2391 41.2901 32.4868 47.7669 32.4879C54.2438 32.4868 59.4923 27.2391 59.4939 20.7631C59.4923 14.2863 54.2438 9.0378 47.7669 9.03531ZM47.7382 33.5947C40.6507 33.6284 34.8174 27.8865 34.8174 20.8969C34.8174 13.258 40.6507 7.97445 47.7382 7.97583H51.0595C58.0632 7.97445 64.4552 13.2555 64.4552 20.8969C64.4552 27.884 58.0632 33.5947 51.0595 33.5947H47.7382Z" fill="#0069AA"/>
</svg>
