<svg width="100" height="60" viewBox="0 0 100 60" fill="none"
    xmlns="http://www.w3.org/2000/svg">
    <rect width="100" height="60" fill="white"/>
    <rect width="100" height="60" rx="4" fill="white"/>
    <path fill-rule="evenodd" clip-rule="evenodd" d="M24.1152 59.9999H95.9998C98.209 59.9999 99.9998 58.2091 99.9998 55.9999V33.698C99.9998 33.698 73.1994 51.8679 24.1152 59.9999Z" fill="#E6772F"/>
    <mask id="mask0_14373_149085" style="mask-type:alpha" maskUnits="userSpaceOnUse" x="24" y="33" width="76" height="27">
        <path fill-rule="evenodd" clip-rule="evenodd" d="M24.1152 59.9999H95.9998C98.209 59.9999 99.9998 58.2091 99.9998 55.9999V33.698C99.9998 33.698 73.1994 51.8679 24.1152 59.9999Z" fill="white"/>
    </mask>
    <g mask="url(#mask0_14373_149085)">
    </g>
    <path fill-rule="evenodd" clip-rule="evenodd" d="M18.2885 29.8221C17.5378 30.464 16.5821 30.7447 15.0539 30.7447H14.4198V23.0847H15.0539C16.5821 23.0847 17.5011 23.3465 18.2885 24.0203C19.1013 24.7166 19.5897 25.7908 19.5897 26.9019C19.5897 28.0183 19.1013 29.1307 18.2885 29.8221ZM15.5273 21.1226H12.0576V32.7077H15.5061C17.3413 32.7077 18.666 32.2898 19.8271 31.3677C21.2063 30.2755 22.0247 28.6265 22.0247 26.9181C22.0247 23.4981 19.3546 21.1226 15.5273 21.1226Z" fill="#1A1919"/>
    <path fill-rule="evenodd" clip-rule="evenodd" d="M23.1138 21.1226H25.4665V32.7077H23.1138V21.1226Z" fill="#1A1919"/>
    <path fill-rule="evenodd" clip-rule="evenodd" d="M31.2446 25.5626C29.8245 25.0642 29.4094 24.7322 29.4094 24.1061C29.4094 23.3783 30.1512 22.8263 31.1713 22.8263C31.8782 22.8263 32.4607 23.0971 33.0812 23.7588L34.3095 22.2168C33.2946 21.3622 32.0799 20.9294 30.7557 20.9294C28.6131 20.9294 26.98 22.3558 26.98 24.2419C26.98 25.8433 27.7392 26.6557 29.9547 27.4271C30.8807 27.7352 31.3513 27.9458 31.5896 28.0883C32.0616 28.3803 32.2966 28.7986 32.2966 29.2822C32.2966 30.2245 31.5163 30.9173 30.4614 30.9173C29.3384 30.9173 28.4298 30.3793 27.8859 29.369L26.3638 30.7796C27.452 32.3054 28.7565 32.9873 30.5536 32.9873C33.0046 32.9873 34.7316 31.417 34.7316 29.1805C34.7316 27.3376 33.9306 26.5023 31.2446 25.5626Z" fill="#1A1919"/>
    <path fill-rule="evenodd" clip-rule="evenodd" d="M35.4731 26.9179C35.4731 30.3248 38.2678 32.9648 41.8653 32.9648C42.8797 32.9648 43.7493 32.7732 44.8202 32.2896V29.6272C43.8739 30.5371 43.0433 30.8961 41.9687 30.8961C39.5915 30.8961 37.9077 29.2502 37.9077 26.9017C37.9077 24.6827 39.646 22.9248 41.8653 22.9248C42.985 22.9248 43.8405 23.3045 44.8202 24.228V21.5686C43.7855 21.068 42.9366 20.8606 41.9137 20.8606C38.3369 20.8606 35.4731 23.5523 35.4731 26.9179Z" fill="#1A1919"/>
    <path fill-rule="evenodd" clip-rule="evenodd" d="M63.9486 28.9004L60.7201 21.1226H58.146L63.2783 33.0001H64.5442L69.7762 21.1226H67.2222L63.9486 28.9004Z" fill="#1A1919"/>
    <path fill-rule="evenodd" clip-rule="evenodd" d="M70.8477 32.7077H77.543V30.7447H73.2098V27.6175H77.3784V25.655H73.2098V23.0847H77.543V21.1226H70.8477V32.7077Z" fill="#1A1919"/>
    <path fill-rule="evenodd" clip-rule="evenodd" d="M82.1542 26.4498H81.4689V22.9457H82.1928C83.6679 22.9457 84.4581 23.5381 84.4581 24.6667C84.4581 25.8263 83.6679 26.4498 82.1542 26.4498ZM86.8893 24.5407C86.8893 22.3713 85.3343 21.1226 82.6083 21.1226H79.1016V32.7077H81.4689V28.0498H81.7758L85.0377 32.7077H87.9423L84.1333 27.8249C85.9135 27.4767 86.8893 26.3135 86.8893 24.5407Z" fill="#1A1919"/>
    <path fill-rule="evenodd" clip-rule="evenodd" d="M58.479 26.945C58.479 30.2804 55.6548 32.9839 52.1677 32.9839C48.6816 32.9839 45.8569 30.2804 45.8569 26.945C45.8569 23.6091 48.6816 20.9053 52.1677 20.9053C55.6548 20.9053 58.479 23.6091 58.479 26.945Z" fill="#E6772F"/>
</svg>
