<svg width="100" height="60" viewBox="0 0 100 60" fill="none"
    xmlns="http://www.w3.org/2000/svg">
    <rect width="100" height="60" fill="white"/>
    <rect width="100" height="60" rx="4" fill="white"/>
    <path fill-rule="evenodd" clip-rule="evenodd" d="M63.4867 30.8108H63.52H63.5843H63.6487H63.7131H63.7774H63.8418H63.9062H63.9705H64.0349H64.0993H64.1636H64.228H64.2924H64.3567H64.4211H64.4855H64.5498H64.6142H64.6786H64.7429H64.8073H64.8717H64.936H65.0004H65.0648H65.1291H65.1935H65.2579H65.3222H65.3866H65.451H65.5154H65.5797H65.6441H65.7085H65.7728H65.8372H65.9016H65.9659H66.0303H66.0947H66.159H66.2234H66.2878H66.3521H66.4165H66.4809H66.5452H66.6096H66.674H66.7383H66.8026H66.867H66.9314H66.9957H67.0601H67.1245H67.1889H67.2532H67.3176H67.3712L67.382 30.811C67.4018 30.8115 67.4235 30.8124 67.4463 30.8136C67.467 30.8148 67.4886 30.8162 67.5107 30.8179C67.5319 30.8194 67.5535 30.8212 67.5751 30.8232C67.5968 30.8252 67.6183 30.8274 67.6394 30.8297C67.6616 30.8322 67.6832 30.8348 67.7038 30.8375C67.7268 30.8406 67.7486 30.8438 67.7682 30.8472C67.7823 30.8496 67.7954 30.8521 67.8071 30.8546L67.8325 30.8603C67.8541 30.8653 67.8755 30.8708 67.8969 30.8767C67.9185 30.8827 67.9399 30.889 67.9613 30.8958C67.9829 30.9027 68.0043 30.91 68.0256 30.9177C68.0472 30.9256 68.0687 30.9338 68.09 30.9425C68.1116 30.9514 68.1331 30.9607 68.1544 30.9705C68.176 30.9804 68.1975 30.9907 68.2187 31.0015C68.2404 31.0125 68.2618 31.024 68.2831 31.036C68.3048 31.0482 68.3263 31.061 68.3475 31.0742C68.3692 31.0877 68.3907 31.1017 68.4118 31.1162C68.4336 31.1311 68.4551 31.1465 68.4762 31.1624C68.498 31.1789 68.5195 31.1959 68.5406 31.2134C68.5625 31.2317 68.5839 31.2505 68.6049 31.2698C68.6269 31.2901 68.6484 31.3107 68.6693 31.3321C68.6914 31.3545 68.7128 31.3777 68.7337 31.4015C68.7558 31.4267 68.7773 31.4526 68.798 31.4793C68.8204 31.5079 68.8418 31.5373 68.8624 31.5675C68.8849 31.6006 68.9064 31.6345 68.9268 31.6694C68.9497 31.7086 68.9712 31.7491 68.9911 31.7906C69.0148 31.8398 69.0364 31.8905 69.0555 31.9426C69.0813 32.0127 69.1029 32.0853 69.1199 32.1602C69.1493 32.2902 69.1652 32.427 69.1652 32.5699C69.1652 32.7135 69.1494 32.851 69.1199 32.9813C69.1029 33.0565 69.0813 33.1293 69.0555 33.1995C69.0363 33.2518 69.0148 33.3025 68.9911 33.3519C68.9712 33.3934 68.9497 33.4339 68.9268 33.4732C68.9064 33.5081 68.885 33.542 68.8624 33.5751C68.8418 33.6053 68.8203 33.6348 68.798 33.6634C68.7773 33.69 68.7558 33.7159 68.7337 33.7411C68.7128 33.7649 68.6914 33.788 68.6693 33.8105C68.6484 33.8319 68.6269 33.8525 68.6049 33.8727C68.5839 33.8919 68.5625 33.9106 68.5406 33.9288C68.5195 33.9463 68.4981 33.9633 68.4762 33.9798C68.4551 33.9956 68.4336 34.0109 68.4118 34.0258C68.3907 34.0403 68.3692 34.0542 68.3475 34.0676C68.3263 34.0808 68.3048 34.0935 68.2831 34.1056C68.2619 34.1175 68.2404 34.1289 68.2187 34.1399C68.1975 34.1506 68.176 34.1609 68.1544 34.1708C68.1331 34.1804 68.1116 34.1896 68.09 34.1984C68.0687 34.207 68.0472 34.2153 68.0256 34.223C68.0043 34.2306 67.9829 34.2378 67.9613 34.2446C67.9399 34.2513 67.9185 34.2576 67.8969 34.2635C67.8755 34.2692 67.8541 34.2746 67.8325 34.2796L67.8071 34.2853C67.7954 34.2879 67.7823 34.2906 67.7682 34.2931C67.7486 34.2965 67.7268 34.2998 67.7038 34.303C67.6832 34.3058 67.6616 34.3084 67.6394 34.3109C67.6183 34.3132 67.5968 34.3154 67.5751 34.3173C67.5535 34.3193 67.5319 34.321 67.5107 34.3225C67.4886 34.3241 67.467 34.3255 67.4463 34.3266C67.4235 34.3278 67.4018 34.3286 67.382 34.3291L67.3475 34.3295H67.3176H67.2532H67.1889H67.1245H67.0601H66.9957H66.9314H66.867H66.8026H66.7383H66.674H66.6096H66.5452H66.4809H66.4165H66.3521H66.2878H66.2234H66.159H66.0947H66.0303H65.9659H65.9016H65.8372H65.7728H65.7085H65.6441H65.5797H65.5154H65.451H65.3866H65.3222H65.2579H65.1935H65.1291H65.0648H65.0004H64.936H64.8717H64.8073H64.7429H64.6786H64.6142H64.5498H64.4855H64.4211H64.3567H64.2924H64.228H64.1636H64.0993H64.0349H63.9705H63.9062H63.8418H63.7774H63.7131H63.6487H63.5843H63.52H63.4867V30.8108ZM68.6695 26.8283C68.6954 26.9464 68.7093 27.0715 68.7093 27.2032C68.7093 27.3347 68.6954 27.4598 68.6695 27.5778C68.6529 27.6536 68.6313 27.7265 68.6051 27.7964C68.586 27.8474 68.5645 27.8967 68.5408 27.9444C68.5209 27.9844 68.4994 28.0231 68.4764 28.0607C68.4561 28.0938 68.4346 28.1261 68.412 28.1573C68.3914 28.1858 68.37 28.2135 68.3477 28.2403C68.3269 28.2653 68.3055 28.2895 68.2833 28.313C68.2625 28.3351 68.241 28.3565 68.219 28.3773C68.198 28.397 68.1766 28.4162 68.1546 28.4347C68.1336 28.4524 68.1121 28.4695 68.0903 28.4861C68.0692 28.5021 68.0477 28.5175 68.0259 28.5325C68.0048 28.5469 67.9833 28.5608 67.9615 28.5742C67.9403 28.5872 67.9189 28.5997 67.8972 28.6117C67.876 28.6235 67.8545 28.6348 67.8328 28.6455C67.8116 28.6561 67.7901 28.6662 67.7684 28.6759C67.7472 28.6853 67.7257 28.6943 67.7041 28.7028C67.6828 28.7112 67.6613 28.7191 67.6397 28.7267C67.6184 28.7341 67.597 28.7411 67.5754 28.7476C67.554 28.754 67.5326 28.7601 67.511 28.7657C67.4897 28.7713 67.4682 28.7764 67.4466 28.7811C67.4253 28.7858 67.4038 28.7899 67.3823 28.7938L67.3666 28.7966C67.3541 28.7988 67.3374 28.8012 67.3179 28.8037C67.2989 28.8061 67.277 28.8086 67.2535 28.811C67.2331 28.813 67.2115 28.8151 67.1892 28.8169C67.1681 28.8187 67.1464 28.8202 67.1248 28.8216C67.1032 28.823 67.0815 28.8242 67.0604 28.825C67.0381 28.8259 67.0164 28.8265 66.9961 28.8266L66.9859 28.8267H66.9317H66.8673H66.803H66.7386H66.6742H66.6099H66.5455H66.4812H66.4168H66.3524H66.2881H66.2237H66.1593H66.095H66.0306H65.9662H65.9019H65.8375H65.7731H65.7088H65.6444H65.58H65.5157H65.4513H65.3869H65.3226H65.2582H65.1939H65.1295H65.0651H65.0008H64.9364H64.872H64.8077H64.7433H64.6789H64.6146H64.5503H64.4858H64.4215H64.3572H64.2928H64.2284H64.1641H64.0997H64.0353H63.971H63.9066H63.8422H63.7779H63.7135H63.6491H63.5848H63.5204H63.4867V25.5796H63.5204H63.5848H63.6491H63.7135H63.7779H63.8422H63.9066H63.971H64.0353H64.0997H64.1641H64.2284H64.2928H64.3572H64.4215H64.4858H64.5503H64.6146H64.6789H64.7433H64.8077H64.872H64.9364H65.0008H65.0651H65.1295H65.1939H65.2582H65.3226H65.3869H65.4513H65.5157H65.58H65.6444H65.7088H65.7731H65.8375H65.9019H65.9662H66.0306H66.095H66.1593H66.2237H66.2881H66.3524H66.4168H66.4812H66.5455H66.6099H66.6742H66.7386H66.803H66.8673H66.9317H66.9961H67.0232L67.0604 25.5808C67.0815 25.5817 67.1032 25.5829 67.1248 25.5843C67.1464 25.5857 67.1681 25.5873 67.1892 25.589C67.2115 25.5908 67.2331 25.5929 67.2535 25.5948C67.277 25.5971 67.2989 25.5994 67.3179 25.6016C67.3374 25.6039 67.3541 25.606 67.3666 25.6077L67.3823 25.6106C67.4038 25.6145 67.4253 25.6188 67.4466 25.6235C67.4682 25.6283 67.4897 25.6335 67.511 25.6391C67.5326 25.6448 67.554 25.6508 67.5754 25.6573C67.597 25.6639 67.6184 25.671 67.6397 25.6784C67.6613 25.686 67.6828 25.694 67.7041 25.7024C67.7257 25.711 67.7472 25.7201 67.7684 25.7295C67.7901 25.7392 67.8116 25.7493 67.8328 25.7599C67.8545 25.7707 67.876 25.782 67.8972 25.7937C67.9189 25.8058 67.9403 25.8183 67.9615 25.8314C67.9833 25.8448 68.0048 25.8586 68.0259 25.8731C68.0477 25.888 68.0692 25.9036 68.0903 25.9196C68.1121 25.9362 68.1336 25.9533 68.1546 25.971C68.1766 25.9896 68.198 26.0087 68.219 26.0285C68.241 26.0492 68.2625 26.0706 68.2833 26.0927C68.3055 26.1162 68.3269 26.1405 68.3477 26.1654C68.37 26.1923 68.3914 26.22 68.412 26.2485C68.4346 26.2797 68.4561 26.3119 68.4764 26.3451C68.4994 26.3826 68.5209 26.4214 68.5408 26.4614C68.5645 26.509 68.586 26.5585 68.6051 26.6095C68.6313 26.6794 68.6529 26.7524 68.6695 26.8283ZM76.6519 9.99072H76.6783L76.6782 43.3396C76.6782 43.5388 76.669 43.7359 76.6519 43.9307C76.6368 44.1021 76.6153 44.2717 76.5875 44.4392C76.5688 44.5517 76.5473 44.6632 76.5231 44.7738C76.5034 44.8637 76.482 44.953 76.4587 45.0415C76.4386 45.1179 76.4171 45.1938 76.3944 45.269C76.3738 45.3371 76.3526 45.4049 76.33 45.4721C76.3094 45.5329 76.2878 45.5933 76.2656 45.6535C76.2449 45.7094 76.2234 45.765 76.2012 45.8203C76.1804 45.8722 76.159 45.9238 76.1369 45.9751C76.1159 46.0236 76.0944 46.0719 76.0725 46.1199C76.0515 46.1655 76.03 46.211 76.0081 46.2561C75.987 46.2993 75.9656 46.3424 75.9437 46.385C75.9227 46.426 75.9012 46.4667 75.8794 46.5071C75.8583 46.546 75.8367 46.5845 75.815 46.6229C75.7939 46.6601 75.7724 46.697 75.7506 46.7337C75.7294 46.7695 75.708 46.805 75.6862 46.8403C75.665 46.8747 75.6436 46.909 75.6218 46.943C75.6007 46.9759 75.5791 47.0085 75.5574 47.0409C75.5363 47.0725 75.5147 47.1038 75.4931 47.1351C75.4718 47.1658 75.4504 47.1963 75.4287 47.2266C75.4074 47.2562 75.386 47.2856 75.3643 47.3149C75.3431 47.3434 75.3215 47.3715 75.2999 47.3996C75.2786 47.4273 75.2572 47.4549 75.2356 47.4823C75.2143 47.5091 75.1929 47.5357 75.1712 47.5622C75.1499 47.5881 75.1284 47.6137 75.1068 47.6393C75.0854 47.6646 75.0642 47.69 75.0424 47.715C75.0212 47.7393 74.9996 47.7634 74.9781 47.7875C74.9568 47.8113 74.9353 47.8349 74.9137 47.8584C74.8923 47.8815 74.871 47.9046 74.8493 47.9275C74.8281 47.9499 74.8065 47.9719 74.7849 47.9941C74.7635 48.016 74.7422 48.0381 74.7205 48.0598C74.6993 48.081 74.6777 48.1017 74.6562 48.1227C74.6348 48.1434 74.6134 48.1642 74.5918 48.1847C74.5705 48.2048 74.549 48.2247 74.5274 48.2446C74.5061 48.2643 74.4846 48.2838 74.463 48.3032C74.4417 48.3224 74.4203 48.3414 74.3987 48.3603C74.3773 48.379 74.3558 48.3974 74.3343 48.4158C74.3129 48.4341 74.2915 48.4523 74.2699 48.4703C74.2486 48.488 74.2271 48.5054 74.2055 48.5229C74.1841 48.5402 74.1628 48.5576 74.1412 48.5747C74.1199 48.5915 74.0983 48.608 74.0768 48.6246C74.0554 48.6411 74.034 48.6577 74.0124 48.6739C73.9911 48.6899 73.9695 48.7056 73.948 48.7214C73.9266 48.7371 73.9052 48.753 73.8836 48.7684C73.8623 48.7837 73.8408 48.7985 73.8193 48.8135C73.7978 48.8284 73.7765 48.8435 73.7549 48.8582C73.7335 48.8727 73.712 48.8868 73.6905 48.9011C73.6691 48.9153 73.6477 48.9296 73.6261 48.9435C73.6048 48.9574 73.5833 48.9709 73.5618 48.9845C73.5404 48.998 73.5189 49.0115 73.4974 49.0247C73.476 49.0378 73.4546 49.0508 73.433 49.0637L73.3686 49.1018C73.3472 49.1143 73.3258 49.1268 73.3043 49.139C73.2829 49.1512 73.2614 49.1631 73.2399 49.1751C73.2184 49.187 73.1971 49.199 73.1755 49.2106C73.1542 49.2221 73.1326 49.2333 73.1111 49.2446C73.0896 49.2559 73.0683 49.2675 73.0467 49.2786C73.0254 49.2895 73.0038 49.2999 72.9824 49.3106C72.9609 49.3214 72.9396 49.3321 72.918 49.3426C72.8966 49.3529 72.8751 49.3631 72.8536 49.3732L72.7892 49.4033L72.7249 49.4325C72.7035 49.4421 72.682 49.4513 72.6605 49.4607C72.639 49.47 72.6177 49.4795 72.5961 49.4886C72.5748 49.4976 72.5532 49.5061 72.5317 49.5149C72.5103 49.5236 72.4889 49.5326 72.4674 49.5412C72.446 49.5497 72.4245 49.5577 72.403 49.566C72.3816 49.5742 72.3602 49.5824 72.3386 49.5904L72.2742 49.6142C72.2528 49.6219 72.2313 49.6294 72.2098 49.6369C72.1884 49.6444 72.1671 49.6522 72.1455 49.6595C72.1241 49.6667 72.1025 49.6734 72.0811 49.6804L72.0167 49.7013C71.9953 49.708 71.9738 49.7145 71.9523 49.7211L71.888 49.7403C71.8665 49.7466 71.8451 49.753 71.8236 49.7591C71.8022 49.7651 71.7807 49.7707 71.7592 49.7765C71.7378 49.7824 71.7164 49.7883 71.6948 49.7939L71.6305 49.8102L71.5661 49.8259L71.5017 49.8412C71.4803 49.8461 71.4588 49.8505 71.4373 49.8552C71.4159 49.8599 71.3945 49.8648 71.3729 49.8693L71.3086 49.8821L71.2442 49.8945C71.2227 49.8985 71.2013 49.9028 71.1798 49.9066C71.1584 49.9104 71.1369 49.9137 71.1154 49.9172L71.0511 49.9279L70.9867 49.9376L70.9223 49.9466C70.9008 49.9495 70.8795 49.9528 70.8579 49.9556C70.8365 49.9583 70.815 49.9605 70.7936 49.963C70.7721 49.9655 70.7507 49.968 70.7292 49.9703C70.7077 49.9726 70.6863 49.975 70.6648 49.9771C70.6434 49.9791 70.6219 49.9809 70.6004 49.9828C70.5789 49.9846 70.5575 49.9868 70.536 49.9885C70.5146 49.9901 70.4931 49.9915 70.4717 49.993L70.4073 49.997C70.3858 49.9983 70.3644 49.9998 70.3429 50.0009C70.3215 50.002 70.3 50.0025 70.2785 50.0034L70.2142 50.0058L70.1498 50.0075C70.1284 50.0079 70.1069 50.008 70.0854 50.0083L70.021 50.0091L70.0077 50.0093H69.9567H69.8923H69.8279H69.7635H69.6991H69.6348H69.5704H69.506H69.4416H69.3773H69.3129H69.2485H69.1841H69.1198H69.0554H68.991H68.9266H68.8622H68.7979H68.7335H68.6691H68.6047H68.5404H68.476H68.4116H68.3472H68.2829H68.2185H68.1541H68.0897H68.0253H67.961H67.8966H67.8322H67.7678H67.7035H67.6391H67.5747H67.5103H67.446H67.3816H67.3172H67.2528H67.1884H67.1241H67.0597H66.9953H66.9309H66.8666H66.8022H66.7378H66.6734H66.6091H66.5447H66.4803H66.4159H66.3515H66.2872H66.2228H66.1584H66.094H66.0297H65.9653H65.9009H65.8365H65.7722H65.7078H65.6434H65.579H65.5146H65.4503H65.3859H65.3215H65.2571H65.1928H65.1284H65.064H64.9996H64.9353H64.8709H64.8065H64.7421H64.6777H64.6134H64.549H64.4846H64.4202H64.3559H64.2915H64.2271H64.1627H64.0984H64.034H63.9696H63.9052H63.8408H63.7765H63.7121H63.6477H63.5833H63.519H63.4546H63.3902H63.3258H63.2615H63.1971H63.1327H63.0683H63.0039H62.9396H62.8752H62.8108H62.7464H62.6821H62.6177H62.5533H62.4889H62.4246H62.3602H62.2958H62.2314H62.167H62.1027H62.0383H61.9739H61.9095H61.8452H61.7808H61.7164H61.652H61.5877H61.5233H61.4589H61.3945H61.3301H61.2658H61.2014H61.137H61.0726H61.0083H60.9439H60.8795H60.8151H60.7508H60.6864H60.622H60.5576H60.4932H60.4289H60.3645H60.2256V36.4118H60.3645H60.4289H60.4932H60.5576H60.622H60.6864H60.7508H60.8151H60.8795H60.9439H61.0083H61.0726H61.137H61.2014H61.2658H61.3301H61.3945H61.4589H61.5233H61.5877H61.652H61.7164H61.7808H61.8452H61.9095H61.9739H62.0383H62.1027H62.167H62.2314H62.2958H62.3602H62.4246H62.4889H62.5533H62.6177H62.6821H62.7464H62.8108H62.8752H62.9396H63.0039H63.0683H63.1327H63.1971H63.2615H63.3258H63.3902H63.4546H63.519H63.5833H63.6477H63.7121H63.7765H63.8408H63.9052H63.9696H64.034H64.0984H64.1627H64.2271H64.2915H64.3559H64.4202H64.4846H64.549H64.6134H64.6777H64.7421H64.8065H64.8709H64.9353H64.9996H65.064H65.1284H65.1928H65.2571H65.3215H65.3859H65.4503H65.5146H65.579H65.6434H65.7078H65.7722H65.8365H65.9009H65.9653H66.0297H66.094H66.1584H66.2228H66.2872H66.3515H66.4159H66.4803H66.5447H66.6091H66.6734H66.7378H66.8022H66.8666H66.9309H66.9953H67.0597H67.1241H67.1884H67.2528H67.3172H67.3816H67.446H67.5103H67.5747H67.6391H67.7035H67.7678H67.8322H67.8966H67.961H68.0253H68.0897H68.1541H68.2185H68.2829H68.3472H68.4116H68.476H68.5404H68.6047H68.6691H68.7335H68.7979H68.8622H68.9266H68.991H69.0554H69.1198H69.1841H69.2485H69.3129H69.3773H69.4416H69.506H69.5704H69.6348H69.6991H69.7635H69.8279H69.8923H69.9567H70.021H70.0854H70.1498H70.2142H70.2785H70.3429H70.4073H70.4717H70.536H70.5702L70.6004 36.4115L70.6648 36.411L70.7292 36.4097C70.7507 36.4091 70.7722 36.4088 70.7936 36.4081C70.8151 36.4073 70.8365 36.4063 70.8579 36.4053L70.9223 36.4024L70.9867 36.3985L71.0511 36.394L71.1154 36.389L71.1798 36.3831C71.2013 36.3811 71.2228 36.3791 71.2442 36.3769C71.2657 36.3746 71.2871 36.3721 71.3086 36.3695L71.3729 36.3617C71.3945 36.3589 71.4159 36.3563 71.4373 36.3533C71.4589 36.3503 71.4803 36.347 71.5017 36.3438C71.5232 36.3405 71.5447 36.3373 71.5661 36.3338L71.6305 36.323L71.6948 36.3114C71.7163 36.3074 71.7379 36.3035 71.7592 36.2993C71.7808 36.2951 71.8022 36.2905 71.8236 36.286L71.888 36.2721C71.9095 36.2673 71.931 36.2625 71.9523 36.2574C71.9739 36.2524 71.9953 36.247 72.0167 36.2416C72.0382 36.2363 72.0597 36.2309 72.0811 36.2253C72.1026 36.2196 72.1241 36.2139 72.1455 36.208C72.167 36.2021 72.1884 36.1959 72.2098 36.1896C72.2314 36.1834 72.2529 36.177 72.2742 36.1705L72.3386 36.1504C72.3602 36.1435 72.3816 36.1363 72.403 36.1291C72.4245 36.1219 72.446 36.1146 72.4674 36.1071C72.4889 36.0995 72.5104 36.0919 72.5317 36.0841C72.5534 36.0761 72.5747 36.0678 72.5961 36.0596C72.6177 36.0513 72.6391 36.0428 72.6605 36.0343C72.682 36.0256 72.7036 36.0169 72.7249 36.0079C72.7465 35.9989 72.7679 35.9896 72.7892 35.9802C72.8108 35.9707 72.8323 35.961 72.8536 35.9512C72.8752 35.9413 72.8967 35.9313 72.918 35.9211C72.9395 35.9108 72.9611 35.9004 72.9824 35.8898C73.004 35.8789 73.0254 35.8679 73.0467 35.8568C73.0683 35.8455 73.0898 35.834 73.1111 35.8223C73.1328 35.8105 73.1542 35.7986 73.1755 35.7865C73.1971 35.7742 73.2186 35.7618 73.2399 35.7492C73.2615 35.7364 73.283 35.7235 73.3043 35.7103C73.3259 35.6968 73.3473 35.6831 73.3686 35.6693C73.3903 35.6552 73.4117 35.6409 73.433 35.6264C73.4547 35.6118 73.4761 35.5968 73.4974 35.5817C73.5191 35.5663 73.5405 35.5507 73.5618 35.5349C73.5835 35.5188 73.6049 35.5025 73.6261 35.486C73.6478 35.469 73.6693 35.4519 73.6905 35.4346C73.7122 35.4168 73.7337 35.3988 73.7549 35.3806C73.7766 35.362 73.7981 35.343 73.8193 35.3238C73.841 35.3041 73.8625 35.2841 73.8836 35.2639C73.9054 35.2431 73.9269 35.2221 73.948 35.2007C73.9699 35.1786 73.9913 35.1563 74.0124 35.1337C74.0342 35.1103 74.0557 35.0866 74.0768 35.0626C74.0986 35.0377 74.1201 35.0125 74.1412 34.9869C74.1631 34.9603 74.1845 34.9333 74.2055 34.9061C74.2274 34.8775 74.2491 34.8487 74.2699 34.8194C74.2921 34.7883 74.3133 34.7567 74.3343 34.7248C74.3564 34.6909 74.3779 34.6567 74.3987 34.622C74.421 34.5847 74.4424 34.5469 74.463 34.5086C74.4854 34.4669 74.507 34.4248 74.5274 34.3819C74.5502 34.334 74.5716 34.2854 74.5918 34.2361C74.6149 34.1795 74.6365 34.1222 74.6562 34.0639C74.6804 33.9919 74.7017 33.9186 74.7205 33.8439C74.748 33.7348 74.7695 33.6228 74.7849 33.5081C74.8036 33.3689 74.8134 33.2258 74.8134 33.0788C74.8134 32.9357 74.8037 32.7966 74.7849 32.6616C74.7695 32.5507 74.7479 32.4425 74.7205 32.3372C74.7018 32.2655 74.6803 32.1951 74.6562 32.126C74.6364 32.0694 74.615 32.0136 74.5918 31.9589C74.5716 31.9114 74.5501 31.8647 74.5274 31.8187C74.507 31.7773 74.4855 31.7365 74.463 31.6963C74.4424 31.6592 74.421 31.6226 74.3987 31.5866C74.378 31.5532 74.3564 31.5202 74.3343 31.4876C74.3134 31.4569 74.292 31.4264 74.2699 31.3965C74.2491 31.3682 74.2275 31.3404 74.2055 31.3128C74.1845 31.2865 74.1631 31.2605 74.1412 31.2348C74.1201 31.2101 74.0987 31.1857 74.0768 31.1616C74.0557 31.1385 74.0343 31.1156 74.0124 31.093C73.9913 31.0712 73.9698 31.0498 73.948 31.0286C73.9269 31.008 73.9054 30.9876 73.8836 30.9676C73.8625 30.9481 73.841 30.9289 73.8193 30.9099C73.7981 30.8914 73.7766 30.8731 73.7549 30.855C73.7337 30.8374 73.7122 30.82 73.6905 30.8029C73.6693 30.7861 73.6478 30.7695 73.6261 30.7532C73.6049 30.7372 73.5834 30.7214 73.5618 30.7058C73.5405 30.6905 73.519 30.6754 73.4974 30.6606C73.4761 30.646 73.4547 30.6315 73.433 30.6173C73.4117 30.6033 73.3903 30.5895 73.3686 30.5759C73.3473 30.5625 73.3259 30.5493 73.3043 30.5363C73.283 30.5235 73.2615 30.5109 73.2399 30.4985C73.2186 30.4863 73.1971 30.4742 73.1755 30.4623C73.1542 30.4506 73.1328 30.4391 73.1111 30.4277C73.0898 30.4165 73.0683 30.4054 73.0467 30.3944C73.0254 30.3836 73.004 30.3729 72.9824 30.3623C72.961 30.352 72.9396 30.3417 72.918 30.3316C72.8967 30.3217 72.8752 30.312 72.8536 30.3024C72.8323 30.2929 72.8108 30.2836 72.7892 30.2744C72.7679 30.2652 72.7464 30.2563 72.7249 30.2474C72.7035 30.2387 72.6821 30.2299 72.6605 30.2214C72.6391 30.2131 72.6177 30.2048 72.5961 30.1967C72.5748 30.1887 72.5533 30.1809 72.5317 30.1731C72.5104 30.1655 72.4889 30.158 72.4674 30.1505C72.446 30.1432 72.4246 30.1359 72.403 30.1287C72.3816 30.1217 72.3602 30.1148 72.3386 30.108C72.3173 30.1013 72.2957 30.0948 72.2742 30.0883L72.2098 30.0694C72.1884 30.0633 72.167 30.0571 72.1455 30.0513C72.1241 30.0455 72.1026 30.0399 72.0811 30.0343C72.0597 30.0288 72.0383 30.0234 72.0167 30.0181C71.9953 30.0128 71.9739 30.0076 71.9523 30.0026C71.931 29.9975 71.9095 29.9927 71.888 29.9879C71.8666 29.9832 71.8451 29.9787 71.8236 29.9742C71.8022 29.9697 71.7808 29.9652 71.7592 29.961L71.6948 29.9487L71.6305 29.9372C71.6091 29.9335 71.5876 29.9297 71.5661 29.9263L71.5017 29.9161C71.4803 29.9129 71.4588 29.9098 71.4373 29.9068L71.3729 29.898L71.3086 29.8899L71.2442 29.8827L71.1798 29.8759L71.1154 29.8699L71.0511 29.8645L70.9916 29.8599L70.9916 29.7828L71.0511 29.7736L71.1154 29.7629C71.137 29.7593 71.1585 29.7556 71.1798 29.7517L71.2442 29.7393C71.2658 29.735 71.2872 29.7306 71.3086 29.7261L71.3729 29.712C71.3945 29.7072 71.416 29.7023 71.4373 29.6972C71.4589 29.6919 71.4803 29.6865 71.5017 29.681C71.5233 29.6755 71.5447 29.6698 71.5661 29.664C71.5876 29.6581 71.6091 29.6522 71.6305 29.646C71.652 29.6398 71.6735 29.6336 71.6948 29.6271C71.7164 29.6206 71.7379 29.6139 71.7592 29.6071C71.7808 29.6001 71.8022 29.593 71.8236 29.5858C71.8452 29.5785 71.8666 29.571 71.888 29.5634C71.9096 29.5557 71.931 29.5479 71.9523 29.5399C71.9739 29.5318 71.9954 29.5236 72.0167 29.5152C72.0383 29.5067 72.0598 29.498 72.0811 29.4892C72.1027 29.4803 72.1242 29.4712 72.1455 29.4619C72.1671 29.4525 72.1885 29.4429 72.2098 29.4331C72.2315 29.4232 72.2529 29.4131 72.2742 29.4028C72.2959 29.3924 72.3173 29.3818 72.3386 29.3711C72.3602 29.3602 72.3817 29.3491 72.403 29.3378C72.4246 29.3263 72.4461 29.3146 72.4674 29.3028C72.489 29.2908 72.5105 29.2786 72.5317 29.2662C72.5534 29.2535 72.5749 29.2407 72.5961 29.2277C72.6178 29.2144 72.6392 29.2009 72.6605 29.1873C72.6822 29.1734 72.7036 29.1591 72.7249 29.1448C72.7466 29.1301 72.768 29.1152 72.7892 29.1001C72.811 29.0846 72.8324 29.069 72.8536 29.0531C72.8754 29.0369 72.8968 29.0204 72.918 29.0037C72.9397 28.9865 72.9612 28.9693 72.9824 28.9517C73.0041 28.9335 73.0256 28.9151 73.0467 28.8965C73.0686 28.8773 73.09 28.8578 73.1111 28.8381C73.1329 28.8178 73.1544 28.7972 73.1755 28.7764C73.1973 28.7548 73.2188 28.7331 73.2399 28.711C73.2618 28.688 73.2832 28.6647 73.3043 28.6411C73.3262 28.6166 73.3476 28.5917 73.3686 28.5665C73.3906 28.5402 73.4121 28.5135 73.433 28.4866C73.455 28.4582 73.4765 28.4293 73.4974 28.4002C73.5195 28.3693 73.541 28.3381 73.5618 28.3065C73.584 28.2727 73.6055 28.2387 73.6261 28.2042C73.6485 28.1668 73.67 28.129 73.6905 28.0907C73.7131 28.0486 73.7345 28.006 73.7549 27.963C73.7778 27.9145 73.7992 27.8654 73.8193 27.8157C73.8426 27.7579 73.8641 27.6993 73.8836 27.6399C73.9082 27.5652 73.9297 27.4894 73.948 27.4125C73.9777 27.2879 73.9992 27.1606 74.0124 27.0312C74.0229 26.9291 74.0283 26.8256 74.0283 26.721C74.0283 26.6106 74.0228 26.503 74.0124 26.3981C73.9991 26.2639 73.9775 26.1344 73.948 26.0093C73.9296 25.9312 73.9081 25.8548 73.8836 25.7804C73.864 25.7208 73.8426 25.6623 73.8193 25.605C73.7991 25.5557 73.7777 25.5072 73.7549 25.4596C73.7345 25.4171 73.713 25.3753 73.6905 25.3342C73.6699 25.2966 73.6484 25.2596 73.6261 25.2231C73.6054 25.1892 73.584 25.1558 73.5618 25.123C73.541 25.0922 73.5195 25.0619 73.4974 25.032C73.4765 25.0037 73.455 24.9758 73.433 24.9483C73.412 24.9221 73.3906 24.8961 73.3686 24.8705C73.3476 24.8462 73.3261 24.8224 73.3043 24.7988C73.2832 24.776 73.2617 24.7536 73.2399 24.7315C73.2188 24.7101 73.1973 24.6891 73.1755 24.6684C73.1544 24.6482 73.1329 24.6283 73.1111 24.6088C73.09 24.5899 73.0685 24.5711 73.0467 24.5527C73.0255 24.5347 73.0041 24.517 72.9824 24.4996C72.9612 24.4826 72.9397 24.4658 72.918 24.4493C72.8968 24.4332 72.8753 24.4174 72.8536 24.4017C72.8324 24.3864 72.8109 24.3714 72.7892 24.3565C72.768 24.342 72.7466 24.3277 72.7249 24.3135C72.7036 24.2997 72.6821 24.286 72.6605 24.2726C72.6392 24.2594 72.6177 24.2464 72.5961 24.2336C72.5748 24.221 72.5534 24.2086 72.5317 24.1964C72.5105 24.1844 72.489 24.1726 72.4674 24.1609C72.4461 24.1495 72.4246 24.1383 72.403 24.1271C72.3817 24.1162 72.3602 24.1054 72.3386 24.0948C72.3173 24.0843 72.2959 24.0739 72.2742 24.0638C72.2529 24.0538 72.2314 24.044 72.2098 24.0344C72.1885 24.0249 72.1671 24.0157 72.1455 24.0065C72.1242 23.9974 72.1026 23.9885 72.0811 23.9797C72.0598 23.971 72.0383 23.9625 72.0167 23.9541C71.9954 23.9459 71.9739 23.9376 71.9523 23.9296C71.931 23.9217 71.9096 23.914 71.888 23.9064C71.8666 23.8988 71.8452 23.8915 71.8236 23.8843C71.8022 23.8771 71.7808 23.8701 71.7592 23.8633C71.7379 23.8564 71.7164 23.8497 71.6948 23.8431C71.6734 23.8366 71.6521 23.8301 71.6305 23.8239C71.6091 23.8177 71.5876 23.8118 71.5661 23.806C71.5447 23.8001 71.5233 23.7944 71.5017 23.7888L71.4373 23.7724C71.4159 23.7672 71.3945 23.762 71.3729 23.757C71.3516 23.752 71.3301 23.7472 71.3086 23.7425L71.2442 23.7288C71.2228 23.7244 71.2014 23.7199 71.1798 23.7157C71.1585 23.7116 71.1369 23.7077 71.1154 23.7038L71.0511 23.6925C71.0297 23.6888 71.0083 23.6852 70.9867 23.6817L70.9223 23.672L70.8579 23.6629L70.7936 23.6544L70.7292 23.6467L70.6648 23.6398L70.6004 23.6333L70.536 23.6277L70.4717 23.6227L70.4073 23.6181L70.3429 23.6145L70.3174 23.613L70.2785 23.6106L70.2142 23.6068L70.1498 23.6033L70.0854 23.5999L70.021 23.5968L69.9567 23.594L69.8923 23.5917L69.8279 23.5897L69.7635 23.5883L69.6991 23.5874L69.6636 23.5873H69.6348H69.5704H69.506H69.4416H69.3773H69.3129H69.2485H69.1841H69.1198H69.0554H68.991H68.9266H68.8622H68.7979H68.7335H68.6691H68.6047H68.5404H68.476H68.4116H68.3472H68.2829H68.2185H68.1541H68.0897H68.0253H67.961H67.8966H67.8322H67.7678H67.7035H67.6391H67.5747H67.5103H67.446H67.3816H67.3172H67.2528H67.1884H67.1241H67.0597H66.9953H66.9309H66.8666H66.8022H66.7378H66.6734H66.6091H66.5447H66.4803H66.4159H66.3515H66.2872H66.2228H66.1584H66.094H66.0297H65.9653H65.9009H65.8365H65.7722H65.7078H65.6434H65.579H65.5146H65.4503H65.3859H65.3215H65.2571H65.1928H65.1284H65.064H64.9996H64.9353H64.8709H64.8065H64.7421H64.6777H64.6134H64.549H64.4846H64.4202H64.3559H64.2915H64.2271H64.1627H64.0984H64.034H63.9696H63.9052H63.8408H63.7765H63.7121H63.6477H63.5833H63.519H63.4546H63.3902H63.3258H63.2615H63.1971H63.1327H63.0683H63.0039H62.9396H62.8752H62.8108H62.7464H62.6821H62.6177H62.5533H62.4889H62.4246H62.3602H62.2958H62.2314H62.167H62.1027H62.0383H61.9739H61.9095H61.8452H61.7808H61.7164H61.652H61.5877H61.5233H61.4589H61.3945H61.3301H61.2658H61.2014H61.137H61.0726H61.0083H60.9439H60.8795H60.8151H60.7508H60.6864H60.622H60.5576H60.4932H60.4289H60.3645H60.2256V16.661C60.2256 16.1951 60.2736 15.7404 60.3645 15.3014C60.384 15.2073 60.4055 15.1141 60.4289 15.0217C60.4489 14.9425 60.4704 14.864 60.4932 14.786C60.5136 14.7164 60.5351 14.6473 60.5576 14.5786C60.5782 14.5158 60.5996 14.4534 60.622 14.3915C60.6427 14.3341 60.6641 14.277 60.6864 14.2203C60.7072 14.1674 60.7286 14.1148 60.7508 14.0625C60.7717 14.0132 60.7931 13.9641 60.8151 13.9154C60.836 13.8692 60.8576 13.8232 60.8795 13.7775C60.9004 13.7339 60.922 13.6907 60.9439 13.6476C60.9649 13.6062 60.9865 13.5651 61.0083 13.5242C61.0293 13.4848 61.0508 13.4456 61.0726 13.4067C61.0938 13.3689 61.1152 13.3314 61.137 13.2941C61.1582 13.258 61.1795 13.2219 61.2014 13.1862C61.2226 13.1516 61.244 13.1173 61.2658 13.0831C61.2868 13.0499 61.3085 13.0171 61.3301 12.9844C61.3514 12.9524 61.3728 12.9205 61.3945 12.8888C61.4158 12.8578 61.437 12.8268 61.4589 12.7962C61.4801 12.7665 61.5017 12.7372 61.5233 12.708C61.5445 12.6791 61.566 12.6505 61.5877 12.6221C61.609 12.5941 61.6303 12.566 61.652 12.5383C61.6732 12.5114 61.6949 12.485 61.7164 12.4584C61.7377 12.4322 61.7591 12.4062 61.7808 12.3804C61.8021 12.3549 61.8235 12.3294 61.8452 12.3042C61.8664 12.2797 61.888 12.2555 61.9095 12.2313C61.9309 12.2073 61.9522 12.1832 61.9739 12.1596C61.9952 12.1363 62.0167 12.1134 62.0383 12.0904C62.0596 12.0678 62.0811 12.0453 62.1027 12.023C62.124 12.0009 62.1454 11.9789 62.167 11.9571C62.1883 11.9357 62.2099 11.9147 62.2314 11.8936C62.2528 11.8726 62.2741 11.8514 62.2958 11.8308C62.317 11.8106 62.3387 11.7908 62.3602 11.7709C62.3816 11.751 62.4029 11.7311 62.4246 11.7115C62.4459 11.6923 62.4674 11.6734 62.4889 11.6544C62.5103 11.6356 62.5317 11.6168 62.5533 11.5982C62.5747 11.5799 62.5961 11.5619 62.6177 11.5438C62.6391 11.5259 62.6605 11.5081 62.6821 11.4905C62.7034 11.4731 62.7249 11.4558 62.7464 11.4387L62.8108 11.3881L62.8752 11.3388C62.8966 11.3226 62.918 11.3065 62.9396 11.2906C62.9609 11.2749 62.9824 11.2592 63.0039 11.2437L63.0683 11.198C63.0897 11.183 63.1111 11.1681 63.1327 11.1534L63.1971 11.1098L63.2615 11.0674C63.2829 11.0534 63.3043 11.0396 63.3258 11.0259L63.3902 10.9857C63.4117 10.9724 63.433 10.9591 63.4546 10.9461C63.4759 10.9332 63.4975 10.9206 63.519 10.908C63.5404 10.8953 63.5617 10.8826 63.5833 10.8702C63.6046 10.858 63.6263 10.8462 63.6477 10.8342C63.6692 10.8222 63.6905 10.81 63.7121 10.7982C63.7334 10.7866 63.755 10.7754 63.7765 10.7641C63.7979 10.7527 63.8193 10.7413 63.8408 10.7301C63.8622 10.7191 63.8837 10.7084 63.9052 10.6976C63.9266 10.6869 63.9481 10.6761 63.9696 10.6656L64.034 10.6345C64.0554 10.6243 64.0769 10.6144 64.0984 10.6044C64.1198 10.5945 64.1412 10.5844 64.1627 10.5747C64.1841 10.5651 64.2057 10.5559 64.2271 10.5465C64.2486 10.5371 64.2699 10.5275 64.2915 10.5184C64.3128 10.5093 64.3344 10.5007 64.3559 10.4918C64.3773 10.483 64.3987 10.4741 64.4202 10.4655L64.4846 10.4401L64.549 10.4157C64.5705 10.4075 64.5918 10.3993 64.6134 10.3915C64.6347 10.3837 64.6563 10.3764 64.6777 10.3688C64.6992 10.3612 64.7206 10.3535 64.7421 10.3461C64.7635 10.3388 64.785 10.3319 64.8065 10.3248L64.8709 10.304C64.8923 10.2971 64.9137 10.2903 64.9353 10.2836C64.9566 10.2771 64.9782 10.2709 64.9996 10.2645C65.0211 10.2581 65.0425 10.2515 65.064 10.2454C65.0854 10.2393 65.1069 10.2337 65.1284 10.2278C65.1498 10.2219 65.1712 10.216 65.1928 10.2103L65.2571 10.1937C65.2785 10.1883 65.3 10.1832 65.3215 10.178C65.343 10.1728 65.3643 10.1673 65.3859 10.1623C65.4072 10.1574 65.4288 10.1529 65.4503 10.1482L65.5146 10.1341L65.579 10.1209C65.6004 10.1166 65.6219 10.1126 65.6434 10.1085C65.6649 10.1044 65.6862 10.1001 65.7078 10.0962C65.7292 10.0923 65.7507 10.089 65.7722 10.0853L65.8365 10.0747C65.858 10.0712 65.8794 10.0677 65.9009 10.0645C65.9223 10.0613 65.9438 10.0585 65.9653 10.0555C65.9868 10.0525 66.0081 10.0493 66.0297 10.0465C66.0511 10.0437 66.0726 10.0413 66.094 10.0387L66.1584 10.0313C66.1799 10.029 66.2013 10.0264 66.2228 10.0242C66.2442 10.0221 66.2657 10.0204 66.2872 10.0185L66.3515 10.0128L66.4159 10.008C66.4373 10.0064 66.4588 10.0052 66.4803 10.0038C66.5017 10.0026 66.5231 10.0009 66.5447 9.99979C66.5661 9.99867 66.5876 9.99803 66.6091 9.99713L66.6734 9.99472C66.6949 9.99403 66.7163 9.99312 66.7378 9.99264C66.7592 9.99216 66.7807 9.99211 66.8022 9.99179C66.8236 9.99147 66.8451 9.9911 66.8666 9.99099L66.8827 9.99078H66.9309H66.9953H67.0597H67.1241H67.1884H67.2528H67.3172H67.3816H67.446H67.5103H67.5747H67.6391H67.7035H67.7678H67.8322H67.8966H67.961H68.0253H68.0897H68.1541H68.2185H68.2829H68.3472H68.4116H68.476H68.5404H68.6047H68.6691H68.7335H68.7979H68.8622H68.9266H68.991H69.0554H69.1198H69.1841H69.2485H69.3129H69.3773H69.4416H69.506H69.5704H69.6348H69.6991H69.7635H69.8279H69.8923H69.9567H70.021H70.0854H70.1498H70.2142H70.2785H70.3429H70.4073H70.4717H70.536H70.6004H70.6648H70.7292H70.7936H70.8579H70.9223H70.9867H71.0511H71.1154H71.1798H71.2442H71.3086H71.3729H71.4373H71.5017H71.5661H71.6305H71.6948H71.7592H71.8236H71.888H71.9523H72.0167H72.0811H72.1455H72.2098H72.2742H72.3386H72.403H72.4674H72.5317H72.5961H72.6605H72.7249H72.7892H72.8536H72.918H72.9824H73.0467H73.1111H73.1755H73.2399H73.3043H73.3686H73.433H73.4974H73.5618H73.6261H73.6905H73.7549H73.8193H73.8836H73.948H74.0124H74.0768H74.1412H74.2055H74.2699H74.3343H74.3987H74.463H74.5274H74.5918H74.6562H74.7205H74.7849H74.8493H74.9137H74.9781H75.0424H75.1068H75.1712H75.2356H75.2999H75.3643H75.4287H75.4931H75.5574H75.6218H75.6862H75.7506H75.815H75.8794H75.9437H76.0081H76.0725H76.1369H76.2012H76.2656H76.33H76.3944H76.4587H76.5231H76.5875H76.6519V9.99072Z" fill="#54B230"/>
    <path fill-rule="evenodd" clip-rule="evenodd" d="M23.3218 33.1332V16.661C23.3218 16.1964 23.3694 15.7428 23.4598 15.305C23.4792 15.211 23.5008 15.1178 23.5241 15.0253C23.5441 14.946 23.5656 14.8675 23.5883 14.7894C23.6087 14.7198 23.6301 14.6508 23.6526 14.5822C23.6732 14.5194 23.6945 14.4568 23.7169 14.3948C23.7376 14.3375 23.7589 14.2804 23.7811 14.2238C23.8019 14.1709 23.8233 14.1181 23.8454 14.0658C23.8663 14.0165 23.8877 13.9675 23.9097 13.9189C23.9306 13.8726 23.952 13.8267 23.9739 13.7811C23.9948 13.7374 24.0164 13.6941 24.0382 13.651C24.0592 13.6096 24.0806 13.5685 24.1024 13.5276C24.1235 13.4882 24.1449 13.449 24.1667 13.4101C24.1878 13.3724 24.2092 13.3348 24.231 13.2976C24.2521 13.2614 24.2734 13.2254 24.2952 13.1896C24.3163 13.155 24.3378 13.1207 24.3595 13.0866C24.3805 13.0535 24.4021 13.0206 24.4238 12.9879C24.4449 12.9559 24.4663 12.924 24.488 12.8924C24.5093 12.8613 24.5305 12.8303 24.5523 12.7996C24.5734 12.77 24.595 12.7408 24.6165 12.7115C24.6378 12.6827 24.6592 12.6541 24.6808 12.6256C24.7021 12.5977 24.7234 12.5695 24.7451 12.5419C24.7662 12.515 24.7878 12.4886 24.8093 12.4621C24.8305 12.4359 24.8519 12.4098 24.8736 12.3839C24.8949 12.3585 24.9162 12.3331 24.9378 12.3079C24.959 12.2833 24.9806 12.2592 25.0021 12.2349C25.0234 12.2108 25.0447 12.1868 25.0664 12.1631C25.0876 12.1399 25.1091 12.117 25.1306 12.0941C25.1519 12.0715 25.1733 12.049 25.1949 12.0266C25.2162 12.0046 25.2375 11.9826 25.2592 11.9608C25.2804 11.9394 25.3019 11.9183 25.3235 11.8973C25.3448 11.8763 25.366 11.8552 25.3877 11.8345C25.4089 11.8143 25.4305 11.7945 25.4519 11.7746C25.4733 11.7547 25.4946 11.7347 25.5162 11.7152C25.5375 11.6959 25.559 11.6771 25.5805 11.6582C25.6019 11.6393 25.6232 11.6204 25.6448 11.6019C25.6661 11.5836 25.6875 11.5656 25.709 11.5476C25.7303 11.5297 25.7517 11.5118 25.7732 11.4942C25.7945 11.4768 25.816 11.4596 25.8375 11.4424C25.8589 11.4254 25.8802 11.4085 25.9018 11.3918C25.9231 11.3752 25.9446 11.3588 25.9661 11.3425C25.9874 11.3263 26.0088 11.3102 26.0303 11.2943L26.0946 11.2474C26.1159 11.232 26.1373 11.2167 26.1589 11.2015C26.1801 11.1865 26.2016 11.1717 26.2231 11.157C26.2444 11.1423 26.2658 11.1278 26.2873 11.1133C26.3087 11.0991 26.3301 11.0851 26.3516 11.071C26.373 11.0571 26.3943 11.0431 26.4159 11.0294C26.4372 11.0158 26.4587 11.0026 26.4802 10.9892C26.5016 10.976 26.5229 10.9625 26.5444 10.9495C26.5656 10.9366 26.5872 10.9241 26.6087 10.9115C26.6301 10.8989 26.6513 10.886 26.6729 10.8736C26.6942 10.8613 26.7158 10.8497 26.7372 10.8377C26.7586 10.8256 26.7799 10.8135 26.8015 10.8017C26.8228 10.7901 26.8443 10.7789 26.8657 10.7675C26.8871 10.7561 26.9085 10.7447 26.93 10.7336C26.9513 10.7225 26.9728 10.7117 26.9943 10.7008L27.0585 10.6689C27.0799 10.6584 27.1013 10.6479 27.1228 10.6377C27.1441 10.6275 27.1656 10.6176 27.187 10.6076C27.2085 10.5977 27.2297 10.5875 27.2513 10.5778C27.2726 10.5681 27.2941 10.559 27.3156 10.5496C27.337 10.5402 27.3583 10.5307 27.3798 10.5215C27.4012 10.5124 27.4227 10.5037 27.4441 10.4948L27.5084 10.4686L27.5726 10.4431L27.6369 10.4186C27.6583 10.4105 27.6796 10.4022 27.7011 10.3943C27.7224 10.3865 27.744 10.3792 27.7654 10.3716C27.7868 10.3641 27.8082 10.3564 27.8297 10.349L27.8939 10.3275L27.9582 10.3066C27.9796 10.2998 28.0009 10.2928 28.0224 10.2862C28.0437 10.2796 28.0653 10.2734 28.0867 10.2671C28.1081 10.2607 28.1295 10.2541 28.151 10.248C28.1723 10.2418 28.1938 10.2361 28.2152 10.2302L28.2795 10.2127C28.3009 10.2071 28.3223 10.2013 28.3438 10.1959C28.3651 10.1904 28.3866 10.1855 28.408 10.1802C28.4294 10.175 28.4508 10.1696 28.4723 10.1646C28.4936 10.1596 28.5151 10.155 28.5365 10.1502L28.6008 10.1362C28.6222 10.1316 28.6436 10.127 28.6651 10.1227C28.6864 10.1184 28.7079 10.1145 28.7293 10.1103C28.7508 10.1062 28.7721 10.102 28.7936 10.0981C28.815 10.0942 28.8364 10.0907 28.8579 10.087L28.9221 10.0763C28.9435 10.0729 28.9649 10.0692 28.9864 10.066C29.0077 10.0627 29.0292 10.06 29.0506 10.0569C29.072 10.054 29.0934 10.0507 29.1149 10.0479L29.1792 10.0399L29.2435 10.0326C29.2649 10.0302 29.2862 10.0274 29.3077 10.0252C29.329 10.023 29.3505 10.0214 29.3719 10.0194L29.4362 10.0138C29.4576 10.012 29.479 10.0102 29.5005 10.0087C29.5219 10.0071 29.5433 10.0059 29.5648 10.0045C29.5862 10.0032 29.6076 10.0017 29.629 10.0005C29.6504 9.99931 29.6718 9.99851 29.6933 9.99755L29.7576 9.9951C29.7789 9.99435 29.8003 9.99323 29.8218 9.9927C29.8431 9.99216 29.8646 9.99222 29.886 9.9919C29.9074 9.99158 29.9289 9.9912 29.9503 9.9911L30.0146 9.99072H30.0789H30.1431H30.2073H30.2716H30.3359H30.4002H30.4644H30.5287H30.593H30.6572H30.7215H30.7857H30.85H30.9143H30.9785H31.0428H31.107H31.1713H31.2356H31.2998H31.3641H31.4284H31.4926H31.5569H31.6211H31.6854H31.7497H31.8139H31.8782H31.9425H32.0067H32.071H32.1352H32.1995H32.2638H32.328H32.3923H32.4565H32.5208H32.5851H32.6493H32.7136H32.7779H32.8422H32.9064H32.9706H33.0349H33.0992H33.1635H33.2277H33.2919H33.3562H33.4205H33.4848H33.549H33.6133H33.6776H33.7418H33.806H33.8703H33.9346H33.9989H34.0631H34.1274H34.1916H34.2559H34.3202H34.3844H34.4487H34.513H34.5772H34.6415H34.7057H34.77H34.8343H34.8985H34.9628H35.0271H35.0913H35.1556H35.2198H35.2841H35.3484H35.4126H35.4769H35.5411H35.6054H35.6697H35.7339H35.7982H35.8625H35.9268H35.991H36.0552H36.1195H36.1838H36.2481H36.3123H36.3766H36.4408H36.5051H36.5693H36.6336H36.6979H36.7622H36.8264H36.8907H36.9549H37.0192H37.0835H37.1477H37.212H37.2763H37.3405H37.4048H37.469H37.5333H37.5976H37.6618H37.726H37.7903H37.8546H37.9189H37.9831H38.0474H38.1117H38.1759H38.2402H38.3044H38.3687H38.433H38.4972H38.5615H38.6257H38.69H38.7543H38.8185H38.8828H38.9471H39.0113H39.0756H39.1398H39.2041H39.2684H39.3326H39.3969H39.4612H39.5254H39.5897H39.6539H39.7182H39.7728V43.3396C39.7728 43.6297 39.7541 43.9154 39.7182 44.1958C39.7009 44.3308 39.6792 44.4643 39.6539 44.5966C39.6347 44.6973 39.6134 44.7972 39.5897 44.8961C39.5697 44.9795 39.5484 45.0623 39.5254 45.1445C39.5052 45.2166 39.4837 45.2881 39.4612 45.3592C39.4407 45.4235 39.4192 45.4874 39.3969 45.5509C39.3763 45.6096 39.3549 45.668 39.3326 45.726C39.3119 45.7802 39.2905 45.834 39.2684 45.8874C39.2476 45.9378 39.2261 45.9879 39.2041 46.0375C39.1832 46.0847 39.1618 46.1315 39.1398 46.1782C39.1189 46.2226 39.0975 46.2668 39.0756 46.3107C39.0546 46.3528 39.0332 46.3947 39.0113 46.4363C38.9903 46.4764 38.9689 46.5162 38.9471 46.5558C38.9259 46.5941 38.9047 46.6323 38.8828 46.6701C38.8617 46.7066 38.8403 46.7429 38.8185 46.779C38.7975 46.8139 38.7759 46.8484 38.7543 46.8829C38.7332 46.9165 38.7117 46.95 38.69 46.9832C38.6688 47.0157 38.6475 47.0482 38.6257 47.0802C38.6046 47.1113 38.5831 47.1422 38.5615 47.173C38.5404 47.203 38.5189 47.2328 38.4972 47.2625C38.476 47.2917 38.4546 47.3208 38.433 47.3496C38.4118 47.3777 38.3903 47.4057 38.3687 47.4335C38.3475 47.4607 38.326 47.4875 38.3044 47.5144C38.2831 47.5409 38.2619 47.5674 38.2402 47.5936C38.219 47.6191 38.1975 47.6444 38.1759 47.6696C38.1547 47.6945 38.1333 47.7191 38.1117 47.7437C38.0903 47.7679 38.0691 47.7922 38.0474 47.8161C38.0262 47.8395 38.0046 47.8624 37.9831 47.8855C37.9618 47.9084 37.9405 47.9314 37.9189 47.9539C37.8976 47.9761 37.8761 47.9979 37.8546 48.0198C37.8333 48.0414 37.812 48.0628 37.7903 48.0842C37.7691 48.1053 37.7477 48.1262 37.726 48.147C37.7048 48.1674 37.6833 48.1876 37.6618 48.2078C37.6405 48.2278 37.6192 48.2478 37.5976 48.2676C37.5763 48.2869 37.5548 48.3059 37.5333 48.325C37.5119 48.3441 37.4907 48.3633 37.469 48.382C37.4478 48.4004 37.4262 48.4182 37.4048 48.4364C37.3834 48.4545 37.3621 48.4727 37.3405 48.4905C37.3193 48.508 37.2977 48.5252 37.2763 48.5424C37.2549 48.5595 37.2336 48.5769 37.212 48.5938C37.1907 48.6104 37.1692 48.6267 37.1477 48.643C37.1263 48.6594 37.1051 48.6758 37.0835 48.6919C37.0622 48.7077 37.0406 48.7231 37.0192 48.7388C36.9978 48.7543 36.9765 48.77 36.9549 48.7853C36.9337 48.8003 36.9121 48.8151 36.8907 48.8298C36.8692 48.8447 36.848 48.8597 36.8264 48.8742C36.8052 48.8885 36.7836 48.9025 36.7622 48.9165C36.7407 48.9306 36.7195 48.945 36.6979 48.9589C36.6766 48.9725 36.655 48.9855 36.6336 48.9989C36.6122 49.0123 36.5909 49.0259 36.5693 49.0391C36.548 49.052 36.5265 49.0646 36.5051 49.0773C36.4837 49.09 36.4624 49.1028 36.4408 49.1153C36.4195 49.1276 36.3981 49.1397 36.3766 49.1518C36.3552 49.1638 36.3338 49.1759 36.3123 49.1877C36.291 49.1994 36.2696 49.2111 36.2481 49.2225L36.1838 49.2565C36.1624 49.2676 36.141 49.2788 36.1195 49.2897C36.0982 49.3005 36.0767 49.3111 36.0552 49.3217C36.0338 49.3322 36.0126 49.3431 35.991 49.3535C35.9697 49.3637 35.9482 49.3735 35.9268 49.3835C35.9053 49.3936 35.884 49.4037 35.8625 49.4136C35.8412 49.4233 35.8196 49.4326 35.7982 49.4421L35.7339 49.4702L35.6697 49.4974C35.6483 49.5063 35.6268 49.515 35.6054 49.5237C35.584 49.5324 35.5626 49.5412 35.5411 49.5497C35.5199 49.5581 35.4984 49.5659 35.4769 49.5741C35.4555 49.5823 35.4342 49.5906 35.4126 49.5985C35.3913 49.6064 35.3698 49.614 35.3484 49.6217L35.2841 49.6443L35.2198 49.6663C35.1985 49.6735 35.177 49.6803 35.1556 49.6872C35.1341 49.6941 35.1129 49.7013 35.0913 49.708C35.07 49.7147 35.0485 49.7208 35.0271 49.7273L34.9628 49.7464L34.8985 49.7647C34.8772 49.7707 34.8557 49.7763 34.8343 49.7821C34.8128 49.7879 34.7915 49.7939 34.77 49.7994C34.7487 49.8049 34.7271 49.8098 34.7057 49.8151C34.6843 49.8204 34.6629 49.8257 34.6415 49.8308L34.5772 49.8456L34.513 49.8596C34.4915 49.8643 34.4702 49.8692 34.4487 49.8737C34.4273 49.878 34.4058 49.8818 34.3844 49.8859C34.363 49.8901 34.3416 49.8943 34.3202 49.8983L34.2559 49.9098C34.2345 49.9136 34.2131 49.9169 34.1916 49.9204C34.1702 49.924 34.1489 49.9278 34.1274 49.9311C34.1061 49.9344 34.0846 49.9372 34.0631 49.9403L33.9989 49.9493C33.9775 49.9522 33.9561 49.9551 33.9346 49.9578C33.9132 49.9605 33.8917 49.9627 33.8703 49.9652C33.8489 49.9676 33.8275 49.9703 33.806 49.9725C33.7847 49.9748 33.7632 49.9767 33.7418 49.9787L33.6776 49.9844C33.6561 49.9862 33.6348 49.9885 33.6133 49.9901C33.5919 49.9917 33.5704 49.9927 33.549 49.9941L33.4848 49.9982L33.4205 50.0016C33.3991 50.0026 33.3776 50.0033 33.3562 50.0041C33.3348 50.0049 33.3134 50.0059 33.2919 50.0065C33.2706 50.0071 33.2491 50.0073 33.2277 50.0077L33.1635 50.0085C33.1436 50.0087 33.1238 50.0093 33.1039 50.0093H33.0349H32.9706H32.9064H32.8422H32.7779H32.7136H32.6493H32.5851H32.5208H32.4565H32.3923H32.328H32.2638H32.1995H32.1352H32.071H32.0067H31.9425H31.8782H31.8139H31.7497H31.6854H31.6211H31.5569H31.4926H31.4284H31.3641H31.2998H31.2356H31.1713H31.107H31.0428H30.9785H30.9143H30.85H30.7857H30.7215H30.6572H30.593H30.5287H30.4644H30.4002H30.3359H30.2716H30.2073H30.1431H30.0789H30.0146H29.9503H29.886H29.8218H29.7576H29.6933H29.629H29.5648H29.5005H29.4362H29.3719H29.3077H29.2435H29.1792H29.1149H29.0506H28.9864H28.9221H28.8579H28.7936H28.7293H28.6651H28.6008H28.5365H28.4723H28.408H28.3438H28.2795H28.2152H28.151H28.0867H28.0224H27.9582H27.8939H27.8297H27.7654H27.7011H27.6369H27.5726H27.5084H27.4441H27.3798H27.3156H27.2513H27.187H27.1228H27.0585H26.9943H26.93H26.8657H26.8015H26.7372H26.6729H26.6087H26.5444H26.4802H26.4159H26.3516H26.2873H26.2231H26.1589H26.0946H26.0303H25.9661H25.9018H25.8375H25.7732H25.709H25.6448H25.5805H25.5162H25.4519H25.3877H25.3235H25.2592H25.1949H25.1306H25.0664H25.0021H24.9378H24.8736H24.8093H24.7451H24.6808H24.6165H24.5523H24.488H24.4238H24.3595H24.2952H24.231H24.1667H24.1024H24.0382H23.9739H23.9097H23.8454H23.7811H23.7169H23.6526H23.5883H23.5241H23.4598H23.3218V35.9531C23.3218 35.9531 23.3693 35.9662 23.4598 35.989L23.5241 36.0051L23.5883 36.0208L23.6526 36.0362L23.7169 36.0514L23.7811 36.0663L23.8454 36.081L23.9097 36.0956L23.9739 36.1099L24.0382 36.1239L24.1024 36.1379L24.1667 36.1516L24.231 36.1651L24.2952 36.1785L24.3595 36.1917L24.4238 36.2047L24.488 36.2175L24.5523 36.2302L24.6165 36.2427L24.6808 36.2551L24.7451 36.2674L24.8093 36.2794L24.8736 36.2913L24.9378 36.303L25.0021 36.3146L25.0664 36.3261L25.1306 36.3373L25.1949 36.3485L25.2592 36.3594L25.3235 36.3702L25.3877 36.3809L25.4519 36.3915L25.5162 36.4019L25.5805 36.4121L25.6448 36.4223L25.709 36.4322L25.7732 36.4421L25.8375 36.4518L25.9018 36.4613L25.9661 36.4707L26.0303 36.48L26.0946 36.4891L26.1589 36.4981L26.2231 36.5069L26.2873 36.5157L26.3516 36.5242L26.4159 36.5327L26.4802 36.541L26.5444 36.5491L26.6087 36.5571L26.6729 36.565L26.7372 36.5728L26.8015 36.5803L26.8657 36.5878L26.93 36.5951L26.9943 36.6023L27.0585 36.6094L27.1228 36.6163L27.187 36.6231L27.2513 36.6297L27.3156 36.6362L27.3798 36.6425L27.4441 36.6488L27.5084 36.6549L27.5726 36.6608L27.6369 36.6667L27.7011 36.6722L27.7654 36.6778L27.8297 36.6832L27.8939 36.6884L27.9582 36.6936L28.0224 36.6984L28.0867 36.7033L28.151 36.708L28.2152 36.7125L28.2795 36.717L28.3438 36.7212L28.408 36.7253L28.4723 36.7293L28.5365 36.7331L28.6008 36.7369L28.6651 36.7404L28.7293 36.7438L28.7936 36.7471L28.8579 36.7501L28.9221 36.7532L28.9864 36.756L29.0506 36.7586L29.1149 36.7613L29.1792 36.7635L29.2435 36.7658L29.3077 36.768L29.3719 36.7698L29.4362 36.7717L29.5005 36.7733L29.5648 36.7748L29.629 36.7763L29.6933 36.7773L29.7576 36.7784L29.8218 36.7794L29.886 36.78L29.9503 36.7807L30.0146 36.7812L30.0789 36.7814L30.1431 36.7816L30.2073 36.7815L30.2716 36.781L30.3359 36.7807L30.4002 36.7803L30.4644 36.7799L30.5287 36.7787L30.593 36.7776L30.6572 36.7764L30.7215 36.7752L30.7857 36.7736L30.85 36.7716L30.9143 36.7696L30.9785 36.7676L31.0428 36.7655L31.107 36.7627L31.1713 36.7598L31.2356 36.757L31.2998 36.7541L31.3641 36.7506L31.4284 36.7469L31.4926 36.7431L31.5569 36.7394L31.6211 36.7351L31.6854 36.7305L31.7497 36.7259L31.8139 36.7213L31.8782 36.7161L31.9425 36.7106L32.0067 36.7051L32.071 36.6994L32.1352 36.6934L32.1995 36.6869L32.2638 36.6803L32.328 36.6738L32.3923 36.6666L32.4565 36.6591L32.5208 36.6515L32.5851 36.644L32.6493 36.6356L32.7136 36.627L32.7779 36.6185L32.8422 36.6097C32.8638 36.6066 32.8849 36.6032 32.9064 36.6L32.9706 36.5904L33.0349 36.5807L33.0992 36.5705C33.1208 36.567 33.142 36.5632 33.1635 36.5597L33.2277 36.5489C33.249 36.5452 33.2708 36.5418 33.2919 36.538C33.3136 36.5342 33.3347 36.5301 33.3562 36.5261L33.4205 36.5141L33.4848 36.5021L33.549 36.4895C33.5706 36.4853 33.5918 36.4807 33.6133 36.4763L33.6776 36.4631L33.7418 36.4496C33.7635 36.445 33.7845 36.44 33.806 36.4352L33.8703 36.4207C33.8916 36.4158 33.9134 36.4112 33.9346 36.4062C33.9563 36.4011 33.9774 36.3957 33.9989 36.3905L34.0631 36.3747C34.0845 36.3694 34.1062 36.3643 34.1274 36.3589C34.149 36.3534 34.1703 36.3476 34.1916 36.342L34.2559 36.3248C34.2773 36.3191 34.299 36.3135 34.3202 36.3076C34.3418 36.3017 34.363 36.2955 34.3844 36.2894L34.4487 36.2708C34.4701 36.2645 34.4918 36.2585 34.513 36.2521L34.5772 36.2324L34.6415 36.2122C34.6628 36.2055 34.6846 36.199 34.7057 36.1921L34.77 36.1707L34.8343 36.1489C34.8556 36.1416 34.8774 36.1346 34.8985 36.1271C34.9202 36.1195 34.9413 36.1116 34.9628 36.1038L35.0271 36.0804C35.0485 36.0725 35.0701 36.0647 35.0913 36.0566C35.113 36.0484 35.1341 36.0399 35.1556 36.0315C35.177 36.0231 35.1986 36.0148 35.2198 36.0063L35.2841 35.9801L35.3484 35.9531C35.3697 35.9441 35.3915 35.9354 35.4126 35.9262C35.4344 35.9168 35.4554 35.9069 35.4769 35.8973L35.5411 35.8684L35.6054 35.8385C35.627 35.8284 35.6483 35.8179 35.6697 35.8076C35.6911 35.7972 35.7128 35.787 35.7339 35.7765C35.7557 35.7656 35.7768 35.7544 35.7982 35.7434C35.8197 35.7324 35.8413 35.7215 35.8625 35.7104C35.8842 35.699 35.9054 35.6873 35.9268 35.6756C35.9483 35.664 35.9698 35.6522 35.991 35.6404C36.0126 35.6283 36.034 35.6161 36.0552 35.6039C36.0769 35.5915 36.0982 35.5789 36.1195 35.5662C36.141 35.5535 36.1626 35.5407 36.1838 35.5278C36.2055 35.5145 36.2267 35.5011 36.2481 35.4876C36.2696 35.4741 36.2912 35.4606 36.3123 35.4469C36.334 35.4328 36.3552 35.4184 36.3766 35.4041C36.3981 35.3896 36.4197 35.3753 36.4408 35.3607C36.4626 35.3456 36.4837 35.3303 36.5051 35.3151C36.5266 35.2997 36.5483 35.2843 36.5693 35.2687C36.5911 35.2526 36.6123 35.2364 36.6336 35.2201C36.6552 35.2036 36.6767 35.187 36.6979 35.1703C36.7195 35.1532 36.7409 35.1358 36.7622 35.1184C36.7838 35.1007 36.8052 35.0827 36.8264 35.0647C36.848 35.0464 36.8696 35.0281 36.8907 35.0095C36.9125 34.9903 36.9336 34.9707 36.9549 34.9512C36.9765 34.9315 36.9982 34.9118 37.0192 34.8918C37.041 34.871 37.0623 34.8501 37.0835 34.829C37.1052 34.8075 37.1266 34.7857 37.1477 34.7639C37.1693 34.7416 37.191 34.7193 37.212 34.6968C37.2338 34.6731 37.255 34.6492 37.2763 34.6253C37.2981 34.6007 37.3194 34.5759 37.3405 34.5509C37.3622 34.5253 37.3838 34.4996 37.4048 34.4735C37.4266 34.4465 37.4481 34.4194 37.469 34.392C37.491 34.3634 37.5122 34.3345 37.5333 34.3054C37.5552 34.2752 37.5765 34.2448 37.5976 34.2142C37.6195 34.1823 37.6409 34.1501 37.6618 34.1177C37.6837 34.0838 37.7052 34.0496 37.726 34.0151C37.748 33.9787 37.7695 33.9422 37.7903 33.9053C37.8124 33.8662 37.8338 33.8268 37.8546 33.7871C37.8768 33.7446 37.8982 33.7019 37.9189 33.6588C37.9412 33.6125 37.9625 33.5658 37.9831 33.5188C38.0055 33.4676 38.027 33.4162 38.0474 33.3643C38.0699 33.307 38.0914 33.2493 38.1117 33.1911C38.1346 33.125 38.1559 33.0583 38.1759 32.991C38.1993 32.9124 38.2207 32.8329 38.2402 32.7527C38.2644 32.6532 38.2859 32.5526 38.3044 32.4508C38.332 32.2993 38.3532 32.1455 38.3687 31.9896C38.3903 31.7721 38.4008 31.5508 38.4008 31.326V23.5874H38.3044H38.2402H38.1759H38.1117H38.0474H37.9831H37.9189H37.8546H37.7903H37.726H37.6618H37.5976H37.5333H37.469H37.4048H37.3405H37.2763H37.212H37.1477H37.0835H37.0192H36.9549H36.8907H36.8264H36.7622H36.6979H36.6336H36.5693H36.5051H36.4408H36.3766H36.3123H36.2481H36.1838H36.1195H36.0552H35.991H35.9268H35.8625H35.7982H35.7339H35.6697H35.6054H35.5411H35.4769H35.4126H35.3484H35.2841H35.2198H35.1556H35.0913H35.0271H34.9628H34.8985H34.8343H34.77H34.7057H34.6415H34.5772H34.513H34.4487H34.3844H34.3202H34.2559H34.1916H34.1274H34.0631H33.9989H33.9346H33.8703H33.806H33.7418H33.6776H33.6133H33.549H33.4848H33.4205H33.3562H33.2919H33.2277H33.1635H33.0992H33.0349H32.9706H32.9064H32.8422H32.7779H32.7136L32.6649 31.326C32.6649 31.4471 32.6596 31.5663 32.6493 31.6832C32.6362 31.8322 32.6147 31.9773 32.5851 32.1185C32.5668 32.2057 32.5453 32.2913 32.5208 32.3753C32.5013 32.4422 32.48 32.508 32.4565 32.5727C32.4366 32.6279 32.4151 32.6821 32.3923 32.7355C32.372 32.7832 32.3506 32.8302 32.328 32.8765C32.3075 32.9187 32.2862 32.9603 32.2638 33.0013C32.2432 33.0389 32.2216 33.0758 32.1995 33.1124C32.1788 33.1469 32.1574 33.1809 32.1352 33.2143C32.1144 33.2457 32.093 33.2766 32.071 33.3071C32.0501 33.3362 32.0288 33.3651 32.0067 33.3934C31.9858 33.4203 31.9643 33.4467 31.9425 33.4728C31.9215 33.4978 31.9001 33.5225 31.8782 33.5469C31.8572 33.5704 31.8358 33.5936 31.8139 33.6163C31.7928 33.6383 31.7715 33.6601 31.7497 33.6815C31.7286 33.7021 31.7072 33.7226 31.6854 33.7427C31.6644 33.7621 31.6429 33.7812 31.6211 33.8001C31.6001 33.8184 31.5786 33.8364 31.5569 33.8542C31.5358 33.8715 31.5143 33.8885 31.4926 33.9053C31.4715 33.9217 31.45 33.9378 31.4284 33.9537C31.4072 33.9691 31.3858 33.9844 31.3641 33.9994C31.3429 34.0141 31.3215 34.0285 31.2998 34.0427C31.2786 34.0566 31.2572 34.0703 31.2356 34.0837C31.2144 34.0968 31.193 34.1097 31.1713 34.1224C31.1501 34.1349 31.1287 34.147 31.107 34.1591C31.0859 34.1709 31.0644 34.1824 31.0428 34.1938C31.0216 34.205 31.0002 34.2159 30.9785 34.2267C30.9573 34.2373 30.9359 34.2477 30.9143 34.2579C30.893 34.2679 30.8716 34.2779 30.85 34.2876C30.8287 34.2971 30.8073 34.3065 30.7857 34.3156C30.7646 34.3246 30.743 34.3332 30.7215 34.3418C30.7003 34.3503 30.6788 34.3585 30.6572 34.3666C30.6359 34.3747 30.6146 34.3825 30.593 34.3902C30.5717 34.3978 30.5503 34.4053 30.5287 34.4125C30.5074 34.4196 30.486 34.4265 30.4644 34.4333C30.4432 34.44 30.4217 34.4464 30.4002 34.4527C30.3789 34.459 30.3574 34.4652 30.3359 34.4711C30.3145 34.477 30.2932 34.4829 30.2716 34.4885C30.2504 34.494 30.2289 34.4992 30.2073 34.5044C30.1861 34.5095 30.1647 34.5144 30.1431 34.5192C30.1218 34.524 30.1004 34.5287 30.0789 34.5332C30.0575 34.5376 30.0362 34.5419 30.0146 34.546C29.9933 34.5501 29.9718 34.5539 29.9503 34.5577C29.929 34.5614 29.9076 34.5651 29.886 34.5686L29.8218 34.5784C29.8005 34.5815 29.7791 34.5843 29.7576 34.5872C29.7362 34.59 29.7149 34.5928 29.6933 34.5953L29.629 34.6024C29.6077 34.6046 29.5863 34.6065 29.5648 34.6085C29.5434 34.6104 29.522 34.6124 29.5005 34.6141C29.4792 34.6157 29.4577 34.6172 29.4362 34.6185C29.4149 34.6199 29.3934 34.6211 29.3719 34.6222C29.3505 34.6233 29.3293 34.6245 29.3077 34.6253C29.2864 34.6262 29.2649 34.6267 29.2435 34.6273L29.1792 34.6288C29.1579 34.6292 29.1364 34.6293 29.1149 34.6294L29.0506 34.6295L28.9864 34.6291L28.9221 34.6281L28.8579 34.6268L28.7936 34.6251L28.7293 34.623L28.6651 34.6204L28.6008 34.6174L28.5365 34.6142L28.4723 34.6103L28.408 34.6062L28.3438 34.6016L28.2795 34.5966L28.2152 34.5912L28.151 34.5855L28.0867 34.5793L28.0224 34.5727L27.9582 34.5658L27.8939 34.5585L27.8297 34.5507L27.7654 34.5425L27.7011 34.5341L27.6369 34.5251L27.5726 34.5158L27.5084 34.5062L27.4441 34.4961L27.3798 34.4857L27.3156 34.4749L27.2513 34.4638L27.187 34.4521L27.1228 34.4402L27.0585 34.428L26.9943 34.4153L26.93 34.4022L26.8657 34.3888L26.8015 34.3751L26.7372 34.361L26.6729 34.3465L26.6087 34.3317L26.5444 34.3165L26.4802 34.3009L26.4159 34.285L26.3516 34.2688L26.2873 34.2521L26.2231 34.2351L26.1589 34.2179L26.0946 34.2002L26.0303 34.1822L25.9661 34.1639L25.9018 34.1453L25.8375 34.1262L25.7732 34.1068L25.709 34.0872L25.6448 34.0671L25.5805 34.0467L25.5162 34.0261L25.4519 34.0051L25.3877 33.9837L25.3235 33.962L25.2592 33.94L25.1949 33.9178L25.1306 33.895L25.0664 33.8721L25.0021 33.8489L24.9378 33.8252L24.8736 33.8013L24.8093 33.7771L24.7451 33.7526L24.6808 33.7278L24.6165 33.7026L24.5523 33.6772L24.488 33.6514L24.4238 33.6254L24.3595 33.599L24.2952 33.5724L24.231 33.5454L24.1667 33.5181L24.1024 33.4906L24.0382 33.4628L23.9739 33.4346L23.9097 33.4062L23.8454 33.3775L23.7811 33.3486L23.7169 33.3193L23.6526 33.2897L23.5883 33.2599L23.5241 33.2297L23.4598 33.1994C23.4138 33.1774 23.3678 33.1554 23.3218 33.1332Z" fill="#006CB9"/>
    <path fill-rule="evenodd" clip-rule="evenodd" d="M41.9119 25.2783C41.8651 25.3162 41.819 25.3544 41.7739 25.393V16.661C41.7739 16.1966 41.8216 15.7434 41.9119 15.3057C41.9313 15.2117 41.9528 15.1186 41.9761 15.0261C41.9962 14.9468 42.0177 14.8681 42.0404 14.7899C42.0608 14.7203 42.0822 14.6511 42.1047 14.5825C42.1253 14.5197 42.1466 14.4573 42.169 14.3954C42.1897 14.3381 42.211 14.281 42.2333 14.2243C42.2541 14.1714 42.2754 14.1188 42.2975 14.0665C42.3184 14.0172 42.3398 13.9682 42.3618 13.9195C42.3826 13.8732 42.4042 13.8273 42.4261 13.7816C42.447 13.738 42.4685 13.6947 42.4903 13.6516C42.5113 13.6102 42.5328 13.5691 42.5546 13.5282C42.5756 13.4888 42.5971 13.4496 42.6188 13.4107C42.6399 13.3729 42.6613 13.3354 42.6831 13.2981C42.7043 13.262 42.7255 13.2259 42.7474 13.1902C42.7684 13.1557 42.7899 13.1214 42.8116 13.0873C42.8327 13.0541 42.8542 13.0213 42.8759 12.9885C42.8971 12.9564 42.9184 12.9246 42.9401 12.8929C42.9614 12.8619 42.9827 12.8308 43.0044 12.8002C43.0255 12.7705 43.0471 12.7414 43.0687 12.7121C43.0899 12.6833 43.1113 12.6547 43.133 12.6262C43.1543 12.5982 43.1755 12.5701 43.1972 12.5425C43.2183 12.5157 43.24 12.4892 43.2615 12.4627C43.2827 12.4365 43.3041 12.4104 43.3258 12.3846C43.347 12.3591 43.3684 12.3337 43.39 12.3085C43.4112 12.284 43.4328 12.2598 43.4543 12.2355C43.4756 12.2115 43.4969 12.1874 43.5186 12.1637C43.5398 12.1405 43.5613 12.1175 43.5828 12.0946C43.604 12.072 43.6255 12.0495 43.647 12.0272C43.6684 12.0051 43.6897 11.9831 43.7113 11.9613C43.7325 11.94 43.754 11.9189 43.7755 11.8978C43.7969 11.8769 43.8182 11.8557 43.8398 11.835C43.861 11.8148 43.8826 11.7951 43.9041 11.7751C43.9254 11.7552 43.9467 11.7353 43.9684 11.7157C43.9896 11.6965 44.0112 11.6776 44.0326 11.6586C44.054 11.6398 44.0753 11.6209 44.0969 11.6024C44.1182 11.5841 44.1397 11.5661 44.1612 11.548C44.1825 11.5302 44.2039 11.5123 44.2255 11.4946C44.2467 11.4772 44.2682 11.46 44.2897 11.4429C44.311 11.4259 44.3324 11.4089 44.354 11.3922C44.3753 11.3756 44.3967 11.3593 44.4182 11.3429C44.4396 11.3268 44.461 11.3107 44.4825 11.2948C44.5038 11.279 44.5253 11.2634 44.5468 11.2479C44.5681 11.2325 44.5895 11.2171 44.611 11.202C44.6323 11.187 44.6538 11.1722 44.6753 11.1574C44.6966 11.1427 44.718 11.1281 44.7395 11.1137C44.7608 11.0995 44.7823 11.0854 44.8038 11.0714C44.8252 11.0574 44.8465 11.0434 44.8681 11.0297C44.8894 11.0162 44.9109 11.0029 44.9324 10.9896C44.9538 10.9763 44.9751 10.9629 44.9966 10.9499C45.0179 10.9369 45.0395 10.9245 45.0609 10.9118C45.0824 10.8992 45.1036 10.8863 45.1252 10.8739C45.1464 10.8617 45.168 10.8499 45.1894 10.8379C45.2109 10.8259 45.2321 10.8138 45.2537 10.8021C45.275 10.7904 45.2965 10.7792 45.3179 10.7678C45.3393 10.7564 45.3607 10.745 45.3822 10.7339L45.4465 10.7012L45.5108 10.6692C45.5321 10.6587 45.5535 10.6482 45.575 10.6379C45.5963 10.6277 45.6178 10.6179 45.6393 10.6079C45.6607 10.598 45.682 10.5877 45.7035 10.578C45.7248 10.5684 45.7464 10.5593 45.7678 10.5499C45.7892 10.5405 45.8106 10.531 45.8321 10.5218C45.8534 10.5127 45.8749 10.5039 45.8963 10.495L45.9606 10.4688C45.982 10.4602 46.0033 10.4516 46.0249 10.4432C46.0462 10.4349 46.0677 10.4269 46.0891 10.4188C46.1106 10.4107 46.1318 10.4023 46.1534 10.3944C46.1747 10.3866 46.1963 10.3794 46.2177 10.3718C46.2391 10.3642 46.2604 10.3565 46.2819 10.3492C46.3033 10.3418 46.3248 10.3348 46.3462 10.3277L46.4105 10.3068C46.4319 10.3 46.4533 10.293 46.4748 10.2863C46.496 10.2798 46.5176 10.2736 46.539 10.2672C46.5604 10.2608 46.5818 10.2543 46.6033 10.2481C46.6246 10.2419 46.6461 10.2362 46.6675 10.2303L46.7318 10.2128C46.7532 10.2072 46.7746 10.2014 46.7961 10.196C46.8174 10.1906 46.8389 10.1855 46.8603 10.1803C46.8817 10.1751 46.9031 10.1696 46.9246 10.1646C46.9459 10.1596 46.9674 10.155 46.9888 10.1503L47.0531 10.1363C47.0746 10.1317 47.0959 10.127 47.1174 10.1227C47.1387 10.1184 47.1602 10.1145 47.1817 10.1104C47.2031 10.1063 47.2244 10.102 47.2459 10.0981L47.3102 10.087L47.3745 10.0764C47.3959 10.0729 47.4172 10.0692 47.4387 10.066C47.4601 10.0627 47.4816 10.06 47.503 10.0569C47.5244 10.054 47.5458 10.0508 47.5672 10.048L47.6315 10.0399L47.6958 10.0326C47.7172 10.0302 47.7386 10.0274 47.7601 10.0252C47.7814 10.023 47.8029 10.0214 47.8243 10.0194L47.8886 10.0138C47.91 10.012 47.9314 10.0102 47.9528 10.0087C47.9742 10.0071 47.9957 10.0059 48.0171 10.0045C48.0385 10.0032 48.0599 10.0017 48.0814 10.0005C48.1028 9.99931 48.1242 9.99851 48.1457 9.99755L48.2099 9.9951C48.2314 9.99435 48.2527 9.99323 48.2742 9.9927C48.2956 9.99216 48.3171 9.99222 48.3384 9.9919C48.3599 9.99158 48.3813 9.9912 48.4027 9.9911L48.4311 9.99072H48.467H48.5313H48.5955H48.6598H48.7241H48.7883H48.8526H48.9168H48.9811H49.0454H49.1097H49.1739H49.2381H49.3024H49.3667H49.431H49.4952H49.5595H49.6238H49.688H49.7523H49.8165H49.8808H49.9451H50.0094H50.0737H50.1379H50.2022H50.2664H50.3307H50.395H50.4592H50.5235H50.5878H50.652H50.7163H50.7805H50.8448H50.9091H50.9734H51.0376H51.1019H51.1661H51.2304H51.2947H51.3589H51.4232H51.4875H51.5517H51.616H51.6803H51.7445H51.8088H51.8731H51.9373H52.0016H52.0659H52.1301H52.1944H52.2587H52.323H52.3872H52.4514H52.5157H52.58H52.6443H52.7085H52.7728H52.8371H52.9014H52.9656H53.0298H53.0941H53.1584H53.2227H53.2869H53.3512H53.4154H53.4797H53.544H53.6082H53.6725H53.7368H53.8011H53.8653H53.9296H53.9938H54.0581H54.1224H54.1867H54.2509H54.3152H54.3794H54.4437H54.508H54.5723H54.6365H54.7008H54.765H54.8293H54.8936H54.9578H55.0221H55.0864H55.1507H55.2149H55.2791H55.3434H55.4077H55.472H55.5362H55.6005H55.6647H55.729H55.7933H55.8575H55.9218H55.9861H56.0504H56.1146H56.1789H56.2432H56.3074H56.3717H56.436H56.5002H56.5645H56.6287H56.693H56.7573H56.8216H56.8858H56.9501H57.0143H57.0786H57.1429H57.2071H57.2714H57.3357H57.3999H57.4642H57.5284H57.5927H57.657H57.7213H57.7855H57.8498H57.914H57.9783H58.0426H58.1069H58.1711H58.2256V43.3396C58.2256 43.6296 58.207 43.9151 58.1711 44.1953C58.1538 44.3303 58.1321 44.4638 58.1069 44.5961C58.0877 44.6967 58.0663 44.7967 58.0426 44.8957C58.0226 44.9791 58.0013 45.062 57.9783 45.1441C57.9581 45.2162 57.9366 45.2878 57.914 45.3588C57.8936 45.4232 57.8721 45.487 57.8498 45.5505C57.8292 45.6092 57.8077 45.6677 57.7855 45.7257C57.7648 45.7798 57.7434 45.8335 57.7213 45.887C57.7004 45.9373 57.679 45.9874 57.657 46.0372C57.6361 46.0843 57.6147 46.1311 57.5927 46.1777C57.5718 46.2222 57.5504 46.2664 57.5284 46.3103C57.5075 46.3524 57.486 46.3943 57.4642 46.4359C57.4431 46.4761 57.4218 46.5159 57.3999 46.5556C57.3788 46.5939 57.3575 46.632 57.3357 46.6699C57.3146 46.7063 57.2931 46.7425 57.2714 46.7785C57.2503 46.8135 57.2288 46.848 57.2071 46.8825C57.186 46.9162 57.1646 46.9496 57.1429 46.9828C57.1216 47.0153 57.1004 47.0478 57.0786 47.0799C57.0575 47.111 57.036 47.1418 57.0143 47.1726C56.9932 47.2026 56.9717 47.2324 56.9501 47.2621C56.9288 47.2913 56.9075 47.3204 56.8858 47.3493C56.8646 47.3774 56.8432 47.4052 56.8216 47.433C56.8004 47.4602 56.7788 47.4872 56.7573 47.514C56.736 47.5405 56.7148 47.567 56.693 47.5932C56.6719 47.6188 56.6503 47.644 56.6287 47.6693C56.6075 47.6941 56.5861 47.7187 56.5645 47.7433C56.5432 47.7675 56.5219 47.7918 56.5002 47.8157C56.479 47.8391 56.4574 47.8621 56.436 47.8852C56.4146 47.9081 56.3933 47.931 56.3717 47.9537C56.3504 47.9758 56.3289 47.9976 56.3074 48.0194C56.2861 48.041 56.2648 48.0625 56.2432 48.0838C56.2219 48.1049 56.2005 48.1258 56.1789 48.1466C56.1577 48.167 56.1362 48.1872 56.1146 48.2074C56.0933 48.2274 56.072 48.2476 56.0504 48.2673C56.0291 48.2867 56.0076 48.3057 55.9861 48.3248C55.9647 48.3438 55.9435 48.363 55.9218 48.3818C55.9006 48.4002 55.879 48.4181 55.8575 48.4362C55.8361 48.4543 55.8149 48.4725 55.7933 48.4903C55.772 48.5078 55.7504 48.5248 55.729 48.542C55.7076 48.5592 55.6864 48.5766 55.6647 48.5935C55.6435 48.6101 55.622 48.6263 55.6005 48.6427C55.5791 48.659 55.5578 48.6755 55.5362 48.6916C55.515 48.7074 55.4934 48.7229 55.472 48.7385C55.4506 48.754 55.4293 48.7698 55.4077 48.785C55.3864 48.8001 55.3649 48.8147 55.3434 48.8296C55.322 48.8444 55.3007 48.8594 55.2791 48.874C55.2579 48.8883 55.2363 48.9022 55.2149 48.9163C55.1935 48.9304 55.1723 48.9447 55.1507 48.9585C55.1294 48.9722 55.1078 48.9853 55.0864 48.9987C55.065 49.0121 55.0437 49.0257 55.0221 49.0388C55.0008 49.0518 54.9793 49.0643 54.9578 49.077C54.9364 49.0897 54.9151 49.1025 54.8936 49.115C54.8722 49.1274 54.8508 49.1395 54.8293 49.1516L54.765 49.1875L54.7008 49.2223L54.6365 49.2562C54.6151 49.2674 54.5938 49.2786 54.5723 49.2895C54.5509 49.3003 54.5295 49.3108 54.508 49.3215C54.4866 49.3321 54.4653 49.3429 54.4437 49.3533C54.4224 49.3635 54.4008 49.3733 54.3794 49.3833C54.358 49.3933 54.3367 49.4036 54.3152 49.4133C54.2939 49.4231 54.2723 49.4324 54.2509 49.4419L54.1867 49.47L54.1224 49.4972L54.0581 49.5235C54.0367 49.5322 54.0153 49.5411 53.9938 49.5496C53.9725 49.5579 53.951 49.5658 53.9296 49.5739C53.9081 49.5821 53.8868 49.5904 53.8653 49.5984C53.8439 49.6063 53.8225 49.6138 53.8011 49.6215L53.7368 49.6442L53.6725 49.6661C53.6512 49.6733 53.6297 49.6801 53.6082 49.687C53.5868 49.6939 53.5655 49.7012 53.544 49.7079C53.5227 49.7145 53.5011 49.7207 53.4797 49.7271L53.4154 49.7462L53.3512 49.7645C53.3298 49.7705 53.3084 49.7762 53.2869 49.7819C53.2655 49.7877 53.2442 49.7938 53.2227 49.7993C53.2013 49.8048 53.1798 49.8097 53.1584 49.815C53.137 49.8203 53.1156 49.8256 53.0941 49.8307L53.0298 49.8455L52.9656 49.8595C52.9441 49.8641 52.9229 49.8691 52.9014 49.8735C52.88 49.8779 52.8585 49.8817 52.8371 49.8859L52.7728 49.8981L52.7085 49.9097C52.6872 49.9135 52.6657 49.9169 52.6443 49.9204C52.6228 49.9239 52.6015 49.9277 52.58 49.931C52.5586 49.9343 52.5371 49.9371 52.5157 49.9402L52.4514 49.9493C52.4301 49.9521 52.4087 49.9551 52.3872 49.9577C52.3659 49.9604 52.3444 49.9627 52.323 49.9651C52.3015 49.9676 52.2802 49.9702 52.2587 49.9725C52.2373 49.9747 52.2159 49.9766 52.1944 49.9787L52.1301 49.9844C52.1087 49.9862 52.0874 49.9884 52.0659 49.99C52.0445 49.9916 52.023 49.9927 52.0016 49.9941L51.9373 49.9982L51.8731 50.0016C51.8517 50.0026 51.8302 50.0032 51.8088 50.004C51.7874 50.0048 51.766 50.0058 51.7445 50.0065C51.7232 50.007 51.7017 50.0073 51.6803 50.0077L51.616 50.0085C51.596 50.0087 51.5761 50.0093 51.556 50.0093H51.5517H51.4875H51.4232H51.3589H51.2947H51.2304H51.1661H51.1019H51.0376H50.9734H50.9091H50.8448H50.7805H50.7163H50.652H50.5878H50.5235H50.4592H50.395H50.3307H50.2664H50.2022H50.1379H50.0737H50.0094H49.9451H49.8808H49.8165H49.7523H49.688H49.6238H49.5595H49.4952H49.431H49.3667H49.3024H49.2381H49.1739H49.1097H49.0454H48.9811H48.9168H48.8526H48.7883H48.7241H48.6598H48.5955H48.5313H48.467H48.4027H48.3384H48.2742H48.2099H48.1457H48.0814H48.0171H47.9528H47.8886H47.8243H47.7601H47.6958H47.6315H47.5672H47.503H47.4387H47.3745H47.3102H47.2459H47.1817H47.1174H47.0531H46.9888H46.9246H46.8603H46.7961H46.7318H46.6675H46.6033H46.539H46.4748H46.4105H46.3462H46.2819H46.2177H46.1534H46.0891H46.0249H45.9606H45.8963H45.8321H45.7678H45.7035H45.6393H45.575H45.5108H45.4465H45.3822H45.3179H45.2537H45.1894H45.1252H45.0609H44.9966H44.9324H44.8681H44.8038H44.7395H44.6753H44.611H44.5468H44.4825H44.4182H44.354H44.2897H44.2255H44.1612H44.0969H44.0326H43.9684H43.9041H43.8398H43.7755H43.7113H43.647H43.5828H43.5186H43.4543H43.39H43.3258H43.2615H43.1972H43.133H43.0687H43.0044H42.9401H42.8759H42.8116H42.7474H42.6831H42.6188H42.5546H42.4903H42.4261H42.3618H42.2975H42.2333H42.169H42.1047H42.0404H41.9761H41.9119H41.7739V34.6096C41.819 34.6483 41.8651 34.6864 41.9119 34.7243C41.9331 34.7415 41.9546 34.7586 41.9761 34.7755C41.9974 34.7923 42.0188 34.809 42.0404 34.8256C42.0618 34.8419 42.0831 34.8582 42.1047 34.8744C42.1259 34.8903 42.1475 34.9059 42.169 34.9216C42.1902 34.9371 42.2117 34.9525 42.2333 34.9678C42.2546 34.9829 42.2759 34.998 42.2975 35.013L42.3618 35.057C42.383 35.0714 42.4045 35.0856 42.4261 35.0998L42.4903 35.1418C42.5116 35.1555 42.533 35.1692 42.5546 35.1828C42.5758 35.1962 42.5973 35.2094 42.6188 35.2226L42.6831 35.2618C42.7045 35.2746 42.7258 35.2874 42.7474 35.3C42.7686 35.3125 42.7901 35.3248 42.8116 35.3371L42.8759 35.3736L42.9401 35.4092L43.0044 35.444C43.0258 35.4554 43.0471 35.467 43.0687 35.4783C43.0899 35.4894 43.1115 35.5004 43.133 35.5114L43.1972 35.544L43.2615 35.576L43.3258 35.607C43.3471 35.6173 43.3684 35.6276 43.39 35.6378L43.4543 35.6674L43.5186 35.6968L43.5828 35.7253L43.647 35.7533L43.7113 35.7808L43.7755 35.8075L43.8398 35.8339L43.9041 35.8595L43.9684 35.8849L44.0326 35.9093C44.054 35.9175 44.0753 35.9257 44.0969 35.9337L44.1612 35.9571C44.1826 35.9649 44.2038 35.9728 44.2255 35.9805C44.2467 35.9881 44.2683 35.9954 44.2897 36.0029L44.354 36.0253L44.4182 36.0468C44.4396 36.0539 44.4609 36.0613 44.4825 36.0683C44.5037 36.0753 44.5253 36.082 44.5468 36.0889L44.611 36.1095L44.6753 36.1292L44.7395 36.1489L44.8038 36.1679L44.8681 36.1866L44.9324 36.2049L44.9966 36.2229L45.0609 36.2404L45.1252 36.2575L45.1894 36.2744L45.2537 36.2907L45.3179 36.3069L45.3822 36.3224L45.4465 36.338L45.5108 36.3528L45.575 36.3676L45.6393 36.3819L45.7035 36.3959L45.7678 36.4097L45.8321 36.423L45.8963 36.4362L45.9606 36.4488L46.0249 36.4614L46.0891 36.4735L46.1534 36.4854L46.2177 36.4971L46.2819 36.5083L46.3462 36.5194L46.4105 36.5301L46.4748 36.5406L46.539 36.5509L46.6033 36.5607L46.6675 36.5705L46.7318 36.5799L46.7961 36.589L46.8603 36.5981L46.9246 36.6066L46.9888 36.615L47.0531 36.6233L47.1174 36.6311L47.1817 36.639L47.2459 36.6464L47.3102 36.6536L47.3745 36.6608L47.4387 36.6674L47.503 36.674L47.5672 36.6804L47.6315 36.6864L47.6958 36.6925L47.7601 36.6981L47.8243 36.7036L47.8886 36.709L47.9528 36.714L48.0171 36.7188L48.0814 36.7237L48.1457 36.728L48.2099 36.7324L48.2742 36.7366L48.3384 36.7404L48.4027 36.7441L48.467 36.7478L48.5313 36.7509L48.5955 36.7541L48.6598 36.7573L48.7241 36.7599L48.7883 36.7626L48.8526 36.7651L48.9168 36.7673L48.9811 36.7694L49.0454 36.7715L49.1097 36.7731L49.1739 36.7747L49.2381 36.7763L49.3024 36.7774L49.3667 36.7785L49.431 36.7796L49.4952 36.7802L49.5595 36.7808L49.6238 36.7814L49.688 36.7817L49.7523 36.7818L49.8165 36.7819L49.8808 36.7817L49.9451 36.7814L50.0094 36.781L50.0737 36.7804L50.1379 36.7796L50.2022 36.7787L50.2664 36.7779L50.3307 36.7765L50.395 36.7753L50.4592 36.7739L50.5235 36.7723L50.5878 36.7705L50.652 36.7687L50.7163 36.7668L50.7805 36.7645L50.8448 36.7624L50.9091 36.7601L50.9734 36.7574L51.0376 36.7548L51.1019 36.7521L51.1333 36.7508L51.1661 36.7492L51.2304 36.7461L51.2947 36.7427L51.3589 36.7391L51.4232 36.7353L51.4875 36.7313L51.5517 36.727L51.616 36.7226L51.6803 36.7179L51.7445 36.7131L51.8088 36.7079L51.8731 36.7027L51.9373 36.6972L52.0016 36.6916L52.0659 36.6857L52.1301 36.6797L52.1944 36.6735L52.2587 36.6671L52.323 36.6606L52.3872 36.6538L52.4514 36.6469L52.5157 36.6398L52.58 36.6325L52.6443 36.6251L52.7085 36.6175L52.7728 36.6098L52.8371 36.6019L52.9014 36.5939L52.9656 36.5856L53.0298 36.5774L53.0941 36.5688L53.1584 36.5601L53.2227 36.5513L53.2869 36.5424L53.3512 36.5333L53.4154 36.524L53.4797 36.5147L53.544 36.5051L53.6082 36.4954L53.6725 36.4856L53.7368 36.4757L53.8011 36.4656L53.8653 36.4553L53.9296 36.445L53.9938 36.4346L54.0581 36.4239L54.1224 36.4132L54.1867 36.4023L54.2509 36.3913L54.3152 36.3802L54.3794 36.3689L54.4437 36.3575L54.508 36.346L54.5723 36.3343L54.6365 36.3226L54.7008 36.3107L54.765 36.2986L54.8293 36.2865L54.8936 36.2742L54.9578 36.2618L55.0221 36.2493L55.0864 36.2366L55.1507 36.2239L55.2149 36.211L55.2791 36.198L55.3434 36.1848L55.4077 36.1714L55.472 36.158L55.5362 36.1445L55.6005 36.1308L55.6647 36.117L55.729 36.103L55.7933 36.0889L55.8575 36.0747L55.9218 36.0603L55.9861 36.0458L56.0504 36.0311L56.1146 36.0162L56.1789 36.0011L56.2432 35.9858L56.3074 35.9703L56.3713 35.9545V33.1332L56.3074 33.165L56.2432 33.1967L56.1789 33.2281L56.1146 33.2593L56.0504 33.2902L55.9861 33.3208L55.9218 33.351L55.8575 33.381L55.7933 33.4106L55.729 33.44L55.6647 33.4689L55.6005 33.4976L55.5362 33.5259L55.472 33.5539L55.4077 33.5816L55.3434 33.6089L55.2791 33.6359L55.2149 33.6626L55.1507 33.6888L55.0864 33.7147L55.0221 33.7403L54.9578 33.7656L54.8936 33.7905L54.8293 33.815L54.765 33.8391L54.7008 33.8629L54.6365 33.8863L54.5723 33.9094L54.508 33.9322L54.4437 33.9545L54.3794 33.9765L54.3152 33.9981L54.2509 34.0194L54.1867 34.0402L54.1224 34.0608L54.0581 34.0809L53.9938 34.1007L53.9296 34.1201L53.8653 34.1392L53.8011 34.1579L53.7368 34.1762L53.6725 34.1941L53.6082 34.2117L53.544 34.2289L53.4797 34.2458L53.4154 34.2623L53.3512 34.2784L53.2869 34.2941L53.2227 34.3096L53.1584 34.3247L53.0941 34.3393L53.0298 34.3536L52.9656 34.3676L52.9014 34.3812L52.8371 34.3944L52.7728 34.4073L52.7085 34.4199L52.6443 34.432L52.58 34.4438L52.5157 34.4553L52.4514 34.4664L52.3872 34.4771L52.323 34.4875L52.2587 34.4976L52.1944 34.5073L52.1301 34.5166L52.0659 34.5257L52.0016 34.5343L51.9373 34.5426L51.8731 34.5506L51.8088 34.5583L51.7445 34.5656L51.6803 34.5725L51.616 34.5792L51.5517 34.5854L51.4875 34.5913L51.4232 34.597L51.3589 34.6022L51.32 34.6053L51.2947 34.607L51.2304 34.6113L51.1661 34.6156L51.1019 34.6191L51.0376 34.6223L50.9734 34.6253L50.9091 34.6274L50.8448 34.6295L50.7805 34.6309L50.7163 34.6318L50.652 34.6326C50.6305 34.6327 50.6092 34.6325 50.5878 34.6324L50.5235 34.6322L50.4592 34.6312L50.395 34.6299L50.3307 34.6282C50.3091 34.6275 50.2878 34.6264 50.2664 34.6256C50.245 34.6247 50.2235 34.624 50.2022 34.623L50.1379 34.6194L50.0737 34.6156L50.0094 34.6111L49.9451 34.606C49.9237 34.6042 49.9021 34.6028 49.8808 34.6008C49.8593 34.5988 49.838 34.5965 49.8165 34.5943L49.7523 34.5879L49.688 34.5804L49.6238 34.5726L49.5595 34.5641L49.4952 34.555C49.4738 34.5518 49.4523 34.5488 49.431 34.5454C49.4094 34.5421 49.3881 34.5384 49.3667 34.5348C49.3453 34.5313 49.3237 34.5279 49.3024 34.5242C49.2808 34.5203 49.2596 34.5161 49.2381 34.5121C49.2168 34.5081 49.1951 34.5043 49.1739 34.5001C49.1523 34.4958 49.1311 34.4911 49.1097 34.4866C49.0882 34.4822 49.0667 34.4778 49.0454 34.4731C49.0238 34.4684 49.0025 34.4633 48.9811 34.4584L48.9168 34.4433C48.8953 34.438 48.8739 34.4325 48.8526 34.427C48.8311 34.4216 48.8096 34.4161 48.7883 34.4104C48.7667 34.4046 48.7454 34.3986 48.7241 34.3926C48.7026 34.3866 48.6811 34.3806 48.6598 34.3743C48.6382 34.3679 48.6169 34.3614 48.5955 34.3548C48.574 34.3482 48.5526 34.3416 48.5313 34.3347C48.5097 34.3278 48.4883 34.3207 48.467 34.3135C48.4455 34.3063 48.424 34.2991 48.4027 34.2917C48.3811 34.2842 48.3598 34.2763 48.3384 34.2685C48.317 34.2607 48.2954 34.2529 48.2742 34.2449C48.2526 34.2367 48.2313 34.2281 48.2099 34.2197C48.1885 34.2112 48.1669 34.2028 48.1457 34.1941C48.124 34.1852 48.1028 34.1758 48.0814 34.1667C48.0599 34.1574 48.0383 34.1483 48.0171 34.1388C47.9955 34.1292 47.9742 34.1191 47.9528 34.1092C47.9313 34.0992 47.9098 34.0891 47.8886 34.0789C47.867 34.0684 47.8456 34.0578 47.8243 34.0471C47.8027 34.0362 47.7814 34.0252 47.7601 34.014C47.7386 34.0028 47.717 33.9916 47.6958 33.98C47.6741 33.9682 47.6529 33.9561 47.6315 33.944C47.61 33.9317 47.5885 33.9196 47.5672 33.907C47.5456 33.8943 47.5243 33.8813 47.503 33.8682C47.4814 33.855 47.46 33.8415 47.4387 33.8279C47.4172 33.8142 47.3956 33.8005 47.3745 33.7865C47.3527 33.7721 47.3316 33.7572 47.3102 33.7424C47.2886 33.7275 47.2672 33.7123 47.2459 33.697C47.2244 33.6815 47.2028 33.666 47.1817 33.6501C47.16 33.6337 47.1387 33.617 47.1174 33.6003C47.0958 33.5834 47.0744 33.5663 47.0531 33.549C47.0316 33.5313 47.01 33.5137 46.9888 33.4957C46.9671 33.4771 46.9458 33.4581 46.9246 33.4392C46.9029 33.4198 46.8815 33.4001 46.8603 33.3803C46.8387 33.3601 46.8172 33.3397 46.7961 33.319C46.7745 33.2979 46.7528 33.2768 46.7318 33.2552C46.71 33.2329 46.6887 33.2101 46.6675 33.1873C46.6458 33.1638 46.6244 33.1401 46.6033 33.1161C46.5815 33.0915 46.5601 33.0666 46.539 33.0414C46.5173 33.0154 46.4958 32.9892 46.4748 32.9627C46.453 32.9353 46.4315 32.9076 46.4105 32.8795C46.3887 32.8505 46.3672 32.8212 46.3462 32.7915C46.3244 32.7606 46.3029 32.7294 46.2819 32.6977C46.26 32.6647 46.2387 32.6313 46.2177 32.5975C46.1957 32.5621 46.1743 32.5262 46.1534 32.4899C46.1314 32.4518 46.11 32.4131 46.0891 32.3739C46.067 32.3325 46.0457 32.2904 46.0249 32.248C46.0027 32.2027 45.9813 32.1568 45.9606 32.1105C45.9384 32.0606 45.9168 32.0102 45.8963 31.959C45.8737 31.9024 45.8526 31.8446 45.8321 31.7864C45.8094 31.7218 45.7879 31.6564 45.7678 31.5898C45.7446 31.5126 45.7231 31.4341 45.7035 31.3542C45.6792 31.2549 45.658 31.1535 45.6393 31.0502C45.6116 30.8971 45.59 30.7397 45.575 30.578C45.5577 30.3913 45.5489 30.199 45.5489 30.0011C45.5489 29.8031 45.5577 29.6106 45.575 29.4238C45.59 29.262 45.6116 29.1046 45.6393 28.9513C45.658 28.848 45.6792 28.7464 45.7035 28.6471C45.7231 28.5673 45.7446 28.4888 45.7678 28.4115C45.7879 28.3449 45.8094 28.2794 45.8321 28.2147C45.8526 28.1565 45.8737 28.0988 45.8963 28.0421C45.9168 27.9908 45.9384 27.9404 45.9606 27.8905C45.9813 27.8441 46.0027 27.7982 46.0249 27.753C46.0457 27.7105 46.067 27.6684 46.0891 27.6269C46.11 27.5878 46.1314 27.5491 46.1534 27.5109C46.1743 27.4746 46.1957 27.4387 46.2177 27.4032C46.2387 27.3694 46.26 27.336 46.2819 27.303C46.3029 27.2714 46.3244 27.2401 46.3462 27.2092C46.3672 27.1795 46.3887 27.1502 46.4105 27.1211C46.4315 27.093 46.453 27.0653 46.4748 27.0379C46.4958 27.0113 46.5173 26.9851 46.539 26.9592C46.5601 26.934 46.5815 26.9091 46.6033 26.8844C46.6244 26.8605 46.6458 26.8366 46.6675 26.8132C46.6887 26.7904 46.71 26.7676 46.7318 26.7453C46.7528 26.7236 46.7745 26.7025 46.7961 26.6813C46.8172 26.6607 46.8387 26.6403 46.8603 26.6201C46.8815 26.6003 46.9029 26.5805 46.9246 26.5612C46.9458 26.5422 46.9671 26.5232 46.9888 26.5047C47.01 26.4866 47.0316 26.469 47.0531 26.4514C47.0744 26.434 47.0958 26.4169 47.1174 26.3999C47.1387 26.3832 47.16 26.3665 47.1817 26.3502C47.2028 26.3343 47.2244 26.3187 47.2459 26.3032C47.2672 26.2878 47.2886 26.2728 47.3102 26.2578C47.3316 26.243 47.3527 26.2281 47.3745 26.2137C47.3956 26.1996 47.4172 26.186 47.4387 26.1723C47.46 26.1587 47.4814 26.1452 47.503 26.1319C47.5243 26.1189 47.5456 26.1059 47.5672 26.0931C47.5885 26.0806 47.61 26.0684 47.6315 26.0562C47.6529 26.0441 47.6741 26.0319 47.6958 26.0201C47.717 26.0086 47.7386 25.9974 47.7601 25.9861C47.7814 25.9749 47.8027 25.9639 47.8243 25.953C47.8456 25.9423 47.867 25.9317 47.8886 25.9212C47.9098 25.9109 47.9313 25.9009 47.9528 25.8909C47.9742 25.8809 47.9955 25.8709 48.0171 25.8612C48.0383 25.8517 48.0599 25.8426 48.0814 25.8334C48.1028 25.8242 48.124 25.8149 48.1457 25.806C48.1669 25.7972 48.1885 25.7888 48.2099 25.7804C48.2313 25.7719 48.2526 25.7633 48.2742 25.7551C48.2954 25.7471 48.317 25.7393 48.3384 25.7315C48.3598 25.7237 48.3811 25.7158 48.4027 25.7083C48.424 25.7009 48.4455 25.6937 48.467 25.6864C48.4883 25.6793 48.5097 25.6721 48.5313 25.6652C48.5526 25.6584 48.574 25.6518 48.5955 25.6452C48.6169 25.6386 48.6382 25.6321 48.6598 25.6257L48.7241 25.6074C48.7454 25.6014 48.7667 25.5953 48.7883 25.5896C48.8096 25.5838 48.8311 25.5784 48.8526 25.5729C48.8739 25.5675 48.8953 25.5619 48.9168 25.5567L48.9811 25.5416C49.0025 25.5366 49.0238 25.5316 49.0454 25.5268C49.0667 25.5221 49.0882 25.5177 49.1097 25.5133C49.1311 25.5088 49.1523 25.5041 49.1739 25.4998C49.1951 25.4956 49.2168 25.4918 49.2381 25.4878C49.2596 25.4838 49.2808 25.4796 49.3024 25.4757C49.3237 25.472 49.3453 25.4686 49.3667 25.4651C49.3881 25.4615 49.4094 25.4578 49.431 25.4545L49.4952 25.4449L49.5595 25.4357L49.6238 25.4272L49.688 25.4195L49.7523 25.412L49.8165 25.4055C49.838 25.4034 49.8593 25.401 49.8808 25.3991C49.9021 25.3971 49.9237 25.3956 49.9451 25.3938L50.0094 25.3887L50.0737 25.3843L50.1379 25.3805L50.2022 25.3769C50.2235 25.3758 50.245 25.3751 50.2664 25.3743C50.2878 25.3734 50.3091 25.3723 50.3307 25.3716L50.395 25.37L50.4592 25.3686L50.5235 25.3676L50.5878 25.3674C50.6092 25.3674 50.6305 25.3671 50.652 25.3672L50.7163 25.368L50.7805 25.369L50.8448 25.3704L50.9091 25.3724L50.9734 25.3745L51.0376 25.3775L51.1019 25.3808L51.1661 25.3842L51.2304 25.3885L51.2947 25.3928L51.32 25.3945L51.3589 25.3976L51.4232 25.4028L51.4875 25.4083L51.5517 25.4142L51.616 25.4203L51.6803 25.4269L51.7445 25.4338L51.8088 25.4409L51.8731 25.4484L51.9373 25.4563L52.0016 25.4645L52.0659 25.473L52.1301 25.482L52.1944 25.4912L52.2587 25.5007L52.323 25.5107L52.3872 25.521L52.4514 25.5316L52.5157 25.5426L52.58 25.554L52.6443 25.5656L52.7085 25.5777L52.7728 25.5901L52.8371 25.6028L52.9014 25.616L52.9656 25.6295L53.0298 25.6433L53.0941 25.6576L53.1584 25.6721L53.2227 25.687L53.2869 25.7024L53.3512 25.7181L53.4154 25.7341L53.4797 25.7505L53.544 25.7673L53.6082 25.7845L53.6725 25.802L53.7368 25.8199L53.8011 25.8382L53.8653 25.8569L53.9296 25.8759L53.9938 25.8953L54.0581 25.9151L54.1224 25.9352L54.1867 25.9557L54.2509 25.9767L54.3152 25.9979L54.3794 26.0196L54.4437 26.0416L54.508 26.0639L54.5723 26.0868L54.6365 26.1099L54.7008 26.1334L54.765 26.1573L54.8293 26.1816L54.8936 26.2062L54.9578 26.2312L55.0221 26.2566L55.0864 26.2823L55.1507 26.3084L55.2149 26.3348L55.2791 26.3617L55.3434 26.3888L55.4077 26.4164L55.472 26.4442L55.5362 26.4724L55.6005 26.5009L55.6647 26.5299L55.729 26.5591L55.7933 26.5887L55.8575 26.6185L55.9218 26.6488L55.9861 26.6793L56.0504 26.7101L56.1146 26.7413L56.1789 26.7728L56.2432 26.8045L56.3074 26.8366L56.3713 26.8687V24.0453L56.3074 24.0295L56.2432 24.014L56.1789 23.9988L56.1146 23.9837L56.0504 23.9688L55.9861 23.9541L55.9218 23.9396L55.8575 23.9252L55.7933 23.911L55.729 23.8968L55.6647 23.8829L55.6005 23.8691L55.5362 23.8554L55.472 23.8419L55.4077 23.8285L55.3434 23.8152L55.2791 23.802L55.2149 23.789L55.1507 23.7761L55.0864 23.7633L55.0221 23.7507L54.9578 23.7381L54.8936 23.7258L54.8293 23.7135L54.765 23.7014L54.7008 23.6894L54.6365 23.6775L54.5723 23.6657L54.508 23.6541L54.4437 23.6426L54.3794 23.6312L54.3152 23.62L54.2509 23.6088L54.1867 23.5979L54.1224 23.587L54.0581 23.5763L53.9938 23.5656L53.9296 23.5552L53.8653 23.5449L53.8011 23.5346L53.7368 23.5246L53.6725 23.5146L53.6082 23.5049L53.544 23.4952L53.4797 23.4857L53.4154 23.4763L53.3512 23.4671L53.2869 23.458L53.2227 23.4491L53.1584 23.4403L53.0941 23.4317L53.0298 23.4231L52.9656 23.4148L52.9014 23.4066L52.8371 23.3986L52.7728 23.3907L52.7085 23.383L52.6443 23.3755L52.58 23.3681L52.5157 23.3609L52.4514 23.3538L52.3872 23.3469L52.323 23.3401L52.2587 23.3337L52.1944 23.3273L52.1301 23.3211L52.0659 23.3151L52.0016 23.3093L51.9373 23.3037L51.8731 23.2982L51.8088 23.293L51.7445 23.2879L51.6803 23.2832L51.616 23.2784L51.5517 23.2741L51.4875 23.2698L51.4232 23.2659L51.3589 23.262L51.2947 23.2585L51.2304 23.2552L51.1661 23.2521L51.1333 23.2505L51.1019 23.2492L51.0376 23.2465L50.9734 23.2438L50.9091 23.2412L50.8448 23.2389L50.7805 23.2367L50.7163 23.2345L50.652 23.2326L50.5878 23.2308L50.5235 23.229L50.4592 23.2274L50.395 23.226L50.3307 23.2247L50.2664 23.2234L50.2022 23.2226L50.1379 23.2217L50.0737 23.2208L50.0094 23.2203L49.9451 23.22L49.8808 23.2196L49.8165 23.2195L49.7523 23.2196L49.688 23.2197L49.6238 23.2199L49.5595 23.2205L49.4952 23.2211L49.431 23.2218L49.3667 23.2229L49.3024 23.2239L49.2381 23.2251L49.1739 23.2267L49.1097 23.2283L49.0454 23.2299L48.9811 23.2319L48.9168 23.2341L48.8526 23.2362L48.7883 23.2388L48.7241 23.2415L48.6598 23.2441L48.5955 23.2473L48.5313 23.2505L48.467 23.2536L48.4027 23.2573L48.3384 23.261L48.2742 23.2648L48.2099 23.269L48.1457 23.2733L48.0814 23.2777L48.0171 23.2826L47.9528 23.2874L47.8886 23.2924L47.8243 23.2979L47.7601 23.3033L47.6958 23.309L47.6315 23.315L47.5672 23.321L47.503 23.3275L47.4387 23.3341L47.3745 23.3407L47.3102 23.3479L47.2459 23.3551L47.1817 23.3625L47.1174 23.3704L47.0531 23.3782L46.9888 23.3865L46.9246 23.395L46.8603 23.4035L46.7961 23.4126L46.7318 23.4217L46.6675 23.4311L46.6033 23.4409L46.539 23.4507L46.4748 23.461L46.4105 23.4715L46.3462 23.4822L46.2819 23.4933L46.2177 23.5045L46.1534 23.5162L46.0891 23.5281L46.0249 23.5403L45.9606 23.5528L45.8963 23.5654L45.8321 23.5787L45.7678 23.592L45.7035 23.6058L45.6393 23.6198L45.575 23.6341L45.5108 23.6489L45.4465 23.6637L45.3822 23.6793L45.3179 23.6949L45.2537 23.711L45.1894 23.7274L45.1252 23.7443L45.0609 23.7615L44.9966 23.779L44.9324 23.7969L44.8681 23.8152L44.8038 23.834L44.7395 23.853L44.6753 23.8726L44.611 23.8924L44.5468 23.913C44.5253 23.9199 44.5037 23.9266 44.4825 23.9336L44.4182 23.9551C44.3968 23.9623 44.3752 23.9693 44.354 23.9766L44.2897 23.999L44.2255 24.0215C44.2038 24.0291 44.1826 24.0371 44.1612 24.0449C44.1397 24.0527 44.1182 24.0604 44.0969 24.0683L44.0326 24.0927C44.0112 24.1009 43.9896 24.1089 43.9684 24.1171L43.9041 24.1425L43.8398 24.1681L43.7755 24.1945L43.7113 24.2213L43.647 24.2488L43.5828 24.2768L43.5186 24.3053L43.4543 24.3347L43.39 24.3644C43.3684 24.3745 43.3471 24.3849 43.3258 24.3951L43.2615 24.4262L43.1972 24.4582L43.133 24.4908C43.1115 24.5019 43.0899 24.5128 43.0687 24.524C43.0471 24.5353 43.0258 24.5468 43.0044 24.5583L42.9401 24.5931L42.8759 24.6287C42.8543 24.6408 42.8329 24.653 42.8116 24.6653C42.7901 24.6776 42.7686 24.6899 42.7474 24.7023C42.7258 24.715 42.7045 24.7278 42.6831 24.7406C42.6615 24.7536 42.6401 24.7666 42.6188 24.7798C42.5973 24.793 42.5758 24.8062 42.5546 24.8196C42.533 24.8332 42.5116 24.8469 42.4903 24.8607L42.4261 24.9026C42.4045 24.9169 42.383 24.931 42.3618 24.9454L42.2975 24.9895C42.2759 25.0045 42.2546 25.0196 42.2333 25.0347C42.2117 25.05 42.1902 25.0654 42.169 25.081C42.1475 25.0966 42.1259 25.1123 42.1047 25.1281C42.0831 25.1443 42.0618 25.1607 42.0404 25.1771C42.0188 25.1936 41.9974 25.2103 41.9761 25.2271C41.9546 25.2441 41.9331 25.2611 41.9119 25.2783V25.2783Z" fill="#E10238"/>
</svg>
