<svg width="100" height="60" viewBox="0 0 100 60" fill="none"
    xmlns="http://www.w3.org/2000/svg">
    <rect width="100" height="60" fill="white"/>
    <rect width="100" height="60" rx="4" fill="white"/>
    <path fill-rule="evenodd" clip-rule="evenodd" d="M56.1288 30.4854C56.1288 41.2637 47.3921 50 36.6142 50C25.8359 50 17.0986 41.2637 17.0986 30.4854C17.0986 19.7075 25.8359 10.9702 36.6142 10.9702C47.3921 10.9702 56.1288 19.7075 56.1288 30.4854Z" fill="#CC0000"/>
    <path fill-rule="evenodd" clip-rule="evenodd" d="M62.8143 10.9702C57.7707 10.9702 53.1768 12.8832 49.7129 16.0215C49.0082 16.6611 48.3503 17.3519 47.7431 18.0875H51.686C52.2245 18.7431 52.7207 19.4324 53.1737 20.1544H46.2551C45.8412 20.8177 45.465 21.507 45.1307 22.2212H54.2975C54.6109 22.8902 54.8866 23.5791 55.124 24.2872H44.3041C44.079 24.9601 43.889 25.6497 43.7373 26.3529H55.6903C55.9764 27.6852 56.1288 29.0674 56.1288 30.4854C56.1288 32.6519 55.7757 34.7373 55.124 36.6849H44.3041C44.5416 37.3923 44.8173 38.0822 45.13 38.7521H54.2975C53.9626 39.4645 53.5882 40.1544 53.1719 40.8187H46.2551C46.7063 41.5385 47.2034 42.2287 47.7431 42.8834H51.6848C51.0788 43.6195 50.4203 44.3104 49.7135 44.95C53.1771 48.0883 57.7707 50 62.8143 50C73.5919 50 82.3289 41.2637 82.3289 30.4854C82.3289 19.7084 73.5919 10.9702 62.8143 10.9702Z" fill="#FF9900"/>
    <path fill-rule="evenodd" clip-rule="evenodd" d="M32.0568 32.622C31.8344 32.5967 31.7364 32.5887 31.5837 32.5887C30.3828 32.5887 29.7756 33.0007 29.7756 33.8145C29.7756 34.3157 30.0719 34.6343 30.5345 34.6343C31.3978 34.6343 32.0198 33.8127 32.0568 32.622ZM33.5979 36.209C33.3154 36.209 31.8418 36.209 31.8418 36.209L31.8822 35.3747C31.3469 36.0335 30.6323 36.348 29.6618 36.348C28.5139 36.348 27.7266 35.4518 27.7266 34.1495C27.7266 32.189 29.0955 31.0457 31.4459 31.0457C31.6867 31.0457 31.9945 31.0679 32.3097 31.1077C32.3751 30.8419 32.3923 30.729 32.3923 30.5856C32.3923 30.0527 32.0235 29.8528 31.0338 29.8528C29.9973 29.8424 29.1424 30.1005 28.7912 30.2158C28.8134 30.082 29.0851 28.4052 29.0851 28.4052C30.1404 28.095 30.8368 27.979 31.6204 27.979C33.44 27.979 34.4037 28.7956 34.4016 30.3395C34.4053 30.7537 34.3365 31.2628 34.2301 31.9345C34.0463 33.1003 33.6515 35.6005 33.5979 36.209Z" fill="#000066"/>
    <path fill-rule="evenodd" clip-rule="evenodd" d="M26.84 36.209H24.721L25.9355 28.6002L23.225 36.209H21.7814L21.6028 28.6427L20.3272 36.209H18.3442L20.0007 26.3103H23.0473L23.2314 31.851L25.0902 26.3103H28.4786L26.84 36.209Z" fill="#000066"/>
    <path fill-rule="evenodd" clip-rule="evenodd" d="M65.432 32.622C65.2097 32.5967 65.1128 32.5887 64.9605 32.5887C63.7587 32.5887 63.152 33.0007 63.152 33.8145C63.152 34.3157 63.4472 34.6343 63.911 34.6343C64.7736 34.6343 65.3959 33.8127 65.432 32.622ZM66.974 36.209C66.6909 36.209 65.2186 36.209 65.2186 36.209L65.2584 35.3747C64.723 36.0335 64.0088 36.348 63.0389 36.348C61.8894 36.348 61.103 35.4518 61.103 34.1495C61.103 32.189 62.4726 31.0457 64.8223 31.0457C65.0629 31.0457 65.37 31.0679 65.6855 31.1077C65.7512 30.8419 65.7682 30.729 65.7682 30.5856C65.7682 30.0527 65.3993 29.8528 64.4097 29.8528C63.3732 29.8424 62.5186 30.1005 62.1661 30.2158C62.1895 30.082 62.4618 28.4052 62.4618 28.4052C63.5166 28.095 64.2135 27.979 64.996 27.979C66.8167 27.979 67.7793 28.7956 67.7774 30.3395C67.7811 30.7537 67.713 31.2628 67.6059 31.9345C67.4228 33.1003 67.0271 35.6005 66.974 36.209Z" fill="#000066"/>
    <path fill-rule="evenodd" clip-rule="evenodd" d="M43.0131 36.0866C42.433 36.2692 41.9812 36.3482 41.4908 36.3482C40.4081 36.3482 39.8169 35.7258 39.8169 34.5795C39.8017 34.2236 39.9726 33.2876 40.1071 32.434C40.2298 31.6818 41.0261 26.9404 41.0261 26.9404H43.1315L42.8857 28.1589H44.1579L43.8708 30.0938H42.5943C42.3497 31.6244 42.0009 33.5315 41.9969 33.7844C41.9969 34.1995 42.2184 34.3809 42.7226 34.3809C42.9641 34.3809 43.151 34.3562 43.2938 34.305L43.0131 36.0866Z" fill="#000066"/>
    <path fill-rule="evenodd" clip-rule="evenodd" d="M49.47 36.0214C48.7465 36.2426 48.0492 36.3505 47.3093 36.348C44.9516 36.345 43.7227 35.1144 43.7227 32.7567C43.7227 30.0052 45.2859 27.979 47.4086 27.979C49.1446 27.979 50.2539 29.1133 50.2539 30.8915C50.2539 31.4827 50.1781 32.0588 49.994 32.8718H45.8003C45.6588 34.0397 46.4057 34.526 47.6316 34.526C48.3844 34.526 49.0648 34.3706 49.8206 34.0199L49.47 36.0214ZM48.2864 31.2493C48.2984 31.0812 48.5093 29.8121 47.3056 29.8121C46.6358 29.8121 46.1556 30.3235 45.961 31.2493H48.2864Z" fill="#000066"/>
    <path fill-rule="evenodd" clip-rule="evenodd" d="M34.8686 30.704C34.8686 31.7214 35.362 32.4237 36.4815 32.9513C37.3391 33.355 37.4727 33.4744 37.4727 33.8398C37.4727 34.341 37.094 34.5686 36.256 34.5686C35.6235 34.5686 35.0357 34.4693 34.3575 34.25C34.3575 34.25 34.0797 36.0251 34.0664 36.11C34.5478 36.2142 34.9771 36.3113 36.2712 36.348C38.5064 36.348 39.539 35.4969 39.539 33.6573C39.539 32.5513 39.1072 31.9022 38.0457 31.4136C37.1578 31.0063 37.0551 30.915 37.0551 30.5393C37.0551 30.1042 37.4076 29.8818 38.0919 29.8818C38.508 29.8818 39.0757 29.9262 39.6145 30.0024L39.9158 28.1354C39.3675 28.0481 38.5354 27.979 38.0512 27.979C35.6815 27.979 34.8608 29.2166 34.8686 30.704Z" fill="#000066"/>
    <path fill-rule="evenodd" clip-rule="evenodd" d="M59.7741 28.1915C60.3625 28.1915 60.9121 28.3445 61.6674 28.726L62.0143 26.5777C61.7028 26.4555 60.6108 25.7397 59.6856 25.7397C58.2682 25.7397 57.0685 26.4441 56.2263 27.604C54.9964 27.1969 54.4903 28.0197 53.871 28.8401L53.3205 28.9684C53.3622 28.6985 53.4001 28.4305 53.3881 28.1588H51.4415C51.1762 30.651 50.7053 33.1743 50.3368 35.6674L50.2402 36.209H52.3599C52.7136 33.9102 52.907 32.4388 53.0248 31.4421L53.8229 30.9998C53.9429 30.5554 54.3151 30.4061 55.0639 30.4243C54.9661 30.9492 54.9131 31.5022 54.9131 32.0743C54.9131 34.7083 56.3361 36.3481 58.6157 36.3481C59.2033 36.3481 59.7078 36.271 60.489 36.0582L60.8603 33.8025C60.1577 34.1476 59.5826 34.3102 59.0611 34.3102C57.8293 34.3102 57.0839 33.4007 57.0839 31.8985C57.0839 29.7184 58.1917 28.1915 59.7741 28.1915Z" fill="#000066"/>
    <path fill-rule="evenodd" clip-rule="evenodd" d="M77.711 26.3103L77.2401 29.1701C76.6618 28.408 76.0395 27.856 75.2179 27.856C74.149 27.856 73.176 28.6665 72.5388 29.86C71.6516 29.6759 70.7347 29.3628 70.7347 29.3628L70.7341 29.3706C70.8047 28.7035 70.8346 28.2976 70.8275 28.1588H68.8812C68.6169 30.651 68.1454 33.1744 67.7771 35.6675L67.6797 36.209H69.7999C70.0861 34.3512 70.3048 32.8067 70.4661 31.5836C71.1908 30.9286 71.5535 30.359 72.2841 30.396C71.96 31.1799 71.7709 32.0823 71.7709 33.0081C71.7709 35.0198 72.788 36.3481 74.3288 36.3481C75.1053 36.3481 75.7012 36.0801 76.2822 35.4596L76.1823 36.2084H78.1869L79.8007 26.3103H77.711ZM75.0615 34.3494C74.3405 34.3494 73.9754 33.8146 73.9754 32.7623C73.9754 31.1799 74.6578 30.0583 75.6185 30.0583C76.3466 30.0583 76.7414 30.6122 76.7414 31.6348C76.7414 33.2308 76.0475 34.3494 75.0615 34.3494Z" fill="#000066"/>
    <path fill-rule="evenodd" clip-rule="evenodd" d="M27.4491 35.6214H25.3307L26.5449 28.0126L23.835 35.6214H22.3907L22.2125 28.0567L20.9366 35.6214H18.9536L20.61 25.7236H23.6567L23.7418 31.8509L25.7976 25.7236H29.0879L27.4491 35.6214Z" fill="white"/>
    <path fill-rule="evenodd" clip-rule="evenodd" d="M32.6664 32.0358C32.4443 32.0099 32.3462 32.0028 32.1936 32.0028C30.9927 32.0028 30.3851 32.4142 30.3851 33.2274C30.3851 33.728 30.6818 34.0484 31.1447 34.0484C32.0076 34.0484 32.6297 33.2268 32.6664 32.0358ZM34.2071 35.6216C33.9249 35.6216 32.452 35.6216 32.452 35.6216L32.4921 34.7879C31.9567 35.4464 31.2422 35.7613 30.2716 35.7613C29.1235 35.7613 28.3364 34.8638 28.3364 33.5618C28.3364 31.6009 29.7057 30.4593 32.056 30.4593C32.2963 30.4593 32.6041 30.4811 32.9196 30.5219C32.9849 30.2554 33.0022 30.1422 33.0022 29.9982C33.0022 29.4656 32.6334 29.2673 31.6437 29.2673C30.6069 29.255 29.7523 29.5131 29.4007 29.6281C29.4232 29.4949 29.6946 27.8181 29.6946 27.8181C30.7503 27.5085 31.4466 27.3916 32.2303 27.3916C34.0495 27.3916 35.013 28.2092 35.0114 29.7524C35.0148 30.166 34.9467 30.6776 34.84 31.3474C34.6558 32.5123 34.2611 35.014 34.2071 35.6216Z" fill="white"/>
    <path fill-rule="evenodd" clip-rule="evenodd" d="M62.6237 25.9902L62.2768 28.1382C61.5203 27.7579 60.9722 27.604 60.3844 27.604C58.8026 27.604 57.693 29.1328 57.693 31.3132C57.693 32.8154 58.4387 33.723 59.6705 33.723C60.1923 33.723 60.7687 33.5617 61.4697 33.2154L61.0975 35.471C60.3175 35.6835 59.8127 35.7612 59.2255 35.7612C56.9442 35.7612 55.5234 34.1211 55.5234 31.4877C55.5234 27.9491 57.4876 25.4761 60.2953 25.4761C61.2205 25.4761 62.3132 25.8681 62.6237 25.9902Z" fill="white"/>
    <path fill-rule="evenodd" clip-rule="evenodd" d="M66.0413 32.0358C65.8205 32.0099 65.7221 32.0028 65.5697 32.0028C64.3694 32.0028 63.7616 32.4142 63.7616 33.2274C63.7616 33.728 64.058 34.0484 64.5206 34.0484C65.3832 34.0484 66.0058 33.2268 66.0413 32.0358ZM67.5833 35.6216C67.3014 35.6216 65.8282 35.6216 65.8282 35.6216L65.868 34.7879C65.3326 35.4464 64.618 35.7613 63.6484 35.7613C62.499 35.7613 61.7129 34.8638 61.7129 33.5618C61.7129 31.6009 63.081 30.4593 65.4319 30.4593C65.6721 30.4593 65.9793 30.4811 66.2945 30.5219C66.3602 30.2554 66.3774 30.1422 66.3774 29.9982C66.3774 29.4656 66.0095 29.2673 65.0192 29.2673C63.9833 29.255 63.1291 29.5131 62.7769 29.6281C62.7991 29.4949 63.0708 27.8181 63.0708 27.8181C64.1264 27.5085 64.8222 27.3916 65.6058 27.3916C67.4251 27.3916 68.3894 28.2092 68.387 29.7524C68.3913 30.166 68.3225 30.6776 68.2158 31.3474C68.0323 32.5123 67.6376 35.014 67.5833 35.6216Z" fill="white"/>
    <path fill-rule="evenodd" clip-rule="evenodd" d="M43.6229 35.4993C43.0434 35.6819 42.591 35.7612 42.1013 35.7612C41.0182 35.7612 40.4267 35.1385 40.4267 33.9934C40.4119 33.6363 40.583 32.7019 40.7178 31.8473C40.8396 31.0945 41.6362 26.3538 41.6362 26.3538H43.7423L43.4959 27.5719H44.5771L44.2891 29.5062H43.2044C42.9599 31.0383 42.6111 32.9443 42.6068 33.1971C42.6068 33.6135 42.8291 33.7936 43.3327 33.7936C43.5742 33.7936 43.7608 33.7698 43.9042 33.7174L43.6229 35.4993Z" fill="white"/>
    <path fill-rule="evenodd" clip-rule="evenodd" d="M50.0806 35.4356C49.3568 35.6573 48.658 35.7619 47.9191 35.7613C45.5611 35.7597 44.333 34.5277 44.333 32.1703C44.333 29.4178 45.896 27.3916 48.0171 27.3916C49.755 27.3916 50.8637 28.5259 50.8637 30.3063C50.8637 30.8963 50.7866 31.472 50.6046 32.2853H46.4104C46.2682 33.4532 47.0161 33.9405 48.2407 33.9405C48.9942 33.9405 49.6742 33.7844 50.431 33.4328L50.0806 35.4356ZM48.8967 30.6619C48.9081 30.4935 49.12 29.225 47.9166 29.225C47.2462 29.225 46.766 29.7373 46.5708 30.6619H48.8967Z" fill="white"/>
    <path fill-rule="evenodd" clip-rule="evenodd" d="M35.4778 30.1166C35.4778 31.1359 35.9719 31.8366 37.0917 32.3649C37.9493 32.7682 38.0822 32.8876 38.0822 33.2534C38.0822 33.7551 37.7038 33.9815 36.8653 33.9815C36.2334 33.9815 35.6453 33.8834 34.9668 33.6648C34.9668 33.6648 34.6892 35.4387 34.6763 35.5222C35.1574 35.6277 35.587 35.7239 36.8804 35.7613C39.1163 35.7613 40.1488 34.9104 40.1488 33.0708C40.1488 31.9642 39.7164 31.3154 38.6552 30.8281C37.767 30.4195 37.665 30.3291 37.665 29.9529C37.665 29.5177 38.0172 29.2938 38.7021 29.2938C39.1172 29.2938 39.6856 29.3401 40.2241 29.4159L40.5257 27.5492C39.977 27.4625 39.1456 27.3916 38.6611 27.3916C36.2907 27.3916 35.4707 28.6295 35.4778 30.1166Z" fill="white"/>
    <path fill-rule="evenodd" clip-rule="evenodd" d="M78.7966 35.6214H76.7926L76.8919 34.8723C76.3106 35.4931 75.7151 35.7611 74.9385 35.7611C73.399 35.7611 72.3804 34.4344 72.3804 32.4205C72.3804 29.743 73.9597 27.4861 75.8277 27.4861C76.6492 27.4861 77.2713 27.8217 77.8508 28.584L78.3208 25.7236H80.4102L78.7966 35.6214ZM75.671 33.7614C76.6582 33.7614 77.3508 32.6435 77.3508 31.0491C77.3508 30.0261 76.9564 29.4704 76.2283 29.4704C75.2673 29.4704 74.5851 30.5923 74.5851 32.1754C74.5851 33.2288 74.9506 33.7614 75.671 33.7614Z" fill="white"/>
    <path fill-rule="evenodd" clip-rule="evenodd" d="M69.4917 27.572C69.2268 30.0636 68.7556 32.5869 68.3871 35.0803L68.2905 35.6216H70.4095C71.1676 30.6989 71.3499 29.7382 72.539 29.8582C72.7281 28.8506 73.0806 27.9683 73.343 27.5236C72.4558 27.3386 71.9602 27.84 71.3107 28.793C71.3625 28.3806 71.4559 27.9806 71.4384 27.572H69.4917Z" fill="white"/>
    <path fill-rule="evenodd" clip-rule="evenodd" d="M52.0518 27.572C51.7856 30.0636 51.3138 32.5869 50.9458 35.0803L50.8496 35.6216H52.9692C53.7276 30.6989 53.9092 29.7382 55.0966 29.8582C55.2869 28.8506 55.64 27.9683 55.9018 27.5236C55.0155 27.3386 54.5189 27.84 53.8707 28.793C53.9219 28.3806 54.0159 27.9806 53.9974 27.572H52.0518Z" fill="white"/>
</svg>
