<svg width="100" height="60" viewBox="0 0 100 60" fill="none"
    xmlns="http://www.w3.org/2000/svg">
    <rect width="100" height="60" fill="white"/>
    <rect width="100" height="60" rx="4" fill="white"/>
    <path fill-rule="evenodd" clip-rule="evenodd" d="M80.6119 8.11054L63.8956 8.1062C63.8936 8.1062 63.8913 8.1062 63.8913 8.1062C63.8784 8.1062 63.8658 8.10852 63.8531 8.10852C61.5567 8.17944 58.6966 10.0361 58.1757 12.3256L50.2704 47.5863C49.7495 49.8971 51.1666 51.7774 53.4464 51.812H71.0075C73.2525 51.7001 75.4341 49.8648 75.9461 47.6013L83.8517 12.3403C84.3809 10.006 82.9296 8.11054 80.6119 8.11054Z" fill="#01798A"/>
    <path fill-rule="evenodd" clip-rule="evenodd" d="M50.2703 47.5862L58.1756 12.3255C58.6965 10.0361 61.5567 8.17939 63.8531 8.10847L57.2067 8.10412L45.2321 8.10181C42.9292 8.14928 40.0318 10.019 39.5111 12.3255L31.6035 47.5862C31.0807 49.897 32.4999 51.7774 34.7782 51.812H53.4463C51.1666 51.7774 49.7494 49.897 50.2703 47.5862Z" fill="#024381"/>
    <path fill-rule="evenodd" clip-rule="evenodd" d="M31.6036 47.5864L39.5112 12.3257C40.0319 10.0191 42.9294 8.14943 45.2322 8.10195L29.8919 8.0979C27.5762 8.0979 24.6072 9.98903 24.078 12.3257L16.1703 47.5864C16.1222 47.8016 16.0955 48.0124 16.0796 48.2188V48.873C16.2344 50.5574 17.5106 51.7841 19.345 51.8121H34.7783C32.5 51.7775 31.0808 49.8972 31.6036 47.5864Z" fill="#DD0228"/>
    <path fill-rule="evenodd" clip-rule="evenodd" d="M45.5554 33.7951H45.8457C46.1125 33.7951 46.292 33.7048 46.3761 33.5262L47.1305 32.3881H49.1507L48.7294 33.1366H51.1516L50.8444 34.2836H47.9621C47.6302 34.787 47.2215 35.0237 46.7302 34.9956H45.2289L45.5554 33.7951H45.5554ZM45.2237 35.4389H50.5305L50.1922 36.6847H48.058L47.7324 37.8873H49.8092L49.4709 39.133H47.3941L46.9117 40.91C46.7922 41.2071 46.9493 41.3406 47.3803 41.3103H49.0729L48.7593 42.468H45.5098C44.8938 42.468 44.6825 42.1128 44.8757 41.4008L45.4925 39.133H44.165L44.5023 37.8873H45.8299L46.1553 36.6847H44.8863L45.2237 35.4389H45.2237ZM53.6939 32.3796L53.6103 33.1089C53.6103 33.1089 54.6114 32.3513 55.5205 32.3513H58.88L57.5953 37.0395C57.4887 37.5754 57.0319 37.8419 56.2249 37.8419H52.4172L51.5252 41.1339C51.4738 41.3103 51.5465 41.4008 51.7386 41.4008H52.4878L52.2124 42.4226H50.3077C49.5766 42.4226 49.2724 42.201 49.3931 41.7558L51.9135 32.3796H53.6939H53.6939H53.6939ZM56.5388 33.7048H53.5403L53.1816 34.9698C53.1816 34.9698 53.681 34.6064 54.5155 34.5934C55.3477 34.5803 56.2976 34.5934 56.2976 34.5934L56.5388 33.7048ZM55.4525 36.6394C55.6742 36.6697 55.7982 36.5813 55.8131 36.3725L55.9966 35.7057H52.9935L52.7417 36.6394H55.4525ZM53.4268 38.1541H55.1578L55.1257 38.9091H55.5866C55.8195 38.9091 55.9349 38.834 55.9349 38.6856L56.0713 38.1971H57.51L57.3179 38.9091C57.1553 39.503 56.7246 39.8128 56.0245 39.8432H55.1024L55.0981 41.1339C55.0812 41.3406 55.2667 41.446 55.6486 41.446H56.5153L56.2356 42.468H54.1568C53.5741 42.4959 53.2884 42.2161 53.2944 41.6224L53.4268 38.1541Z" fill="white"/>
    <path fill-rule="evenodd" clip-rule="evenodd" d="M32.4511 26.1336C32.2164 27.2933 31.6721 28.184 30.8279 28.8166C29.9913 29.4384 28.9123 29.7502 27.5913 29.7502C26.3481 29.7502 25.4366 29.4318 24.855 28.7928C24.4516 28.3388 24.251 27.7623 24.251 27.0651C24.251 26.7769 24.2852 26.4671 24.3535 26.1336L25.761 19.292H27.8869L26.4985 26.0562C26.4557 26.2434 26.4387 26.4177 26.4409 26.5747C26.4387 26.9212 26.524 27.2051 26.6969 27.4266C26.9487 27.7559 27.3575 27.9193 27.9263 27.9193C28.5804 27.9193 29.1194 27.7581 29.5377 27.4331C29.9561 27.1104 30.2292 26.6522 30.3519 26.0562L31.7447 19.292H33.8597L32.4511 26.1336Z" fill="white"/>
    <path fill-rule="evenodd" clip-rule="evenodd" d="M41.379 23.4423H43.0438L41.7397 29.5483H40.0781L41.379 23.4423ZM41.903 21.2178H43.5827L43.269 22.6999H41.5894L41.903 21.2178Z" fill="white"/>
    <path fill-rule="evenodd" clip-rule="evenodd" d="M44.5173 29.0834C44.0818 28.6639 43.862 28.0981 43.8599 27.3795C43.8599 27.2568 43.8673 27.117 43.8834 26.9641C43.8995 26.8092 43.9198 26.6586 43.9485 26.5188C44.1459 25.527 44.5664 24.7396 45.2141 24.1586C45.8608 23.5756 46.641 23.283 47.5545 23.283C48.3025 23.283 48.8958 23.4938 49.3303 23.9155C49.7645 24.3394 49.9822 24.9116 49.9822 25.639C49.9822 25.7636 49.9727 25.9078 49.9566 26.0627C49.9374 26.2198 49.9141 26.3704 49.8871 26.5188C49.6941 27.4956 49.2749 28.2745 48.627 28.8447C47.9792 29.4191 47.2013 29.7051 46.2941 29.7051C45.5429 29.7051 44.9517 29.4986 44.5173 29.0834M47.69 27.8743C47.9835 27.5537 48.1937 27.0674 48.3218 26.4199C48.341 26.3188 48.358 26.2133 48.3686 26.1079C48.3792 26.0046 48.3835 25.9078 48.3835 25.8196C48.3835 25.443 48.2885 25.1505 48.0975 24.9439C47.9077 24.7352 47.6378 24.6321 47.2889 24.6321C46.8277 24.6321 46.4521 24.7953 46.1577 25.1225C45.8608 25.4496 45.6506 25.9444 45.5182 26.6028C45.5001 26.7038 45.4852 26.805 45.4714 26.904C45.4608 27.0051 45.4576 27.0997 45.4596 27.1858C45.4596 27.5602 45.5547 27.8485 45.7457 28.0528C45.9355 28.2573 46.2043 28.3584 46.5578 28.3584C47.0209 28.3584 47.3966 28.197 47.69 27.8743" fill="white"/>
    <path fill-rule="evenodd" clip-rule="evenodd" d="M63.8916 8.11387L57.207 8.10425L63.8534 8.12486C63.866 8.12486 63.8787 8.11387 63.8916 8.11387" fill="white"/>
    <path fill-rule="evenodd" clip-rule="evenodd" d="M57.2071 8.12815L45.3243 8.0979C45.2945 8.0979 45.2634 8.10752 45.2324 8.11715L57.2071 8.12815" fill="white"/>
    <path fill-rule="evenodd" clip-rule="evenodd" d="M60.784 33.8469L61.1855 32.4226H63.2151L63.1275 32.9453C63.1275 32.9453 64.1648 32.4226 64.9117 32.4226C65.6589 32.4226 67.4215 32.4226 67.4215 32.4226L67.0226 33.8469H66.6278L64.7345 40.5639H65.1293L64.7537 41.8978H64.3589L64.1946 42.4766H62.229L62.393 41.8978H58.5151L58.893 40.5639H59.2816L61.1766 33.8469H60.784H60.784ZM62.9739 33.8469L62.4573 35.6648C62.4573 35.6648 63.3412 35.3228 64.103 35.226C64.2713 34.5912 64.4913 33.8469 64.4913 33.8469H62.9739V33.8469ZM62.2181 36.5169L61.6998 38.421C61.6998 38.421 62.6793 37.9347 63.3515 37.8938C63.5456 37.1579 63.7401 36.5169 63.7401 36.5169H62.2181ZM62.598 40.5639L62.9865 39.1827H61.4715L61.0809 40.5639H62.598ZM67.507 32.3345H69.4152L69.4962 33.0442C69.4836 33.2249 69.5901 33.3112 69.8164 33.3112H70.1535L69.8124 34.5138H68.4099C67.8743 34.5417 67.5989 34.3353 67.5734 33.8898L67.507 32.3345ZM66.9479 34.9141H73.1288L72.7661 36.205H70.7982L70.4608 37.4053H72.4267L72.0617 38.6942H69.8721L69.3768 39.4495H70.4485L70.696 40.9619C70.7256 41.1125 70.8579 41.1857 71.0842 41.1857H71.417L71.0673 42.4312H69.8891C69.2786 42.4615 68.963 42.2549 68.9371 41.8096L68.6531 40.4284L67.6779 41.8978C67.4473 42.313 67.093 42.5068 66.6151 42.4766H64.8158L65.1658 41.2307H65.7272C65.9578 41.2307 66.1496 41.1274 66.3225 40.9188L67.8488 38.6942H65.8808L66.2455 37.4053H68.38L68.7194 36.205H66.583L66.9479 34.9141Z" fill="white"/>
    <path fill-rule="evenodd" clip-rule="evenodd" d="M34.4095 23.4401H35.9109L35.7392 24.3222L35.9547 24.0705C36.4414 23.5456 37.0325 23.2852 37.7305 23.2852C38.3622 23.2852 38.8179 23.4703 39.1039 23.8424C39.3856 24.2147 39.4624 24.7289 39.3292 25.3894L38.502 29.5504H36.9589L37.7059 25.7788C37.7828 25.3894 37.7615 25.0989 37.6429 24.9117C37.5256 24.7245 37.3014 24.6321 36.9781 24.6321C36.5811 24.6321 36.2471 24.7567 35.975 25.0043C35.7017 25.2538 35.5214 25.6003 35.4328 26.0413L34.7445 29.5504H33.1982L34.4095 23.4401Z" fill="white"/>
    <path fill-rule="evenodd" clip-rule="evenodd" d="M51.6275 23.4401H53.1302L52.9596 24.3222L53.1727 24.0705C53.6597 23.5456 54.253 23.2852 54.9488 23.2852C55.5805 23.2852 56.0371 23.4703 56.3208 23.8424C56.6008 24.2147 56.6818 24.7289 56.5451 25.3894L55.7213 29.5504H54.176L54.9232 25.7788C54.9999 25.3894 54.9786 25.0989 54.8612 24.9117C54.7394 24.7245 54.5195 24.6321 54.1976 24.6321C53.8004 24.6321 53.4676 24.7567 53.1922 25.0043C52.9188 25.2538 52.7376 25.6003 52.6523 26.0413L51.9609 29.5504H50.4165L51.6275 23.4401" fill="white"/>
    <path fill-rule="evenodd" clip-rule="evenodd" d="M59.0555 19.6533H63.4181C64.2569 19.6533 64.9056 19.845 65.3516 20.2213C65.7955 20.6022 66.0178 21.1487 66.0178 21.8608V21.8823C66.0178 22.0177 66.0089 22.1706 65.9963 22.3362C65.9747 22.4997 65.9469 22.6653 65.911 22.8375C65.7189 23.7799 65.2726 24.5373 64.5834 25.1117C63.8916 25.684 63.0724 25.9723 62.129 25.9723H59.7895L59.0662 29.5503H57.0405L59.0555 19.6533M60.1459 24.2512H62.0863C62.5919 24.2512 62.9931 24.1327 63.2857 23.8983C63.5761 23.6616 63.7682 23.3003 63.8747 22.8097C63.8916 22.7191 63.9023 22.6375 63.9152 22.5622C63.9218 22.4913 63.9301 22.4201 63.9301 22.3515C63.9301 22.0007 63.8066 21.7468 63.5588 21.5876C63.3113 21.4261 62.923 21.3488 62.3849 21.3488H60.7372L60.1459 24.2512" fill="white"/>
    <path fill-rule="evenodd" clip-rule="evenodd" d="M75.084 30.7315C74.4436 32.1041 73.8334 32.9043 73.475 33.2765C73.1161 33.6446 72.4056 34.5009 70.6938 34.4363L70.8412 33.3886C72.2816 32.9411 73.0606 30.9249 73.5046 30.0322L72.9753 23.4572L74.0895 23.4421H75.0243L75.1248 27.5666L76.8767 23.4421H78.6505L75.084 30.7315Z" fill="white"/>
    <path fill-rule="evenodd" clip-rule="evenodd" d="M70.1242 23.9393L69.4196 24.4277C68.6833 23.8469 68.011 23.4875 66.7136 24.0942C64.9461 24.9203 63.4693 31.2566 68.3355 29.1696L68.6129 29.5009L70.5274 29.5504L71.7846 23.7929L70.1242 23.9393M69.0356 27.0869C68.7281 28.0014 68.0412 28.6059 67.5033 28.4338C66.9655 28.266 66.7734 27.3838 67.0849 26.4673C67.3922 25.5507 68.0837 24.9483 68.6172 25.1205C69.1551 25.2883 69.3492 26.1703 69.0356 27.0869Z" fill="white"/>
</svg>
