<svg width="100" height="60" viewBox="0 0 100 60" fill="none"
    xmlns="http://www.w3.org/2000/svg">
    <rect width="100" height="60" fill="white"/>
    <rect width="100" height="60" rx="4" fill="white"/>
    <path fill-rule="evenodd" clip-rule="evenodd" d="M41.4902 39.5467L44.565 20.4727H49.4798L46.4054 39.5467H41.4902Z" fill="#26337A"/>
    <path fill-rule="evenodd" clip-rule="evenodd" d="M64.233 20.9409C63.2612 20.5581 61.7329 20.1406 59.8289 20.1406C54.9697 20.1406 51.5492 22.7291 51.5208 26.4356C51.4899 29.1772 53.9617 30.7063 55.8251 31.6175C57.7403 32.5516 58.3838 33.1494 58.3762 33.9846C58.363 35.262 56.8475 35.8474 55.4344 35.8474C53.4667 35.8474 52.4212 35.5592 50.8049 34.8471L50.1727 34.5434L49.4854 38.813C50.6314 39.3443 52.756 39.8054 54.961 39.8296C60.1252 39.8296 63.4808 37.2725 63.5201 33.3144C63.5378 31.1403 62.2282 29.4925 59.3918 28.1319C57.6742 27.2474 56.6201 26.6615 56.6322 25.7663C56.6333 24.9736 57.5227 24.1249 59.4477 24.1249C61.0554 24.0989 62.2192 24.4702 63.126 24.8578L63.5674 25.0758L64.233 20.9409Z" fill="#26337A"/>
    <path fill-rule="evenodd" clip-rule="evenodd" d="M70.7773 32.7842C71.1846 31.6878 72.7352 27.4526 72.7352 27.4526C72.7065 27.5031 73.1403 26.3478 73.3885 25.6329L73.7202 27.278C73.7202 27.278 74.6633 31.8307 74.8576 32.7842C74.0924 32.7842 71.737 32.7842 70.7773 32.7842ZM76.8408 20.4921H73.0425C71.8643 20.4921 70.9825 20.8295 70.4664 22.0732L63.1675 39.5535H68.3297C68.3297 39.5535 69.1719 37.2019 69.3631 36.6859C69.9261 36.6859 74.9422 36.6957 75.6581 36.6957C75.8054 37.3614 76.2566 39.5535 76.2566 39.5535H80.8184L76.8408 20.4921Z" fill="#26337A"/>
    <path fill-rule="evenodd" clip-rule="evenodd" d="M37.3666 20.4888L32.5561 33.4927L32.0408 30.8493C31.1444 27.8037 28.3538 24.5026 25.2324 22.8485L29.6334 39.5302L34.835 39.5271L42.575 20.4888H37.3666Z" fill="#26337A"/>
    <path fill-rule="evenodd" clip-rule="evenodd" d="M28.0906 20.4758H20.1648L20.0996 20.871C26.2668 22.451 30.3473 26.2648 32.041 30.8494L30.3187 22.0851C30.0215 20.8764 29.158 20.5181 28.0906 20.4758Z" fill="#EC982D"/>
</svg>
