<svg width="121" height="41" viewBox="0 0 121 41" fill="none" xmlns="http://www.w3.org/2000/svg">
<rect x="1.00079" y="1.33789" width="119" height="39" rx="6.5" fill="white"/>
<rect x="1.00079" y="1.33789" width="119" height="39" rx="6.5" stroke="#1E2749"/>
<path d="M82.0267 20.0388V22.3298H80.5906V23.8322H82.0267V28.9372C82.0267 30.6804 82.8152 31.3776 84.7991 31.3776C85.1478 31.3776 85.4798 31.3361 85.7703 31.2863V29.8005C85.5213 29.8254 85.3636 29.842 85.0896 29.842C84.2015 29.842 83.8113 29.4269 83.8113 28.4806V23.8322H85.7703V22.3298H83.8113V20.0388H82.0267Z" fill="#1E2749"/>
<path d="M90.8242 31.5021C93.4638 31.5021 95.0825 29.7341 95.0825 26.8039C95.0825 23.8903 93.4555 22.1139 90.8242 22.1139C88.1845 22.1139 86.5576 23.8903 86.5576 26.8039C86.5576 29.7341 88.1762 31.5021 90.8242 31.5021ZM90.8242 29.9167C89.2719 29.9167 88.4003 28.7795 88.4003 26.8039C88.4003 24.8449 89.2719 23.6994 90.8242 23.6994C92.3681 23.6994 93.248 24.8449 93.248 26.8039C93.248 28.7712 92.3681 29.9167 90.8242 29.9167Z" fill="#1E2749"/>
<path d="M96.4674 31.3278H98.252V25.9904C98.252 24.7204 99.2066 23.8654 100.56 23.8654C100.875 23.8654 101.406 23.9235 101.556 23.9733V22.2136C101.365 22.1638 101.024 22.1388 100.759 22.1388C99.5802 22.1388 98.5758 22.7863 98.3184 23.6745H98.1856V22.2883H96.4674V31.3278Z" fill="#1E2749"/>
<path d="M105.987 23.633C107.307 23.633 108.17 24.5544 108.212 25.9738H103.646C103.746 24.5627 104.667 23.633 105.987 23.633ZM108.203 28.8874C107.871 29.5929 107.133 29.9831 106.053 29.9831C104.626 29.9831 103.704 28.9787 103.646 27.3932V27.2936H110.03V26.6711C110.03 23.8322 108.51 22.1139 105.995 22.1139C103.447 22.1139 101.828 23.9484 101.828 26.8371C101.828 29.7258 103.414 31.5021 106.004 31.5021C108.071 31.5021 109.515 30.506 109.922 28.8874H108.203Z" fill="#1E2749"/>
<path d="M70.3231 27.9896C70.4607 30.2094 72.3105 31.6289 75.0636 31.6289C78.006 31.6289 79.8472 30.1405 79.8472 27.766C79.8472 25.899 78.7975 24.8666 76.2509 24.2729L74.8829 23.9374C73.2655 23.5588 72.6116 23.0512 72.6116 22.1651C72.6116 21.0466 73.6268 20.3153 75.1497 20.3153C76.595 20.3153 77.593 21.0294 77.7737 22.1737H79.6493C79.5374 20.083 77.6963 18.6118 75.1755 18.6118C72.4654 18.6118 70.6586 20.083 70.6586 22.2941C70.6586 24.1181 71.6824 25.2021 73.9279 25.7269L75.5282 26.1141C77.1715 26.5012 77.8942 27.0691 77.8942 28.0155C77.8942 29.1167 76.7585 29.9168 75.2099 29.9168C73.5494 29.9168 72.3965 29.1683 72.2331 27.9896H70.3231Z" fill="#1E2749"/>
<path d="M51.8357 22.1388C50.6072 22.1388 49.5447 22.7531 48.9969 23.7824H48.8641V22.2883H47.1458V34.3327H48.9305V29.9582H49.0716C49.5447 30.9128 50.5657 31.4772 51.8523 31.4772C54.1351 31.4772 55.5877 29.676 55.5877 26.8039C55.5877 23.9318 54.1351 22.1388 51.8357 22.1388ZM51.3294 29.8752C49.8353 29.8752 48.8973 28.6965 48.8973 26.8122C48.8973 24.9196 49.8353 23.7409 51.3377 23.7409C52.8484 23.7409 53.7532 24.8947 53.7532 26.8039C53.7532 28.7214 52.8484 29.8752 51.3294 29.8752Z" fill="#1E2749"/>
<path d="M61.8325 22.1388C60.604 22.1388 59.5415 22.7531 58.9937 23.7824H58.8609V22.2883H57.1426V34.3327H58.9273V29.9582H59.0684C59.5415 30.9128 60.5625 31.4772 61.8491 31.4772C64.1319 31.4772 65.5845 29.676 65.5845 26.8039C65.5845 23.9318 64.1319 22.1388 61.8325 22.1388ZM61.3262 29.8752C59.8321 29.8752 58.8941 28.6965 58.8941 26.8122C58.8941 24.9196 59.8321 23.7409 61.3345 23.7409C62.8452 23.7409 63.75 24.8947 63.75 26.8039C63.75 28.7214 62.8452 29.8752 61.3262 29.8752Z" fill="#1E2749"/>
<path d="M43.9438 31.3278H45.9914L41.509 18.9129H39.4356L34.9531 31.3278H36.9319L38.0762 28.0327H42.8081L43.9438 31.3278ZM40.3733 21.1671H40.5196L42.3177 26.4152H38.5666L40.3733 21.1671Z" fill="#1E2749"/>
<path d="M36.1519 9.54883V15.5378H38.3143C40.0989 15.5378 41.1324 14.438 41.1324 12.5247C41.1324 10.6404 40.0906 9.54883 38.3143 9.54883H36.1519ZM37.0816 10.3955H38.2105C39.4515 10.3955 40.1861 11.1841 40.1861 12.5371C40.1861 13.9109 39.4639 14.6912 38.2105 14.6912H37.0816V10.3955Z" fill="#1E2749"/>
<path d="M44.2975 15.625C45.6173 15.625 46.4266 14.741 46.4266 13.2759C46.4266 11.8191 45.6131 10.9309 44.2975 10.9309C42.9776 10.9309 42.1642 11.8191 42.1642 13.2759C42.1642 14.741 42.9735 15.625 44.2975 15.625ZM44.2975 14.8323C43.5213 14.8323 43.0856 14.2637 43.0856 13.2759C43.0856 12.2964 43.5213 11.7236 44.2975 11.7236C45.0694 11.7236 45.5094 12.2964 45.5094 13.2759C45.5094 14.2595 45.0694 14.8323 44.2975 14.8323Z" fill="#1E2749"/>
<path d="M53.3188 11.0181H52.4264L51.6213 14.467H51.5507L50.621 11.0181H49.766L48.8363 14.467H48.7699L47.9606 11.0181H47.0558L48.3009 15.5378H49.2182L50.1479 12.2092H50.2184L51.1523 15.5378H52.0778L53.3188 11.0181Z" fill="#1E2749"/>
<path d="M54.3464 15.5378H55.2387V12.894C55.2387 12.1885 55.6579 11.7485 56.3178 11.7485C56.9777 11.7485 57.2932 12.1096 57.2932 12.8359V15.5378H58.1855V12.6118C58.1855 11.5369 57.6294 10.9309 56.6208 10.9309C55.9401 10.9309 55.4919 11.2339 55.2719 11.7361H55.2055V11.0181H54.3464V15.5378Z" fill="#1E2749"/>
<path d="M59.5908 15.5378H60.4832V9.25415H59.5908V15.5378Z" fill="#1E2749"/>
<path d="M63.8392 15.625C65.159 15.625 65.9683 14.741 65.9683 13.2759C65.9683 11.8191 65.1548 10.9309 63.8392 10.9309C62.5193 10.9309 61.7059 11.8191 61.7059 13.2759C61.7059 14.741 62.5152 15.625 63.8392 15.625ZM63.8392 14.8323C63.063 14.8323 62.6273 14.2637 62.6273 13.2759C62.6273 12.2964 63.063 11.7236 63.8392 11.7236C64.6111 11.7236 65.0511 12.2964 65.0511 13.2759C65.0511 14.2595 64.6111 14.8323 63.8392 14.8323Z" fill="#1E2749"/>
<path d="M68.6271 14.8613C68.1415 14.8613 67.7887 14.6248 67.7887 14.218C67.7887 13.8196 68.0709 13.6079 68.6935 13.5664L69.7975 13.4958V13.8735C69.7975 14.4338 69.2994 14.8613 68.6271 14.8613ZM68.3988 15.6125C68.9923 15.6125 69.4862 15.3552 69.756 14.9028H69.8265V15.5378H70.6857V12.45C70.6857 11.4954 70.0465 10.9309 68.9134 10.9309C67.8883 10.9309 67.1578 11.429 67.0665 12.2051H67.9298C68.0294 11.8855 68.3739 11.7029 68.8719 11.7029C69.482 11.7029 69.7975 11.9727 69.7975 12.45V12.8401L68.5731 12.9106C67.4982 12.9771 66.8922 13.446 66.8922 14.2595C66.8922 15.0854 67.5272 15.6125 68.3988 15.6125Z" fill="#1E2749"/>
<path d="M73.7138 15.6125C74.3363 15.6125 74.8634 15.3179 75.1332 14.824H75.2038V15.5378H76.0588V9.25415H75.1664V11.7361H75.1C74.8551 11.238 74.3322 10.9434 73.7138 10.9434C72.5724 10.9434 71.8378 11.8481 71.8378 13.2759C71.8378 14.7078 72.5641 15.6125 73.7138 15.6125ZM73.967 11.7444C74.714 11.7444 75.183 12.3379 75.183 13.28C75.183 14.2263 74.7182 14.8115 73.967 14.8115C73.2116 14.8115 72.7592 14.2346 72.7592 13.2759C72.7592 12.3254 73.2157 11.7444 73.967 11.7444Z" fill="#1E2749"/>
<path d="M81.8452 15.625C83.1651 15.625 83.9744 14.741 83.9744 13.2759C83.9744 11.8191 83.1609 10.9309 81.8452 10.9309C80.5254 10.9309 79.7119 11.8191 79.7119 13.2759C79.7119 14.741 80.5213 15.625 81.8452 15.625ZM81.8452 14.8323C81.0691 14.8323 80.6333 14.2637 80.6333 13.2759C80.6333 12.2964 81.0691 11.7236 81.8452 11.7236C82.6172 11.7236 83.0571 12.2964 83.0571 13.2759C83.0571 14.2595 82.6172 14.8323 81.8452 14.8323Z" fill="#1E2749"/>
<path d="M85.1556 15.5378H86.0479V12.894C86.0479 12.1885 86.4671 11.7485 87.127 11.7485C87.7869 11.7485 88.1024 12.1096 88.1024 12.8359V15.5378H88.9947V12.6118C88.9947 11.5369 88.4385 10.9309 87.43 10.9309C86.7493 10.9309 86.3011 11.2339 86.0811 11.7361H86.0147V11.0181H85.1556V15.5378Z" fill="#1E2749"/>
<path d="M93.1044 9.89331V11.0388H92.3864V11.79H93.1044V14.3425C93.1044 15.2141 93.4987 15.5627 94.4906 15.5627C94.665 15.5627 94.831 15.542 94.9762 15.5171V14.7742C94.8517 14.7866 94.7729 14.7949 94.6359 14.7949C94.1918 14.7949 93.9967 14.5874 93.9967 14.1143V11.79H94.9762V11.0388H93.9967V9.89331H93.1044Z" fill="#1E2749"/>
<path d="M96.174 15.5378H97.0664V12.8982C97.0664 12.2134 97.4731 11.7527 98.2036 11.7527C98.8344 11.7527 99.1706 12.1179 99.1706 12.8401V15.5378H100.063V12.6201C100.063 11.5452 99.4694 10.9351 98.5066 10.9351C97.8259 10.9351 97.3486 11.238 97.1286 11.7444H97.0581V9.25415H96.174V15.5378Z" fill="#1E2749"/>
<path d="M103.282 11.6904C103.942 11.6904 104.374 12.1511 104.394 12.8608H102.112C102.161 12.1553 102.622 11.6904 103.282 11.6904ZM104.39 14.3176C104.224 14.6704 103.855 14.8655 103.315 14.8655C102.601 14.8655 102.141 14.3633 102.112 13.5706V13.5208H105.303V13.2095C105.303 11.79 104.544 10.9309 103.286 10.9309C102.012 10.9309 101.203 11.8481 101.203 13.2925C101.203 14.7368 101.995 15.625 103.29 15.625C104.324 15.625 105.046 15.127 105.249 14.3176H104.39Z" fill="#1E2749"/>
<path d="M25.2698 21.1387C25.2914 19.4577 26.1942 17.8671 27.6263 16.9866C26.7229 15.6963 25.2096 14.8782 23.6352 14.829C21.9559 14.6527 20.328 15.8338 19.4723 15.8338C18.6 15.8338 17.2825 14.8465 15.8638 14.8757C14.0145 14.9354 12.2906 15.9868 11.3909 17.6035C9.45687 20.9519 10.8995 25.873 12.7521 28.5796C13.679 29.905 14.7622 31.3854 16.1797 31.3329C17.5668 31.2754 18.0848 30.4484 19.7591 30.4484C21.4179 30.4484 21.9039 31.3329 23.3501 31.2995C24.8385 31.2754 25.7762 29.9683 26.6706 28.6304C27.3366 27.686 27.849 26.6423 28.189 25.5379C26.4399 24.7981 25.2718 23.0378 25.2698 21.1387Z" fill="#1E2749"/>
<path d="M22.5381 13.049C23.3496 12.0748 23.7495 10.8226 23.6526 9.55835C22.4128 9.68857 21.2676 10.2811 20.4451 11.218C19.6408 12.1333 19.2222 13.3634 19.3014 14.5793C20.5416 14.5921 21.7609 14.0156 22.5381 13.049Z" fill="#1E2749"/>
</svg>
