<svg width="20" height="20" viewBox="0 0 20 20" fill="none" xmlns="http://www.w3.org/2000/svg">
<path d="M17.5 9.3125H4.15625L9.46875 3.90625C9.75 3.625 9.75 3.1875 9.46875 2.90625C9.1875 2.625 8.75 2.625 8.46875 2.90625L2 9.46875C1.71875 9.75 1.71875 10.1875 2 10.4688L8.46875 17.0312C8.59375 17.1562 8.78125 17.25 8.96875 17.25C9.15625 17.25 9.3125 17.1875 9.46875 17.0625C9.75 16.7812 9.75 16.3438 9.46875 16.0625L4.1875 10.7188H17.5C17.875 10.7188 18.1875 10.4062 18.1875 10.0312C18.1875 9.625 17.875 9.3125 17.5 9.3125Z" fill="#1E2749"/>
</svg>
