<svg width="22" height="23" viewBox="0 0 22 23" fill="none" xmlns="http://www.w3.org/2000/svg">
<path d="M18.5625 6.6875H3.4375C3.0578 6.6875 2.75 6.9953 2.75 7.375V18.375C2.75 18.7547 3.0578 19.0625 3.4375 19.0625H18.5625C18.9422 19.0625 19.25 18.7547 19.25 18.375V7.375C19.25 6.9953 18.9422 6.6875 18.5625 6.6875Z" stroke="white" stroke-width="2" stroke-linecap="round" stroke-linejoin="round"/>
<path d="M7.5625 9.4375V6.6875C7.5625 5.77582 7.92466 4.90148 8.56932 4.25682C9.21398 3.61216 10.0883 3.25 11 3.25C11.9117 3.25 12.786 3.61216 13.4307 4.25682C14.0753 4.90148 14.4375 5.77582 14.4375 6.6875V9.4375" stroke="white" stroke-width="2" stroke-linecap="round" stroke-linejoin="round"/>
</svg>
