<svg width="24" height="24" viewBox="0 0 24 24" fill="none"
    xmlns="http://www.w3.org/2000/svg">
    <path fill-rule="evenodd" clip-rule="evenodd" d="M0.630882 0.673671C-0.154134 1.0392 -0.207103 2.09365 0.536475 2.55369L0.765788 2.69553L2.06554 2.70992C3.25823 2.72314 3.37176 2.73144 3.44348 2.8107C3.50394 2.87755 3.71235 4.20223 4.36302 8.65569C4.98093 12.8849 5.23598 14.5139 5.32344 14.7893C5.6263 15.7431 6.47652 16.5249 7.46446 16.7578C7.90307 16.8612 19.4527 16.8612 19.9453 16.7578C20.9577 16.5453 21.8586 15.7095 22.1564 14.7067C22.259 14.3612 24.0001 5.62517 23.999 5.46186C23.9977 5.28987 23.8438 4.9385 23.7041 4.78864C23.6477 4.72812 23.5172 4.6332 23.4141 4.5777L23.2266 4.47678L14.5781 4.45334L5.92968 4.4299L5.82552 3.72678C5.65748 2.59203 5.58126 2.2468 5.42732 1.92298C5.23607 1.52066 4.72555 1.0069 4.33607 0.824936C3.85101 0.598296 3.56769 0.564358 2.15624 0.563983C0.901585 0.563655 0.86085 0.566561 0.630882 0.673671ZM8.27563 17.8701C7.16765 18.0105 6.18318 18.9019 5.92579 19.9977C5.82313 20.4347 5.85763 21.1464 6.00126 21.5561C6.38343 22.646 7.42358 23.3908 8.5633 23.3908C9.32024 23.3908 9.91424 23.137 10.4783 22.5725C11.0767 21.9736 11.2969 21.4522 11.2969 20.6338C11.2969 20.1049 11.2065 19.7218 10.9869 19.3192C10.7707 18.9231 10.5887 18.7031 10.2711 18.454C9.67016 17.9827 8.98021 17.7808 8.27563 17.8701ZM17.8594 17.8651C16.7635 17.9833 15.816 18.7851 15.4997 19.8619C15.3062 20.5206 15.3749 21.2401 15.6934 21.8908C15.9099 22.3332 16.4372 22.88 16.8603 23.1011C17.945 23.6676 19.2234 23.4929 20.1086 22.6572C20.4628 22.3227 20.6759 21.9912 20.8474 21.5081C21.0212 21.0183 21.0198 20.3417 20.8438 19.8049C20.4212 18.5159 19.1976 17.7206 17.8594 17.8651Z" fill="white"/>
</svg>
