<svg width="40" height="40" viewBox="0 0 40 40" fill="none" xmlns="http://www.w3.org/2000/svg">
<path d="M14.0838 17.3287C13.6692 16.8765 12.9532 16.8387 12.5008 17.2533C12.0486 17.6679 12.0109 18.3839 12.4255 18.8362L18.1164 25.0171C18.3426 25.2433 18.6064 25.394 18.9078 25.394C18.9078 25.394 18.9078 25.394 18.9455 25.394C19.247 25.394 19.5485 25.281 19.7369 25.0548L34.134 10.6955C34.5862 10.2433 34.5862 9.52719 34.134 9.11261C33.6818 8.66038 32.9657 8.66038 32.5511 9.11261L18.9833 22.6427L14.0838 17.3287Z" fill="#61BD4F"/>
<path d="M33.8693 18.8693C33.2286 18.8693 32.7387 19.3593 32.7387 19.9999C32.7387 27.0099 27.0101 32.7386 20 32.7386C12.9899 32.7386 7.26131 27.01 7.26131 20C7.26131 12.99 12.9899 7.26131 20 7.26131C20.6407 7.26131 21.1306 6.77135 21.1306 6.13069C21.1306 5.49003 20.6407 5 20 5C11.7462 5 5 11.7462 5 20C5 28.2538 11.7462 35 20 35C28.2538 35 35 28.2538 35 20C34.9999 19.3593 34.51 18.8693 33.8693 18.8693Z" fill="#61BD4F"/>
</svg>
