<svg width="32" height="32" viewBox="0 0 32 32" fill="none" xmlns="http://www.w3.org/2000/svg">
<path fill-rule="evenodd" clip-rule="evenodd" d="M15.8611 5.05884C13.0918 5.22876 10.5291 6.35758 8.5555 8.27673C7.44189 9.35966 6.65288 10.4756 6.05677 11.8107C4.99634 14.1859 4.76488 16.8108 5.39532 19.3126C5.62292 20.2157 6.05687 21.3217 6.46779 22.0457L6.64696 22.3615L5.86582 24.5159C5.43617 25.7008 5.07054 26.7387 5.05332 26.8225C4.96142 27.2693 5.35962 27.8468 5.83887 27.9618C6.00297 28.0011 6.14633 28.0057 6.27635 27.9755C6.38273 27.9509 7.41622 27.5854 8.57301 27.1633C10.3418 26.518 10.6912 26.405 10.7703 26.4532C11.2292 26.7326 12.1522 27.1464 12.8529 27.3868C16.4721 28.629 20.5651 27.9317 23.6138 25.5535C24.0634 25.2027 24.9302 24.3516 25.3657 23.8333C27.6852 21.0722 28.5468 17.2452 27.6467 13.7013C27.2329 12.072 26.4103 10.4517 25.3657 9.20828C24.9304 8.69019 24.0637 7.8391 23.6138 7.48796C21.4338 5.78661 18.5788 4.89209 15.8611 5.05884Z" fill="white"/>
</svg>
