<svg width="322" height="322" viewBox="0 0 322 322" fill="none" xmlns="http://www.w3.org/2000/svg">
<path d="M161 275.348C229.961 275.348 285.865 272.084 285.865 268.058C285.865 264.032 229.961 260.768 161 260.768C92.0388 260.768 36.1348 264.032 36.1348 268.058C36.1348 272.084 92.0388 275.348 161 275.348Z" fill="#EDF0F1"/>
<path d="M81.2148 218.117H163.93V260.821C163.93 261.368 163.822 261.91 163.613 262.415C163.404 262.921 163.097 263.38 162.71 263.767C162.323 264.154 161.864 264.461 161.358 264.67C160.853 264.88 160.311 264.988 159.764 264.988H85.3815C84.8343 264.988 84.2925 264.88 83.787 264.67C83.2815 264.461 82.8221 264.154 82.4352 263.767C82.0483 263.38 81.7414 262.921 81.532 262.415C81.3226 261.91 81.2148 261.368 81.2148 260.821V218.117Z" fill="#00A3FF"/>
<path d="M81.2148 218.117H139.748L132.548 208.901C131.756 207.89 129.798 207.072 128.169 207.072H75.5283C73.9054 207.072 73.2227 207.89 74.0149 208.901L81.2148 218.117Z" fill="#00A3FF"/>
<path opacity="0.2" d="M81.2148 218.117H139.748L132.548 208.901C131.756 207.89 129.798 207.072 128.169 207.072H75.5283C73.9054 207.072 73.2227 207.89 74.0149 208.901L81.2148 218.117Z" fill="#1E2749"/>
<path d="M163.93 218.117H105.403L112.603 212.109C113.395 211.465 115.353 210.917 116.982 210.917H169.617C171.246 210.917 171.922 211.452 171.13 212.109L163.93 218.117Z" fill="#00A3FF"/>
<path opacity="0.2" d="M105.403 218.117H163.93V260.821C163.93 261.368 163.822 261.91 163.613 262.415C163.403 262.921 163.097 263.38 162.71 263.767C162.323 264.154 161.863 264.461 161.358 264.67C160.852 264.88 160.311 264.988 159.763 264.988H109.57C109.023 264.988 108.481 264.88 107.975 264.67C107.47 264.461 107.011 264.154 106.624 263.767C106.237 263.38 105.93 262.921 105.72 262.415C105.511 261.91 105.403 261.368 105.403 260.821V218.117Z" fill="white"/>
<path opacity="0.5" d="M88.4795 218.117V247.406L90.5017 245.809L91.9249 247.406L93.1614 245.629L94.4301 247.406L96.1946 246.073L98.1395 247.406V218.117H88.4795Z" fill="white"/>
<path d="M101.571 154.226L91.1709 145.493" stroke="currentColor" stroke-miterlimit="10"/>
<path d="M106.962 158.753L103.794 156.087" stroke="currentColor" stroke-miterlimit="10"/>
<path d="M138.119 177.03L172.431 134.146L126.746 95.7892L96.478 130.52L91.97 139.208C91.7462 139.454 91.5757 139.744 91.4691 140.06C91.3626 140.375 91.3222 140.71 91.3506 141.041C91.379 141.373 91.4756 141.696 91.6342 141.988C91.7929 142.281 92.0103 142.538 92.2727 142.743L133.489 177.352C134.159 177.892 135.008 178.159 135.867 178.099C136.726 178.039 137.53 177.657 138.119 177.03Z" fill="#00A3FF"/>
<path opacity="0.5" d="M114.587 145.403L109.647 153.357L111.637 153.788L112.314 155.63L113.634 155.707L114.246 157.285L115.862 157.755L117.105 159.732L122.044 151.779L114.587 145.403Z" fill="white"/>
<path opacity="0.1" d="M170.938 132.89L140.167 167.215L96.459 130.52L126.746 95.7892L170.938 132.89Z" fill="#1E2749"/>
<path d="M170.937 132.89L140.167 167.215L152.905 168.156L183.199 133.425L170.937 132.89Z" fill="#00A3FF"/>
<path opacity="0.3" d="M170.937 132.89L140.167 167.215L152.905 168.156L183.199 133.425L170.937 132.89Z" fill="#1E2749"/>
<path d="M114.491 95.2481L83.7139 129.58L96.4586 130.52L126.746 95.7891L114.491 95.2481Z" fill="#00A3FF"/>
<path opacity="0.4" d="M114.491 95.2481L83.7139 129.58L96.4586 130.52L126.746 95.7891L114.491 95.2481Z" fill="#1E2749"/>
<path opacity="0.1" d="M161.464 143.458L170.937 132.89L126.746 95.7892L121.092 109.416L161.464 143.458Z" fill="#1E2749"/>
<path opacity="0.2" d="M96.459 130.52L126.746 95.7892L121.092 109.416L99.7627 133.296L96.459 130.52Z" fill="#1E2749"/>
<path d="M181.608 68.2639C181.731 68.6761 181.608 69.0818 181.338 69.1591C181.067 69.2364 180.752 68.9659 180.63 68.5538C180.507 68.1416 180.63 67.7359 180.9 67.6521C181.17 67.5684 181.492 67.8518 181.608 68.2639Z" fill="#1E2749"/>
<path d="M181.653 69.0762C181.532 70.4932 181.215 71.8866 180.713 73.2171C181.057 73.3365 181.423 73.3794 181.786 73.3427C182.149 73.306 182.499 73.1906 182.812 73.0046L181.653 69.0762Z" fill="#ED847E"/>
<path d="M182.465 65.5146C182.52 65.4832 182.561 65.4328 182.581 65.3729C182.593 65.3417 182.599 65.3084 182.598 65.2749C182.596 65.2414 182.588 65.2086 182.574 65.1784C182.559 65.1482 182.539 65.1214 182.513 65.0994C182.488 65.0775 182.459 65.061 182.427 65.0509C182.049 64.9063 181.643 64.8547 181.241 64.9007C180.84 64.9467 180.456 65.0888 180.121 65.315C180.078 65.3591 180.051 65.4175 180.047 65.4794C180.043 65.5414 180.062 65.6026 180.1 65.6519C180.137 65.7013 180.191 65.7354 180.252 65.748C180.313 65.7607 180.376 65.751 180.43 65.7207C180.698 65.5452 181.003 65.4361 181.321 65.4025C181.639 65.3689 181.961 65.4118 182.259 65.5275C182.293 65.5397 182.328 65.5448 182.364 65.5426C182.399 65.5404 182.434 65.5309 182.465 65.5146Z" fill="#1E2749"/>
<path d="M195.931 71.0203C196.214 74.4335 197.058 80.6803 199.074 82.1228C199.074 82.1228 198.597 86.2251 191.346 87.2748C183.399 88.4469 186.967 83.8874 186.967 83.8874C191.146 82.213 190.56 79.0123 189.362 76.1014L192.428 72.5852C193.606 71.2843 195.776 69.275 195.931 71.0203Z" fill="#FFC3BD"/>
<path d="M201.669 83.7908C202.313 83.2048 201.025 80.8606 200.233 80.5322C198.159 79.6628 189.677 80.5322 186.49 83.2692C186.225 83.722 186.065 84.2283 186.022 84.7509C185.978 85.2735 186.052 85.7992 186.238 86.2895L201.669 83.7908Z" fill="white"/>
<path d="M228.679 255.932C228.469 256.027 228.243 256.08 228.013 256.087C227.783 256.093 227.554 256.054 227.339 255.971C227.254 255.903 227.192 255.812 227.161 255.708C227.13 255.605 227.131 255.494 227.165 255.391C227.182 255.307 227.218 255.227 227.269 255.158C227.32 255.089 227.386 255.033 227.462 254.992C228.157 254.586 229.877 255.121 229.947 255.146C229.971 255.153 229.992 255.166 230.008 255.184C230.024 255.202 230.034 255.225 230.038 255.249C230.041 255.275 230.036 255.301 230.025 255.324C230.014 255.347 229.995 255.366 229.973 255.378C229.562 255.606 229.128 255.792 228.679 255.932ZM227.738 255.146L227.59 255.211C227.546 255.235 227.508 255.268 227.478 255.308C227.448 255.348 227.427 255.394 227.416 255.443C227.371 255.674 227.461 255.745 227.487 255.765C227.796 255.984 228.846 255.668 229.574 255.301C228.981 255.115 228.354 255.062 227.738 255.146Z" fill="#00A3FF"/>
<path d="M229.947 255.385C229.926 255.392 229.903 255.392 229.882 255.385C229.238 255.256 227.892 254.451 227.822 253.846C227.812 253.751 227.835 253.655 227.888 253.575C227.941 253.495 228.02 253.436 228.111 253.408C228.201 253.368 228.297 253.348 228.395 253.348C228.492 253.348 228.589 253.368 228.678 253.408C229.425 253.717 230.005 255.16 230.024 255.218C230.037 255.237 230.044 255.259 230.044 255.282C230.044 255.305 230.037 255.328 230.024 255.347C230.015 255.359 230.003 255.368 229.99 255.375C229.977 255.382 229.962 255.385 229.947 255.385ZM228.272 253.627C228.254 253.622 228.233 253.622 228.214 253.627C228.066 253.691 228.073 253.769 228.079 253.801C228.118 254.162 229.032 254.812 229.683 255.05C229.49 254.632 229.039 253.82 228.582 253.627C228.482 253.589 228.372 253.589 228.272 253.627Z" fill="#00A3FF"/>
<path d="M190.933 262.848C190.244 262.848 189.581 262.752 189.355 262.443C189.298 262.362 189.267 262.265 189.267 262.166C189.267 262.067 189.298 261.97 189.355 261.889C189.398 261.814 189.456 261.749 189.524 261.697C189.593 261.645 189.671 261.607 189.755 261.586C190.65 261.348 192.53 262.417 192.608 262.462C192.631 262.474 192.651 262.492 192.663 262.516C192.675 262.539 192.68 262.566 192.675 262.592C192.671 262.619 192.658 262.643 192.639 262.661C192.62 262.679 192.595 262.691 192.569 262.694C192.029 262.795 191.482 262.846 190.933 262.848ZM190.083 261.805C190 261.802 189.917 261.813 189.838 261.837C189.735 261.86 189.645 261.923 189.587 262.011C189.497 262.172 189.529 262.25 189.587 262.295C189.838 262.642 191.197 262.649 192.163 262.507C191.522 262.141 190.815 261.903 190.083 261.805Z" fill="#00A3FF"/>
<path d="M192.556 262.701H192.505C191.861 262.411 190.573 261.245 190.669 260.64C190.669 260.498 190.798 260.318 191.146 260.286C191.272 260.272 191.399 260.284 191.52 260.322C191.641 260.359 191.752 260.422 191.848 260.505C192.537 261.065 192.678 262.514 192.685 262.572C192.689 262.594 192.686 262.617 192.676 262.638C192.667 262.658 192.652 262.676 192.633 262.688C192.61 262.701 192.583 262.705 192.556 262.701ZM191.268 260.524H191.191C190.959 260.524 190.946 260.64 190.94 260.666C190.882 261.033 191.758 261.954 192.414 262.347C192.358 261.732 192.11 261.151 191.706 260.685C191.585 260.579 191.429 260.521 191.268 260.524Z" fill="#00A3FF"/>
<path d="M198.469 262.572H193.091L192.557 250.13H197.934L198.469 262.572Z" fill="#FFC3BD"/>
<path d="M236.239 254.077L231.287 255.784L226.147 244.057L231.1 242.35L236.239 254.077Z" fill="#FFC3BD"/>
<path d="M230.108 254.554L235.904 252.783C236.007 252.751 236.117 252.756 236.216 252.796C236.316 252.836 236.399 252.908 236.451 253.002L238.866 257.252C238.924 257.356 238.958 257.472 238.965 257.591C238.972 257.709 238.953 257.828 238.908 257.938C238.862 258.049 238.793 258.147 238.704 258.227C238.616 258.306 238.511 258.365 238.396 258.398C236.368 258.984 235.357 259.165 232.819 259.944C231.254 260.421 227.313 261.915 225.091 262.359C222.869 262.803 222.155 260.678 223.018 260.298C226.882 258.592 228.466 256.653 229.387 255.146C229.547 254.868 229.804 254.657 230.108 254.554Z" fill="#1E2749"/>
<path d="M193.129 261.947H198.996C199.102 261.948 199.205 261.985 199.288 262.052C199.37 262.118 199.429 262.211 199.453 262.314L200.516 267.093C200.542 267.208 200.542 267.328 200.515 267.443C200.488 267.558 200.436 267.665 200.361 267.757C200.287 267.849 200.193 267.923 200.085 267.973C199.978 268.023 199.861 268.048 199.743 268.046C197.624 268.013 194.591 267.885 191.905 267.885C188.795 267.885 187.488 268.059 183.836 268.059C181.634 268.059 181.022 265.83 181.943 265.624C186.148 264.703 188.202 264.607 191.835 262.366C192.22 262.111 192.667 261.966 193.129 261.947Z" fill="#1E2749"/>
<path d="M208.746 85.549C210.311 86.9851 211.664 88.4213 213.067 89.9218C214.471 91.4223 215.772 92.9743 217.035 94.6294C218.353 96.3108 219.549 98.0842 220.615 99.936C221.198 100.957 221.701 102.02 222.122 103.117C222.232 103.42 222.341 103.71 222.431 104.038C222.537 104.37 222.625 104.708 222.695 105.049L222.805 105.584L222.882 106.176C222.954 106.719 222.954 107.269 222.882 107.812C222.734 108.837 222.355 109.815 221.774 110.671C221.35 111.297 220.853 111.87 220.293 112.378C219.393 113.195 218.408 113.914 217.357 114.523C215.503 115.583 213.565 116.485 211.561 117.221C207.759 118.632 203.841 119.71 199.853 120.441L198.726 116.577C202.223 115.064 205.765 113.428 209.03 111.683C210.619 110.849 212.149 109.906 213.608 108.862C214.216 108.43 214.776 107.933 215.276 107.381C215.429 107.217 215.556 107.033 215.656 106.833C215.708 106.724 215.656 106.737 215.592 106.968C215.547 107.4 215.553 107.065 215.45 106.833C215.418 106.724 215.36 106.576 215.302 106.434C215.244 106.292 215.173 106.131 215.103 105.977C214.754 105.274 214.364 104.593 213.937 103.935C212.942 102.458 211.867 101.037 210.717 99.6784C209.532 98.2745 208.283 96.877 207.001 95.5053C205.719 94.1335 204.373 92.7489 203.137 91.4738L208.746 85.549Z" fill="#FFC3BD"/>
<path d="M200.2 115.965L195.132 117.498L198.39 122.856C198.39 122.856 201.385 121.619 202.048 119.075L200.2 115.965Z" fill="#FFC3BD"/>
<path d="M193.084 119.398L195.08 123.816L198.358 122.863L195.1 117.498L193.084 119.398Z" fill="#FFC3BD"/>
<path d="M196.871 87.0048C196.388 92.1568 207.285 100.129 207.285 100.129L217.775 92.9489C215.954 89.5891 213.291 86.7598 210.047 84.7379C204.032 80.8868 197.476 80.6034 196.871 87.0048Z" fill="#00A3FF"/>
<g opacity="0.3">
<path opacity="0.3" d="M196.871 87.0048C196.388 92.1568 207.285 100.129 207.285 100.129L217.775 92.9489C215.954 89.5891 213.291 86.7598 210.047 84.7379C204.032 80.8868 197.476 80.6034 196.871 87.0048Z" fill="white"/>
</g>
<path d="M179.033 86.5926C179.033 86.5926 174.325 93.8183 185.505 132.574L213.931 128.375C213.532 124.447 208.779 107.31 208.618 88.5761C208.611 87.6714 208.422 86.7774 208.06 85.9481C207.698 85.1188 207.173 84.3713 206.514 83.7508C205.856 83.1303 205.078 82.6497 204.229 82.3378C203.38 82.026 202.476 81.8895 201.573 81.9365C200.748 81.9816 199.898 82.0395 199.055 82.1232C194.997 82.485 190.963 83.0807 186.973 83.9071C184.261 84.5971 181.607 85.4949 179.033 86.5926Z" fill="#00A3FF"/>
<g opacity="0.3">
<path opacity="0.3" d="M179.033 86.5926C179.033 86.5926 174.325 93.8183 185.505 132.574L213.931 128.375C213.532 124.447 208.779 107.31 208.618 88.5761C208.611 87.6714 208.422 86.7774 208.06 85.9481C207.698 85.1188 207.173 84.3713 206.514 83.7508C205.856 83.1303 205.078 82.6497 204.229 82.3378C203.38 82.026 202.476 81.8895 201.573 81.9365C200.748 81.9816 199.898 82.0395 199.055 82.1232C194.997 82.485 190.963 83.0807 186.973 83.9071C184.261 84.5971 181.607 85.4949 179.033 86.5926Z" fill="white"/>
</g>
<path opacity="0.2" d="M178.337 99.0476L178.434 98.9381L185.118 99.5306C186.136 103.845 182.413 109.732 180.449 112.462C179.504 108.032 178.799 103.554 178.337 99.0476Z" fill="#1E2749"/>
<path opacity="0.2" d="M192.557 250.136L192.834 256.55H198.211L197.934 250.136H192.557Z" fill="#1E2749"/>
<path opacity="0.2" d="M231.1 242.35L226.147 244.057L228.801 250.104L233.753 248.397L231.1 242.35Z" fill="#1E2749"/>
<path d="M195.229 63.3188C196.414 68.5159 197.367 71.4976 195.557 74.9108C192.839 79.992 185.846 79.5025 183.134 74.7627C180.694 70.493 179.161 62.7134 183.566 59.2101C184.531 58.435 185.678 57.919 186.899 57.7109C188.119 57.5028 189.372 57.6095 190.54 58.0208C191.708 58.4322 192.751 59.1346 193.571 60.0617C194.392 60.9888 194.962 62.1098 195.229 63.3188Z" fill="#FFC3BD"/>
<path d="M184.79 68.4128L182.813 69.6235L183 62.8615C181.725 62.9163 180.467 62.5521 179.419 61.8247C180.134 61.1421 191.262 57.2459 194.733 57.9221C195.094 57.7739 195.532 57.1042 195.532 57.1042C195.532 57.1042 195.667 57.9478 195.081 58.2698C195.506 58.1861 196.569 58.3922 196.865 59.0169C196.377 58.8837 195.86 58.9131 195.39 59.1006C195.39 59.1006 199.254 59.6866 197.882 65.0447C196.343 70.9502 196.852 74.3441 196.852 74.3441C196.852 74.3441 193.98 76.5659 191.481 76.1537C188.815 73.2171 184.964 69.688 184.79 68.4128Z" fill="#1E2749"/>
<path d="M181.003 61.2898C177.867 61.2898 176.74 59.7571 175.935 58.4691C178.189 58.2308 182.883 56.7818 186.367 56.5371C189.851 56.2924 193.67 56.9428 192.518 58.4691C191.365 59.9954 181.003 61.2898 181.003 61.2898Z" fill="#1E2749"/>
<path d="M181.692 59.8925C179.116 59.5318 176.605 57.104 178.537 54.7791C179.252 56.4857 184.075 56.2861 187.501 55.5712C192.009 54.631 195.133 56.1508 193.536 59.2227C192.66 60.9036 181.692 59.8925 181.692 59.8925Z" fill="#1E2749"/>
<path d="M187.571 66.8737C187.94 68.1453 187.881 69.5027 187.404 70.7377C186.76 72.3541 185.33 72.0257 184.583 70.6282C183.939 69.3402 183.45 67.0025 184.545 65.8368C185.639 64.6712 187.108 65.3474 187.571 66.8737Z" fill="#FFC3BD"/>
<path d="M195.59 131.086C195.59 131.086 200.201 170.338 203.55 185.717C207.214 202.564 225.291 248.494 225.291 248.494L234.307 245.377C234.307 245.377 222.715 210.794 219.637 187.243C217.273 169.16 213.905 128.375 213.905 128.375L195.59 131.086Z" fill="#1E2749"/>
<path d="M222.985 245.61C222.94 245.61 224.833 249.474 224.833 249.474L235.363 246.054L234.126 242.911L222.985 245.61Z" fill="#00A3FF"/>
<path opacity="0.3" d="M198.134 151.224C199.576 162.133 201.425 175.052 203.047 183.302C205.437 170.66 205.997 154.695 198.134 151.224Z" fill="#1E2749"/>
<path d="M185.505 132.575C185.505 132.575 181.679 169.45 182.285 185.833C182.89 202.874 190.85 255.308 190.85 255.308H199.95C199.95 255.308 198.275 203.865 198.662 187.134C199.106 168.89 205.945 129.554 205.945 129.554L185.505 132.575Z" fill="#1E2749"/>
<path d="M189.079 251.682C189.04 251.682 189.594 255.456 189.594 255.456H200.665L200.967 252.088L189.079 251.682Z" fill="#00A3FF"/>
<path d="M183.74 95.6471C182.735 97.2443 181.718 98.6804 180.662 100.155C179.606 101.63 178.498 103.053 177.371 104.47C175.073 107.344 172.584 110.059 169.92 112.597C169.199 113.241 168.535 113.885 167.756 114.471L167.189 114.929L166.906 115.154C166.803 115.238 166.758 115.283 166.545 115.437C165.907 115.892 165.207 116.252 164.465 116.506C163.317 116.898 162.116 117.115 160.904 117.15C159.878 117.185 158.851 117.14 157.832 117.015C154.107 116.527 150.473 115.498 147.045 113.963L148.159 110.099C151.454 110.489 154.772 110.649 158.09 110.575C158.823 110.537 159.554 110.457 160.279 110.337C160.825 110.257 161.356 110.092 161.85 109.847C162.005 109.764 162.089 109.68 162.069 109.661C162.05 109.641 162.153 109.577 162.211 109.519L162.43 109.319L162.862 108.914C163.441 108.398 163.989 107.774 164.555 107.207C165.669 106.009 166.777 104.779 167.827 103.472C168.877 102.164 169.939 100.851 170.97 99.4983C172 98.1459 172.998 96.7741 174.003 95.4024C175.007 94.0307 175.986 92.5881 176.914 91.2551L183.74 95.6471Z" fill="#FFC3BD"/>
<path d="M187.482 93.9411C189.645 101.025 177.081 108.876 177.081 108.876L168.915 98.4749C170.756 95.0455 173.028 91.8662 175.677 89.0145C181.235 82.9674 185.833 88.5509 187.482 93.9411Z" fill="#00A3FF"/>
<g opacity="0.3">
<path opacity="0.3" d="M187.482 93.9411C189.645 101.025 177.081 108.876 177.081 108.876L168.915 98.4749C170.756 95.0455 173.028 91.8662 175.677 89.0145C181.235 82.9674 185.833 88.5509 187.482 93.9411Z" fill="white"/>
</g>
<path d="M150.052 110.337L143.438 109.126L144.134 114.845C144.134 114.845 147.573 116.777 150.065 113.756L150.052 110.337Z" fill="#FFC3BD"/>
<path d="M140.888 110.414L142.317 114.542L144.121 114.845L143.425 109.126L140.888 110.414Z" fill="#FFC3BD"/>
</svg>
