<svg width="16" height="16" viewBox="0 0 16 16" fill="none" xmlns="http://www.w3.org/2000/svg">
<path d="M15.4568 7.8C15.438 7.75 14.9068 6.575 13.7318 5.39375C12.163 3.83125 10.1818 3 8.00052 3C5.81927 3 3.83802 3.83125 2.26927 5.39375C1.09427 6.575 0.563023 7.75 0.544273 7.8C0.516369 7.86298 0.501953 7.93111 0.501953 8C0.501953 8.06889 0.516369 8.13702 0.544273 8.2C0.563023 8.25 1.09427 9.425 2.26927 10.6062C3.83802 12.1687 5.81927 13 8.00052 13C10.1818 13 12.163 12.1687 13.7318 10.6062C14.9068 9.425 15.438 8.25 15.4568 8.2C15.4847 8.13702 15.4991 8.06889 15.4991 8C15.4991 7.93111 15.4847 7.86298 15.4568 7.8ZM8.00052 5.75C8.44553 5.75 8.88055 5.88196 9.25056 6.12919C9.62057 6.37643 9.90895 6.72783 10.0793 7.13896C10.2495 7.5501 10.2941 8.0025 10.2073 8.43895C10.1205 8.87541 9.90618 9.27632 9.59151 9.59099C9.27684 9.90566 8.87593 10.12 8.43948 10.2068C8.00302 10.2936 7.55062 10.249 7.13949 10.0787C6.72835 9.90843 6.37695 9.62004 6.12972 9.25003C5.88248 8.88002 5.75052 8.44501 5.75052 8C5.75052 7.40326 5.98758 6.83097 6.40953 6.40901C6.83149 5.98705 7.40379 5.75 8.00052 5.75Z" fill="white"/>
</svg>
