<svg width="55" height="54" viewBox="0 0 55 54" fill="none" xmlns="http://www.w3.org/2000/svg">
<path d="M27.5008 1.51917C13.4102 1.51917 2.01953 12.9098 2.01953 27.0004C2.01953 41.091 13.4102 52.566 27.5008 52.566C41.5914 52.566 53.0664 41.091 53.0664 27.0004C53.0664 12.9098 41.5914 1.51917 27.5008 1.51917ZM27.5008 48.7692C15.5195 48.7692 5.81641 38.9817 5.81641 27.0004C5.81641 15.0192 15.5195 5.31604 27.5008 5.31604C39.482 5.31604 49.2695 15.1035 49.2695 27.0848C49.2695 38.9817 39.482 48.7692 27.5008 48.7692Z" fill="#F23030"/>
<path d="M35.2609 19.1538C34.5016 18.3944 33.3203 18.3944 32.5609 19.1538L27.4984 24.3006L22.3516 19.1538C21.5922 18.3944 20.4109 18.3944 19.6516 19.1538C18.8922 19.9131 18.8922 21.0944 19.6516 21.8538L24.7984 27.0006L19.6516 32.1475C18.8922 32.9069 18.8922 34.0881 19.6516 34.8475C19.9891 35.185 20.4953 35.4381 21.0016 35.4381C21.5078 35.4381 22.0141 35.2694 22.3516 34.8475L27.4984 29.7006L32.6453 34.8475C32.9828 35.185 33.4891 35.4381 33.9953 35.4381C34.5016 35.4381 35.0078 35.2694 35.3453 34.8475C36.1047 34.0881 36.1047 32.9069 35.3453 32.1475L30.1984 27.0006L35.3453 21.8538C36.0203 21.0944 36.0203 19.9131 35.2609 19.1538Z" fill="#F23030"/>
</svg>
