<svg width="24" height="22" viewBox="0 0 24 22" fill="none" xmlns="http://www.w3.org/2000/svg">
<path d="M12.0004 21L2.62586 10.8407C1.80195 9.98527 1.25816 8.88203 1.0716 7.68744C0.885051 6.49285 1.06521 5.26755 1.58652 4.18532V4.18532C1.97963 3.36864 2.55387 2.66069 3.26192 2.11982C3.96998 1.57895 4.79159 1.22063 5.65906 1.07439C6.52653 0.928152 7.41502 0.998175 8.25133 1.27869C9.08765 1.55921 9.84785 2.04219 10.4693 2.68784L12.0004 4.27777L13.5316 2.68784C14.153 2.04219 14.9132 1.55921 15.7495 1.27869C16.5858 0.998175 17.4743 0.928152 18.3418 1.07439C19.2093 1.22063 20.0309 1.57895 20.7389 2.11982C21.447 2.66069 22.0212 3.36864 22.4143 4.18532C22.9349 5.26713 23.1148 6.4917 22.9284 7.68561C22.7421 8.87953 22.199 9.98226 21.376 10.8376L12.0004 21Z" stroke="#FFFFFF" stroke-opacity="1" stroke-width="2" stroke-linecap="round" stroke-linejoin="round"/>
</svg>
