<svg width="24" height="24" viewBox="0 0 24 24" fill="none" xmlns="http://www.w3.org/2000/svg">
<path d="M19.9876 7.6125H16.7626C16.6126 6.4875 15.6376 5.625 14.4751 5.625H4.16265C3.71265 5.625 3.33765 6 3.33765 6.45C3.33765 6.9 3.71265 7.275 4.16265 7.275H14.5126C14.8501 7.275 15.1126 7.5375 15.1126 7.875V8.4375V15.4125H12.0001C11.7001 14.4375 10.8001 13.725 9.75015 13.725C8.70015 13.725 7.76265 14.4375 7.50015 15.4125H2.66265C2.21265 15.4125 1.83765 15.7875 1.83765 16.2375C1.83765 16.6875 2.21265 17.0625 2.66265 17.0625H7.61265C7.98765 17.85 8.77515 18.375 9.71265 18.375C10.6501 18.375 11.4376 17.85 11.8126 17.0625H17.1001C17.4751 17.85 18.2626 18.375 19.2001 18.375C20.1376 18.375 20.9251 17.85 21.3001 17.0625H22.5001C22.9501 17.0625 23.3251 16.6875 23.3251 16.2375V10.95C23.3626 9.1125 21.8626 7.6125 19.9876 7.6125ZM21.6376 10.875H16.8001V9.2625H19.9876C20.8876 9.3 21.6376 10.0125 21.6376 10.875ZM9.75015 16.725C9.37515 16.725 9.11265 16.425 9.11265 16.05C9.11265 15.675 9.41265 15.375 9.75015 15.375C10.0876 15.375 10.3876 15.675 10.3876 16.05C10.3876 16.425 10.0876 16.725 9.75015 16.725ZM19.2376 16.725C18.8626 16.725 18.6001 16.425 18.6001 16.05C18.6001 15.675 18.9001 15.375 19.2376 15.375C19.5751 15.375 19.8751 15.675 19.8751 16.05C19.8751 16.425 19.5751 16.725 19.2376 16.725ZM21.4876 15.4125C21.1876 14.4375 20.2876 13.725 19.2376 13.725C18.1876 13.725 17.2501 14.4375 16.9876 15.4125H16.8001V12.5625H21.6751V15.4125H21.4876Z" fill="#111928"/>
<path d="M8.70005 11.4749C8.70005 11.0249 8.32505 10.6499 7.87505 10.6499H1.50005C1.05005 10.6499 0.675049 11.0249 0.675049 11.4749C0.675049 11.9249 1.05005 12.3374 1.50005 12.3374H7.83755C8.32505 12.3374 8.70005 11.9624 8.70005 11.4749Z" fill="#111928"/>
</svg>
