<svg width="136" height="41" viewBox="0 0 136 41" fill="none" xmlns="http://www.w3.org/2000/svg">
<rect x="1.00079" y="1.33789" width="134" height="39" rx="4.5" fill="white"/>
<rect x="1.00079" y="1.33789" width="134" height="39" rx="4.5" stroke="#1E2749"/>
<path d="M68.6368 22.589C66.2848 22.589 64.3678 24.378 64.3678 26.842C64.3678 29.291 66.2848 31.095 68.6368 31.095C70.9898 31.095 72.9068 29.291 72.9068 26.842C72.9058 24.378 70.9888 22.589 68.6368 22.589ZM68.6368 29.421C67.3478 29.421 66.2368 28.358 66.2368 26.843C66.2368 25.312 67.3488 24.265 68.6368 24.265C69.9258 24.265 71.0368 25.312 71.0368 26.843C71.0368 28.357 69.9258 29.421 68.6368 29.421ZM59.3228 22.589C56.9708 22.589 55.0538 24.378 55.0538 26.842C55.0538 29.291 56.9708 31.095 59.3228 31.095C61.6758 31.095 63.5928 29.291 63.5928 26.842C63.5928 24.378 61.6758 22.589 59.3228 22.589ZM59.3228 29.421C58.0338 29.421 56.9228 28.358 56.9228 26.843C56.9228 25.312 58.0348 24.265 59.3228 24.265C60.6118 24.265 61.7228 25.312 61.7228 26.843C61.7238 28.357 60.6118 29.421 59.3228 29.421ZM48.2448 23.895V25.699H52.5628C52.4338 26.714 52.0958 27.455 51.5798 27.97C50.9518 28.598 49.9688 29.291 48.2448 29.291C45.5868 29.291 43.5088 27.148 43.5088 24.49C43.5088 21.832 45.5868 19.689 48.2448 19.689C49.6788 19.689 50.7258 20.253 51.4988 20.978L52.7718 19.705C51.6918 18.674 50.2588 17.885 48.2448 17.885C44.6038 17.885 41.5428 20.849 41.5428 24.49C41.5428 28.131 44.6038 31.095 48.2448 31.095C50.2098 31.095 51.6928 30.45 52.8518 29.242C54.0438 28.05 54.4148 26.374 54.4148 25.021C54.4148 24.603 54.3828 24.216 54.3178 23.894H48.2448V23.895ZM93.5528 25.296C93.1988 24.346 92.1188 22.589 89.9118 22.589C87.7208 22.589 85.8998 24.313 85.8998 26.842C85.8998 29.226 87.7048 31.095 90.1208 31.095C92.0698 31.095 93.1978 29.903 93.6658 29.21L92.2158 28.243C91.7328 28.952 91.0718 29.419 90.1208 29.419C89.1708 29.419 88.4938 28.984 88.0588 28.13L93.7458 25.778L93.5528 25.296ZM87.7528 26.714C87.7048 25.07 89.0258 24.233 89.9768 24.233C90.7178 24.233 91.3458 24.604 91.5558 25.135L87.7528 26.714ZM83.1298 30.838H84.9978V18.337H83.1298V30.838ZM80.0678 23.54H80.0038C79.5848 23.04 78.7788 22.589 77.7648 22.589C75.6378 22.589 73.6888 24.458 73.6888 26.859C73.6888 29.243 75.6378 31.096 77.7648 31.096C78.7798 31.096 79.5848 30.645 80.0038 30.13H80.0678V30.742C80.0678 32.369 79.1978 33.239 77.7968 33.239C76.6528 33.239 75.9438 32.418 75.6538 31.725L74.0268 32.402C74.4938 33.529 75.7338 34.915 77.7968 34.915C79.9878 34.915 81.8408 33.626 81.8408 30.484V22.848H80.0688V23.54H80.0678ZM77.9258 29.421C76.6368 29.421 75.5578 28.341 75.5578 26.859C75.5578 25.36 76.6368 24.265 77.9258 24.265C79.1978 24.265 80.1968 25.36 80.1968 26.859C80.1968 28.341 79.1978 29.421 77.9258 29.421ZM102.307 18.337H97.8358V30.838H99.7008V26.102H102.306C104.374 26.102 106.408 24.605 106.408 22.22C106.408 19.835 104.375 18.337 102.307 18.337ZM102.355 24.362H99.7008V20.077H102.355C103.75 20.077 104.542 21.232 104.542 22.22C104.542 23.188 103.75 24.362 102.355 24.362ZM113.887 22.567C112.536 22.567 111.137 23.162 110.558 24.481L112.214 25.172C112.568 24.481 113.228 24.255 113.919 24.255C114.884 24.255 115.865 24.834 115.881 25.863V25.992C115.543 25.799 114.819 25.51 113.935 25.51C112.15 25.51 110.332 26.491 110.332 28.324C110.332 29.997 111.796 31.074 113.436 31.074C114.69 31.074 115.382 30.511 115.816 29.851H115.88V30.816H117.682V26.023C117.683 23.805 116.025 22.567 113.887 22.567ZM113.661 29.418C113.051 29.418 112.198 29.112 112.198 28.356C112.198 27.391 113.26 27.021 114.177 27.021C114.996 27.021 115.383 27.198 115.881 27.439C115.736 28.598 114.739 29.418 113.661 29.418ZM124.244 22.84L122.105 28.26H122.041L119.821 22.84H117.811L121.14 30.415L119.242 34.629H121.188L126.319 22.84H124.244ZM107.438 30.838H109.303V18.337H107.438V30.838Z" fill="#1E2749"/>
<path d="M47.9188 11.0808C47.9188 11.9188 47.6708 12.5858 47.1738 13.0838C46.6098 13.6758 45.8738 13.9718 44.9698 13.9718C44.1038 13.9718 43.3668 13.6718 42.7618 13.0718C42.1558 12.4708 41.8528 11.7268 41.8528 10.8388C41.8528 9.94983 42.1558 9.20583 42.7618 8.60583C43.3668 8.00483 44.1038 7.70483 44.9698 7.70483C45.3998 7.70483 45.8108 7.78883 46.2008 7.95583C46.5918 8.12383 46.9048 8.34683 47.1388 8.62583L46.6118 9.15383C46.2148 8.67883 45.6678 8.44183 44.9688 8.44183C44.3368 8.44183 43.7908 8.66383 43.3298 9.10783C42.8688 9.55183 42.6388 10.1288 42.6388 10.8378C42.6388 11.5468 42.8688 12.1238 43.3298 12.5678C43.7908 13.0118 44.3368 13.2338 44.9688 13.2338C45.6388 13.2338 46.1978 13.0108 46.6448 12.5638C46.9348 12.2728 47.1028 11.8678 47.1478 11.3488H44.9688V10.6278H47.8758C47.9058 10.7848 47.9188 10.9358 47.9188 11.0808Z" fill="#1E2749"/>
<path d="M52.5289 8.57489H49.7969V10.4769H52.2609V11.1979H49.7969V13.0999H52.5289V13.8379H49.0259V7.83789H52.5289V8.57489Z" fill="#1E2749"/>
<path d="M55.7798 13.8379H55.0088V8.57489H53.3328V7.83789H57.4558V8.57489H55.7798V13.8379Z" fill="#1E2749"/>
<path d="M60.4388 13.8379V7.83789H61.2098V13.8379H60.4388Z" fill="#1E2749"/>
<path d="M64.6289 13.8379H63.8579V8.57489H62.1819V7.83789H66.3049V8.57489H64.6289V13.8379Z" fill="#1E2749"/>
<path d="M74.1097 13.0629C73.5197 13.6689 72.7867 13.9719 71.9097 13.9719C71.0327 13.9719 70.2997 13.6689 69.7107 13.0629C69.1207 12.4569 68.8267 11.7149 68.8267 10.8379C68.8267 9.96088 69.1207 9.21888 69.7107 8.61288C70.2997 8.00688 71.0327 7.70288 71.9097 7.70288C72.7817 7.70288 73.5137 8.00788 74.1057 8.61688C74.6977 9.22588 74.9937 9.96588 74.9937 10.8379C74.9937 11.7149 74.6987 12.4569 74.1097 13.0629ZM70.2797 12.5599C70.7237 13.0099 71.2667 13.2339 71.9097 13.2339C72.5527 13.2339 73.0967 13.0089 73.5397 12.5599C73.9837 12.1099 74.2067 11.5359 74.2067 10.8379C74.2067 10.1399 73.9837 9.56588 73.5397 9.11588C73.0967 8.66588 72.5527 8.44188 71.9097 8.44188C71.2667 8.44188 70.7237 8.66688 70.2797 9.11588C69.8367 9.56588 69.6137 10.1399 69.6137 10.8379C69.6137 11.5359 69.8367 12.1099 70.2797 12.5599Z" fill="#1E2749"/>
<path d="M76.0757 13.8379V7.83789H77.0137L79.9297 12.5049H79.9627L79.9297 11.3489V7.83789H80.7007V13.8379H79.8957L76.8447 8.94389H76.8117L76.8447 10.0999V13.8379H76.0757Z" fill="#1E2749"/>
<path d="M47.9188 11.0808C47.9188 11.9188 47.6708 12.5858 47.1738 13.0838C46.6098 13.6758 45.8738 13.9718 44.9698 13.9718C44.1038 13.9718 43.3668 13.6718 42.7618 13.0718C42.1558 12.4708 41.8528 11.7268 41.8528 10.8388C41.8528 9.94983 42.1558 9.20583 42.7618 8.60583C43.3668 8.00483 44.1038 7.70483 44.9698 7.70483C45.3998 7.70483 45.8108 7.78883 46.2008 7.95583C46.5918 8.12383 46.9048 8.34683 47.1388 8.62583L46.6118 9.15383C46.2148 8.67883 45.6678 8.44183 44.9688 8.44183C44.3368 8.44183 43.7908 8.66383 43.3298 9.10783C42.8688 9.55183 42.6388 10.1288 42.6388 10.8378C42.6388 11.5468 42.8688 12.1238 43.3298 12.5678C43.7908 13.0118 44.3368 13.2338 44.9688 13.2338C45.6388 13.2338 46.1978 13.0108 46.6448 12.5638C46.9348 12.2728 47.1028 11.8678 47.1478 11.3488H44.9688V10.6278H47.8758C47.9058 10.7848 47.9188 10.9358 47.9188 11.0808Z" stroke="#1E2749" stroke-width="0.2" stroke-miterlimit="10"/>
<path d="M52.5289 8.57489H49.7969V10.4769H52.2609V11.1979H49.7969V13.0999H52.5289V13.8379H49.0259V7.83789H52.5289V8.57489Z" stroke="#1E2749" stroke-width="0.2" stroke-miterlimit="10"/>
<path d="M55.7798 13.8379H55.0088V8.57489H53.3328V7.83789H57.4558V8.57489H55.7798V13.8379Z" stroke="#1E2749" stroke-width="0.2" stroke-miterlimit="10"/>
<path d="M60.4388 13.8379V7.83789H61.2098V13.8379H60.4388Z" stroke="#1E2749" stroke-width="0.2" stroke-miterlimit="10"/>
<path d="M64.6289 13.8379H63.8579V8.57489H62.1819V7.83789H66.3049V8.57489H64.6289V13.8379Z" stroke="#1E2749" stroke-width="0.2" stroke-miterlimit="10"/>
<path d="M74.1097 13.0629C73.5197 13.6689 72.7867 13.9719 71.9097 13.9719C71.0327 13.9719 70.2997 13.6689 69.7107 13.0629C69.1207 12.4569 68.8267 11.7149 68.8267 10.8379C68.8267 9.96088 69.1207 9.21888 69.7107 8.61288C70.2997 8.00688 71.0327 7.70288 71.9097 7.70288C72.7817 7.70288 73.5137 8.00788 74.1057 8.61688C74.6977 9.22588 74.9937 9.96588 74.9937 10.8379C74.9937 11.7149 74.6987 12.4569 74.1097 13.0629ZM70.2797 12.5599C70.7237 13.0099 71.2667 13.2339 71.9097 13.2339C72.5527 13.2339 73.0967 13.0089 73.5397 12.5599C73.9837 12.1099 74.2067 11.5359 74.2067 10.8379C74.2067 10.1399 73.9837 9.56588 73.5397 9.11588C73.0967 8.66588 72.5527 8.44188 71.9097 8.44188C71.2667 8.44188 70.7237 8.66688 70.2797 9.11588C69.8367 9.56588 69.6137 10.1399 69.6137 10.8379C69.6137 11.5359 69.8367 12.1099 70.2797 12.5599Z" stroke="#1E2749" stroke-width="0.2" stroke-miterlimit="10"/>
<path d="M76.0757 13.8379V7.83789H77.0137L79.9297 12.5049H79.9627L79.9297 11.3489V7.83789H80.7007V13.8379H79.8957L76.8447 8.94389H76.8117L76.8447 10.0999V13.8379H76.0757Z" stroke="#1E2749" stroke-width="0.2" stroke-miterlimit="10"/>
<path fill-rule="evenodd" clip-rule="evenodd" d="M26.3557 15.0703L14.8341 8.38854C14.399 8.12794 13.8912 7.97754 13.3478 7.97754C12.2266 7.97754 11.2406 8.65682 10.7677 9.60641L10.8543 9.69298L21.2943 20.1307L26.3557 15.0703ZM10.4738 10.7266C10.4718 10.7689 10.4708 10.8114 10.4708 10.8541V30.8217C10.4708 30.8643 10.4718 30.9068 10.4738 30.9491L20.5871 20.8377L10.4738 10.7266ZM10.7678 32.0693C11.2407 33.0189 12.2268 33.6982 13.3478 33.6982C13.8795 33.6982 14.3787 33.5545 14.8068 33.3021L14.8408 33.2822L26.3755 26.6248L21.2943 21.5448L10.8543 31.9827L10.7678 32.0693ZM27.2722 26.1073L31.9693 23.3963C32.8716 22.9092 33.4841 21.958 33.4841 20.8611C33.4841 19.7721 32.8798 18.8256 31.9865 18.3369L31.9763 18.3299L27.2508 15.5894L22.0015 20.8377L27.2722 26.1073Z" fill="#1E2749"/>
</svg>
