<svg width="40" height="40" viewBox="0 0 40 40" fill="none" xmlns="http://www.w3.org/2000/svg">
<g filter="url(#filter0_b_6128_1042)">
<rect width="40" height="40" rx="20" fill="black" fill-opacity="0.2"/>
<path d="M19.9998 30.125C19.5123 30.125 19.0248 29.9375 18.6498 29.6C17.7873 28.85 16.9998 28.175 16.2873 27.575C14.1498 25.7375 12.2748 24.2 10.9623 22.625C9.4248 20.75 8.6748 18.9875 8.6748 17C8.6748 15.0875 9.3498 13.2875 10.5498 11.975C11.7873 10.625 13.5123 9.875 15.3498 9.875C16.7373 9.875 18.0498 10.325 19.1748 11.1875C19.4748 11.4125 19.7373 11.6375 19.9998 11.9375C20.2623 11.675 20.5248 11.4125 20.8248 11.1875C21.9498 10.325 23.2248 9.875 24.6498 9.875C26.5248 9.875 28.2123 10.625 29.4498 11.975C30.6873 13.2875 31.3248 15.0875 31.3248 17C31.3248 18.9875 30.6123 20.75 29.0373 22.625C27.7248 24.2 25.8498 25.775 23.7123 27.575C22.9998 28.175 22.1748 28.8875 21.3123 29.6C20.9748 29.9375 20.4873 30.125 19.9998 30.125ZM15.3498 11.5625C13.9623 11.5625 12.6873 12.125 11.7498 13.1C10.8498 14.1125 10.3623 15.5 10.3623 17C10.3623 18.5375 10.9623 20 12.2373 21.5375C13.4748 23 15.2748 24.5375 17.3373 26.3C18.0498 26.9 18.8748 27.6125 19.7373 28.3625C19.8873 28.475 20.1123 28.475 20.2623 28.3625C21.1248 27.6125 21.9498 26.9375 22.6623 26.3C24.7623 24.5 26.5623 23 27.7623 21.5375C29.0373 20 29.6373 18.5375 29.6373 17C29.6373 15.5 29.1123 14.1125 28.2123 13.1375C27.2748 12.125 25.9998 11.5625 24.6498 11.5625C23.6373 11.5625 22.6998 11.9 21.8748 12.5C21.5373 12.7625 21.2373 13.0625 20.9373 13.4C20.7123 13.6625 20.3748 13.85 19.9998 13.85C19.6248 13.85 19.3248 13.7 19.0623 13.4C18.7623 13.0625 18.4623 12.7625 18.1248 12.5C17.3373 11.9 16.3998 11.5625 15.3498 11.5625Z" fill="#F9FAFB"/>
</g>
<defs>
<filter id="filter0_b_6128_1042" x="-20" y="-20" width="80" height="80" filterUnits="userSpaceOnUse" color-interpolation-filters="sRGB">
<feFlood flood-opacity="0" result="BackgroundImageFix"/>
<feGaussianBlur in="BackgroundImageFix" stdDeviation="10"/>
<feComposite in2="SourceAlpha" operator="in" result="effect1_backgroundBlur_6128_1042"/>
<feBlend mode="normal" in="SourceGraphic" in2="effect1_backgroundBlur_6128_1042" result="shape"/>
</filter>
</defs>
</svg>
