<svg width="32" height="32" viewBox="0 0 32 32" fill="none" xmlns="http://www.w3.org/2000/svg">
<path fill-rule="evenodd" clip-rule="evenodd" d="M20.014 6.01515C19.6348 6.13661 19.337 6.47298 19.1758 6.96189C19.0903 7.22153 19.0755 7.4035 19.0577 8.41464C19.0347 9.72465 19.0708 9.62392 18.6235 9.62523C18.2925 9.62626 17.3016 9.75789 16.6561 9.88661C15.2968 10.1577 14.1074 10.5673 12.7889 11.2183C11.2369 11.9846 10.04 12.8308 8.81033 14.0311C7.42944 15.3791 6.4558 16.7098 5.64088 18.363C4.61403 20.446 4.10014 22.4677 4.0191 24.7431C3.99528 25.4114 4.00175 25.5108 4.07816 25.6562C4.253 25.9887 4.69785 26.1342 5.02396 25.9655C5.09483 25.9289 5.34988 25.6523 5.59082 25.351C8.12933 22.1753 11.5438 19.9839 15.4139 19.0464C16.5088 18.7812 17.4904 18.628 18.5849 18.5516L19.0371 18.52L19.0582 19.6862C19.084 21.1053 19.1339 21.3221 19.5357 21.7589C19.781 22.0257 20.0056 22.117 20.4061 22.1128C20.82 22.1085 21.0444 22.0219 21.4608 21.7059C21.6155 21.5884 23.0315 20.1988 24.6075 18.6177L27.473 15.7431L27.6866 15.2978C28.1022 14.4313 28.1027 13.6091 27.6881 12.7665C27.5231 12.4313 27.3724 12.2723 24.4411 9.34159C21.0105 5.9117 21.134 6.01619 20.4764 5.98679C20.296 5.97873 20.0878 5.99148 20.014 6.01515Z" fill="white"/>
</svg>
