<svg width="18" height="18" viewBox="0 0 18 18" fill="none" xmlns="http://www.w3.org/2000/svg">
<g clip-path="url(#clip0_6274_33952)">
<path d="M9 4.35938C7.45312 4.35938 6.1875 5.59688 6.1875 7.0875C6.1875 8.57813 7.45312 9.84375 9 9.84375C10.5469 9.84375 11.8125 8.60625 11.8125 7.11562C11.8125 5.625 10.5469 4.35938 9 4.35938ZM9 8.57812C8.15625 8.57812 7.45312 7.93125 7.45312 7.11562C7.45312 6.3 8.15625 5.625 9 5.625C9.84375 5.625 10.5469 6.27188 10.5469 7.0875C10.5469 7.90313 9.84375 8.57812 9 8.57812Z" fill="#1E2749"/>
<path d="M9.00156 0.506348C4.30469 0.506348 0.507812 4.30322 0.507812 9.0001C0.507812 13.697 4.30469 17.522 9.00156 17.522C13.6984 17.522 17.5234 13.697 17.5234 9.0001C17.5234 4.30322 13.6984 0.506348 9.00156 0.506348ZM5.57031 15.3563V13.0501C5.57031 12.1501 6.30156 11.4188 7.20156 11.4188H10.8578C11.7578 11.4188 12.4891 12.1501 12.4891 13.0501V15.3563C11.4766 15.9188 10.2953 16.2282 9.02969 16.2282C7.76406 16.2563 6.58281 15.9188 5.57031 15.3563ZM13.7266 14.4845V13.0501C13.7266 11.447 12.4328 10.1532 10.8297 10.1532H7.17344C5.57031 10.1532 4.27656 11.447 4.27656 13.0501V14.4845C2.72969 13.1626 1.74531 11.1938 1.74531 9.0001C1.77344 5.00635 5.00781 1.77197 9.00156 1.77197C12.9953 1.77197 16.2578 5.03447 16.2578 9.02822C16.2578 11.1938 15.2734 13.1626 13.7266 14.4845Z" fill="#1E2749"/>
</g>
<defs>
<clipPath id="clip0_6274_33952">
<rect width="18" height="18" fill="white"/>
</clipPath>
</defs>
</svg>
