<svg width="400" height="367" viewBox="0 0 400 367" fill="none" xmlns="http://www.w3.org/2000/svg">
<path d="M200 306.153C288.366 306.153 360 301.976 360 296.823C360 291.67 288.366 287.492 200 287.492C111.634 287.492 40 291.67 40 296.823C40 301.976 111.634 306.153 200 306.153Z" fill="#F5F5F5"/>
<path d="M284.126 110.17L284.563 110.541L285.083 110.953C285.43 111.233 285.801 111.514 286.164 111.777C286.907 112.313 287.666 112.841 288.458 113.319C290.028 114.311 291.663 115.198 293.352 115.973C295.049 116.734 296.787 117.4 298.559 117.968C299.458 118.207 300.341 118.503 301.257 118.685L302.627 118.981H302.792C302.792 118.981 302.792 118.981 302.751 118.981C302.668 119.072 302.709 118.981 302.751 118.981C302.919 118.801 303.053 118.592 303.147 118.363C303.466 117.636 303.69 116.872 303.815 116.088C304.109 114.248 304.26 112.388 304.269 110.525C304.269 108.604 304.269 106.651 304.154 104.697C304.038 102.744 303.914 100.757 303.749 98.8201L306.637 98.3008C307.637 102.267 308.31 106.309 308.651 110.384C308.845 112.507 308.845 114.642 308.651 116.764C308.536 117.964 308.276 119.146 307.875 120.284C307.618 120.992 307.253 121.656 306.794 122.254C306.197 123.043 305.382 123.641 304.451 123.976C303.737 124.23 302.977 124.325 302.223 124.257L301.884 124.215H301.686L300.11 123.96C299.054 123.803 298.022 123.523 296.974 123.301C294.907 122.775 292.882 122.094 290.917 121.265C288.95 120.43 287.047 119.452 285.223 118.339C284.307 117.786 283.424 117.176 282.55 116.542C282.112 116.22 281.683 115.89 281.254 115.544C281.039 115.371 280.833 115.19 280.619 115C280.404 114.811 280.214 114.646 279.934 114.382L284.126 110.17Z" fill="#9F5B53"/>
<path d="M275.849 106.707C284.208 105.57 290.959 112.32 290.959 112.32L284.72 122.92C284.72 122.92 275.098 118.873 273.646 115.288C272.144 111.579 271.558 107.284 275.849 106.707Z" fill="#00A3FF"/>
<path opacity="0.3" d="M275.849 106.707C284.208 105.57 290.959 112.32 290.959 112.32L284.72 122.92C284.72 122.92 275.098 118.873 273.646 115.288C272.144 111.579 271.558 107.284 275.849 106.707Z" fill="black"/>
<path d="M304.533 100.378L299.953 96.1576L306.745 93.5117C306.745 93.5117 308.898 97.1385 307.157 100.765L304.533 100.378Z" fill="#9F5B53"/>
<path d="M299.027 90.1065L304.432 89.0762L306.743 93.5107L299.952 96.1566L299.027 90.1065Z" fill="#9F5B53"/>
<path d="M246.215 290.502L252.949 291.161L259.963 275.146L253.229 274.486L246.215 290.502Z" fill="#9F5B53"/>
<path d="M202.832 266.828L207.891 271.576L218.808 259.583L213.75 254.844L202.832 266.828Z" fill="#9F5B53"/>
<path d="M210.227 269.301L206.423 262.46C206.359 262.341 206.255 262.25 206.129 262.203C206.003 262.156 205.864 262.156 205.738 262.204L199.887 264.43C199.742 264.49 199.61 264.58 199.502 264.695C199.394 264.81 199.312 264.946 199.26 265.095C199.209 265.243 199.19 265.401 199.204 265.558C199.218 265.715 199.265 265.867 199.343 266.004C200.712 268.37 201.488 269.441 203.155 272.45C204.187 274.296 206.192 278.541 207.611 281.096C209.031 283.652 211.638 282.39 211.275 281.195C209.625 275.854 209.955 272.878 210.45 270.521C210.52 270.101 210.441 269.67 210.227 269.301Z" fill="#1E2749"/>
<path d="M253.848 289.084H245.596C245.447 289.086 245.303 289.136 245.186 289.227C245.068 289.317 244.983 289.444 244.944 289.587L243.145 296.123C243.101 296.278 243.094 296.441 243.124 296.599C243.155 296.757 243.222 296.905 243.321 297.032C243.42 297.159 243.548 297.261 243.693 297.329C243.839 297.397 243.999 297.431 244.16 297.426C247.073 297.426 248.451 297.426 252.09 297.426H263.206C266.234 297.426 266.861 294.376 265.615 294.129C260.004 292.892 256.769 291.178 255.044 289.554C254.722 289.247 254.293 289.078 253.848 289.084Z" fill="#1E2749"/>
<path d="M259.953 275.154L256.347 283.404H249.316L253.22 274.494L259.953 275.154Z" fill="#8A4743"/>
<path d="M213.741 254.844L218.808 259.591L213.172 265.765L208.113 261.017L213.741 254.844Z" fill="#8A4743"/>
<path d="M283.002 107.482C283.002 107.482 286.022 108.817 275.872 148.959L247.658 146.486C249.127 135.053 249.755 127.981 246.297 103.971C250.32 103.502 254.371 103.322 258.419 103.435C262.71 103.508 266.99 103.888 271.226 104.572C275.198 105.345 279.128 106.316 283.002 107.482Z" fill="#00A3FF"/>
<path opacity="0.3" d="M283.002 107.482C283.002 107.482 286.022 108.817 275.872 148.959L247.658 146.486C249.127 135.053 249.755 127.981 246.297 103.971C250.32 103.502 254.371 103.322 258.419 103.435C262.71 103.508 266.99 103.888 271.226 104.572C275.198 105.345 279.128 106.316 283.002 107.482Z" fill="black"/>
<path d="M258.421 103.468C258.421 103.468 256.82 103.295 254.93 103.295C253.792 105.051 257.249 111.719 263.356 116.73C264.724 114.425 266.46 112.359 268.497 110.614L258.421 103.468Z" fill="#FAFAFA"/>
<path d="M271.227 104.572C272.044 104.623 272.853 104.753 273.645 104.96C274.784 106.715 276.987 112.922 273.645 116.73C272.277 114.425 270.54 112.359 268.504 110.614L271.227 104.572Z" fill="#FAFAFA"/>
<path d="M269.413 115.081C269.413 115.584 269.273 115.996 269.033 116.013C268.794 116.029 268.588 115.625 268.555 115.131C268.522 114.636 268.695 114.208 268.934 114.199C269.174 114.191 269.388 114.579 269.413 115.081Z" fill="#FAFAFA"/>
<path d="M269.319 118.898C269.319 119.392 269.105 119.796 268.866 119.796C268.626 119.796 268.453 119.376 268.461 118.873C268.469 118.37 268.676 117.975 268.915 117.975C269.154 117.975 269.361 118.395 269.319 118.898Z" fill="#FAFAFA"/>
<path d="M260.937 89.168C261.39 93.3552 261.539 100.971 258.461 103.469C261.482 106.275 264.855 108.677 268.495 110.615C273.397 107.236 271.227 104.573 271.227 104.573C266.73 103.081 267.142 99.6855 268.215 96.5533L260.937 89.168Z" fill="#9F5B53"/>
<path d="M263.908 92.209L268.216 96.5776C267.956 97.3042 267.757 98.0514 267.622 98.8113C265.889 98.4074 263.38 96.6105 263.355 94.7559C263.384 93.8806 263.571 93.0176 263.908 92.209Z" fill="#8A4743"/>
<path d="M269.172 76.7616C269.172 76.7616 273.744 81.2456 274.75 83.4299C277.523 84.4602 276.772 77.1655 274.668 72.9453C270.971 76.2341 269.172 76.7616 269.172 76.7616Z" fill="#1E2749"/>
<path d="M257.246 82.622C258.995 89.315 259.59 92.1835 263.699 94.986C269.872 99.1979 277.728 95.5877 278 88.5155C278.264 82.144 275.359 72.2776 268.197 70.8928C266.619 70.5768 264.986 70.6693 263.454 71.1615C261.922 71.6538 260.542 72.5293 259.444 73.7049C258.347 74.8805 257.568 76.317 257.184 77.8778C256.799 79.4387 256.82 81.0719 257.246 82.622Z" fill="#9F5B53"/>
<path d="M272.439 74.0753C275.509 74.5286 278.571 71.6602 273.603 68.5857C275.195 68.4209 276.904 62.8159 271.127 63.1209C270.847 60.4585 265.128 58.0847 262.05 62.2966C258.493 59.9557 253.443 62.3461 254.573 65.9811C250.489 66.2366 248.36 71.8086 251.735 72.7153C247.675 75.1881 246.965 79.1857 250.91 79.9111C251.454 84.5352 260.523 82.4663 259.822 78.1636C261.472 79.0456 266.655 77.1498 265.598 74.8666C267.273 77.0179 272.439 76.037 272.439 74.0753Z" fill="#1E2749"/>
<path d="M253.641 79.9607C253.641 79.9607 257.007 85.4008 257.453 87.7664C259.929 89.4149 260.927 82.1697 259.929 77.5703C255.497 79.8453 253.641 79.9607 253.641 79.9607Z" fill="#1E2749"/>
<path d="M256.697 88.6638C257.323 89.8463 258.39 90.7347 259.667 91.1366C261.367 91.6394 262.25 90.131 261.813 88.5155C261.408 87.0565 260.047 85.0371 258.33 85.2184C257.955 85.2694 257.598 85.4132 257.292 85.6368C256.986 85.8603 256.741 86.1567 256.579 86.4988C256.416 86.841 256.342 87.2182 256.363 87.5963C256.383 87.9743 256.498 88.3413 256.697 88.6638Z" fill="#9F5B53"/>
<path d="M275.871 148.959C275.871 148.959 285.419 191.137 279.04 220.868C274.773 240.782 259.383 281.039 259.383 281.039L247.352 280.725C247.352 280.725 259.004 238.507 261.38 221.906C265.506 193.502 255.175 147.195 255.175 147.195L275.871 148.959Z" fill="#00A3FF"/>
<path opacity="0.6" d="M275.871 148.959C275.871 148.959 285.419 191.137 279.04 220.868C274.773 240.782 259.383 281.039 259.383 281.039L247.352 280.725C247.352 280.725 259.004 238.507 261.38 221.906C265.506 193.502 255.175 147.195 255.175 147.195L275.871 148.959Z" fill="#FAFAFA"/>
<path d="M264.863 157.475L258.848 166.954C260.659 178.194 261.808 189.53 262.289 200.905C270.747 185.771 266.745 165.486 264.863 157.475Z" fill="#00A3FF"/>
<path opacity="0.4" d="M264.863 157.475L258.848 166.954C260.659 178.194 261.808 189.53 262.289 200.905C270.747 185.771 266.745 165.486 264.863 157.475Z" fill="#FAFAFA"/>
<path d="M261.085 281.633L246.215 281.262L247.081 276.695L263.305 277.462L261.085 281.633Z" fill="#00A3FF"/>
<path opacity="0.3" d="M261.085 281.633L246.215 281.262L247.081 276.695L263.305 277.462L261.085 281.633Z" fill="black"/>
<path d="M269.701 148.507C269.701 148.507 264.106 193.239 251.968 217.654C242.164 237.378 215.997 265.461 215.997 265.461L209.312 258.578C209.312 258.578 226.98 228.081 234.267 214.958C252.133 182.812 237.568 158.315 247.66 146.545L269.701 148.507Z" fill="#00A3FF"/>
<path opacity="0.6" d="M269.701 148.507C269.701 148.507 264.106 193.239 251.968 217.654C242.164 237.378 215.997 265.461 215.997 265.461L209.312 258.578C209.312 258.578 226.98 228.081 234.267 214.958C252.133 182.812 237.568 158.315 247.66 146.545L269.701 148.507Z" fill="#FAFAFA"/>
<path d="M216.671 266.374L208.039 257.975L210.903 254.076L220.31 263.794L216.671 266.374Z" fill="#00A3FF"/>
<path opacity="0.3" d="M216.671 266.374L208.039 257.975L210.903 254.076L220.31 263.794L216.671 266.374Z" fill="black"/>
<path d="M247.38 144.83L245.886 147.237C245.771 147.426 245.994 147.649 246.315 147.674L275.899 150.229C276.155 150.229 276.378 150.146 276.411 149.99L276.881 147.517C276.881 147.344 276.708 147.171 276.427 147.146L247.859 144.673C247.772 144.657 247.683 144.662 247.599 144.69C247.515 144.717 247.44 144.765 247.38 144.83Z" fill="#1E2749"/>
<path d="M250.942 148.35L250.175 148.284C250.018 148.284 249.911 148.185 249.927 148.086L250.571 144.839C250.571 144.748 250.736 144.682 250.885 144.69L251.652 144.756C251.801 144.756 251.908 144.863 251.891 144.954L251.248 148.201C251.231 148.3 251.091 148.366 250.942 148.35Z" fill="#00A3FF"/>
<path opacity="0.6" d="M250.942 148.35L250.175 148.284C250.018 148.284 249.911 148.185 249.927 148.086L250.571 144.839C250.571 144.748 250.736 144.682 250.885 144.69L251.652 144.756C251.801 144.756 251.908 144.863 251.891 144.954L251.248 148.201C251.231 148.3 251.091 148.366 250.942 148.35Z" fill="#FAFAFA"/>
<path d="M273.727 150.319L272.96 150.253C272.811 150.253 272.704 150.154 272.72 150.055L273.364 146.807C273.364 146.717 273.521 146.651 273.669 146.659L274.437 146.725C274.594 146.725 274.701 146.832 274.684 146.923L274.041 150.17C274.012 150.226 273.965 150.27 273.909 150.297C273.852 150.323 273.788 150.331 273.727 150.319Z" fill="#00A3FF"/>
<path opacity="0.6" d="M273.727 150.319L272.96 150.253C272.811 150.253 272.704 150.154 272.72 150.055L273.364 146.807C273.364 146.717 273.521 146.651 273.669 146.659L274.437 146.725C274.594 146.725 274.701 146.832 274.684 146.923L274.041 150.17C274.012 150.226 273.965 150.27 273.909 150.297C273.852 150.323 273.788 150.331 273.727 150.319Z" fill="#FAFAFA"/>
<path d="M262.333 149.338L261.573 149.272C261.417 149.272 261.309 149.165 261.326 149.074L261.97 145.827C261.97 145.728 262.126 145.662 262.283 145.678L263.042 145.744C263.199 145.744 263.306 145.843 263.29 145.942L262.646 149.181C262.63 149.28 262.489 149.346 262.333 149.338Z" fill="#00A3FF"/>
<path opacity="0.6" d="M262.333 149.338L261.573 149.272C261.417 149.272 261.309 149.165 261.326 149.074L261.97 145.827C261.97 145.728 262.126 145.662 262.283 145.678L263.042 145.744C263.199 145.744 263.306 145.843 263.29 145.942L262.646 149.181C262.63 149.28 262.489 149.346 262.333 149.338Z" fill="#FAFAFA"/>
<path d="M267.902 82.4998C268.009 83.0521 268.389 83.4395 268.727 83.3653C269.066 83.2911 269.288 82.7966 269.181 82.2443C269.074 81.6921 268.694 81.3046 268.356 81.3706C268.018 81.4365 267.795 81.9476 267.902 82.4998Z" fill="#1E2749"/>
<path d="M274.139 81.2721C274.247 81.8243 274.626 82.2117 274.965 82.1458C275.303 82.0798 275.526 81.5688 275.419 81.0165C275.311 80.4643 274.932 80.0769 274.593 80.1923C274.255 80.3077 274.024 80.7198 274.139 81.2721Z" fill="#1E2749"/>
<path d="M274.438 80.2074L275.692 79.5645C275.692 79.5645 275.213 80.7349 274.438 80.2074Z" fill="#1E2749"/>
<path d="M272.672 82.5488C273.414 83.7063 274.311 84.7573 275.337 85.6728C275.095 85.9295 274.8 86.1304 274.472 86.2614C274.144 86.3923 273.792 86.4503 273.439 86.4311L272.672 82.5488Z" fill="#892B29"/>
<path d="M270.889 89.0608C269.727 89.076 268.603 88.6487 267.745 87.8656C267.72 87.8384 267.707 87.8032 267.707 87.7667C267.707 87.7302 267.72 87.695 267.745 87.6678C267.771 87.6417 267.807 87.627 267.844 87.627C267.881 87.627 267.917 87.6417 267.943 87.6678C268.472 88.1306 269.102 88.4633 269.782 88.6393C270.463 88.8154 271.175 88.8299 271.863 88.6817C271.899 88.6743 271.936 88.6814 271.967 88.7015C271.998 88.7215 272.02 88.7529 272.028 88.7888C272.031 88.8062 272.031 88.824 272.028 88.8414C272.024 88.8588 272.017 88.8753 272.007 88.8899C271.997 88.9045 271.984 88.9169 271.97 88.9265C271.955 88.936 271.938 88.9425 271.92 88.9454C271.581 89.0184 271.236 89.0571 270.889 89.0608Z" fill="#1E2749"/>
<path d="M264.833 79.0216C264.787 79.0322 264.739 79.0322 264.692 79.0216C264.631 78.9825 264.587 78.9211 264.57 78.8504C264.553 78.7796 264.565 78.7051 264.602 78.6425C264.855 78.1958 265.212 77.8165 265.643 77.5368C266.074 77.257 266.566 77.0849 267.077 77.0352C267.149 77.035 267.218 77.0623 267.27 77.1113C267.322 77.1604 267.354 77.2275 267.358 77.2989C267.359 77.3346 267.353 77.3702 267.34 77.4037C267.328 77.4371 267.308 77.4677 267.284 77.4937C267.259 77.5197 267.23 77.5407 267.197 77.5553C267.165 77.57 267.13 77.5781 267.094 77.5792C266.672 77.6273 266.268 77.774 265.914 78.0074C265.56 78.2409 265.266 78.5545 265.055 78.9227C265.029 78.9559 264.995 78.9822 264.956 78.9994C264.917 79.0166 264.875 79.0242 264.833 79.0216Z" fill="#1E2749"/>
<path d="M276.548 78.0479C276.504 78.059 276.459 78.059 276.416 78.0479C276.046 77.8239 275.628 77.6927 275.197 77.6654C274.766 77.6382 274.335 77.7157 273.94 77.8913C273.875 77.9237 273.8 77.9298 273.731 77.9083C273.662 77.8867 273.604 77.8393 273.569 77.7759C273.536 77.7111 273.53 77.6363 273.552 77.5672C273.573 77.498 273.621 77.4399 273.684 77.4049C274.154 77.193 274.667 77.0974 275.182 77.1261C275.696 77.1548 276.196 77.307 276.639 77.5698C276.67 77.587 276.698 77.6103 276.72 77.6383C276.743 77.6663 276.76 77.6985 276.769 77.733C276.779 77.7674 276.782 77.8035 276.778 77.8392C276.774 77.8749 276.763 77.9094 276.746 77.9407C276.723 77.9721 276.693 77.9979 276.659 78.0164C276.625 78.035 276.587 78.0457 276.548 78.0479Z" fill="#1E2749"/>
<path d="M248.444 114.094C247.298 116.38 246.025 118.6 244.632 120.745C243.246 122.872 241.777 124.933 240.201 126.936C238.605 128.934 236.891 130.836 235.068 132.631C234.135 133.521 233.203 134.412 232.196 135.236L231.453 135.871C231.105 136.156 230.735 136.415 230.348 136.645C229.396 137.205 228.308 137.491 227.204 137.47C226.08 137.423 224.997 137.041 224.092 136.373C223.393 135.866 222.775 135.254 222.261 134.56C221.418 133.409 220.717 132.161 220.173 130.843C219.188 128.461 218.413 125.998 217.854 123.482C216.756 118.615 216.03 113.672 215.684 108.695L218.597 108.332C219.067 110.673 219.57 113.063 220.156 115.404C220.742 117.745 221.336 120.078 222.054 122.336C222.723 124.558 223.55 126.728 224.53 128.831C224.976 129.758 225.53 130.63 226.18 131.428C226.418 131.707 226.696 131.949 227.005 132.145C227.237 132.277 227.311 132.252 227.319 132.236C227.438 132.2 227.549 132.144 227.649 132.071C227.756 131.997 227.888 131.889 228.029 131.774L228.656 131.181C229.481 130.414 230.306 129.573 231.132 128.708C232.716 127.002 234.185 125.172 235.621 123.317C237.057 121.462 238.369 119.484 239.623 117.481C240.258 116.492 240.869 115.478 241.471 114.456C242.074 113.434 242.643 112.379 243.122 111.423L248.444 114.094Z" fill="#9F5B53"/>
<path d="M219.889 109.346L219.154 103.172L213.031 107.112C213.031 107.112 215.036 110.409 217.809 111.299L219.889 109.346Z" fill="#9F5B53"/>
<path d="M216.885 100.666L212.883 104.441L213.031 107.112L219.154 103.172L216.885 100.666Z" fill="#9F5B53"/>
<path d="M246.298 104.004C242.84 104.623 237.996 114.53 237.996 114.53L246.719 122.402C246.719 122.402 253.65 114.852 253.279 110.351C252.965 106.527 250.704 103.23 246.298 104.004Z" fill="#00A3FF"/>
<path opacity="0.3" d="M246.298 104.004C242.84 104.623 237.996 114.53 237.996 114.53L246.719 122.402C246.719 122.402 253.65 114.852 253.279 110.351C252.965 106.527 250.704 103.23 246.298 104.004Z" fill="black"/>
<path d="M211.558 272.976C211.467 272.977 211.378 272.96 211.294 272.927C210.468 272.655 209.924 271.122 209.643 270.232C209.638 270.206 209.64 270.18 209.649 270.155C209.658 270.13 209.673 270.109 209.693 270.092C209.715 270.078 209.741 270.07 209.767 270.07C209.793 270.07 209.819 270.078 209.841 270.092C210.097 270.223 212.317 271.402 212.375 272.276C212.383 272.37 212.367 272.465 212.326 272.551C212.285 272.636 212.222 272.709 212.144 272.762C211.976 272.895 211.771 272.97 211.558 272.976ZM210.031 270.504C210.411 271.724 210.906 272.54 211.376 272.696C211.484 272.727 211.598 272.73 211.707 272.705C211.817 272.681 211.919 272.63 212.003 272.556C212.045 272.53 212.078 272.494 212.1 272.45C212.122 272.406 212.131 272.357 212.127 272.309C212.086 271.748 210.79 270.908 210.031 270.479V270.504Z" fill="#00A3FF"/>
<path d="M211.9 270.827C211.147 270.823 210.405 270.648 209.73 270.316C209.71 270.304 209.693 270.287 209.681 270.267C209.67 270.246 209.664 270.223 209.664 270.2C209.664 270.176 209.67 270.152 209.682 270.13C209.693 270.108 209.71 270.09 209.73 270.077C209.804 270.035 211.554 269.079 212.495 269.409C212.613 269.447 212.721 269.511 212.811 269.597C212.901 269.682 212.971 269.787 213.014 269.903C213.072 270.014 213.091 270.14 213.068 270.263C213.046 270.385 212.983 270.496 212.891 270.579C212.595 270.764 212.248 270.851 211.9 270.827ZM210.101 270.2C210.852 270.522 212.305 270.719 212.709 270.365C212.775 270.307 212.849 270.217 212.759 270.002C212.729 269.924 212.681 269.853 212.62 269.796C212.558 269.739 212.484 269.696 212.404 269.673C211.768 269.425 210.597 269.953 210.101 270.2Z" fill="#00A3FF"/>
<path d="M257.522 290.419C256.76 290.401 256.002 290.304 255.261 290.131C255.233 290.125 255.207 290.111 255.188 290.091C255.168 290.07 255.156 290.043 255.153 290.015C255.15 289.987 255.155 289.959 255.169 289.934C255.182 289.909 255.202 289.888 255.228 289.875C255.574 289.71 258.578 288.334 259.354 288.836C259.422 288.884 259.476 288.949 259.51 289.024C259.545 289.099 259.559 289.183 259.552 289.265C259.545 289.417 259.505 289.565 259.434 289.699C259.362 289.833 259.262 289.95 259.139 290.04C258.652 290.331 258.087 290.463 257.522 290.419ZM255.731 289.949C256.622 290.114 258.273 290.328 258.949 289.817C259.041 289.753 259.115 289.668 259.167 289.569C259.218 289.47 259.246 289.36 259.246 289.249C259.246 289.133 259.246 289.092 259.172 289.067C258.751 288.779 256.944 289.397 255.731 289.949Z" fill="#00A3FF"/>
<path d="M255.291 290.138C255.262 290.146 255.23 290.146 255.201 290.138C255.181 290.121 255.166 290.1 255.157 290.075C255.148 290.05 255.146 290.024 255.151 289.998C255.151 289.875 255.885 286.907 257.495 287.105C257.899 287.155 258.014 287.361 258.031 287.517C258.138 288.276 256.24 289.792 255.341 290.155L255.291 290.138ZM257.346 287.336C256.306 287.336 255.696 289.059 255.498 289.751C256.471 289.24 257.825 288.004 257.759 287.526C257.759 287.526 257.759 287.377 257.462 287.344L257.346 287.336Z" fill="#00A3FF"/>
<path d="M268.207 81.4359L269.453 80.793C269.453 80.793 268.974 81.9634 268.207 81.4359Z" fill="#1E2749"/>
<path d="M95.6368 83.1418C102.953 75.8136 111.646 70.002 121.218 66.0413C130.79 62.0805 141.052 60.0487 151.413 60.0626H162.578C162.578 60.0626 215.251 73.8359 215.251 130.199C215.251 185.292 178.785 234.055 162.586 250.26H151.429L95.6368 194.532C80.8569 179.757 72.5547 159.724 72.5547 138.837C72.5547 117.95 80.8569 97.9176 95.6368 83.1418ZM151.421 175.459C158.665 175.459 165.746 173.313 171.768 169.293C177.791 165.273 182.485 159.56 185.257 152.875C188.029 146.19 188.753 138.835 187.34 131.739C185.926 124.643 182.437 118.124 177.314 113.009C172.192 107.893 165.665 104.41 158.561 103C151.456 101.589 144.092 102.315 137.4 105.085C130.709 107.854 124.989 112.544 120.966 118.561C116.943 124.578 114.797 131.651 114.798 138.886C114.818 148.575 118.685 157.861 125.551 164.705C132.417 171.549 141.721 175.393 151.421 175.393V175.459Z" fill="#1E2749"/>
<path d="M219.808 81.6505C216.542 78.3914 213.009 75.411 209.245 72.7402L209.716 72.0643C213.521 74.7635 217.093 77.7771 220.394 81.0735L219.808 81.6505ZM204.31 69.5174C202.371 68.3469 200.358 67.2424 198.336 66.2203L198.699 65.4785C200.746 66.4924 202.776 67.6051 204.74 68.7756L204.31 69.5174Z" fill="#00A3FF"/>
<path opacity="0.2" d="M219.808 81.6505C216.542 78.3914 213.009 75.411 209.245 72.7402L209.716 72.0643C213.521 74.7635 217.093 77.7771 220.394 81.0735L219.808 81.6505ZM204.31 69.5174C202.371 68.3469 200.358 67.2424 198.336 66.2203L198.699 65.4785C200.746 66.4924 202.776 67.6051 204.74 68.7756L204.31 69.5174Z" fill="black"/>
<path d="M106.795 83.1425C121.678 68.8299 141.589 60.9207 162.248 61.1148C182.907 61.3089 202.665 69.5908 217.275 84.1804C231.886 98.7701 240.184 118.503 240.384 139.138C240.584 159.773 232.672 179.663 218.347 194.533L162.588 250.236L106.795 194.508C92.0189 179.736 83.7188 159.708 83.7188 138.825C83.7188 117.943 92.0189 97.9151 106.795 83.1425ZM162.58 175.46C169.823 175.46 176.904 173.314 182.927 169.294C188.95 165.274 193.644 159.561 196.415 152.876C199.187 146.191 199.912 138.836 198.498 131.739C197.084 124.643 193.595 118.125 188.473 113.01C183.35 107.894 176.824 104.411 169.719 103C162.615 101.59 155.251 102.315 148.559 105.085C141.867 107.855 136.148 112.545 132.125 118.562C128.102 124.579 125.955 131.652 125.957 138.887C125.976 148.576 129.844 157.861 136.71 164.706C143.576 171.55 152.879 175.394 162.58 175.394V175.46Z" fill="#00A3FF"/>
<path opacity="0.2" d="M106.795 83.1425C121.678 68.8299 141.589 60.9207 162.248 61.1148C182.907 61.3089 202.665 69.5908 217.275 84.1804C231.886 98.7701 240.184 118.503 240.384 139.138C240.584 159.773 232.672 179.663 218.347 194.533L162.588 250.236L106.795 194.508C92.0189 179.736 83.7188 159.708 83.7188 138.825C83.7188 117.943 92.0189 97.9151 106.795 83.1425ZM162.58 175.46C169.823 175.46 176.904 173.314 182.927 169.294C188.95 165.274 193.644 159.561 196.415 152.876C199.187 146.191 199.912 138.836 198.498 131.739C197.084 124.643 193.595 118.125 188.473 113.01C183.35 107.894 176.824 104.411 169.719 103C162.615 101.59 155.251 102.315 148.559 105.085C141.867 107.855 136.148 112.545 132.125 118.562C128.102 124.579 125.955 131.652 125.957 138.887C125.976 148.576 129.844 157.861 136.71 164.706C143.576 171.55 152.879 175.394 162.58 175.394V175.46Z" fill="black"/>
<g style="mix-blend-mode:color-dodge" opacity="0.4">
<path d="M162.584 245.777C162.556 245.776 162.529 245.77 162.503 245.759C162.478 245.748 162.455 245.731 162.436 245.711L108.979 192.323C98.385 181.738 91.1716 168.252 88.2505 153.572C85.3294 138.892 86.8318 123.676 92.5676 109.848C98.3035 96.0207 108.015 84.2024 120.475 75.8876C132.935 67.5727 147.583 63.1348 162.568 63.1348C177.552 63.1348 192.201 67.5727 204.66 75.8876C217.12 84.2024 226.832 96.0207 232.568 109.848C238.304 123.676 239.806 138.892 236.885 153.572C233.964 168.252 226.75 181.738 216.157 192.323L162.724 245.686C162.71 245.711 162.689 245.732 162.665 245.748C162.641 245.763 162.613 245.773 162.584 245.777ZM162.584 63.5412C147.681 63.5438 133.114 67.9601 120.723 76.2317C108.333 84.5033 98.6759 96.2588 92.9737 110.012C87.2714 123.765 85.7798 138.898 88.6873 153.498C91.5949 168.098 98.7711 181.509 109.309 192.035L162.617 245.274L215.901 192.06L216.041 192.2L215.901 192.06C226.437 181.528 233.611 168.112 236.516 153.508C239.42 138.904 237.924 123.768 232.218 110.013C226.512 96.2579 216.851 84.5015 204.456 76.2298C192.062 67.9582 177.491 63.5426 162.584 63.5412ZM162.584 178.938C154.647 178.938 146.888 176.586 140.288 172.182C133.689 167.777 128.545 161.516 125.508 154.191C122.471 146.866 121.677 138.807 123.226 131.031C124.775 123.255 128.598 116.113 134.211 110.507C139.824 104.902 146.975 101.085 154.76 99.5392C162.545 97.9935 170.614 98.7885 177.947 101.824C185.28 104.859 191.547 109.998 195.955 116.59C200.364 123.183 202.716 130.934 202.714 138.862C202.69 149.482 198.452 159.66 190.928 167.164C183.404 174.669 173.209 178.888 162.576 178.896L162.584 178.938ZM162.584 99.1904C154.729 99.1904 147.05 101.517 140.518 105.876C133.987 110.235 128.896 116.431 125.89 123.68C122.884 130.929 122.097 138.906 123.63 146.602C125.163 154.297 128.945 161.366 134.5 166.914C140.054 172.462 147.131 176.241 154.836 177.771C162.54 179.302 170.526 178.516 177.783 175.514C185.041 172.511 191.244 167.426 195.608 160.902C199.972 154.378 202.302 146.708 202.302 138.862C202.302 128.335 198.117 118.239 190.668 110.792C183.219 103.346 173.115 99.1579 162.576 99.1492L162.584 99.1904Z" fill="#FAFAFA"/>
</g>
</svg>
