<svg width="444" height="425" viewBox="0 0 444 425" fill="none" xmlns="http://www.w3.org/2000/svg">
<path d="M106.088 347.695C121.713 336.835 125.264 316.701 124.645 298.593C124.544 295.57 124.872 292.385 123.434 289.725C121.995 287.064 118.608 285.263 115.885 286.539C113.627 287.598 112.644 290.204 111.378 292.367C109.686 295.245 107.212 297.592 104.239 299.136C102.309 300.131 99.9141 300.747 98.002 299.697C95.3796 298.258 95.07 294.656 95.0882 291.652C95.1246 286.048 95.158 280.443 95.1884 274.838C95.1884 271.834 95.1884 268.766 94.2778 265.916C93.3673 263.065 91.2548 260.405 88.3775 259.581C85.5002 258.758 81.9399 260.432 81.339 263.373C81.222 264.615 81.1916 265.864 81.2479 267.11C81.166 268.359 80.5832 269.744 79.4268 270.088C78.2704 270.431 77.0048 269.59 76.1033 268.712C72.9801 265.671 70.8586 261.762 68.8827 257.853C66.9068 253.944 64.9764 249.98 62.1446 246.668C59.3128 243.356 55.3975 240.732 51.0633 240.487C46.7291 240.243 42.1126 242.903 41.0472 247.129C39.9819 251.355 42.4404 255.672 45.1447 259.102C49.1621 264.191 53.8971 268.677 59.2036 272.422C60.2383 272.984 61.0624 273.863 61.5528 274.929C62.2084 276.938 60.3053 278.929 58.3112 279.589C56.0531 280.331 53.6128 280.096 51.2545 280.377C48.8962 280.657 46.3375 281.689 45.4452 283.897C44.2068 286.974 46.7928 290.231 49.3332 292.304C54.4297 296.529 60.2205 299.85 66.4515 302.122C68.6824 302.937 71.0043 303.642 72.8253 305.199C74.6464 306.755 75.7027 309.452 74.6464 311.533C73.5902 313.615 70.7766 314.33 68.4456 313.904C66.1146 313.479 64.0295 312.212 61.8077 311.38C57.6556 309.823 52.2834 310.104 49.6246 313.678C47.8672 316.022 47.7216 319.298 48.6048 322.094C49.6094 324.847 51.1573 327.373 53.1575 329.524C59.7498 337.386 68.3206 343.371 77.9973 346.871C87.6399 350.192 96.5724 351.088 106.16 347.604" fill="#00A3FF"/>
<path d="M45.3555 243.084C45.4402 243.192 45.5381 243.289 45.6468 243.374L46.5574 244.17C47.3496 244.867 48.5151 245.889 49.981 247.256C54.141 251.094 58.0035 255.238 61.5359 259.653C63.7941 262.441 66.0886 265.59 68.5744 269.019C71.0602 272.449 73.6098 276.15 76.1866 280.132C78.9043 284.278 81.3937 288.568 83.644 292.982C84.8095 295.281 85.8566 297.679 86.9128 300.131L90.1271 307.588C94.2612 317.032 97.8575 326.7 100.899 336.545C103.355 344.593 105.044 352.852 105.943 361.214C106.535 366.854 106.629 372.534 106.226 378.19C106.071 380.199 105.916 381.747 105.77 382.797C105.716 383.303 105.67 383.702 105.634 383.991C105.621 384.13 105.621 384.269 105.634 384.407C105.673 384.274 105.7 384.138 105.716 384C105.716 383.711 105.834 383.312 105.916 382.815C106.089 381.765 106.28 380.218 106.471 378.209C106.959 372.54 106.922 366.839 106.362 361.178C105.52 352.78 103.864 344.482 101.418 336.401C98.3858 326.514 94.7832 316.809 90.6279 307.334L87.4136 299.878C86.3483 297.425 85.3012 295 84.1266 292.692C81.8589 288.269 79.3481 283.973 76.6055 279.824C74.0104 275.834 71.4062 272.15 68.9477 268.721C66.4893 265.291 64.1127 262.151 61.8364 259.373C58.264 254.969 54.3454 250.853 50.1176 247.066C48.6243 245.726 47.4406 244.722 46.6211 244.061L45.7106 243.301L45.3555 243.084Z" fill="#1E2749"/>
<path d="M83.9606 292.684C84.1089 292.268 84.2096 291.837 84.2611 291.399C84.4159 290.566 84.6071 289.363 84.8165 287.86C85.2445 284.874 85.7271 280.721 86.1732 276.096C86.6194 271.472 87.1566 267.382 87.6301 264.405C87.8577 262.911 88.0581 261.69 88.2129 260.875C88.3175 260.449 88.3725 260.011 88.3768 259.572C88.21 259.978 88.0849 260.399 88.0034 260.83C87.7849 261.654 87.5208 262.848 87.2477 264.332C86.6649 267.309 86.1004 271.454 85.6178 276.042C85.1352 280.63 84.7072 284.648 84.425 287.806C84.2793 289.218 84.1518 290.403 84.0425 291.363C83.9658 291.799 83.9383 292.242 83.9606 292.684Z" fill="#1E2749"/>
<path d="M45.0703 285.462C45.5799 285.568 46.0979 285.628 46.6182 285.643C47.6198 285.734 49.0676 285.851 50.8432 286.06C54.4034 286.44 59.3113 287.136 64.6835 288.141C70.0557 289.145 74.8816 290.286 78.3417 291.2C80.0809 291.643 81.474 292.041 82.4483 292.313C82.94 292.481 83.4458 292.605 83.9598 292.684C83.4984 292.442 83.0132 292.248 82.512 292.104C81.6015 291.77 80.181 291.317 78.451 290.819C75 289.806 70.1741 288.611 64.7928 287.598C60.1949 286.714 55.5539 286.068 50.8887 285.661C49.0676 285.507 47.6472 285.444 46.6456 285.426C46.1207 285.381 45.5925 285.393 45.0703 285.462Z" fill="#1E2749"/>
<path d="M100.906 335.633C101.017 335.49 101.106 335.331 101.17 335.162L101.835 333.769C102.409 332.547 103.192 330.764 104.13 328.556C106.005 324.122 108.4 317.923 110.959 311.055C113.517 304.186 115.848 297.96 117.624 293.508L119.755 288.223C119.982 287.653 120.164 287.173 120.319 286.784C120.399 286.622 120.455 286.448 120.483 286.269C120.372 286.411 120.283 286.57 120.219 286.739L119.554 288.142C118.981 289.354 118.198 291.137 117.26 293.354C115.384 297.779 112.989 303.978 110.431 310.856C107.872 317.733 105.541 323.941 103.765 328.402L101.635 333.678L101.07 335.117C100.991 335.28 100.935 335.454 100.906 335.633Z" fill="#1E2749"/>
<path d="M49.2227 319.099C49.3822 319.191 49.5538 319.261 49.7326 319.307L51.235 319.804L56.7711 321.614C61.4422 323.126 67.8707 325.234 74.982 327.668C82.0934 330.103 88.5401 332.193 93.2476 333.569C95.6059 334.274 97.509 334.826 98.8384 335.179L100.368 335.577C100.545 335.634 100.729 335.667 100.914 335.677C100.751 335.586 100.577 335.516 100.395 335.469L98.9021 334.971L93.366 333.161C88.6949 331.65 82.2664 329.542 75.155 327.107C68.0437 324.673 61.597 322.583 56.9441 321.216C54.5858 320.51 52.6827 319.958 51.3533 319.596L49.8236 319.198C49.6289 319.137 49.4267 319.104 49.2227 319.099Z" fill="#1E2749"/>
<path d="M254.565 339.496L153.494 339.035C150.604 339.022 147.745 338.443 145.079 337.332C142.414 336.221 139.996 334.599 137.961 332.558C135.927 330.518 134.317 328.1 133.223 325.441C132.129 322.782 131.573 319.936 131.586 317.063L132.697 65.2565C132.726 59.454 135.072 53.9003 139.219 49.8159C143.366 45.7315 148.976 43.4507 154.814 43.4748L255.885 43.9363C261.723 43.9627 267.311 46.2921 271.421 50.4123C275.531 54.5326 277.826 60.1064 277.802 65.9081L276.727 317.715C276.715 320.592 276.132 323.439 275.011 326.093C273.89 328.746 272.253 331.153 270.195 333.177C268.136 335.2 265.695 336.8 263.013 337.885C260.331 338.969 257.46 339.517 254.565 339.496Z" fill="#1E2749"/>
<path d="M255.691 52.6333L236.105 52.5428C235.467 52.5534 234.837 52.689 234.251 52.9417C233.665 53.1944 233.135 53.5593 232.691 54.0156C232.247 54.4719 231.898 55.0106 231.664 55.6011C231.429 56.1915 231.314 56.822 231.325 57.4566V60.9949C231.347 62.2774 230.856 63.5162 229.96 64.4392C229.063 65.3622 227.835 65.894 226.545 65.9177L188.356 65.7368C187.066 65.7036 185.841 65.1627 184.952 64.2328C184.062 63.303 183.581 62.0603 183.612 60.7777V57.2394C183.644 55.9584 183.164 54.717 182.276 53.7874C181.389 52.8579 180.166 52.3159 178.877 52.2804H171.985L154.839 52.1447C152.815 52.1363 150.808 52.5244 148.935 53.2866C147.061 54.0488 145.357 55.1703 143.92 56.5871C142.482 58.0039 141.34 59.6881 140.558 61.5437C139.775 63.3993 139.368 65.3899 139.36 67.4018L138.313 313.182C138.298 317.243 139.906 321.143 142.782 324.028C145.659 326.912 149.569 328.544 153.655 328.566L254.517 329.027C258.604 329.041 262.531 327.443 265.433 324.582C268.336 321.721 269.977 317.832 269.996 313.77L271.043 67.99C271.053 63.9315 269.442 60.0349 266.563 57.1558C263.685 54.2766 259.775 52.6501 255.691 52.6333Z" fill="white"/>
<path d="M232.783 174.184H167.824V236.371H232.783V174.184Z" fill="#00A3FF"/>
<path d="M185.736 156.854L167.816 174.184H232.775L245.195 156.854H185.736Z" fill="#00A3FF"/>
<path opacity="0.1" d="M185.736 156.854L167.816 174.184H232.775L245.195 156.854H185.736Z" fill="black"/>
<path d="M232.773 236.362L245.193 218.806V156.854L232.773 174.184V236.362Z" fill="#00A3FF"/>
<path opacity="0.3" d="M232.773 236.362L245.193 218.806V156.854L232.773 174.184V236.362Z" fill="black"/>
<path d="M215.784 200.002H181.875V203.821H215.784V200.002Z" fill="#00A3FF"/>
<path opacity="0.2" d="M215.784 200.002H181.875V203.821H215.784V200.002Z" fill="black"/>
<path d="M209.655 206.68H188.012V210.281H209.655V206.68Z" fill="#00A3FF"/>
<path opacity="0.2" d="M209.655 206.68H188.012V210.281H209.655V206.68Z" fill="black"/>
<path d="M181.064 154.401C180.978 153.617 180.847 152.837 180.673 152.067C180.109 149.979 178.855 148.14 177.113 146.845C175.928 145.954 174.55 145.352 173.088 145.09C171.412 144.792 169.687 144.942 168.089 145.524C167.224 145.827 166.413 146.264 165.685 146.818C164.912 147.375 164.236 148.054 163.682 148.827C162.482 150.443 161.834 152.398 161.834 154.406C161.834 156.414 162.482 158.369 163.682 159.985C164.238 160.756 164.914 161.434 165.685 161.994C166.417 162.542 167.227 162.978 168.089 163.288C169.587 163.833 171.198 163.997 172.776 163.765C174.353 163.533 175.848 162.911 177.122 161.958C178.857 160.662 180.107 158.828 180.673 156.745C180.849 155.972 180.979 155.19 181.064 154.401C181.126 155.204 181.056 156.011 180.855 156.791C180.346 158.95 179.101 160.869 177.331 162.22C176.018 163.235 174.467 163.903 172.824 164.161C171.181 164.419 169.498 164.259 167.934 163.695C166.077 163.033 164.46 161.836 163.29 160.256C162.016 158.557 161.328 156.494 161.328 154.374C161.328 152.255 162.016 150.192 163.29 148.492C164.464 146.917 166.079 145.72 167.934 145.054C169.61 144.462 171.414 144.325 173.161 144.655C175.016 145.011 176.728 145.891 178.093 147.19C179.457 148.488 180.416 150.15 180.855 151.976C181.061 152.767 181.132 153.587 181.064 154.401Z" fill="#1E2749"/>
<path d="M166.969 153.062C166.969 151.705 167.734 150.8 168.863 150.8C169.992 150.8 170.757 151.705 170.757 153.062C170.757 154.42 169.974 155.324 168.863 155.324C167.752 155.324 166.969 154.401 166.969 153.062ZM170.156 153.062C170.156 151.976 169.637 151.334 168.863 151.334C168.089 151.334 167.57 151.985 167.57 153.062C167.57 154.139 168.071 154.781 168.863 154.781C169.655 154.781 170.156 154.139 170.156 153.062ZM173.934 150.854H174.645L168.917 159.189H168.207L173.934 150.854ZM172.113 156.99C172.113 155.632 172.896 154.727 174.007 154.727C175.118 154.727 175.901 155.632 175.901 156.99C175.901 158.347 175.136 159.252 174.007 159.252C172.878 159.252 172.104 158.347 172.104 156.99H172.113ZM175.3 156.99C175.3 155.913 174.799 155.261 174.007 155.261C173.215 155.261 172.714 155.904 172.714 156.99C172.714 158.075 173.233 158.709 174.007 158.709C174.781 158.709 175.291 158.021 175.291 156.99H175.3Z" fill="#1E2749"/>
<path d="M222.574 257.401C222.574 259.211 221.254 260.75 218.34 260.75C216.968 260.773 215.619 260.396 214.461 259.664L215.371 257.854C216.216 258.452 217.23 258.769 218.267 258.759C219.442 258.759 220.17 258.27 220.17 257.447C220.17 256.623 219.651 256.125 217.803 256.125H215.198L215.727 250.442H221.927V252.316H217.684L217.529 254.234H218.358C221.381 254.261 222.574 255.61 222.574 257.401Z" fill="#1E2749"/>
<path d="M223.531 255.52C223.531 252.18 225.398 250.289 227.893 250.289C230.388 250.289 232.254 252.18 232.254 255.52C232.254 258.859 230.433 260.75 227.893 260.75C225.352 260.75 223.531 258.859 223.531 255.52ZM229.905 255.52C229.905 253.221 229.095 252.271 227.911 252.271C226.727 252.271 225.935 253.221 225.935 255.52C225.935 257.818 226.755 258.768 227.911 258.768C229.067 258.768 229.887 257.818 229.887 255.52H229.905Z" fill="#1E2749"/>
<path d="M238.321 252.677C238.353 252.966 238.321 253.259 238.228 253.534C238.135 253.81 237.983 254.062 237.782 254.273C237.581 254.484 237.336 254.649 237.064 254.756C236.792 254.863 236.5 254.911 236.208 254.894C235.807 254.905 235.411 254.808 235.061 254.614L235.416 253.917C235.651 254.062 235.924 254.131 236.199 254.116C236.358 254.126 236.517 254.102 236.665 254.045C236.814 253.987 236.948 253.899 237.059 253.786C237.169 253.672 237.254 253.536 237.307 253.387C237.36 253.238 237.379 253.079 237.365 252.922C237.225 253.049 237.062 253.148 236.883 253.211C236.705 253.275 236.516 253.303 236.327 253.293C236.147 253.308 235.966 253.286 235.796 253.228C235.625 253.17 235.468 253.078 235.335 252.958C235.201 252.837 235.095 252.691 235.021 252.527C234.947 252.364 234.908 252.187 234.906 252.008C234.911 251.813 234.957 251.622 235.04 251.446C235.123 251.27 235.242 251.113 235.389 250.985C235.536 250.856 235.708 250.76 235.895 250.7C236.081 250.641 236.278 250.621 236.472 250.641C237.647 250.641 238.321 251.347 238.321 252.677ZM237.255 251.962C237.254 251.874 237.233 251.786 237.195 251.705C237.157 251.625 237.102 251.553 237.034 251.495C236.966 251.437 236.887 251.394 236.801 251.368C236.715 251.343 236.625 251.336 236.536 251.347C236.446 251.332 236.353 251.336 236.265 251.36C236.177 251.384 236.095 251.426 236.025 251.485C235.955 251.544 235.898 251.617 235.86 251.699C235.821 251.782 235.801 251.872 235.801 251.962C235.801 252.053 235.821 252.143 235.86 252.226C235.898 252.308 235.955 252.381 236.025 252.44C236.095 252.499 236.177 252.541 236.265 252.565C236.353 252.589 236.446 252.593 236.536 252.578C236.627 252.594 236.72 252.589 236.809 252.566C236.898 252.542 236.981 252.5 237.052 252.441C237.123 252.383 237.181 252.31 237.22 252.227C237.26 252.144 237.281 252.054 237.283 251.962H237.255Z" fill="#1E2749"/>
<path d="M242.116 252.678C242.149 252.966 242.117 253.259 242.024 253.534C241.931 253.81 241.779 254.062 241.577 254.273C241.376 254.484 241.131 254.649 240.86 254.756C240.588 254.864 240.296 254.911 240.004 254.895C239.603 254.905 239.207 254.808 238.857 254.614L239.23 253.944C239.461 254.088 239.731 254.158 240.004 254.144C240.163 254.155 240.323 254.132 240.472 254.075C240.621 254.019 240.756 253.93 240.867 253.816C240.978 253.703 241.063 253.566 241.115 253.416C241.167 253.266 241.186 253.107 241.169 252.949C241.032 253.077 240.87 253.176 240.693 253.24C240.517 253.304 240.328 253.331 240.141 253.32C239.96 253.335 239.779 253.313 239.608 253.255C239.437 253.198 239.279 253.106 239.145 252.986C239.011 252.865 238.904 252.719 238.829 252.555C238.754 252.392 238.714 252.215 238.711 252.035C238.716 251.84 238.762 251.648 238.846 251.471C238.929 251.294 239.049 251.137 239.197 251.008C239.345 250.88 239.518 250.783 239.706 250.725C239.893 250.666 240.091 250.647 240.286 250.669C241.415 250.641 242.116 251.347 242.116 252.678ZM241.042 251.963C241.04 251.874 241.019 251.786 240.981 251.706C240.943 251.625 240.888 251.553 240.82 251.495C240.753 251.437 240.673 251.394 240.587 251.369C240.502 251.343 240.411 251.336 240.323 251.347C240.158 251.347 240.001 251.412 239.885 251.528C239.769 251.643 239.703 251.799 239.703 251.963C239.703 252.126 239.769 252.282 239.885 252.398C240.001 252.513 240.158 252.578 240.323 252.578C240.412 252.591 240.503 252.585 240.59 252.56C240.677 252.535 240.758 252.492 240.827 252.434C240.895 252.376 240.951 252.303 240.99 252.222C241.029 252.141 241.049 252.053 241.051 251.963H241.042Z" fill="#1E2749"/>
<path d="M242.079 256.306H234.812V257.22H242.079V256.306Z" fill="#1E2749"/>
<path d="M200.761 253.428H163.246V254.586H200.761V253.428Z" fill="#1E2749"/>
<path d="M186.019 257.121H163.246V258.279H186.019V257.121Z" fill="#1E2749"/>
<path d="M243.954 304.874L168.952 304.53C168.178 304.53 167.55 303.679 167.559 302.648L167.641 283.146C167.641 282.115 168.278 281.282 169.052 281.282L244.054 281.635C244.828 281.635 245.456 282.477 245.456 283.508L245.374 303.01C245.365 304.041 244.737 304.874 243.954 304.874Z" fill="#00A3FF"/>
<path d="M203.398 293.951C203.398 294.947 202.687 295.508 201.285 295.499H198.699V289.662H201.13C202.378 289.662 203.097 290.223 203.097 291.173C203.107 291.461 203.024 291.745 202.861 291.983C202.697 292.221 202.461 292.4 202.187 292.495C202.538 292.538 202.859 292.713 203.084 292.984C203.309 293.254 203.421 293.601 203.398 293.951ZM202.806 293.897C202.806 293.137 202.278 292.802 201.285 292.802H199.3V294.992H201.285C202.269 295.001 202.806 294.666 202.806 293.897ZM199.309 290.142V292.259H201.13C202.041 292.259 202.551 291.906 202.56 291.21C202.569 290.513 202.041 290.151 201.139 290.142H199.309Z" fill="white"/>
<path d="M204.719 293.019V289.68H205.311V293.001C205.311 294.385 205.93 295.019 207.022 295.028C208.115 295.037 208.753 294.403 208.753 293.019V289.698H209.326V293.046C209.326 294.72 208.416 295.58 207.013 295.58C205.611 295.58 204.71 294.666 204.719 293.019Z" fill="white"/>
<path d="M212.97 293.534V295.57H212.387V293.552L210.156 289.725H210.785L212.706 293.01L214.645 289.743H215.237L212.97 293.534Z" fill="white"/>
<path d="M181.921 107.21H153.566V121.598H181.921V107.21Z" fill="#00A3FF"/>
<path d="M159.685 102.169L153.566 107.209H181.921L186.1 102.169H159.685Z" fill="#00A3FF"/>
<path opacity="0.2" d="M159.685 102.169L153.566 107.209H181.921L186.1 102.169H159.685Z" fill="black"/>
<path d="M181.918 121.598L186.097 116.114V102.169L181.918 107.209V121.598Z" fill="#00A3FF"/>
<path opacity="0.1" d="M181.918 121.598L186.097 116.114V102.169L181.918 107.209V121.598Z" fill="black"/>
<path d="M177.093 111.888H157.762V113.372H177.093V111.888Z" fill="#00A3FF"/>
<path opacity="0.1" d="M177.093 111.888H157.762V113.372H177.093V111.888Z" fill="black"/>
<path d="M173.587 114.566H161.586V116.05H173.587V114.566Z" fill="#00A3FF"/>
<path opacity="0.1" d="M173.587 114.566H161.586V116.05H173.587V114.566Z" fill="black"/>
<path d="M174.507 129.354H161.586V131.317H174.507V129.354Z" fill="#1E2749"/>
<path d="M153.566 107.209C154.021 107.141 154.481 107.111 154.941 107.119L158.684 107.037C161.843 107.037 166.214 106.974 171.031 106.974L181.957 107.028L181.812 107.092L184.926 103.472C185.293 103.008 185.698 102.576 186.137 102.178C185.827 102.682 185.477 103.16 185.09 103.608L182.067 107.345L182.012 107.408H181.921L170.994 107.463C166.177 107.463 161.807 107.463 158.647 107.39L154.905 107.318C154.456 107.326 154.008 107.29 153.566 107.209Z" fill="#00A3FF"/>
<g opacity="0.2">
<path opacity="0.2" d="M153.566 107.209C154.021 107.141 154.481 107.111 154.941 107.119L158.684 107.037C161.843 107.037 166.214 106.974 171.031 106.974L181.957 107.028L181.812 107.092L184.926 103.472C185.293 103.008 185.698 102.576 186.137 102.178C185.827 102.682 185.477 103.16 185.09 103.608L182.067 107.345L182.012 107.408H181.921L170.994 107.463C166.177 107.463 161.807 107.463 158.647 107.39L154.905 107.318C154.456 107.326 154.008 107.29 153.566 107.209Z" fill="black"/>
</g>
<path d="M181.922 121.598C181.682 119.208 181.603 116.804 181.685 114.404C181.601 111.988 181.68 109.569 181.922 107.164C182.17 109.569 182.252 111.988 182.167 114.404C182.25 116.804 182.167 119.208 181.922 121.598Z" fill="#00A3FF"/>
<g opacity="0.2">
<path opacity="0.2" d="M181.922 121.598C181.682 119.208 181.603 116.804 181.685 114.404C181.601 111.988 181.68 109.569 181.922 107.164C182.17 109.569 182.252 111.988 182.167 114.404C182.25 116.804 182.167 119.208 181.922 121.598Z" fill="black"/>
</g>
<path d="M214.956 129.354H202.035V131.317H214.956V129.354Z" fill="#1E2749"/>
<path d="M197.93 99.2301L197.742 121.509L218.074 121.678L218.262 99.3994L197.93 99.2301Z" fill="#00A3FF"/>
<path d="M203.856 94.7402L197.855 99.3192H218.188L222.367 94.7402H203.856Z" fill="#00A3FF"/>
<path d="M218.188 121.599L222.367 116.115V94.7402L218.188 99.3192V121.599Z" fill="#00A3FF"/>
<path d="M212.542 108.322H202.262V109.806H212.542V108.322Z" fill="#00A3FF"/>
<path opacity="0.2" d="M212.542 108.322H202.262V109.806H212.542V108.322Z" fill="black"/>
<path d="M210.684 111.011H204.301V112.495H210.684V111.011Z" fill="#00A3FF"/>
<path opacity="0.2" d="M210.684 111.011H204.301V112.495H210.684V111.011Z" fill="black"/>
<path d="M197.855 99.3176C198.2 99.25 198.551 99.2197 198.903 99.2271L201.744 99.1456C204.147 99.1004 207.462 99.0732 211.131 99.0732H218.188L218.033 99.1366C219.308 97.7701 220.373 96.648 221.129 95.8698C221.501 95.4376 221.916 95.0435 222.367 94.6934C222.056 95.1701 221.703 95.6183 221.311 96.0327C220.601 96.8561 219.581 98.0145 218.343 99.4081L218.279 99.4805H218.188H211.131C207.489 99.4805 204.147 99.4805 201.744 99.4081L198.903 99.3357C198.554 99.3706 198.203 99.3645 197.855 99.3176Z" fill="#00A3FF"/>
<g opacity="0.3">
<path opacity="0.3" d="M197.855 99.3176C198.2 99.25 198.551 99.2197 198.903 99.2271L201.744 99.1456C204.147 99.1004 207.462 99.0732 211.131 99.0732H218.188L218.033 99.1366C219.308 97.7701 220.373 96.648 221.129 95.8698C221.501 95.4376 221.916 95.0435 222.367 94.6934C222.056 95.1701 221.703 95.6183 221.311 96.0327C220.601 96.8561 219.581 98.0145 218.343 99.4081L218.279 99.4805H218.188H211.131C207.489 99.4805 204.147 99.4805 201.744 99.4081L198.903 99.3357C198.554 99.3706 198.203 99.3645 197.855 99.3176Z" fill="black"/>
</g>
<path d="M218.187 121.598C218.051 121.598 217.941 116.612 217.941 110.458C217.941 104.305 218.051 99.3184 218.187 99.3184C218.324 99.3184 218.433 104.305 218.433 110.458C218.433 116.612 218.287 121.598 218.187 121.598Z" fill="#00A3FF"/>
<g opacity="0.3">
<path opacity="0.3" d="M218.187 121.598C218.051 121.598 217.941 116.612 217.941 110.458C217.941 104.305 218.051 99.3184 218.187 99.3184C218.324 99.3184 218.433 104.305 218.433 110.458C218.433 116.612 218.287 121.598 218.187 121.598Z" fill="black"/>
</g>
<path d="M250.956 129.354H238.035V131.317H250.956V129.354Z" fill="#1E2749"/>
<path d="M235.27 107.581C236.325 107.434 237.391 107.376 238.456 107.409C240.432 107.409 243.155 107.337 246.169 107.337C248.837 107.337 251.286 107.337 253.144 107.391L253.007 107.454C253.836 106.549 254.509 105.88 254.992 105.4C255.22 105.131 255.484 104.894 255.775 104.694C255.604 105.001 255.393 105.284 255.147 105.536C254.719 106.061 254.081 106.803 253.326 107.699L253.271 107.762H253.18C251.359 107.762 248.873 107.816 246.205 107.816C243.191 107.816 240.469 107.816 238.493 107.744C237.416 107.772 236.338 107.718 235.27 107.581Z" fill="#00A3FF"/>
<path d="M253.153 107.58H235.27V121.607H253.153V107.58Z" fill="#00A3FF"/>
<path opacity="0.2" d="M253.153 107.58H235.27V121.607H253.153V107.58Z" fill="black"/>
<path d="M239.048 104.694L235.27 107.572H253.153L255.775 104.694H239.048Z" fill="#00A3FF"/>
<path d="M253.152 121.598L255.775 118.151V104.694L253.152 107.572V121.598Z" fill="#00A3FF"/>
<path opacity="0.1" d="M253.152 121.598L255.775 118.151V104.694L253.152 107.572V121.598Z" fill="black"/>
<path d="M248.518 112.929H240.332V114.015H248.518V112.929Z" fill="#00A3FF"/>
<path d="M247.034 114.901H241.953V115.987H247.034V114.901Z" fill="#00A3FF"/>
<path d="M253.15 121.597C252.899 119.269 252.81 116.925 252.886 114.584C252.804 112.247 252.886 109.906 253.132 107.58C253.367 109.907 253.446 112.247 253.369 114.584C253.452 116.924 253.379 119.267 253.15 121.597Z" fill="#00A3FF"/>
<path d="M278.674 40L276.817 43.3664L273.43 45.2034L276.817 47.0494L278.674 50.4067L280.523 47.0494L283.91 45.2034L280.523 43.3664L278.674 40Z" fill="#00A3FF"/>
<path d="M120.268 126.593L118.411 129.959L115.023 131.796L118.411 133.633L120.268 137L122.117 133.633L125.504 131.796L122.117 129.959L120.268 126.593Z" fill="#00A3FF"/>
<path d="M292.167 54.2793L291.029 56.3425L288.953 57.4737L291.029 58.6049L292.167 60.6772L293.315 58.6049L295.391 57.4737L293.315 56.3425L292.167 54.2793Z" fill="#00A3FF"/>
<path d="M110.105 107.246L108.967 109.309L106.891 110.441L108.967 111.572L110.105 113.644L111.243 111.572L113.319 110.441L111.243 109.309L110.105 107.246Z" fill="#00A3FF"/>
<path d="M367.334 342.627L360.633 337.388L370.421 324.854L380.301 332.411L379.745 333.225C377.241 336.845 366.743 351.396 364.266 353.134C361.425 355.17 367.334 342.627 367.334 342.627Z" fill="#00A3FF"/>
<path d="M363.382 353.016C363.263 352.925 366.86 348.183 371.413 342.428C375.965 336.673 379.753 332.085 379.872 332.175C379.99 332.266 376.393 337.007 371.841 342.763C367.288 348.518 363.5 353.106 363.382 353.016Z" fill="#1E2749"/>
<path d="M368.527 343.949C368.527 344.093 368.063 344.148 367.553 344.148C367.043 344.148 366.597 344.075 366.579 343.931C366.56 343.786 366.988 343.596 367.553 343.605C368.118 343.614 368.527 343.804 368.527 343.949Z" fill="#1E2749"/>
<path d="M368.338 345.088C368.292 345.233 367.81 345.224 367.245 345.142C366.681 345.061 366.207 344.952 366.207 344.808C366.207 344.663 366.708 344.527 367.318 344.608C367.928 344.69 368.383 344.943 368.338 345.088Z" fill="#1E2749"/>
<path d="M376.851 335.895C376.779 335.895 376.624 335.632 376.442 335.144C376.197 334.49 376.076 333.796 376.087 333.099C376.098 332.369 376.362 331.666 376.833 331.108C377.207 330.691 377.553 330.592 377.589 330.655C377.625 330.719 377.389 330.927 377.143 331.334C376.821 331.884 376.646 332.507 376.633 333.144C376.632 333.791 376.693 334.436 376.815 335.071C376.897 335.551 376.924 335.877 376.851 335.895Z" fill="#1E2749"/>
<path d="M367.234 342.998C367.179 342.863 367.452 342.618 367.807 342.392C368.162 342.166 368.508 342.021 368.608 342.13C368.709 342.238 368.508 342.591 368.108 342.854C367.707 343.116 367.288 343.143 367.234 342.998Z" fill="#1E2749"/>
<path d="M366.705 342.301C366.595 342.193 366.768 341.785 367.087 341.396C367.406 341.007 367.779 340.736 367.907 340.826C368.034 340.917 367.852 341.315 367.515 341.731C367.178 342.147 366.85 342.401 366.705 342.301Z" fill="#1E2749"/>
<path d="M322.935 234.94C322.935 234.94 302.903 287.734 305.635 297.598C308.367 307.462 362.253 346.627 362.253 346.627L376.885 325.687C376.885 325.687 334.836 292.612 334.7 290.793C334.563 288.974 351.399 245.103 351.399 245.103L322.935 234.94Z" fill="#1E2749"/>
<path d="M361.325 330.529L361.134 330.429C360.998 330.329 360.825 330.221 360.606 330.085L358.603 328.719C356.882 327.515 354.387 325.76 351.318 323.533C345.254 319.081 337.014 312.729 328.273 305.29C326.087 303.426 323.966 301.589 321.899 299.806L318.921 297.155C317.905 296.343 317.036 295.363 316.353 294.259C315.792 293.121 315.659 291.821 315.98 290.594C316.208 289.427 316.508 288.332 316.791 287.255C317.364 285.128 317.938 283.155 318.457 281.355L320.952 272.839C321.225 271.862 321.443 271.084 321.607 270.513L321.771 269.907C321.745 269.901 321.723 269.885 321.708 269.863C321.693 269.841 321.687 269.814 321.69 269.788C321.693 269.762 321.706 269.738 321.726 269.72C321.746 269.703 321.772 269.693 321.799 269.693C321.825 269.693 321.851 269.703 321.871 269.72C321.891 269.738 321.904 269.762 321.907 269.788C321.91 269.814 321.904 269.841 321.889 269.863C321.874 269.885 321.852 269.901 321.826 269.907C321.826 270.07 321.753 270.278 321.698 270.522C321.58 271.056 321.398 271.853 321.134 272.866C320.615 274.902 319.804 277.825 318.794 281.436C318.293 283.246 317.737 285.21 317.182 287.345C316.909 288.404 316.618 289.517 316.399 290.648C316.108 291.782 316.234 292.983 316.754 294.033C317.415 295.087 318.252 296.02 319.231 296.793L322.217 299.426C324.248 301.236 326.369 303.046 328.591 304.901C337.323 312.33 345.518 318.719 351.528 323.235L358.685 328.547L360.633 329.986L361.134 330.366C361.243 330.474 361.335 330.529 361.325 330.529Z" fill="#455A64"/>
<path d="M356.445 336.908C356.335 336.827 359.112 333.017 362.645 328.402C366.178 323.787 369.138 320.103 369.247 320.185C369.356 320.266 366.57 324.076 363.037 328.7C359.504 333.325 356.554 336.989 356.445 336.908Z" fill="#455A64"/>
<path d="M358.248 134.548C360.069 138.095 360.98 141.172 364.513 143C366.106 143.832 368.055 144.303 369.066 145.805C370.113 147.452 369.621 149.832 370.941 151.235C372.872 153.325 376.805 151.633 378.963 153.47C380.894 155.117 380.274 158.646 382.36 160.094C383.525 160.918 385.091 160.737 386.457 161.243C388.642 162.085 389.68 164.592 389.963 166.899C390.262 168.752 390.025 170.65 389.28 172.374C388.898 173.229 388.306 173.975 387.558 174.542C386.81 175.11 385.93 175.482 385 175.623C382.514 175.885 379.71 174.184 377.716 175.623C377.068 176.221 376.505 176.903 376.04 177.65C375.414 178.441 374.603 179.07 373.679 179.481C372.754 179.893 371.742 180.075 370.731 180.012C369.719 179.948 368.738 179.642 367.873 179.119C367.007 178.595 366.282 177.871 365.76 177.007C364.376 174.709 364.467 171.578 362.437 169.768C361.283 168.966 359.994 168.378 358.631 168.03C357.31 167.542 355.945 166.727 355.553 165.388C355.101 164.202 354.454 163.098 353.641 162.121C352.63 160.619 351.283 162.456 349.935 161.714C348.587 160.972 349.106 159.524 349.024 158.004" fill="#1E2749"/>
<path d="M334.692 185.838L317.391 180.092C317.391 180.092 309.752 201.955 307.375 202.172C294.409 203.349 280.532 199.068 275.67 197.385C275.169 196.833 274.605 196.172 273.976 195.358C273.441 194.66 273.028 193.877 272.756 193.041C272.381 192.016 272.148 190.944 272.064 189.856C272.083 189.647 272.037 189.438 271.931 189.256C271.825 189.075 271.665 188.931 271.474 188.843C271.282 188.756 271.067 188.73 270.86 188.769C270.653 188.807 270.463 188.909 270.316 189.06C269.761 189.784 269.615 192.544 270.89 195.521C272.164 198.498 267.639 196.127 265.973 195.295C264.306 194.462 259.034 192.127 258.37 192.435C257.395 192.888 257.705 194.001 259.389 194.797C261.074 195.593 265.955 198.317 265.463 199.168C264.971 200.018 256.567 195.657 256.567 195.657C256.567 195.657 254.91 194.444 254.318 195.412C253.252 197.159 262.513 201.122 263.423 201.475C264.051 201.729 263.56 202.67 262.904 202.38C262.249 202.091 254.709 197.838 253.58 199.647C252.724 201.005 261.192 202.987 262.285 204.733C263.378 206.48 256.02 202.588 255.265 203.919C254.982 204.407 254.837 204.824 259.389 206.452C262.726 207.487 266.114 208.345 269.542 209.022V209.068C269.542 209.068 315.015 229.284 324.831 209.801C335.22 189.078 334.692 185.838 334.692 185.838Z" fill="#E5BAAB"/>
<path d="M351.781 167.73L359.33 167.866L365.321 184.942L360.44 204.507C359.011 210.217 365.494 221.655 365.321 227.963L322.999 234.777L322.088 206.679V205.774L307.438 198.534L312.273 186.77C319.712 169.45 332.705 168.4 332.705 168.4L351.781 167.73Z" fill="#00A3FF"/>
<g opacity="0.2">
<path opacity="0.2" d="M351.781 167.73L359.33 167.866L365.321 184.942L360.44 204.507C359.011 210.217 365.494 221.655 365.321 227.963L322.999 234.777L322.088 206.679V205.774L307.438 198.534L312.273 186.77C319.712 169.45 332.705 168.4 332.705 168.4L351.781 167.73Z" fill="white"/>
</g>
<path d="M359.642 167.913C359.642 167.913 359.56 167.913 359.396 168.012C359.154 168.095 358.908 168.164 358.658 168.22C357.691 168.397 356.71 168.494 355.726 168.51L355.817 168.338L358.704 172.998L358.904 173.306L358.531 173.243C356.859 172.957 355.155 172.902 353.468 173.08L353.641 172.863C353.706 174.775 353.98 176.675 354.461 178.528L354.588 178.908L354.187 178.817C352.265 178.41 350.41 177.734 348.679 176.808L349.034 176.654C348.688 178.337 348.333 180.102 347.968 181.903L347.886 182.292L347.577 182.048C346.812 181.444 346.085 180.794 345.401 180.102C344.723 179.43 344.088 178.716 343.498 177.966L343.844 178.012L339 181.803L338.699 182.039L338.617 181.668C338.271 179.994 337.943 178.365 337.625 176.808L337.916 176.971L332.735 178.781L332.38 178.908L332.48 178.546C333.026 176.491 333.527 174.627 333.982 172.971L334.11 173.17L329.612 172.401H329.43L329.53 172.247L331.497 169.388L332.025 168.655C332.143 168.492 332.216 168.41 332.225 168.419C332.183 168.513 332.134 168.604 332.079 168.691L331.606 169.451L329.739 172.374L329.657 172.193L334.165 172.872H334.347V173.053L332.908 178.645L332.653 178.401L337.807 176.591L338.053 176.5L338.107 176.754L339.127 181.613L338.745 181.478L343.58 177.668L343.771 177.514L343.926 177.704C344.499 178.418 345.113 179.097 345.765 179.74C346.436 180.418 347.148 181.056 347.896 181.65L347.513 181.794C347.877 179.984 348.242 178.229 348.588 176.546L348.651 176.22L348.943 176.392C350.631 177.297 352.44 177.961 354.315 178.365L354.051 178.645C353.572 176.762 353.309 174.831 353.268 172.89V172.691H353.468C355.194 172.518 356.936 172.594 358.64 172.917L358.467 173.17C357.365 171.36 356.427 169.732 355.663 168.456L355.572 168.293H355.754C356.731 168.303 357.708 168.242 358.676 168.112C359.296 167.976 359.642 167.895 359.642 167.913Z" fill="#455A64"/>
<path d="M368 175.088C368 175.088 367.709 174.952 367.09 174.78C366.216 174.538 365.294 174.522 364.413 174.735L364.486 174.635C364.659 175.631 364.932 176.825 365.305 178.192C365.678 179.558 366.134 181.105 366.543 182.852L366.607 183.105L366.343 183.033C364.185 182.409 361.645 181.938 358.977 181.042L359.223 180.843C359.505 183.422 359.487 186.273 359.641 189.349V189.612H359.368C356.936 189.192 354.545 188.565 352.22 187.739C351.929 187.657 351.592 187.54 351.51 187.666C351.327 187.884 351.191 188.136 351.11 188.408L350.354 190.218C349.853 191.44 349.334 192.68 348.815 193.928L348.66 194.308L348.405 193.992L343.561 188.019L343.197 187.576H343.525L335.749 192.897L335.494 193.069L335.384 192.779C334.474 190.263 333.654 187.838 332.835 185.485L333.181 185.603C330.46 187.36 327.553 188.813 324.513 189.938L324.194 190.064V189.72C324.749 185.802 325.25 182.282 325.678 179.241L325.906 179.413C323.692 180.28 321.316 180.66 318.94 180.526H318.785L318.84 180.382L320.47 176.02C320.661 175.558 320.797 175.187 320.907 174.907C320.952 174.778 321.01 174.653 321.08 174.536C321.056 174.668 321.019 174.799 320.97 174.925C320.87 175.214 320.743 175.585 320.588 176.065C320.224 177.097 319.678 178.572 319.049 180.463L318.949 180.309C321.284 180.402 323.613 179.998 325.778 179.124L326.042 179.015V179.296C325.632 182.345 325.132 185.856 324.64 189.784L324.358 189.567C327.36 188.433 330.23 186.98 332.917 185.232L333.163 185.078L333.263 185.35L335.831 192.589L335.466 192.48L343.252 187.15L343.443 187.024L343.579 187.196L343.944 187.639L348.779 193.621L348.369 193.675L349.917 189.965L350.673 188.155C350.782 187.813 350.972 187.503 351.228 187.25C351.32 187.169 351.434 187.115 351.556 187.096C351.659 187.086 351.762 187.086 351.865 187.096C352.035 187.131 352.202 187.176 352.366 187.232C354.668 188.054 357.034 188.683 359.441 189.114L359.186 189.34C359.05 186.282 359.077 183.413 358.822 180.852V180.553L359.104 180.653C361.745 181.558 364.267 182.056 366.443 182.707L366.243 182.888C365.86 181.16 365.414 179.612 365.068 178.228C364.722 176.843 364.467 175.649 364.312 174.608V174.527H364.394C365.3 174.324 366.244 174.368 367.126 174.653C367.436 174.758 367.73 174.905 368 175.088Z" fill="#455A64"/>
<path d="M322.327 205.529C321.994 205.432 321.685 205.268 321.417 205.05C320.641 204.514 319.976 203.835 319.459 203.05C318.69 201.856 318.341 200.443 318.466 199.032C318.526 197.494 318.985 195.997 319.799 194.687C320.612 193.377 321.753 192.299 323.11 191.557L322.983 191.738C323.329 189.159 323.647 186.942 323.893 185.404C323.985 184.564 324.141 183.732 324.358 182.915C324.364 183.763 324.303 184.61 324.176 185.449C324.021 187.023 323.757 189.25 323.438 191.838V191.946L323.32 192.01C322.05 192.732 320.982 193.759 320.214 194.997C319.446 196.234 319.002 197.643 318.922 199.095C318.785 200.421 319.079 201.756 319.759 202.905C320.245 203.682 320.861 204.371 321.58 204.941C321.84 205.124 322.089 205.32 322.327 205.529Z" fill="#455A64"/>
<path d="M323.909 186.572C323.791 186.636 323.372 186.029 322.998 185.233C322.625 184.437 322.379 183.74 322.507 183.676C322.634 183.613 323.044 184.219 323.417 185.025C323.791 185.83 324.045 186.518 323.909 186.572Z" fill="#455A64"/>
<path d="M351.272 167.975L352.574 138.411L340.737 129.516L330.002 134.728C330.002 134.728 329.638 148.13 330.002 153.949C330.366 159.768 336.257 160.374 336.257 160.374C336.257 160.374 336.121 163.785 335.984 167.36C335.943 168.387 336.113 169.411 336.483 170.371C336.852 171.33 337.415 172.205 338.135 172.943C338.855 173.68 339.719 174.264 340.674 174.659C341.628 175.054 342.653 175.252 343.687 175.242C345.648 175.23 347.53 174.468 348.942 173.116C350.354 171.763 351.188 169.923 351.272 167.975Z" fill="#E5BAAB"/>
<path d="M331.195 144.502C331.194 144.651 331.237 144.798 331.319 144.923C331.401 145.047 331.519 145.145 331.658 145.203C331.796 145.261 331.949 145.277 332.096 145.248C332.244 145.219 332.379 145.148 332.485 145.042C332.592 144.936 332.664 144.802 332.693 144.655C332.722 144.509 332.706 144.357 332.648 144.219C332.589 144.082 332.491 143.964 332.365 143.883C332.24 143.801 332.092 143.758 331.942 143.76C331.744 143.76 331.554 143.838 331.414 143.977C331.274 144.116 331.195 144.305 331.195 144.502Z" fill="#1E2749"/>
<path d="M330.465 143.686C330.557 143.786 331.112 143.315 331.913 143.27C332.715 143.225 333.325 143.614 333.416 143.505C333.507 143.397 333.352 143.288 333.088 143.107C332.731 142.877 332.31 142.766 331.886 142.79C331.462 142.815 331.057 142.973 330.73 143.243C330.493 143.46 330.411 143.65 330.465 143.686Z" fill="#1E2749"/>
<path d="M339.863 144.502C339.863 144.649 339.907 144.792 339.989 144.914C340.071 145.036 340.188 145.131 340.324 145.187C340.461 145.244 340.611 145.258 340.756 145.23C340.9 145.201 341.033 145.13 341.138 145.027C341.242 144.923 341.313 144.791 341.342 144.647C341.371 144.503 341.356 144.353 341.3 144.218C341.243 144.082 341.148 143.966 341.025 143.885C340.902 143.803 340.758 143.76 340.61 143.76C340.412 143.76 340.222 143.838 340.082 143.977C339.942 144.116 339.863 144.305 339.863 144.502Z" fill="#1E2749"/>
<path d="M339.391 143.686C339.482 143.786 340.037 143.315 340.847 143.27C341.658 143.225 342.25 143.614 342.341 143.505C342.432 143.397 342.277 143.288 342.013 143.107C341.657 142.877 341.236 142.766 340.811 142.79C340.387 142.815 339.982 142.973 339.655 143.243C339.391 143.46 339.391 143.65 339.391 143.686Z" fill="#1E2749"/>
<path d="M339.155 151.207C337.926 151.835 336.614 152.286 335.258 152.546C335.555 152.949 335.979 153.241 336.462 153.377C336.945 153.513 337.46 153.485 337.926 153.297C338.148 153.246 338.357 153.15 338.541 153.016C338.725 152.882 338.879 152.711 338.994 152.516C339.109 152.32 339.182 152.103 339.21 151.878C339.238 151.653 339.219 151.425 339.155 151.207Z" fill="white"/>
<path d="M336.266 160.374C339.045 160.261 341.734 159.36 344.014 157.776C344.014 157.776 342.257 162.048 336.393 161.803L336.266 160.374Z" fill="#D78776"/>
<path d="M369.591 155.116C368.854 155.144 368.122 154.979 367.47 154.637C366.505 154.123 365.704 153.352 365.157 152.41C364.477 151.233 363.898 150.001 363.427 148.727C362.334 146.013 361.515 143.524 360.95 141.696C360.868 141.406 360.786 141.144 360.714 140.891C360.641 140.637 360.613 140.302 360.559 140.094C357.363 127.977 346.673 125.715 344.524 125.715C342.257 125.715 338.278 124.475 332.478 130.457C331.602 131.355 330.86 132.373 330.274 133.479C328.992 135.078 328.107 136.953 327.688 138.954C327.431 139.895 327.384 140.88 327.551 141.841C327.661 141.841 327.679 140.737 328.134 139.054C328.407 138.063 328.786 137.105 329.263 136.194C328.756 138.433 328.963 140.774 329.855 142.89L331.931 142.32L339.379 139.805C338.706 137.506 339.698 134.665 340.29 133.334L340.345 133.289C340.764 135.705 341.943 137.927 343.714 139.635C345.484 141.342 347.754 142.447 350.197 142.791L351.572 161.795C361.469 159.695 361.242 146.528 361.178 143.85C361.633 145.361 362.216 147.089 362.944 148.908C363.432 150.211 364.042 151.466 364.766 152.655C365.382 153.655 366.277 154.457 367.342 154.962C368.06 155.298 368.862 155.415 369.646 155.297C369.937 155.271 370.214 155.164 370.447 154.989C370.447 154.989 370.11 155.08 369.591 155.116Z" fill="#1E2749"/>
<path d="M336.484 150.456C336.056 150.344 335.616 150.289 335.173 150.293C334.964 150.293 334.763 150.248 334.718 150.103C334.693 149.879 334.734 149.652 334.836 149.451L335.383 147.795C335.774 146.61 336.102 145.533 336.293 144.755C336.443 144.34 336.544 143.908 336.594 143.47C336.37 143.85 336.195 144.258 336.075 144.682C335.801 145.452 335.437 146.492 335.046 147.696C334.864 148.275 334.691 148.836 334.518 149.361C334.401 149.623 334.375 149.916 334.445 150.193C334.473 150.265 334.519 150.329 334.578 150.379C334.636 150.43 334.706 150.465 334.782 150.483C334.899 150.499 335.019 150.499 335.137 150.483C335.585 150.53 336.038 150.521 336.484 150.456Z" fill="#1E2749"/>
<path d="M353.196 150.211C353.104 149.243 353.212 148.267 353.514 147.342C353.67 146.881 353.947 146.469 354.317 146.151C354.687 145.833 355.136 145.619 355.618 145.532C356.179 145.509 356.729 145.69 357.165 146.042C357.601 146.394 357.893 146.891 357.985 147.442C358.052 147.997 357.951 148.56 357.695 149.058C357.439 149.556 357.039 149.967 356.547 150.238C356.047 150.498 355.495 150.641 354.932 150.656C354.368 150.672 353.809 150.56 353.296 150.328" fill="#E5BAAB"/>
<path d="M354.871 149.361C354.871 149.298 355.19 149.443 355.609 149.316C355.871 149.231 356.099 149.067 356.263 148.846C356.426 148.625 356.516 148.359 356.519 148.085C356.54 147.948 356.532 147.808 356.496 147.674C356.46 147.541 356.397 147.415 356.31 147.307C356.129 147.166 355.901 147.098 355.672 147.117C355.235 147.162 354.926 147.271 354.898 147.199C354.871 147.126 355.099 146.927 355.618 146.782C355.785 146.737 355.961 146.731 356.132 146.764C356.302 146.797 356.463 146.868 356.601 146.972C356.754 147.117 356.871 147.296 356.94 147.494C357.01 147.693 357.031 147.904 357.002 148.113C356.981 148.513 356.827 148.894 356.565 149.198C356.351 149.455 356.043 149.618 355.709 149.651C355.117 149.714 354.871 149.397 354.871 149.361Z" fill="#D78776"/>
<path d="M345.935 380.471V372.001L361.906 371.901L362.034 384.29L361.05 384.362C356.643 384.634 338.633 385.43 335.682 384.561C332.395 383.593 345.935 380.471 345.935 380.471Z" fill="#00A3FF"/>
<path d="M335.312 383.784C335.312 383.639 341.286 383.513 348.652 383.513C356.018 383.513 361.982 383.639 361.982 383.784C361.982 383.929 356.018 384.056 348.652 384.056C341.286 384.056 335.312 383.938 335.312 383.784Z" fill="#1E2749"/>
<path d="M345.663 382.2C345.527 382.272 345.217 381.965 344.899 381.557C344.58 381.15 344.37 380.779 344.471 380.652C344.571 380.526 344.99 380.77 345.336 381.214C345.682 381.657 345.764 382.128 345.663 382.2Z" fill="#1E2749"/>
<path d="M344.643 382.761C344.497 382.815 344.215 382.426 343.924 381.938C343.632 381.449 343.432 381.033 343.55 380.915C343.669 380.797 344.078 381.132 344.388 381.666C344.697 382.2 344.779 382.707 344.643 382.761Z" fill="#1E2749"/>
<path d="M357.173 383.73C357.118 383.684 357.245 383.386 357.519 382.942C357.884 382.346 358.36 381.824 358.921 381.404C359.503 380.962 360.219 380.732 360.951 380.752C361.516 380.752 361.807 380.997 361.78 381.06C361.753 381.123 361.434 381.06 360.96 381.132C360.336 381.219 359.744 381.462 359.24 381.838C358.725 382.236 358.252 382.685 357.828 383.177C357.473 383.549 357.236 383.775 357.173 383.73Z" fill="#1E2749"/>
<path d="M345.607 380.634C345.689 380.507 346.045 380.571 346.445 380.706C346.846 380.842 347.174 381.023 347.146 381.168C347.119 381.313 346.718 381.376 346.236 381.222C345.753 381.068 345.535 380.734 345.607 380.634Z" fill="#1E2749"/>
<path d="M345.864 379.783C345.864 379.638 346.301 379.521 346.82 379.53C347.339 379.539 347.731 379.666 347.731 379.81C347.731 379.955 347.312 380.082 346.774 380.073C346.237 380.064 345.846 379.937 345.864 379.783Z" fill="#1E2749"/>
<path d="M331.679 233.492L322.938 234.949L327.973 241.103C329.421 270.061 329.065 298.159 330.404 312.158C330.604 314.285 339.637 380.933 338.736 379.404L365.333 380.508L357.393 313.543L361.153 254.061C365.233 247.034 366.426 238.712 364.486 230.832L363.83 228.162" fill="#455A64"/>
<path d="M268.698 173.659L247.532 245.829C246.44 249.552 248.592 253.45 252.338 254.535L371.304 288.997C375.051 290.082 378.973 287.944 380.065 284.22L401.231 212.051C402.323 208.327 400.171 204.429 396.425 203.344L277.459 168.882C273.712 167.797 269.79 169.936 268.698 173.659Z" fill="#00A3FF"/>
<g opacity="0.3">
<path opacity="0.3" d="M268.698 173.658L247.532 245.828C246.44 249.551 248.592 253.449 252.338 254.534L371.304 288.996C375.051 290.081 378.973 287.943 380.065 284.219L401.231 212.05C402.323 208.326 400.171 204.428 396.425 203.343L277.459 168.881C273.712 167.796 269.79 169.935 268.698 173.658Z" fill="black"/>
</g>
<path d="M377.833 219.557C377.301 221.351 376.247 222.949 374.802 224.148C373.358 225.347 371.588 226.094 369.717 226.295C367.846 226.495 365.957 226.14 364.288 225.274C362.62 224.409 361.247 223.071 360.343 221.431C359.439 219.79 359.044 217.92 359.208 216.057C359.373 214.193 360.089 212.42 361.267 210.961C362.444 209.502 364.031 208.422 365.825 207.858C367.62 207.294 369.542 207.272 371.35 207.793C372.554 208.14 373.677 208.72 374.656 209.5C375.634 210.28 376.447 211.244 377.05 212.337C377.652 213.43 378.031 214.63 378.166 215.869C378.3 217.108 378.187 218.361 377.833 219.557Z" fill="white"/>
<path d="M379.727 230.053C377.286 230.061 374.926 229.184 373.091 227.586C371.255 225.987 370.07 223.778 369.758 221.372C369.446 218.966 370.028 216.53 371.396 214.521C372.763 212.512 374.822 211.069 377.185 210.461C379.547 209.854 382.052 210.125 384.228 211.224C386.404 212.322 388.101 214.173 389.002 216.427C389.902 218.682 389.943 221.185 389.117 223.467C388.291 225.75 386.655 227.654 384.516 228.822C383.048 229.624 381.402 230.047 379.727 230.053ZM379.727 211.104C378.031 211.094 376.366 211.555 374.92 212.435C373.474 213.315 372.304 214.579 371.542 216.084C370.779 217.589 370.455 219.276 370.605 220.954C370.755 222.633 371.374 224.236 372.392 225.584C373.409 226.932 374.785 227.971 376.365 228.583C377.945 229.196 379.665 229.358 381.332 229.051C383 228.744 384.548 227.981 385.802 226.847C387.056 225.713 387.967 224.253 388.431 222.633C388.816 221.29 388.883 219.878 388.628 218.505C388.372 217.133 387.8 215.838 386.958 214.721C386.115 213.605 385.023 212.698 383.769 212.07C382.515 211.442 381.131 211.112 379.727 211.104Z" fill="white"/>
<path d="M266.354 225.077L264.205 232.388L263.449 232.171L265.398 225.529L263.659 225.022L263.859 224.353L266.354 225.077Z" fill="white"/>
<path d="M272.009 233.909L271.809 234.578L266.609 233.13L266.764 232.596L270.698 230.506C271.772 229.936 272.073 229.483 272.218 228.986C272.464 228.135 272.018 227.447 270.898 227.122C270.53 226.989 270.137 226.941 269.748 226.98C269.358 227.02 268.983 227.145 268.649 227.348L268.248 226.732C268.683 226.476 269.17 226.317 269.673 226.267C270.176 226.217 270.685 226.277 271.162 226.443C272.655 226.877 273.375 227.909 272.983 229.158C272.783 229.854 272.373 230.415 271.107 231.094L267.884 232.814L272.009 233.909Z" fill="white"/>
<path d="M280.086 234.94L278.611 234.515L278.046 236.433L277.291 236.216L277.855 234.289L273.703 233.085L273.858 232.542L279.185 228.832L280.022 229.076L274.878 232.696L278.074 233.601L278.565 231.909L279.303 232.126L278.811 233.818L280.277 234.244L280.086 234.94Z" fill="white"/>
<path d="M291.36 238.171L289.884 237.737L289.32 239.664L288.564 239.447L289.129 237.52L284.977 236.316L285.14 235.773L290.458 232.054L291.296 232.298L286.151 235.918L289.347 236.823L289.839 235.13L290.576 235.339L290.085 237.04L291.551 237.465L291.36 238.171Z" fill="white"/>
<path d="M297.859 239.8C297.486 241.04 296.329 241.764 294.535 241.239C293.556 240.994 292.709 240.385 292.168 239.538L292.714 239.049C293.174 239.8 293.914 240.34 294.772 240.552C296.02 240.914 296.866 240.497 297.121 239.647C297.376 238.796 296.985 237.945 295.109 237.411L293.543 236.95L295 233.394L299.024 234.561L298.833 235.231L295.464 234.253L294.554 236.516L295.464 236.787C297.649 237.393 298.232 238.506 297.859 239.8Z" fill="white"/>
<path d="M305.134 241.872C305.039 242.187 304.879 242.479 304.664 242.729C304.449 242.979 304.184 243.182 303.886 243.325C303.588 243.468 303.264 243.548 302.933 243.56C302.602 243.571 302.273 243.514 301.965 243.392C300.008 242.831 299.343 241.175 300.017 238.868C300.745 236.388 302.494 235.483 304.488 236.062C305.104 236.21 305.668 236.523 306.117 236.967L305.635 237.483C305.277 237.105 304.814 236.841 304.306 236.723C302.721 236.261 301.401 236.985 300.827 238.967C300.768 239.167 300.72 239.369 300.682 239.574C301.011 239.232 301.434 238.992 301.898 238.885C302.362 238.777 302.847 238.806 303.295 238.967C303.616 239.022 303.922 239.144 304.192 239.324C304.463 239.504 304.692 239.738 304.866 240.012C305.039 240.286 305.153 240.593 305.199 240.914C305.245 241.234 305.223 241.561 305.134 241.872ZM304.378 241.682C304.446 241.452 304.463 241.21 304.428 240.973C304.393 240.736 304.307 240.509 304.175 240.308C304.044 240.107 303.87 239.936 303.667 239.808C303.463 239.68 303.233 239.597 302.994 239.564C302.772 239.455 302.528 239.396 302.279 239.392C302.031 239.387 301.785 239.436 301.558 239.536C301.331 239.636 301.129 239.785 300.967 239.971C300.804 240.158 300.685 240.377 300.617 240.614C300.549 240.852 300.534 241.101 300.574 241.344C300.614 241.588 300.707 241.82 300.847 242.024C300.987 242.227 301.17 242.398 301.384 242.523C301.598 242.649 301.837 242.726 302.084 242.75C302.303 242.847 302.541 242.896 302.782 242.894C303.022 242.892 303.259 242.838 303.477 242.737C303.694 242.636 303.887 242.489 304.043 242.307C304.199 242.125 304.313 241.912 304.378 241.682Z" fill="white"/>
<path d="M315.178 244.895C314.823 246.117 313.648 246.796 311.873 246.28C310.893 246.031 310.044 245.423 309.496 244.579L310.042 244.081C310.494 244.83 311.223 245.372 312.073 245.592C313.293 245.945 314.131 245.592 314.404 244.687C314.677 243.782 314.204 243.049 312.838 242.66L312.31 242.506L312.474 241.954L315.26 240L311.499 238.914L311.69 238.244L316.425 239.611L316.271 240.144L313.421 242.144C314.978 242.651 315.524 243.701 315.178 244.895Z" fill="white"/>
<path d="M322.58 246.931C322.482 247.245 322.321 247.536 322.105 247.785C321.888 248.035 321.623 248.237 321.324 248.379C321.025 248.521 320.7 248.6 320.37 248.61C320.039 248.621 319.709 248.564 319.402 248.442C317.453 247.881 316.789 246.225 317.462 243.917C318.191 241.429 319.939 240.533 321.933 241.103C322.547 241.256 323.11 241.568 323.563 242.008L323.08 242.524C322.717 242.152 322.257 241.889 321.751 241.763C320.167 241.311 318.846 242.026 318.264 244.008C318.208 244.207 318.162 244.41 318.127 244.614C318.456 244.271 318.879 244.031 319.343 243.925C319.808 243.819 320.294 243.851 320.74 244.017C321.062 244.072 321.369 244.193 321.64 244.374C321.912 244.554 322.142 244.79 322.316 245.065C322.489 245.34 322.602 245.648 322.648 245.97C322.693 246.291 322.67 246.619 322.58 246.931ZM321.824 246.732C321.888 246.502 321.903 246.26 321.867 246.024C321.83 245.788 321.744 245.563 321.613 245.362C321.482 245.162 321.31 244.992 321.107 244.863C320.905 244.734 320.678 244.649 320.44 244.614C320.217 244.505 319.973 244.446 319.725 244.441C319.477 244.436 319.231 244.486 319.004 244.586C318.777 244.686 318.575 244.834 318.412 245.021C318.25 245.207 318.13 245.427 318.062 245.664C317.994 245.901 317.98 246.15 318.02 246.394C318.06 246.637 318.153 246.869 318.293 247.073C318.433 247.277 318.616 247.447 318.83 247.573C319.043 247.698 319.282 247.776 319.529 247.799C319.751 247.896 319.99 247.944 320.232 247.941C320.474 247.937 320.712 247.881 320.93 247.777C321.148 247.673 321.341 247.523 321.495 247.338C321.649 247.153 321.762 246.937 321.824 246.704V246.732Z" fill="white"/>
<path d="M330.849 243.755L330.695 244.289L325.632 250.18L324.812 249.944L329.784 244.171L325.996 243.085L325.596 244.452L324.849 244.234L325.45 242.198L330.849 243.755Z" fill="white"/>
<path d="M341.365 246.804L341.21 247.338L336.148 253.22L335.328 252.984L340.3 247.22L336.512 246.125L336.111 247.492L335.365 247.274L335.965 245.238L341.365 246.804Z" fill="white"/>
<path d="M347.064 254.179C346.681 255.473 345.343 255.989 343.586 255.446C341.828 254.903 340.981 253.817 341.364 252.523C341.48 252.105 341.737 251.74 342.091 251.488C342.446 251.236 342.877 251.112 343.312 251.138C343 250.933 342.764 250.632 342.641 250.28C342.518 249.929 342.514 249.547 342.63 249.193C342.976 248.007 344.214 247.555 345.771 248.007C347.328 248.46 348.147 249.501 347.792 250.722C347.693 251.083 347.479 251.401 347.182 251.63C346.884 251.858 346.52 251.985 346.144 251.989C346.523 252.199 346.819 252.529 346.986 252.926C347.152 253.323 347.18 253.764 347.064 254.179ZM346.29 253.944C346.554 253.039 345.935 252.252 344.633 251.871C343.331 251.491 342.393 251.871 342.129 252.776C341.865 253.681 342.466 254.469 343.777 254.849C345.088 255.229 346.017 254.849 346.29 253.944ZM344.851 251.274C345.999 251.609 346.836 251.274 347.064 250.505C347.292 249.736 346.727 248.967 345.625 248.65C344.523 248.333 343.658 248.65 343.422 249.437C343.185 250.224 343.658 250.948 344.851 251.274Z" fill="white"/>
<path d="M354.706 254.559C353.978 257.047 352.229 257.952 350.226 257.373C349.613 257.223 349.053 256.91 348.605 256.468L349.088 255.952C349.444 256.328 349.903 256.592 350.408 256.712C352.002 257.174 353.313 256.45 353.896 254.468C353.955 254.269 354.003 254.066 354.041 253.862C353.713 254.205 353.29 254.445 352.825 254.551C352.361 254.657 351.875 254.625 351.428 254.459C351.108 254.403 350.804 254.281 350.534 254.1C350.265 253.92 350.037 253.685 349.865 253.411C349.693 253.137 349.582 252.83 349.537 252.51C349.493 252.19 349.516 251.864 349.607 251.554C349.701 251.239 349.86 250.946 350.075 250.695C350.289 250.444 350.554 250.24 350.853 250.097C351.151 249.954 351.476 249.874 351.808 249.864C352.139 249.853 352.469 249.911 352.776 250.034C354.715 250.595 355.38 252.251 354.706 254.559ZM354.087 252.812C354.134 252.575 354.133 252.33 354.084 252.094C354.034 251.857 353.937 251.632 353.799 251.433C353.66 251.234 353.483 251.064 353.278 250.934C353.072 250.804 352.843 250.717 352.603 250.677C352.385 250.589 352.151 250.549 351.916 250.557C351.681 250.566 351.451 250.623 351.24 250.726C351.029 250.829 350.842 250.974 350.691 251.153C350.54 251.333 350.429 251.541 350.365 251.766C350.301 251.991 350.285 252.226 350.318 252.457C350.352 252.689 350.434 252.91 350.559 253.108C350.684 253.306 350.85 253.475 351.045 253.605C351.24 253.735 351.461 253.822 351.692 253.862C351.918 253.953 352.161 253.999 352.405 253.995C352.649 253.992 352.89 253.939 353.113 253.841C353.337 253.744 353.538 253.602 353.705 253.425C353.873 253.248 354.002 253.04 354.087 252.812Z" fill="white"/>
<path d="M363.217 253.129L361.068 260.441L360.312 260.224L362.261 253.582L360.522 253.075L360.722 252.405L363.217 253.129Z" fill="white"/>
<path d="M368.836 261.961L368.635 262.631L363.473 261.183L363.627 260.649L367.561 258.559C368.635 257.989 368.936 257.536 369.082 257.039C369.327 256.197 368.881 255.5 367.761 255.174C367.393 255.042 367 254.994 366.611 255.033C366.222 255.073 365.846 255.198 365.512 255.401L365.112 254.785C365.547 254.53 366.034 254.373 366.537 254.325C367.041 254.276 367.548 254.338 368.025 254.505C369.519 254.93 370.238 255.962 369.846 257.22C369.637 257.916 369.236 258.477 367.971 259.156L364.747 260.876L368.836 261.961Z" fill="white"/>
<path d="M375.858 262.45C375.493 263.672 374.328 264.35 372.552 263.835C371.57 263.586 370.72 262.974 370.176 262.124L370.722 261.636C371.174 262.384 371.903 262.927 372.753 263.147C373.973 263.5 374.81 263.147 375.075 262.242C375.339 261.337 374.883 260.604 373.518 260.215L372.989 260.061L373.153 259.5L375.93 257.554L372.17 256.468L372.37 255.799L377.096 257.165L376.941 257.699L374.1 259.699C375.648 260.224 376.195 261.274 375.858 262.45Z" fill="white"/>
<path d="M317.125 253.618L316.195 256.789L375.126 273.849L376.056 270.678L317.125 253.618Z" fill="white"/>
<path d="M343.967 268.254L343.035 271.434L373.266 280.185L374.198 277.005L343.967 268.254Z" fill="white"/>
<path d="M289.465 205.072L273.406 200.42C271.012 199.726 268.504 201.093 267.807 203.473L264.95 213.212C264.252 215.592 265.628 218.084 268.022 218.777L284.081 223.429C286.475 224.123 288.983 222.756 289.68 220.376L292.537 210.637C293.235 208.257 291.859 205.766 289.465 205.072Z" fill="#1E2749"/>
<path d="M265.188 212.425L265.534 211.249L278.281 214.941C278.989 215.146 279.749 215.063 280.396 214.711C281.042 214.359 281.521 213.766 281.728 213.063C281.934 212.36 281.851 211.604 281.497 210.961C281.142 210.319 280.546 209.843 279.838 209.638L267.091 205.955L267.437 204.778L280.184 208.461C281.161 208.794 281.972 209.487 282.448 210.398C282.924 211.308 283.029 212.366 282.74 213.352C282.452 214.337 281.793 215.174 280.9 215.689C280.007 216.204 278.948 216.357 277.944 216.117L265.188 212.425Z" fill="white"/>
<path d="M282.469 212.619L282.121 213.8L290.861 216.34L291.208 215.158L282.469 212.619Z" fill="white"/>
<path d="M340.026 203.318L276.43 184.896L274.84 190.317L338.436 208.739L340.026 203.318Z" fill="white"/>
<path d="M350.006 128.828C349.343 128.574 348.75 128.168 348.275 127.643C347.8 127.117 347.457 126.488 347.274 125.805C347.11 125.118 347.136 124.4 347.35 123.726C347.563 123.052 347.955 122.448 348.485 121.978C349.031 121.525 349.701 121.248 350.408 121.181C351.115 121.115 351.826 121.263 352.446 121.606C353.397 122.259 354.092 123.218 354.413 124.321C354.712 125.033 354.794 125.817 354.65 126.575C354.468 127.12 354.147 127.61 353.717 127.996C353.288 128.381 352.765 128.649 352.2 128.774C351.067 128.998 349.903 129.029 348.759 128.864" fill="#1E2749"/>
<path d="M373.472 144.953C373.576 144.567 373.595 144.162 373.527 143.768C373.423 143.32 373.207 142.906 372.898 142.564C372.471 142.124 371.929 141.811 371.332 141.659C370.597 141.481 369.836 141.429 369.083 141.506C368.255 141.56 367.371 141.705 366.406 141.723C365.372 141.786 364.343 141.544 363.447 141.026C362.551 140.358 361.921 139.396 361.671 138.311C361.072 136.398 360.08 134.629 358.758 133.117C357.676 131.881 356.404 130.824 354.988 129.986C353.651 129.259 352.241 128.673 350.781 128.239C350.781 128.239 350.89 128.239 351.1 128.239C351.309 128.239 351.619 128.312 352.01 128.42C353.113 128.701 354.175 129.121 355.17 129.669C356.647 130.488 357.977 131.547 359.104 132.8C360.487 134.336 361.527 136.147 362.154 138.112C362.368 139.095 362.922 139.973 363.72 140.592C364.547 141.069 365.497 141.296 366.452 141.243C367.362 141.243 368.273 141.107 369.111 141.071C369.907 141.009 370.708 141.086 371.478 141.297C372.128 141.476 372.711 141.841 373.153 142.347C373.48 142.735 373.694 143.204 373.773 143.705C373.815 144.008 373.787 144.318 373.691 144.609C373.563 144.872 373.481 144.962 373.472 144.953Z" fill="#1E2749"/>
<path d="M356.689 150.157C356.689 150.112 357.126 150.456 357.126 151.234C357.119 151.463 357.066 151.688 356.971 151.896C356.876 152.104 356.739 152.291 356.57 152.447C356.363 152.642 356.113 152.788 355.84 152.872C355.567 152.957 355.278 152.979 354.995 152.935C354.714 152.886 354.447 152.773 354.216 152.607C353.984 152.441 353.793 152.226 353.657 151.976C353.547 151.776 353.479 151.556 353.457 151.328C353.435 151.101 353.46 150.872 353.529 150.655C353.775 149.913 354.276 149.75 354.285 149.75C354.294 149.75 353.975 150.085 353.866 150.718C353.8 151.07 353.865 151.433 354.048 151.741C354.161 151.922 354.311 152.077 354.488 152.197C354.666 152.317 354.866 152.399 355.077 152.438C355.288 152.468 355.504 152.454 355.709 152.396C355.915 152.339 356.106 152.239 356.27 152.103C356.545 151.873 356.726 151.551 356.78 151.198C356.834 150.573 356.579 150.193 356.689 150.157Z" fill="#E0E0E0"/>
<path d="M354.295 129.968C352.344 128.038 349.859 126.73 347.156 126.212C348.574 126.157 349.981 126.475 351.235 127.134C352.488 127.794 353.544 128.772 354.295 129.968Z" fill="#00A3FF"/>
<path d="M357.691 149.044C357.691 148.981 357.955 148.963 358.119 149.261C358.16 149.351 358.181 149.448 358.181 149.546C358.181 149.645 358.16 149.742 358.119 149.831C358.059 149.944 357.97 150.038 357.861 150.105C357.753 150.172 357.628 150.209 357.5 150.211C357.391 150.219 357.282 150.203 357.18 150.163C357.079 150.124 356.987 150.062 356.912 149.984C356.838 149.905 356.781 149.811 356.747 149.708C356.714 149.605 356.703 149.495 356.717 149.388C356.717 149.08 356.935 148.981 356.981 149.017C357.026 149.053 356.981 149.198 357.063 149.379C357.076 149.478 357.127 149.568 357.205 149.632C357.282 149.696 357.381 149.728 357.482 149.723C357.526 149.725 357.57 149.717 357.61 149.7C357.651 149.683 357.687 149.657 357.716 149.623C357.745 149.59 357.766 149.551 357.777 149.509C357.789 149.466 357.791 149.422 357.782 149.379C357.782 149.207 357.673 149.117 357.691 149.044Z" fill="#E0E0E0"/>
<path d="M351.462 167.07C351.555 167.387 351.589 167.719 351.563 168.048C351.545 168.95 351.367 169.841 351.035 170.681C350.536 171.939 349.728 173.053 348.685 173.921C347.378 174.964 345.776 175.578 344.103 175.676C342.429 175.775 340.766 175.355 339.343 174.473C338.198 173.74 337.259 172.731 336.611 171.541C336.18 170.746 335.893 169.882 335.765 168.989C335.703 168.666 335.703 168.334 335.765 168.011C335.955 169.191 336.346 170.329 336.921 171.378C337.58 172.478 338.491 173.408 339.58 174.093C340.932 174.901 342.5 175.282 344.075 175.187C345.65 175.092 347.159 174.524 348.403 173.559C349.406 172.75 350.2 171.713 350.716 170.536C351.157 169.43 351.41 168.259 351.462 167.07Z" fill="#455A64"/>
<path d="M349.553 374.454C349.524 374.375 349.505 374.293 349.499 374.209C349.499 374.019 349.435 373.784 349.398 373.485C349.307 372.816 349.18 371.884 349.025 370.707C348.715 368.291 348.306 364.798 347.823 360.463C346.849 351.812 345.656 339.849 344.582 326.61C343.507 313.371 342.761 301.353 342.342 292.657C342.114 288.313 341.968 284.793 341.886 282.359C341.85 281.152 341.823 280.22 341.804 279.562C341.804 279.264 341.804 279.019 341.804 278.829C341.794 278.748 341.794 278.666 341.804 278.585C341.814 278.666 341.814 278.748 341.804 278.829C341.804 279.019 341.804 279.264 341.859 279.553C341.905 280.232 341.959 281.164 342.041 282.349C342.187 284.82 342.387 288.322 342.642 292.639C343.17 301.326 343.972 313.325 345.037 326.564C346.102 339.804 347.25 351.776 348.124 360.427C348.57 364.735 348.925 368.228 349.18 370.689C349.298 371.865 349.389 372.798 349.453 373.476C349.453 373.775 349.499 374.01 349.517 374.2C349.541 374.282 349.553 374.368 349.553 374.454Z" fill="#1E2749"/>
<path d="M364.413 374.517C364.08 374.608 363.738 374.657 363.393 374.662C362.737 374.716 361.781 374.78 360.607 374.834C358.248 374.952 354.989 375.006 351.392 374.952C347.795 374.897 344.536 374.789 342.186 374.698L339.4 374.562C339.054 374.571 338.708 374.535 338.371 374.454C338.709 374.382 339.055 374.355 339.4 374.372C340.056 374.372 341.012 374.372 342.195 374.372C344.545 374.372 347.804 374.427 351.401 374.481C354.998 374.535 358.239 374.535 360.598 374.481H363.384C363.727 374.451 364.073 374.463 364.413 374.517Z" fill="#1E2749"/>
<path d="M369.594 197.756L353.96 187.549C353.96 187.549 346.321 209.412 343.944 209.629C330.978 210.806 317.101 206.525 312.239 204.842C311.747 204.29 311.183 203.629 310.555 202.815C310.019 202.117 309.607 201.334 309.334 200.498C308.954 199.474 308.722 198.402 308.642 197.313C308.661 197.104 308.615 196.895 308.509 196.713C308.403 196.532 308.243 196.388 308.052 196.3C307.86 196.213 307.646 196.187 307.438 196.226C307.231 196.264 307.041 196.366 306.894 196.517C306.33 197.241 306.184 200.001 307.468 202.978C308.752 205.955 304.217 203.584 302.551 202.752C300.885 201.919 295.603 199.584 294.939 199.892C293.973 200.345 294.274 201.458 295.958 202.254C297.643 203.05 302.524 205.774 302.041 206.625C301.558 207.475 293.136 203.114 293.136 203.114C293.136 203.114 291.488 201.901 290.896 202.869C289.821 204.616 299.091 208.579 300.001 208.932C300.62 209.186 300.129 210.127 299.473 209.837C298.818 209.548 291.169 205.313 290.067 207.068C289.22 208.426 297.689 210.407 298.781 212.154C299.874 213.9 292.507 210.009 291.752 211.33C291.469 211.828 291.333 212.235 295.886 213.873C299.218 214.909 302.604 215.767 306.029 216.443V216.489C306.029 216.489 352.522 237.175 361.318 217.222C370.742 195.956 369.594 197.756 369.594 197.756Z" fill="#E5BAAB"/>
<path d="M359.329 167.867C359.329 167.867 373.534 169.532 372.077 186.328C371.126 196.711 368.19 206.819 363.427 216.109L344.797 206.39C348.991 198.073 352.146 189.279 354.194 180.201L359.375 167.867H359.329Z" fill="#00A3FF"/>
<g opacity="0.2">
<path opacity="0.2" d="M359.329 167.867C359.329 167.867 373.534 169.532 372.077 186.328C371.126 196.711 368.19 206.819 363.427 216.109L344.797 206.39C348.991 198.073 352.146 189.279 354.194 180.201L359.375 167.867H359.329Z" fill="white"/>
</g>
<path d="M359.642 167.912C359.642 168.03 358.103 168.446 355.727 168.609L355.9 168.284L357.657 171.116L358.768 172.926L359.032 173.369L358.522 173.27C356.839 173.022 355.142 172.88 353.441 172.844C353.909 172.692 354.397 172.615 354.889 172.618C356.131 172.54 357.378 172.607 358.604 172.817L358.367 173.161L357.238 171.351L355.536 168.492L355.344 168.175H355.709C356.874 168.121 357.867 168.048 358.55 167.985C358.91 167.924 359.276 167.9 359.642 167.912Z" fill="#455A64"/>
<path d="M368.001 175.088C368.001 175.17 366.68 174.853 364.413 174.799L364.568 174.627C365.105 176.744 365.815 179.568 366.644 182.826L366.735 183.206L366.362 183.106L360.571 181.55L358.995 181.115L359.305 180.871C359.432 183.993 359.551 186.889 359.651 189.377V189.649L359.396 189.576L353.833 188.029L352.294 187.576C352.109 187.53 351.932 187.46 351.766 187.368C351.957 187.371 352.147 187.402 352.33 187.459L353.896 187.812L359.478 189.187L359.232 189.395C359.105 186.907 358.959 184.011 358.804 180.898V180.563L359.132 180.654L360.707 181.088L366.48 182.69L366.198 182.97C365.433 179.685 364.777 176.844 364.277 174.708L364.231 174.527H364.431C365.322 174.573 366.207 174.685 367.081 174.862C367.395 174.905 367.703 174.981 368.001 175.088Z" fill="#455A64"/>
<path d="M369.148 198.037C368.891 197.851 368.669 197.621 368.492 197.359C368.11 196.879 367.691 196.083 367.09 195.16H367.336C365.862 198.02 364.137 200.745 362.182 203.304L362 203.548L361.809 203.304C360.898 202.173 359.987 200.969 359.077 199.684L356.983 196.969H357.329L353.96 199.92L352.448 201.214L351.747 201.82L351.41 202.11L351.328 202.182H351.283H351.228C351.228 202.263 350.928 202.073 350.991 201.992C350.991 201.992 351.055 201.91 350.991 201.992V201.938C350.991 201.938 351.055 202.091 351.082 202.082C351.082 202.082 351.11 202.073 351.082 202.082L350.928 202.128L350.873 201.956C350.336 200.146 349.962 198.716 349.735 197.684C349.579 197.159 349.517 196.611 349.553 196.065C349.553 196.065 349.644 196.635 349.926 197.639C350.208 198.644 350.636 200.082 351.228 201.847L351.019 201.72C351.084 201.703 351.153 201.703 351.219 201.72C351.265 201.736 351.304 201.765 351.332 201.804C351.36 201.843 351.374 201.89 351.374 201.938C351.38 201.98 351.38 202.022 351.374 202.064C351.374 202.064 351.374 202.064 351.328 202.064L351.201 202.01C351.189 201.976 351.171 201.945 351.146 201.919L351.091 201.865H351.137L351.21 201.793L351.547 201.494L352.239 200.879C352.712 200.453 353.204 199.974 353.723 199.558L357.046 196.617L357.238 196.445L357.402 196.653L359.496 199.368C360.461 200.616 361.39 201.829 362.227 202.987H361.854C363.81 200.455 365.572 197.781 367.126 194.988L367.254 194.771L367.381 194.979C367.964 195.947 368.292 196.789 368.665 197.25C369.038 197.712 369.175 198.01 369.148 198.037Z" fill="#455A64"/>
<path d="M353.048 185.169C353.041 185.476 352.989 185.781 352.893 186.074C352.756 186.635 352.547 187.431 352.255 188.418C351.682 190.381 350.79 193.078 349.642 195.983C348.495 198.888 347.293 201.467 346.364 203.295C345.9 204.2 345.508 204.942 345.217 205.439C345.092 205.711 344.93 205.964 344.734 206.191C345.114 205.152 345.554 204.137 346.055 203.15C346.901 201.286 348.04 198.707 349.187 195.811C350.334 192.915 351.272 190.246 351.919 188.309C352.229 187.24 352.606 186.191 353.048 185.169Z" fill="#455A64"/>
<path d="M359.642 167.912C359.642 168.03 358.103 168.446 355.727 168.609L355.9 168.284L357.657 171.116L358.768 172.926L359.032 173.369L358.522 173.27C356.839 173.022 355.142 172.88 353.441 172.844C353.909 172.692 354.397 172.615 354.889 172.618C356.131 172.54 357.378 172.607 358.604 172.817L358.367 173.161L357.238 171.351L355.536 168.492L355.344 168.175H355.709C356.874 168.121 357.867 168.048 358.55 167.985C358.91 167.924 359.276 167.9 359.642 167.912Z" fill="#455A64"/>
<path d="M368.001 175.088C368.001 175.17 366.68 174.853 364.413 174.799L364.568 174.627C365.105 176.744 365.815 179.568 366.644 182.826L366.735 183.206L366.362 183.106L360.571 181.55L358.995 181.115L359.305 180.871C359.432 183.993 359.551 186.889 359.651 189.377V189.649L359.396 189.576L353.833 188.029L352.294 187.576C352.109 187.53 351.932 187.46 351.766 187.368C351.957 187.371 352.147 187.402 352.33 187.459L353.896 187.812L359.478 189.187L359.232 189.395C359.105 186.907 358.959 184.011 358.804 180.898V180.563L359.132 180.654L360.707 181.088L366.48 182.69L366.198 182.97C365.433 179.685 364.777 176.844 364.277 174.708L364.231 174.527H364.431C365.322 174.573 366.207 174.685 367.081 174.862C367.395 174.905 367.703 174.981 368.001 175.088Z" fill="#455A64"/>
<path d="M369.148 198.037C368.891 197.851 368.669 197.621 368.492 197.359C368.11 196.879 367.691 196.083 367.09 195.16H367.336C365.862 198.02 364.137 200.745 362.182 203.304L362 203.548L361.809 203.304C360.898 202.173 359.987 200.969 359.077 199.684L356.983 196.969H357.329L353.96 199.92L352.448 201.214L351.747 201.82L351.41 202.11L351.328 202.182H351.283H351.228C351.228 202.263 350.928 202.073 350.991 201.992C350.991 201.992 351.055 201.91 350.991 201.992V201.938C350.991 201.938 351.055 202.091 351.082 202.082C351.082 202.082 351.11 202.073 351.082 202.082L350.928 202.128L350.873 201.956C350.336 200.146 349.962 198.716 349.735 197.684C349.579 197.159 349.517 196.611 349.553 196.065C349.553 196.065 349.644 196.635 349.926 197.639C350.208 198.644 350.636 200.082 351.228 201.847L351.019 201.72C351.084 201.703 351.153 201.703 351.219 201.72C351.265 201.736 351.304 201.765 351.332 201.804C351.36 201.843 351.374 201.89 351.374 201.938C351.38 201.98 351.38 202.022 351.374 202.064C351.374 202.064 351.374 202.064 351.328 202.064L351.201 202.01C351.189 201.976 351.171 201.945 351.146 201.919L351.091 201.865H351.137L351.21 201.793L351.547 201.494L352.239 200.879C352.712 200.453 353.204 199.974 353.723 199.558L357.046 196.617L357.238 196.445L357.402 196.653L359.496 199.368C360.461 200.616 361.39 201.829 362.227 202.987H361.854C363.81 200.455 365.572 197.781 367.126 194.988L367.254 194.771L367.381 194.979C367.964 195.947 368.292 196.789 368.665 197.25C369.038 197.712 369.175 198.01 369.148 198.037Z" fill="#455A64"/>
<path d="M353.048 185.169C353.041 185.476 352.989 185.781 352.893 186.074C352.756 186.635 352.547 187.431 352.255 188.418C351.682 190.381 350.79 193.078 349.642 195.983C348.495 198.888 347.293 201.467 346.364 203.295C345.9 204.2 345.508 204.942 345.217 205.439C345.092 205.711 344.93 205.964 344.734 206.191C345.114 205.152 345.554 204.137 346.055 203.15C346.901 201.286 348.04 198.707 349.187 195.811C350.334 192.915 351.272 190.246 351.919 188.309C352.229 187.24 352.606 186.191 353.048 185.169Z" fill="#455A64"/>
</svg>
