<svg width="132" height="320" viewBox="0 0 132 320" fill="none" xmlns="http://www.w3.org/2000/svg">
<path d="M23.4052 312.296L25.047 302.013L6.68467 298.982L4.08594 314.337L5.204 314.6C10.2403 315.741 30.8488 319.711 34.4145 319.196C38.3932 318.59 23.4052 312.296 23.4052 312.296Z" fill="#00A3FF"/>
<path d="M34.9982 318.29C34.9982 318.462 28.0784 317.502 19.5972 316.138C11.1161 314.774 4.26676 313.532 4.29697 313.36C4.32719 313.188 11.2169 314.148 19.698 315.512C28.1791 316.876 35.0285 318.118 34.9982 318.29Z" fill="#1E2749"/>
<path d="M23.3906 314.45C23.2496 314.349 23.4611 313.824 23.9446 313.349C24.4281 312.874 24.9519 312.672 25.0526 312.814C25.1533 312.955 24.831 313.369 24.3878 313.824C23.9446 314.279 23.5316 314.562 23.3906 314.45Z" fill="#1E2749"/>
<path d="M24.4545 315.322C24.3034 315.231 24.4545 314.635 24.948 314.059C25.4416 313.483 25.9553 313.16 26.0661 313.291C26.1769 313.423 25.8747 313.908 25.4416 314.453C25.0085 314.999 24.6156 315.413 24.4545 315.322Z" fill="#1E2749"/>
<path d="M9.84719 314.179C9.76661 314.179 9.53494 313.906 9.20254 313.391C8.81604 312.721 8.36388 312.092 7.8528 311.512C7.35075 310.958 6.71131 310.546 5.99944 310.32C5.45552 310.158 5.07277 310.189 5.0627 310.088C5.05263 309.987 5.42531 309.815 6.06996 309.886C6.92761 310.011 7.71477 310.433 8.296 311.078C8.85117 311.696 9.2882 312.412 9.58529 313.189C9.83711 313.775 9.9177 314.149 9.84719 314.179Z" fill="#1E2749"/>
<path d="M23.7524 312.535C23.8128 312.687 23.4502 313 22.8862 313.101C22.3221 313.202 21.8789 313.101 21.8789 312.899C21.8789 312.697 22.2818 312.586 22.7653 312.485C23.2488 312.384 23.6819 312.363 23.7524 312.535Z" fill="#1E2749"/>
<path d="M23.6256 311.479C23.6256 311.661 23.1018 311.732 22.4773 311.641C21.8528 311.55 21.3895 311.338 21.4701 311.166C21.5506 310.994 22.014 310.924 22.6083 311.014C23.2025 311.105 23.6357 311.307 23.6256 311.479Z" fill="#1E2749"/>
<path d="M88.3619 310.076L87.9791 299.671L69.375 300.237L69.788 315.804H70.9463C76.0934 315.946 97.1351 315.804 100.489 314.622C104.277 313.329 88.3619 310.076 88.3619 310.076Z" fill="#00A3FF"/>
<path d="M100.89 313.691C100.89 313.873 93.9504 314.267 85.3685 314.59C76.7867 314.913 69.8265 315.014 69.8164 314.843C69.8063 314.671 76.7665 314.267 85.3484 313.954C93.9302 313.641 100.88 313.519 100.89 313.691Z" fill="#1E2749"/>
<path d="M88.7669 312.187C88.6058 312.117 88.7166 311.561 89.0993 311.005C89.4821 310.45 89.9555 310.137 90.1066 310.258C90.2577 310.379 90.0059 310.844 89.6533 311.359C89.3008 311.874 88.9281 312.268 88.7669 312.187Z" fill="#1E2749"/>
<path d="M89.9719 312.83C89.8108 312.78 89.8712 312.154 90.2136 311.497C90.5561 310.84 91.0195 310.426 91.1605 310.487C91.3015 310.547 91.09 311.123 90.7777 311.739C90.4655 312.356 90.1432 312.891 89.9719 312.83Z" fill="#1E2749"/>
<path d="M75.4199 314.573C75.3494 314.573 75.0674 314.361 74.6443 313.916C74.1293 313.34 73.5629 312.813 72.9521 312.34C72.3612 311.901 71.6673 311.623 70.9376 311.532C70.3735 311.532 70.0009 311.583 69.9303 311.532C69.8598 311.482 70.2325 311.189 70.9376 311.128C71.8049 311.081 72.661 311.342 73.355 311.865C74.019 312.363 74.5858 312.98 75.0271 313.684C75.3293 314.159 75.4904 314.522 75.4199 314.573Z" fill="#1E2749"/>
<path d="M88.7481 310.234C88.8488 310.375 88.5467 310.749 88.0229 310.961C87.4991 311.173 87.0156 311.123 87.0156 310.961C87.0156 310.8 87.348 310.567 87.8114 310.375C88.2747 310.183 88.6474 310.082 88.7481 310.234Z" fill="#1E2749"/>
<path d="M88.4213 309.239C88.4213 309.411 87.9479 309.582 87.3234 309.613C86.6989 309.643 86.1953 309.532 86.1953 309.35C86.1953 309.168 86.6889 309.007 87.2932 308.976C87.8976 308.946 88.3911 309.067 88.4213 309.239Z" fill="#1E2749"/>
<path d="M113.585 51.0508L112.578 47.6566C112.219 45.698 111.669 43.7795 110.936 41.9287C110.587 40.9953 110.083 40.1278 109.445 39.3628C108.696 38.3838 107.818 37.5106 106.837 36.7666C105.829 36.1706 106.081 34.7462 107.088 34.6351C108.096 34.524 110.805 36.11 112.88 39.1305C114.955 42.151 115.338 36.4636 115.519 34.3927C115.7 32.3218 116.526 25.9474 117.221 25.5231C118.229 24.8867 119.095 25.8565 118.873 27.9173C118.652 29.9781 118.4 36.2211 119.488 36.2919C120.576 36.3626 121.331 25.806 121.331 25.806C121.331 25.806 121.13 23.5129 122.399 23.5533C124.675 23.624 123.033 34.7665 122.852 35.8171C122.731 36.5545 123.91 36.6656 124.01 35.8777C124.111 35.0897 124.524 25.3211 126.841 25.3716C128.624 25.3716 125.582 34.5442 126.609 36.6454C127.636 38.7466 128.211 29.4528 129.913 29.574C130.537 29.574 131.011 29.7256 129.913 34.9887C128.815 40.2518 123.396 54.4249 123.396 54.4249L113.505 50.8791" fill="#FFBE9D"/>
<path d="M45.5322 48.2619L62.2729 49.5044C62.4945 47.5649 62.8268 40.0187 62.8268 40.0187C62.8268 40.0187 69.8172 39.3621 70.3208 32.422C70.8245 25.482 70.623 9.47032 70.623 9.47032C66.7914 7.53042 62.5128 6.65182 58.2293 6.92531C53.9458 7.19881 49.8128 8.61446 46.2574 11.026L45.1797 11.7534L45.5322 48.2619Z" fill="#FFBE9D"/>
<path d="M68.2863 21.3095C68.0993 21.1166 67.9963 20.8571 68.0001 20.588C68.0039 20.319 68.114 20.0625 68.3064 19.875C68.4987 19.6874 68.7575 19.5842 69.0257 19.588C69.294 19.5918 69.5497 19.7023 69.7367 19.8952C69.8293 19.9907 69.9023 20.1036 69.9514 20.2274C70.0005 20.3511 70.0248 20.4834 70.0229 20.6166C70.021 20.7498 69.993 20.8813 69.9404 21.0037C69.8879 21.126 69.8118 21.2368 69.7166 21.3297C69.6213 21.4225 69.5088 21.4957 69.3854 21.5449C69.262 21.5941 69.13 21.6185 68.9972 21.6167C68.8644 21.6148 68.7333 21.5867 68.6113 21.534C68.4893 21.4813 68.3788 21.405 68.2863 21.3095Z" fill="#1E2749"/>
<path d="M70.07 19.8022C69.9491 19.9133 69.3045 19.3476 68.3476 19.287C67.3907 19.2264 66.6755 19.6709 66.5748 19.5396C66.4741 19.4082 66.6554 19.2769 66.9676 19.0648C67.3924 18.7919 67.8953 18.6676 68.3979 18.7112C68.8991 18.7443 69.3761 18.9392 69.7577 19.2668C70.0297 19.5496 70.1203 19.8022 70.07 19.8022Z" fill="#1E2749"/>
<path d="M59.029 19.9792C59.248 20.1332 59.3971 20.3682 59.4434 20.6325C59.4896 20.8968 59.4293 21.1687 59.2757 21.3884C59.1221 21.6081 58.8878 21.7576 58.6243 21.804C58.3608 21.8504 58.0897 21.7899 57.8706 21.6359C57.7617 21.5593 57.669 21.4619 57.5978 21.3492C57.5266 21.2365 57.4784 21.1108 57.4559 20.9793C57.4334 20.8478 57.4371 20.7131 57.4668 20.5831C57.4965 20.453 57.5516 20.3302 57.6289 20.2216C57.7829 20.0038 58.0167 19.8561 58.279 19.8106C58.5414 19.7652 58.811 19.8258 59.029 19.9792Z" fill="#1E2749"/>
<path d="M59.6545 20.0283C59.5437 20.1394 58.8991 19.5737 57.9422 19.5131C56.9853 19.4525 56.2702 19.897 56.1694 19.7657C56.0687 19.6343 56.2399 19.503 56.5622 19.2909C56.9827 19.0166 57.4829 18.8921 57.9825 18.9373C58.4841 18.9683 58.9618 19.1635 59.3423 19.4929C59.6243 19.8061 59.715 19.9778 59.6545 20.0283Z" fill="#1E2749"/>
<path d="M62.9996 28.147C63.5045 27.9884 64.0318 27.9134 64.5608 27.9247C64.8127 27.9247 65.0141 27.8641 65.0443 27.7328C65.0686 27.4796 65.0233 27.2246 64.9134 26.9954C64.7019 26.3488 64.5004 25.6922 64.2788 24.975C63.6645 23.2894 63.2191 21.5466 62.9492 19.7725C63.7235 21.3919 64.3376 23.0837 64.7824 24.8234C64.9839 25.5104 65.1753 26.1771 65.3767 26.8438C65.5068 27.1645 65.5315 27.5183 65.4472 27.854C65.4052 27.947 65.3425 28.029 65.2639 28.0938C65.1854 28.1586 65.093 28.2044 64.994 28.2278C64.8536 28.2466 64.7113 28.2466 64.5709 28.2278C64.0462 28.2836 63.5159 28.2563 62.9996 28.147Z" fill="#1E2749"/>
<path d="M59.8383 29.019C58.8814 28.3624 62.4874 30.6454 64.4314 30.6656C64.0773 31.1475 63.5707 31.4948 62.9945 31.6507C62.4182 31.8067 61.8063 31.7621 61.2585 31.5243C59.2339 30.6353 59.8383 29.019 59.8383 29.019Z" fill="white"/>
<path d="M62.8405 39.9182C59.6419 39.7771 56.5571 38.6872 53.9766 36.7866C53.9766 36.7866 55.7997 41.9184 62.7498 41.7164L62.8405 39.9182Z" fill="#EB996E"/>
<path d="M45.3329 18.7969L46.1689 23.7772L49.2512 23.7165L49.0497 13.3418C49.0497 13.3418 61.2779 14.2914 62.6779 9.38184C62.6779 9.38184 66.2739 14.8066 70.736 14.7864C70.736 14.7864 74.6442 14.3823 70.9274 8.91716C65.186 0.512314 44.7386 7.27053 44.7386 7.27053C44.223 8.80593 43.9743 10.4188 44.0033 12.0387C43.9227 17.4129 45.3329 18.7969 45.3329 18.7969Z" fill="#1E2749"/>
<path d="M43.6496 13.7442L70.8456 8.32954C70.8456 8.32954 68.9117 -2.60081 54.2158 0.581315C39.953 3.70283 43.6496 13.7442 43.6496 13.7442Z" fill="#00A3FF"/>
<path d="M43.6523 13.7447C44.0351 13.6739 76.9524 14.4518 79.2993 9.88569C80.4173 7.70366 70.6771 7.64307 70.6771 7.64307L70.8987 8.32999L43.6523 13.7447Z" fill="#00A3FF"/>
<path opacity="0.2" d="M43.6523 13.7447C44.0351 13.6739 76.9524 14.4518 79.2993 9.88569C80.4173 7.70366 70.6771 7.64307 70.6771 7.64307L70.8987 8.32999L43.6523 13.7447Z" fill="black"/>
<path d="M46.5156 17.9203C46.3645 17.8597 41.3786 17.2132 41.852 23.1127C42.3254 29.0123 48.1071 26.5878 48.1071 26.4161C48.1071 26.2443 46.5156 17.9203 46.5156 17.9203Z" fill="#FFBE9D"/>
<path d="M46.1395 24.4866C46.1395 24.4866 46.0388 24.5674 45.8675 24.6685C45.6317 24.7926 45.3565 24.818 45.102 24.7392C44.7037 24.5289 44.3686 24.2158 44.1314 23.8322C43.8941 23.4486 43.7632 23.0084 43.7523 22.5571C43.6935 22.0522 43.7521 21.5405 43.9235 21.0621C43.9609 20.8716 44.0449 20.6934 44.168 20.5435C44.2911 20.3936 44.4493 20.2767 44.6286 20.2034C44.7434 20.1634 44.8685 20.1648 44.9824 20.2072C45.0963 20.2496 45.192 20.3304 45.2531 20.4357C45.3437 20.5974 45.3236 20.7186 45.3538 20.7287C45.384 20.7388 45.4747 20.6176 45.3538 20.3751C45.3083 20.2313 45.2161 20.1068 45.0919 20.0216C44.9205 19.9153 44.715 19.8791 44.5178 19.9205C44.2783 19.9895 44.0602 20.1184 43.8841 20.2951C43.7079 20.4718 43.5793 20.6906 43.5105 20.9307C43.3059 21.4644 43.23 22.039 43.2889 22.6077C43.3022 23.1364 43.4709 23.6495 43.7737 24.0826C44.0765 24.5157 44.5 24.8495 44.9912 25.0422C45.1532 25.0738 45.3202 25.0694 45.4803 25.0293C45.6404 24.9891 45.7898 24.9142 45.9179 24.8099C46.1395 24.6382 46.1596 24.4967 46.1395 24.4866Z" fill="#EB996E"/>
<path d="M62.5522 5.36794L59.2188 5.43213L59.2828 8.77528L62.6162 8.71109L62.5522 5.36794Z" fill="#1E2749"/>
<path d="M62.5194 3.55101L60.8477 3.5835L60.88 5.26012L62.5518 5.22763L62.5194 3.55101Z" fill="#1E2749"/>
<path d="M112.356 46.706C112.356 46.706 107.208 79.5576 103.582 79.7294C99.4425 79.9314 86.7107 61.8186 86.7107 61.8186C78.562 49.2113 67.8146 47.1707 63.8963 46.8575V45.3018L44.6375 43.7158C44.6375 43.7158 44.6375 45.3826 44.6375 46.8373H36.106C36.106 46.8373 20.836 46.1302 18.5394 66.7079L29.5286 75.4158L34.0311 92.2154C35.4009 97.3472 33.3058 103.893 31.0093 115.389L29.6294 115.066L29.0451 126.653C28.9646 127.199 28.884 127.754 28.8135 128.31H28.9646L24.311 220.834L0.519531 310.448L27.3026 311.459L52.0006 224.026C52.0006 224.026 54.1461 154.12 56.3217 154.08C59.9781 154.009 62.3149 309.59 63.715 309.236C65.1151 308.883 92.6234 309.165 92.6234 309.165C92.6234 309.165 83.5177 127.896 83.6084 127.896L81.2514 93.5489L80.3549 83.6287C85.5826 91.0032 95.4639 102.519 106.02 102.317C123.214 101.984 125.631 48.5244 125.631 48.5244L112.356 46.706Z" fill="#455A64"/>
<path d="M55.332 153.383C55.9343 152.412 56.4661 151.399 56.9235 150.352C57.8367 147.783 58.2769 145.068 58.2229 142.341C58.2229 139.189 58.2229 136.351 58.2229 134.088C58.1703 132.948 58.2141 131.806 58.3538 130.673C58.5161 131.804 58.5969 132.945 58.5956 134.088C58.656 136.199 58.7869 139.139 58.7567 142.351C58.7424 143.878 58.6077 145.402 58.3538 146.907C58.1413 148.145 57.7793 149.353 57.276 150.504C56.9278 151.273 56.4954 152.002 55.9867 152.675C55.5838 153.15 55.4025 153.413 55.332 153.383Z" fill="#1E2749"/>
<path d="M39.5282 138.708C39.6264 139.015 39.674 139.335 39.6692 139.658C39.7195 140.274 39.78 141.153 39.8102 142.264C39.965 145.173 39.3865 148.074 38.1281 150.699C37.3846 152.147 36.2814 153.379 34.925 154.275C33.8054 154.984 32.5209 155.388 31.1981 155.447C30.3098 155.492 29.4225 155.341 28.5994 155.002C28.2913 154.895 28.0097 154.723 27.7734 154.497C28.8503 154.946 30.0137 155.146 31.178 155.083C32.4218 154.968 33.6184 154.548 34.6631 153.861C35.9369 152.992 36.9753 151.818 37.6849 150.447C38.8962 147.892 39.5029 145.092 39.4576 142.264C39.4201 141.078 39.4436 139.891 39.5282 138.708Z" fill="#1E2749"/>
<path d="M85.5115 154.8C85.5115 154.8 85.3503 155.093 84.8568 155.427C84.1343 155.871 83.2961 156.089 82.4494 156.053C81.1872 156 79.974 155.548 78.9845 154.76C77.7953 153.829 76.7733 152.702 75.9627 151.426C74.4408 149.15 73.4841 146.542 73.1726 143.82C73.0839 142.998 73.0603 142.17 73.1021 141.345C73.096 141.042 73.1438 140.741 73.2431 140.456C73.3337 140.456 73.2431 141.739 73.5453 143.769C73.9496 146.403 74.9225 148.916 76.3958 151.133C77.176 152.363 78.1488 153.457 79.2766 154.376C80.1799 155.126 81.2907 155.581 82.4595 155.679C83.2499 155.742 84.0428 155.592 84.7561 155.245C85.2496 154.992 85.4813 154.76 85.5115 154.8Z" fill="#1E2749"/>
<path d="M28.5306 305.506C28.5306 305.657 22.5878 305.556 15.2751 305.293C7.96236 305.031 2.01953 304.677 2.01953 304.546C2.01953 304.415 7.96236 304.495 15.2851 304.768C22.6079 305.041 28.5407 305.364 28.5306 305.506Z" fill="#1E2749"/>
<path d="M91.6693 301.467C91.305 301.567 90.929 301.618 90.5513 301.618L87.5295 301.851C84.9509 302.012 81.3953 302.204 77.4569 302.386C73.5185 302.568 69.9528 302.699 67.3843 302.78L64.3625 302.831C63.9859 302.861 63.6068 302.844 63.2344 302.78C63.6 302.686 63.9752 302.636 64.3524 302.629L67.3742 302.406C69.9528 302.235 73.5084 302.043 77.4468 301.861C81.3852 301.679 84.9509 301.548 87.5194 301.477L90.5412 301.416C90.9179 301.393 91.2961 301.41 91.6693 301.467Z" fill="#1E2749"/>
<path d="M42.2535 155.52C42.269 155.651 42.269 155.783 42.2535 155.914V157.076C42.2535 158.086 42.2031 159.621 42.1729 161.541C42.0823 165.41 41.911 171.016 41.629 177.946C41.347 184.876 40.9642 193.099 40.4203 202.262C40.1483 206.838 39.8462 211.636 39.413 216.607C39.2015 219.092 39.0101 221.658 38.577 224.183C38.1439 226.709 37.5698 229.285 37.046 231.881C32.4529 252.539 27.2957 270.986 23.2667 284.249C21.2521 290.886 19.4391 296.19 18.1699 299.857L16.6288 304.039C16.4475 304.494 16.3166 304.858 16.2058 305.12C16.1723 305.248 16.1215 305.37 16.0547 305.484C16.0724 305.355 16.1063 305.23 16.1554 305.11C16.2461 304.837 16.3669 304.474 16.5281 304.009L17.9786 299.786C19.1873 296.109 21.0003 290.785 22.9141 284.148C26.8424 270.864 31.9795 252.398 36.5323 231.76C37.0863 229.184 37.6403 226.628 38.0633 224.102C38.4864 221.577 38.6878 219.051 38.8993 216.566C39.3123 211.596 39.6246 206.798 39.9066 202.232C40.4707 193.14 40.9138 184.846 41.2261 177.926C41.5383 171.006 41.77 165.43 41.9413 161.531C42.0118 159.611 42.0722 158.116 42.1125 157.066C42.1125 156.581 42.1326 156.197 42.1729 155.914C42.193 155.781 42.2199 155.65 42.2535 155.52Z" fill="#1E2749"/>
<path d="M79.2187 302.147C79.1868 302.028 79.1698 301.906 79.1683 301.783C79.1683 301.52 79.1683 301.167 79.0877 300.712C79.0172 299.702 78.9266 298.358 78.8057 296.591C78.5942 292.984 78.292 287.812 77.9092 281.438C77.1941 268.638 76.2976 250.94 75.4717 231.403C74.6457 211.865 74.0414 194.136 73.6485 181.327C73.4773 174.943 73.3262 169.76 73.2356 166.174C73.2356 164.406 73.165 163.022 73.1449 162.052V160.972C73.134 160.851 73.134 160.729 73.1449 160.608C73.1558 160.729 73.1558 160.851 73.1449 160.972C73.1449 161.244 73.1449 161.598 73.2054 162.042C73.2054 163.053 73.3061 164.406 73.3867 166.174C73.5277 169.781 73.719 174.963 73.9709 181.327C74.4745 194.157 75.1796 211.845 75.9854 231.382C76.7912 250.92 77.6474 268.618 78.2719 281.428C78.5841 287.812 78.8258 292.984 79.0071 296.581C79.0776 298.348 79.1381 299.732 79.1784 300.712C79.1784 301.157 79.1784 301.51 79.1784 301.783C79.2028 301.903 79.2162 302.024 79.2187 302.147Z" fill="#1E2749"/>
<path d="M57.0979 44.7393C57.174 45.6435 57.174 46.5525 57.0979 47.4567C57.0707 49.7244 56.8483 51.9856 56.4331 54.2149L56.3727 54.5483L56.0705 54.3867C55.4259 54.0533 54.7611 53.6997 54.1064 53.3057C51.3062 51.6692 48.9291 49.962 47.1664 48.7902C45.4036 47.6183 44.3259 46.9011 44.3561 46.8405C45.4175 47.2789 46.4302 47.8274 47.3779 48.477C49.1909 49.5781 51.6084 51.2348 54.3783 52.8512C55.033 53.235 55.6878 53.5987 56.3123 53.9321L55.9396 54.1038C56.3636 51.9024 56.6395 49.675 56.7655 47.4365C56.8039 46.5299 56.915 45.6279 57.0979 44.7393Z" fill="#1E2749"/>
<path d="M63.945 46.9891C63.8204 47.8388 63.6386 48.6792 63.4011 49.5044C63.2097 50.2722 63.0082 51.2016 62.6758 52.2219C62.5054 52.7567 62.3001 53.2798 62.0614 53.7877C61.9843 53.9642 61.8585 54.1149 61.6988 54.2221C61.5895 54.2962 61.4575 54.3288 61.3264 54.314C61.1953 54.2992 61.0737 54.2379 60.9837 54.1413C60.7874 53.8704 60.6345 53.5704 60.5304 53.2523C59.5936 51.0096 58.7677 48.9791 58.2036 47.4942C57.8577 46.7124 57.5943 45.8964 57.418 45.0596C57.8839 45.7858 58.2754 46.5575 58.5864 47.3628C59.2411 48.8175 60.1174 50.8278 61.0541 53.0704C61.1441 53.3219 61.2553 53.5653 61.3866 53.7978C61.4369 53.7978 61.3865 53.7978 61.4671 53.7978C61.5408 53.7382 61.5994 53.662 61.6384 53.5755C61.8746 53.086 62.0831 52.5835 62.2629 52.0704C62.6053 51.0602 62.8471 50.1813 63.0787 49.4135C63.2593 48.5705 63.5506 47.7552 63.945 46.9891Z" fill="#1E2749"/>
<path d="M60.3328 116.015C60.2785 115.776 60.2515 115.532 60.2522 115.287C60.2522 114.762 60.1716 114.075 60.1112 113.216C60.0205 111.358 59.8795 108.761 59.7183 105.579C59.4262 99.0837 59.0334 90.2041 58.5902 80.3951C58.147 70.5861 57.875 61.7064 57.5829 55.2007C57.4822 52.0186 57.4117 49.4325 57.3513 47.5637C57.3513 46.705 57.3513 46.0181 57.3513 45.5433C57.336 45.3011 57.336 45.0581 57.3513 44.8159C57.4072 45.051 57.4376 45.2915 57.4419 45.5332C57.4419 46.0585 57.5225 46.7454 57.5729 47.6041C57.6736 49.4729 57.8045 52.059 57.9758 55.2412C58.2679 61.7367 58.6607 70.6164 59.0938 80.4254C59.5269 90.2344 59.819 99.1241 60.1011 105.62C60.2018 108.802 60.2824 111.398 60.3428 113.257C60.3428 114.115 60.3428 114.813 60.3428 115.338C60.3641 115.563 60.3607 115.79 60.3328 116.015Z" fill="#1E2749"/>
<path d="M72.6026 65.6624L63.3477 65.8423L63.3847 67.7613L72.6397 67.5814L72.6026 65.6624Z" fill="white"/>
<path d="M81.3996 97.0249C81.2485 97.0249 80.6643 90.0141 80.0902 81.3365C79.516 72.6589 79.1635 65.638 79.3045 65.6279C79.4455 65.6178 80.0297 72.6387 80.6139 81.3062C81.1981 89.9737 81.591 97.0148 81.3996 97.0249Z" fill="#1E2749"/>
<path d="M125.33 55.2523C122.984 54.9819 120.661 54.5396 118.38 53.9289C116.062 53.4815 113.78 52.867 111.551 52.0903C113.897 52.3607 116.22 52.803 118.501 53.4137C120.82 53.8555 123.102 54.47 125.33 55.2523Z" fill="#1E2749"/>
<path d="M114.361 49.0354C114.548 49.0314 114.733 49.0834 114.891 49.1848C115.049 49.2863 115.173 49.4325 115.248 49.6051C115.323 49.7776 115.346 49.9686 115.312 50.1538C115.279 50.3391 115.191 50.5101 115.061 50.6454C114.93 50.7806 114.763 50.8738 114.579 50.9133C114.395 50.9527 114.204 50.9366 114.03 50.8669C113.856 50.7972 113.706 50.6771 113.6 50.5219C113.494 50.3666 113.436 50.1833 113.434 49.9951C113.431 49.8708 113.453 49.7473 113.498 49.6317C113.544 49.516 113.611 49.4105 113.697 49.3212C113.784 49.232 113.887 49.1608 114 49.1117C114.114 49.0626 114.237 49.0367 114.361 49.0354Z" fill="#1E2749"/>
<path d="M72.5092 61.3797L69.1758 61.4438L69.2398 64.787L72.5732 64.7228L72.5092 61.3797Z" fill="#00A3FF"/>
<path d="M72.4686 59.551L70.7969 59.5835L70.8293 61.2601L72.501 61.2276L72.4686 59.551Z" fill="#00A3FF"/>
<path d="M122.417 78.5164L121.047 132.461L36.6484 132.027L36.9204 77.3647L122.417 78.5164Z" fill="#00A3FF"/>
<path d="M72.2912 132.152C72.1501 132.152 72.2911 120.1 72.7142 105.25C73.1372 90.4001 73.5401 78.3989 73.6509 78.3989C73.7617 78.3989 73.651 90.4405 73.238 105.3C72.825 120.16 72.4322 132.152 72.2912 132.152Z" fill="#1E2749"/>
<path d="M36.6484 132.03C36.7372 131.83 36.8487 131.64 36.9808 131.465L37.9881 129.879L41.9265 124.131L55.0813 105.26C60.2284 97.8957 64.8618 91.2183 68.1757 86.3492C69.8376 83.9146 71.1974 81.9346 72.0637 80.5607L73.071 78.9747C73.203 78.7657 73.3584 78.5725 73.5343 78.3989C73.4624 78.6079 73.3606 78.8052 73.2321 78.9848L72.2853 80.6315C71.4291 82.0356 70.1499 84.056 68.5383 86.5108C65.305 91.4406 60.7119 98.1584 55.5749 105.523C50.4378 112.887 45.7138 119.514 42.2891 124.302L38.26 129.959C37.7967 130.586 37.414 131.091 37.1319 131.485C36.9962 131.688 36.8336 131.871 36.6484 132.03Z" fill="#1E2749"/>
<path d="M71.4522 132.572C71.3314 132.653 63.5553 120.5 54.0971 105.428C44.639 90.356 37.0543 78.072 37.1853 78.0013C37.3162 77.9306 45.0721 90.0731 54.5404 105.145C64.0086 120.217 71.5731 132.501 71.4522 132.572Z" fill="#1E2749"/>
<path d="M82.1125 124.62L95.6602 125.027L95.7436 122.239L82.1959 121.832L82.1125 124.62Z" fill="#1E2749"/>
<path d="M81.7734 121.064C83.9722 120.799 86.1888 120.714 88.4012 120.811C90.6142 120.72 92.8309 120.811 95.029 121.084C92.8294 121.337 90.6137 121.422 88.4012 121.337C86.1883 121.415 83.9725 121.324 81.7734 121.064Z" fill="#1E2749"/>
<path d="M105.348 78.086L104.824 98.9162L101.923 96.5625L98.1055 98.7445L98.6393 77.9243L105.348 78.086Z" fill="#1E2749"/>
<path d="M35.2572 72.5896C35.2572 72.5896 31.1677 101.219 33.1016 102.896C43.8189 111.937 58.7162 116.675 64.0446 118.17C64.8202 117.978 65.7369 117.735 66.7743 117.402C67.6801 117.114 68.5288 116.669 69.2824 116.089C70.2516 115.411 71.1228 114.602 71.8711 113.684C71.9872 113.495 72.1578 113.345 72.3604 113.255C72.563 113.165 72.7881 113.138 73.0062 113.178C73.2242 113.219 73.4249 113.324 73.5819 113.482C73.7389 113.639 73.8448 113.84 73.8856 114.058C73.936 115.068 72.3546 117.594 69.3831 119.443C69.3831 119.443 76.2124 130.464 78.388 131.454C80.5637 132.444 86.7986 135.262 85.741 135.808C84.6834 136.353 77.1088 134.131 77.1088 134.131L61.738 130.009C61.738 130.009 10.8815 122.019 14.2759 98.6224C16.3509 84.2877 18.6172 71.3471 19.4331 68.0942L35.2572 72.5896Z" fill="#FFBE9D"/>
<path d="M18.5583 66.7207L13.9954 97.956C12.9881 107.583 19.3641 115.21 28.0064 119.514C41.1612 126.05 60.6919 130.707 60.5308 130.676C60.3696 130.646 61.8503 116.786 61.8503 116.786C61.8503 116.786 34.4729 104.896 33.647 99.7845C32.821 94.6729 37.1221 73.3072 37.1221 73.3072L18.5583 66.7207Z" fill="#455A64"/>
<path d="M60.5284 130.675C60.5151 130.595 60.5151 130.513 60.5284 130.433C60.5284 130.241 60.5284 129.998 60.5284 129.705C60.5788 129.028 60.6493 128.099 60.74 126.927C60.9515 124.472 61.2537 120.997 61.6264 116.724L61.7372 116.906L47.9578 110.218L43.9288 108.269C42.5892 107.552 41.2495 106.774 39.8998 105.915C38.5453 105.045 37.2468 104.09 36.0117 103.056C35.3872 102.531 34.7728 101.985 34.1785 101.399C33.8537 101.115 33.584 100.772 33.3828 100.389C33.2824 100.191 33.2079 99.9804 33.1612 99.7629C33.0988 99.5511 33.0517 99.335 33.0202 99.1164C32.577 95.712 33.4936 92.4794 33.9569 89.4084C34.4203 86.3374 34.9642 83.3472 35.498 80.4984C36.5053 74.8312 37.3716 69.7297 38.127 65.4263C38.5324 63.5184 38.765 61.5777 38.822 59.6278C38.8362 58.1593 38.5338 56.7051 37.9356 55.3647C37.5483 54.5225 37.0008 53.7642 36.324 53.1322C35.8506 52.6978 35.5585 52.5362 35.5685 52.5059C35.8672 52.6494 36.145 52.833 36.3945 53.0514C37.118 53.6625 37.7049 54.4198 38.1169 55.2738C38.7711 56.6284 39.1153 58.1125 39.1242 59.6177C39.1007 61.5894 38.8916 63.5546 38.4997 65.4869C37.7845 69.8004 36.9284 74.912 35.9815 80.5894L34.4706 89.5094C34.3397 90.2772 34.2088 91.0651 34.0677 91.8531C33.9267 92.641 33.7857 93.4088 33.6749 94.2068C33.4132 95.8032 33.3726 97.4281 33.554 99.0356C33.5788 99.2338 33.6192 99.4297 33.6749 99.6215C33.7174 99.8101 33.7816 99.9932 33.8663 100.167C34.0329 100.512 34.2696 100.818 34.5613 101.066C35.1354 101.642 35.7398 102.177 36.3542 102.703C37.5734 103.717 38.8515 104.658 40.1818 105.521C41.4912 106.38 42.8208 107.158 44.1403 107.865L48.1089 109.824L61.8177 116.613L61.9386 116.674V116.785C61.4954 121.058 61.1328 124.533 60.9313 126.978C60.8004 128.149 60.6997 129.069 60.6292 129.746C60.6292 130.039 60.5587 130.271 60.5284 130.463C60.4982 130.655 60.5385 130.685 60.5284 130.675Z" fill="#1E2749"/>
<path d="M57.9972 114.824C58.0343 115.538 57.9801 116.255 57.8361 116.955C57.6648 118.269 57.3929 120.067 57.0302 122.006C56.6676 123.946 56.2547 125.764 55.9122 127.057C55.7717 127.756 55.5449 128.435 55.2373 129.078C55.0963 129.078 55.7813 125.865 56.5166 121.925C56.8667 119.53 57.3612 117.159 57.9972 114.824Z" fill="#1E2749"/>
<path d="M60.532 130.673C60.3716 130.672 60.2121 130.648 60.0586 130.602L58.6988 130.269L53.7431 128.976C49.5831 127.844 43.7813 126.369 37.6269 124.076C34.7031 123.007 31.8559 121.738 29.1055 120.278C26.8664 119.069 24.7246 117.688 22.6993 116.146C21.3413 115.097 20.0589 113.952 18.8617 112.722C18.4487 112.287 18.1264 111.934 17.9249 111.711C17.8089 111.595 17.7105 111.462 17.6328 111.317C17.6328 111.317 18.1264 111.772 19.0128 112.6C20.2509 113.768 21.5595 114.857 22.931 115.863C24.9592 117.374 27.101 118.725 29.3372 119.904C32.0758 121.335 34.9057 122.584 37.8082 123.642C43.9726 125.915 49.7543 127.45 53.9244 128.693L58.8297 130.158L60.1593 130.572C60.2858 130.596 60.4104 130.63 60.532 130.673Z" fill="#1E2749"/>
<path d="M60.8762 118.165C60.8789 118.281 60.8586 118.398 60.8165 118.506C60.7744 118.615 60.7114 118.715 60.6309 118.799C60.5505 118.884 60.4542 118.951 60.3477 118.999C60.2411 119.046 60.1264 119.071 60.01 119.074C59.7774 119.074 59.5538 118.983 59.3865 118.821C59.2193 118.659 59.1214 118.438 59.1135 118.205C59.1108 118.088 59.1311 117.972 59.1732 117.863C59.2153 117.754 59.2784 117.655 59.3588 117.571C59.4393 117.486 59.5355 117.418 59.642 117.371C59.7486 117.324 59.8634 117.299 59.9798 117.296C60.2124 117.296 60.4359 117.386 60.6032 117.548C60.7705 117.711 60.8684 117.932 60.8762 118.165Z" fill="#1E2749"/>
</svg>
