<svg width="15" height="16" viewBox="0 0 15 16" fill="none" xmlns="http://www.w3.org/2000/svg">
<path d="M14.6667 1.33333V14.6667C14.6667 15.0203 14.5262 15.3594 14.2761 15.6095C14.0261 15.8595 13.687 16 13.3333 16H10.3333C9.97971 16 9.64057 15.8595 9.39052 15.6095C9.14048 15.3594 9 15.0203 9 14.6667V1.33333C9 0.979711 9.14048 0.640573 9.39052 0.390524C9.64057 0.140476 9.97971 0 10.3333 0H13.3333C13.687 0 14.0261 0.140476 14.2761 0.390524C14.5262 0.640573 14.6667 0.979711 14.6667 1.33333ZM4.33333 0H1.33333C0.979711 0 0.640573 0.140476 0.390524 0.390524C0.140476 0.640573 0 0.979711 0 1.33333V14.6667C0 15.0203 0.140476 15.3594 0.390524 15.6095C0.640573 15.8595 0.979711 16 1.33333 16H4.33333C4.68695 16 5.02609 15.8595 5.27614 15.6095C5.52619 15.3594 5.66667 15.0203 5.66667 14.6667V1.33333C5.66667 0.979711 5.52619 0.640573 5.27614 0.390524C5.02609 0.140476 4.68695 0 4.33333 0Z" fill="white"/>
</svg>
