<svg width="19" height="24" viewBox="0 0 19 24" fill="none" xmlns="http://www.w3.org/2000/svg">
<path d="M17 9.5H16.25V6.75C16.25 4.95979 15.5388 3.2429 14.273 1.97703C13.0071 0.711159 11.2902 0 9.5 0C7.70979 0 5.9929 0.711159 4.72703 1.97703C3.46116 3.2429 2.75 4.95979 2.75 6.75V9.5H2C1.46957 9.5 0.960859 9.71071 0.585786 10.0858C0.210714 10.4609 0 10.9696 0 11.5V22C0 22.5304 0.210714 23.0391 0.585786 23.4142C0.960859 23.7893 1.46957 24 2 24H17C17.5304 24 18.0391 23.7893 18.4142 23.4142C18.7893 23.0391 19 22.5304 19 22V11.5C19 10.9696 18.7893 10.4609 18.4142 10.0858C18.0391 9.71071 17.5304 9.5 17 9.5ZM7.5 15.5C7.49841 15.1485 7.58946 14.8029 7.76399 14.4978C7.93851 14.1928 8.19034 13.9391 8.49411 13.7623C8.79788 13.5856 9.14287 13.492 9.49432 13.491C9.84577 13.49 10.1913 13.5816 10.4961 13.7566C10.8008 13.9317 11.0541 14.1839 11.2303 14.488C11.4066 14.7921 11.4996 15.1372 11.5 15.4887C11.5004 15.8401 11.4082 16.1855 11.2326 16.49C11.0571 16.7944 10.8044 17.0473 10.5 17.223V19.5C10.5 19.7652 10.3946 20.0196 10.2071 20.2071C10.0196 20.3946 9.76522 20.5 9.5 20.5C9.23478 20.5 8.98043 20.3946 8.79289 20.2071C8.60536 20.0196 8.5 19.7652 8.5 19.5V17.223C8.19688 17.0487 7.94492 16.7978 7.76941 16.4953C7.59389 16.1929 7.50098 15.8497 7.5 15.5ZM5.25 6.75C5.25 5.62283 5.69777 4.54183 6.4948 3.7448C7.29183 2.94777 8.37283 2.5 9.5 2.5C10.6272 2.5 11.7082 2.94777 12.5052 3.7448C13.3022 4.54183 13.75 5.62283 13.75 6.75V9C13.75 9.13261 13.6973 9.25979 13.6036 9.35355C13.5098 9.44732 13.3826 9.5 13.25 9.5H5.75C5.61739 9.5 5.49021 9.44732 5.39645 9.35355C5.30268 9.25979 5.25 9.13261 5.25 9V6.75Z" fill="white"/>
</svg>
