<svg width="284" height="40" viewBox="0 0 284 40" fill="none" xmlns="http://www.w3.org/2000/svg">
<rect width="283.5" height="40" rx="4" fill="black"/>
<rect width="283.5" height="40" rx="4" stroke="black"/>
<path d="M79.1756 26V13.3174H83.8953C86.3826 13.3174 88.1053 14.9873 88.1053 17.4746V17.4922C88.1053 19.9707 86.3826 21.667 83.8953 21.667H81.1443V26H79.1756ZM83.4031 14.9785H81.1443V20.0146H83.4031C85.117 20.0146 86.1014 19.0918 86.1014 17.501V17.4834C86.1014 15.9014 85.117 14.9785 83.4031 14.9785ZM91.627 26.167C89.7813 26.167 88.542 25.0332 88.542 23.3721V23.3545C88.542 21.7461 89.79 20.7617 91.9785 20.6299L94.4922 20.4805V19.7861C94.4922 18.7666 93.833 18.1514 92.6553 18.1514C91.5566 18.1514 90.8799 18.6699 90.7217 19.4082L90.7041 19.4873H88.9111L88.9199 19.3906C89.0518 17.7998 90.4316 16.5781 92.708 16.5781C94.9668 16.5781 96.3994 17.7734 96.3994 19.6279V26H94.4922V24.541H94.457C93.9209 25.5342 92.8486 26.167 91.627 26.167ZM90.458 23.3281C90.458 24.1367 91.126 24.6465 92.1455 24.6465C93.4814 24.6465 94.4922 23.7412 94.4922 22.5371V21.8164L92.2334 21.957C91.0908 22.0273 90.458 22.5283 90.458 23.3105V23.3281ZM99.3674 29.085C98.9982 29.085 98.6027 29.041 98.3742 28.9971V27.5117C98.5236 27.5469 98.7434 27.582 98.9982 27.582C99.8947 27.582 100.387 27.3447 100.703 26.4482L100.862 26.0088L97.4953 16.7539H99.552L101.881 24.2773H101.943L104.272 16.7539H106.276L102.83 26.4307C102.145 28.3467 101.178 29.085 99.3674 29.085ZM112.959 26L110.419 16.7539H112.317L114.004 24.0312H114.04L115.964 16.7539H117.793L119.726 24.0312H119.77L121.458 16.7539H123.338L120.807 26H118.83L116.887 19.0742H116.843L114.919 26H112.959ZM125.577 15.3301C124.962 15.3301 124.47 14.8379 124.47 14.2402C124.47 13.6338 124.962 13.1416 125.577 13.1416C126.201 13.1416 126.684 13.6338 126.684 14.2402C126.684 14.8379 126.201 15.3301 125.577 15.3301ZM124.628 26V16.7539H126.526V26H124.628ZM131.779 26.1846C129.951 26.1846 129.072 25.4111 129.072 23.5654V18.2656H127.745V16.7539H129.072V14.3457H131.015V16.7539H132.746V18.2656H131.015V23.4512C131.015 24.3916 131.437 24.6729 132.236 24.6729C132.438 24.6729 132.605 24.6553 132.746 24.6377V26.1055C132.526 26.1406 132.166 26.1846 131.779 26.1846ZM134.44 26V13.3174H136.338V18.2744H136.382C136.874 17.2021 137.867 16.5781 139.247 16.5781C141.225 16.5781 142.526 18.0547 142.526 20.2871V26H140.627V20.6475C140.627 19.1182 139.854 18.2041 138.518 18.2041C137.208 18.2041 136.338 19.2061 136.338 20.6475V26H134.44Z" fill="white"/>
<path d="M162.655 14.4172C162.147 15.0325 161.288 15.4915 160.604 15.4915C160.526 15.4915 160.448 15.4817 160.399 15.4719C160.389 15.4329 160.37 15.3157 160.37 15.1985C160.37 14.4172 160.77 13.636 161.2 13.1477C161.747 12.5032 162.665 12.0247 163.427 11.9954C163.446 12.0833 163.456 12.1907 163.456 12.2981C163.456 13.0793 163.124 13.8508 162.655 14.4172ZM163.192 15.6575C163.622 15.6575 165.175 15.6965 166.19 17.1614C166.102 17.2297 164.559 18.0989 164.559 20.0422C164.559 22.2883 166.522 23.0891 166.581 23.1086C166.571 23.1575 166.268 24.1926 165.546 25.2571C164.901 26.1848 164.218 27.1223 163.192 27.1223C162.157 27.1223 161.893 26.5168 160.712 26.5168C159.55 26.5168 159.139 27.1418 158.202 27.1418C157.255 27.1418 156.6 26.2727 155.848 25.218C154.97 23.968 154.266 22.0344 154.266 20.1985C154.266 17.259 156.18 15.6965 158.065 15.6965C159.061 15.6965 159.891 16.3508 160.526 16.3508C161.122 16.3508 162.05 15.6575 163.192 15.6575ZM167.78 27.0344V12.9426H173.405C176.266 12.9426 178.199 14.8274 178.199 17.6497V17.6692C178.199 20.4817 176.266 22.3762 173.405 22.3762H170.299V27.0344H167.78ZM172.789 15.0032H170.299V20.345H172.789C174.596 20.345 175.651 19.3684 175.651 17.679V17.6594C175.651 15.97 174.596 15.0032 172.789 15.0032ZM182.025 27.2102C179.994 27.2102 178.519 25.9602 178.519 24.0168V23.9973C178.519 22.093 179.974 20.9797 182.572 20.8235L185.316 20.6575V19.7395C185.316 18.675 184.623 18.0891 183.314 18.0891C182.201 18.0891 181.478 18.4895 181.234 19.1926L181.224 19.2317H178.929L178.939 19.1438C179.174 17.3469 180.892 16.1555 183.431 16.1555C186.176 16.1555 187.718 17.4836 187.718 19.7395V27.0344H185.316V25.5696H185.15C184.564 26.6047 183.431 27.2102 182.025 27.2102ZM180.922 23.8997C180.922 24.8079 181.693 25.345 182.767 25.345C184.232 25.345 185.316 24.3879 185.316 23.1184V22.259L182.914 22.4153C181.556 22.5032 180.922 23.0012 180.922 23.8801V23.8997ZM190.226 30.7844C189.933 30.7844 189.591 30.7747 189.298 30.7454V28.8801C189.493 28.8997 189.767 28.9094 190.021 28.9094C191.017 28.9094 191.612 28.4993 191.876 27.5325L192.003 27.0442L188.185 16.3606H190.841L193.331 24.7004H193.517L195.997 16.3606H198.556L194.728 27.259C193.81 29.9348 192.589 30.7844 190.226 30.7844Z" fill="white"/>
</svg>
