<svg width="284" height="40" viewBox="0 0 284 40" fill="none" xmlns="http://www.w3.org/2000/svg">
<rect x="0.5" width="283.5" height="40" rx="8" fill="#FFC43A"/>
<path d="M87.3469 24V15.2727H90.398C91.0059 15.2727 91.5074 15.3778 91.9023 15.5881C92.2971 15.7955 92.5912 16.0753 92.7844 16.4276C92.9775 16.777 93.0741 17.1648 93.0741 17.5909C93.0741 17.9659 93.0074 18.2756 92.8738 18.5199C92.7432 18.7642 92.5699 18.9574 92.354 19.0994C92.1409 19.2415 91.9094 19.3466 91.6594 19.4148V19.5C91.9264 19.517 92.1949 19.6108 92.4648 19.7812C92.7346 19.9517 92.9605 20.196 93.1423 20.5142C93.3241 20.8324 93.415 21.2216 93.415 21.6818C93.415 22.1193 93.3156 22.5128 93.1167 22.8622C92.9179 23.2116 92.604 23.4886 92.175 23.6932C91.746 23.8977 91.1878 24 90.5003 24H87.3469ZM88.4037 23.0625H90.5003C91.1906 23.0625 91.6807 22.929 91.9704 22.6619C92.2631 22.392 92.4094 22.0653 92.4094 21.6818C92.4094 21.3864 92.3341 21.1136 92.1835 20.8636C92.0329 20.6108 91.8184 20.4091 91.54 20.2585C91.2616 20.1051 90.9321 20.0284 90.5514 20.0284H88.4037V23.0625ZM88.4037 19.108H90.3639C90.6821 19.108 90.969 19.0455 91.2247 18.9205C91.4832 18.7955 91.6878 18.6193 91.8383 18.392C91.9917 18.1648 92.0684 17.8977 92.0684 17.5909C92.0684 17.2074 91.9349 16.8821 91.6679 16.6151C91.4008 16.3452 90.9775 16.2102 90.398 16.2102H88.4037V19.108ZM98.9002 21.3239V17.4545H99.9059V24H98.9002V22.892H98.832C98.6786 23.2244 98.44 23.5071 98.1161 23.7401C97.7922 23.9702 97.3831 24.0852 96.8888 24.0852C96.4797 24.0852 96.1161 23.9957 95.7979 23.8168C95.4797 23.6349 95.2297 23.3622 95.0479 22.9986C94.8661 22.6321 94.7752 22.1705 94.7752 21.6136V17.4545H95.7809V21.5455C95.7809 22.0227 95.9144 22.4034 96.1814 22.6875C96.4513 22.9716 96.7951 23.1136 97.2127 23.1136C97.4627 23.1136 97.7169 23.0497 97.9755 22.9219C98.2368 22.794 98.4556 22.598 98.6317 22.3338C98.8107 22.0696 98.9002 21.733 98.9002 21.3239ZM102.156 26.4545C101.985 26.4545 101.833 26.4403 101.7 26.4119C101.566 26.3864 101.474 26.3608 101.423 26.3352L101.678 25.4489C101.923 25.5114 102.139 25.5341 102.326 25.517C102.514 25.5 102.68 25.4162 102.825 25.2656C102.972 25.1179 103.107 24.8778 103.229 24.5455L103.417 24.0341L100.996 17.4545H102.087L103.894 22.6705H103.962L105.769 17.4545H106.86L104.082 24.9545C103.957 25.2926 103.802 25.5724 103.617 25.794C103.433 26.0185 103.218 26.1847 102.974 26.2926C102.732 26.4006 102.46 26.4545 102.156 26.4545ZM112.565 24L110.571 17.4545H111.628L113.043 22.4659H113.111L114.509 17.4545H115.583L116.963 22.4489H117.031L118.446 17.4545H119.503L117.509 24H116.52L115.088 18.9716H114.986L113.554 24H112.565ZM120.593 24V17.4545H121.598V24H120.593ZM121.104 16.3636C120.908 16.3636 120.739 16.2969 120.597 16.1634C120.458 16.0298 120.388 15.8693 120.388 15.6818C120.388 15.4943 120.458 15.3338 120.597 15.2003C120.739 15.0668 120.908 15 121.104 15C121.3 15 121.468 15.0668 121.607 15.2003C121.749 15.3338 121.82 15.4943 121.82 15.6818C121.82 15.8693 121.749 16.0298 121.607 16.1634C121.468 16.2969 121.3 16.3636 121.104 16.3636ZM126.047 17.4545V18.3068H122.655V17.4545H126.047ZM123.643 15.8864H124.649V22.125C124.649 22.4091 124.69 22.6222 124.773 22.7642C124.858 22.9034 124.966 22.9972 125.096 23.0455C125.23 23.0909 125.371 23.1136 125.518 23.1136C125.629 23.1136 125.72 23.108 125.791 23.0966C125.862 23.0824 125.919 23.071 125.962 23.0625L126.166 23.9659C126.098 23.9915 126.003 24.017 125.881 24.0426C125.758 24.071 125.604 24.0852 125.416 24.0852C125.132 24.0852 124.854 24.0241 124.581 23.902C124.311 23.7798 124.087 23.5938 123.908 23.3438C123.731 23.0938 123.643 22.7784 123.643 22.3977V15.8864ZM128.466 20.0625V24H127.46V15.2727H128.466V18.4773H128.551C128.704 18.1392 128.935 17.8707 129.241 17.6719C129.551 17.4702 129.963 17.3693 130.477 17.3693C130.923 17.3693 131.314 17.4588 131.649 17.6378C131.984 17.8139 132.244 18.0852 132.429 18.4517C132.616 18.8153 132.71 19.2784 132.71 19.8409V24H131.704V19.9091C131.704 19.3892 131.57 18.9872 131.3 18.7031C131.033 18.4162 130.662 18.2727 130.187 18.2727C129.858 18.2727 129.562 18.3423 129.301 18.4815C129.043 18.6207 128.838 18.8239 128.687 19.0909C128.54 19.358 128.466 19.6818 128.466 20.0625Z" fill="#253B80"/>
<path d="M160.696 15.9563H157.38C157.153 15.9563 156.96 16.1211 156.925 16.3451L155.584 24.8479C155.557 25.0157 155.687 25.167 155.857 25.167H157.44C157.667 25.167 157.86 25.0021 157.895 24.7776L158.257 22.4843C158.292 22.2598 158.485 22.095 158.712 22.095H159.761C161.946 22.095 163.206 21.038 163.536 18.9434C163.684 18.0271 163.542 17.3071 163.113 16.8028C162.641 16.2491 161.806 15.9563 160.696 15.9563ZM161.078 19.0618C160.897 20.2516 159.988 20.2516 159.109 20.2516H158.609L158.96 18.0295C158.98 17.8952 159.097 17.7963 159.233 17.7963H159.462C160.061 17.7963 160.625 17.7963 160.917 18.1376C161.091 18.3413 161.145 18.6438 161.078 19.0618Z" fill="#253B80"/>
<path d="M170.607 19.0234H169.019C168.884 19.0234 168.767 19.1223 168.746 19.2566L168.676 19.7007L168.565 19.5397C168.221 19.0408 167.454 18.874 166.689 18.874C164.935 18.874 163.436 20.203 163.144 22.0672C162.992 22.9972 163.208 23.8864 163.736 24.5065C164.22 25.0767 164.912 25.3143 165.736 25.3143C167.15 25.3143 167.934 24.4052 167.934 24.4052L167.863 24.8464C167.836 25.0151 167.966 25.1664 168.135 25.1664H169.566C169.793 25.1664 169.985 25.0015 170.021 24.7771L170.879 19.3424C170.906 19.1751 170.777 19.0234 170.607 19.0234ZM168.394 22.1138C168.24 23.0209 167.52 23.6299 166.602 23.6299C166.141 23.6299 165.773 23.482 165.536 23.2018C165.301 22.9235 165.212 22.5274 165.287 22.0861C165.43 21.1868 166.162 20.5579 167.066 20.5579C167.517 20.5579 167.884 20.7077 168.125 20.9904C168.367 21.276 168.463 21.6745 168.394 22.1138Z" fill="#253B80"/>
<path d="M179.064 19.0234H177.468C177.316 19.0234 177.173 19.0991 177.087 19.2256L174.886 22.4673L173.953 19.3522C173.895 19.1573 173.715 19.0234 173.511 19.0234H171.943C171.753 19.0234 171.62 19.2096 171.681 19.389L173.438 24.5468L171.786 26.8794C171.656 27.0632 171.787 27.3158 172.012 27.3158H173.605C173.756 27.3158 173.898 27.2421 173.984 27.118L179.291 19.4574C179.418 19.2741 179.288 19.0234 179.064 19.0234Z" fill="#253B80"/>
<path d="M184.347 15.9563H181.031C180.804 15.9563 180.611 16.1211 180.576 16.3451L179.235 24.8479C179.208 25.0157 179.338 25.167 179.507 25.167H181.209C181.367 25.167 181.503 25.0516 181.527 24.8945L181.908 22.4843C181.943 22.2598 182.136 22.095 182.363 22.095H183.412C185.597 22.095 186.857 21.038 187.186 18.9434C187.335 18.0271 187.192 17.3071 186.763 16.8028C186.292 16.2491 185.457 15.9563 184.347 15.9563ZM184.73 19.0618C184.549 20.2516 183.64 20.2516 182.76 20.2516H182.26L182.612 18.0295C182.633 17.8952 182.748 17.7963 182.884 17.7963H183.114C183.712 17.7963 184.277 17.7963 184.569 18.1376C184.743 18.3413 184.796 18.6438 184.73 19.0618Z" fill="#179BD7"/>
<path d="M194.258 19.0234H192.671C192.535 19.0234 192.419 19.1223 192.399 19.2566L192.329 19.7007L192.217 19.5397C191.873 19.0408 191.107 18.874 190.342 18.874C188.587 18.874 187.089 20.203 186.797 22.0672C186.646 22.9972 186.861 23.8864 187.388 24.5065C187.873 25.0767 188.565 25.3143 189.388 25.3143C190.802 25.3143 191.586 24.4052 191.586 24.4052L191.515 24.8464C191.489 25.0151 191.619 25.1664 191.789 25.1664H193.219C193.445 25.1664 193.638 25.0015 193.673 24.7771L194.532 19.3424C194.558 19.1751 194.428 19.0234 194.258 19.0234ZM192.045 22.1138C191.893 23.0209 191.172 23.6299 190.253 23.6299C189.793 23.6299 189.424 23.482 189.187 23.2018C188.953 22.9235 188.864 22.5274 188.938 22.0861C189.082 21.1868 189.813 20.5579 190.717 20.5579C191.168 20.5579 191.535 20.7077 191.776 20.9904C192.019 21.276 192.115 21.6745 192.045 22.1138Z" fill="#179BD7"/>
<path d="M196.13 16.1895L194.769 24.8479C194.742 25.0157 194.872 25.167 195.042 25.167H196.41C196.637 25.167 196.83 25.0021 196.865 24.7776L198.207 16.2753C198.234 16.1076 198.104 15.9558 197.935 15.9558H196.403C196.267 15.9563 196.151 16.0552 196.13 16.1895Z" fill="#179BD7"/>
<path d="M141.813 26.8195L142.067 25.2088L141.502 25.1957H138.805L140.679 13.3106C140.685 13.2747 140.704 13.2413 140.731 13.2175C140.759 13.1938 140.795 13.1807 140.831 13.1807H145.379C146.889 13.1807 147.931 13.4948 148.475 14.115C148.73 14.4059 148.892 14.7099 148.971 15.0444C149.053 15.3955 149.055 15.8148 148.974 16.3264L148.969 16.3637V16.6915L149.224 16.8359C149.438 16.9499 149.609 17.0803 149.74 17.2296C149.958 17.4784 150.099 17.7945 150.159 18.1693C150.22 18.5547 150.2 19.0134 150.099 19.5327C149.983 20.13 149.795 20.6502 149.541 21.0759C149.307 21.4682 149.009 21.7935 148.656 22.0456C148.318 22.2851 147.917 22.467 147.464 22.5833C147.025 22.6978 146.524 22.7555 145.975 22.7555H145.621C145.368 22.7555 145.122 22.8466 144.929 23.01C144.735 23.1768 144.607 23.4047 144.568 23.6539L144.541 23.7988L144.093 26.6376L144.073 26.7419C144.068 26.7748 144.059 26.7913 144.045 26.8025C144.033 26.8127 144.015 26.8195 143.998 26.8195H141.813Z" fill="#253B80"/>
<path d="M149.464 16.4014C149.451 16.4882 149.435 16.5769 149.418 16.668C148.818 19.7473 146.766 20.8111 144.146 20.8111H142.811C142.491 20.8111 142.221 21.0438 142.171 21.3599L141.488 25.6925L141.294 26.9206C141.262 27.1282 141.422 27.3153 141.631 27.3153H143.998C144.278 27.3153 144.516 27.1117 144.56 26.8353L144.583 26.7151L145.029 23.8874L145.058 23.7323C145.101 23.4549 145.34 23.2513 145.62 23.2513H145.974C148.267 23.2513 150.062 22.3204 150.586 19.6266C150.806 18.5012 150.692 17.5616 150.112 16.9008C149.937 16.7015 149.719 16.5362 149.464 16.4014Z" fill="#179BD7"/>
<path d="M148.837 16.1513C148.745 16.1246 148.651 16.1004 148.554 16.0786C148.456 16.0572 148.357 16.0383 148.254 16.0219C147.894 15.9637 147.5 15.936 147.078 15.936H143.513C143.425 15.936 143.342 15.9559 143.267 15.9918C143.103 16.0708 142.981 16.2265 142.951 16.417L142.193 21.2199L142.171 21.36C142.221 21.0439 142.491 20.8112 142.811 20.8112H144.146C146.766 20.8112 148.818 19.7469 149.418 16.6682C149.436 16.577 149.451 16.4883 149.464 16.4015C149.313 16.321 149.148 16.2522 148.971 16.1935C148.928 16.1789 148.883 16.1649 148.837 16.1513Z" fill="#222D65"/>
<path d="M142.951 16.4169C142.981 16.2264 143.103 16.0707 143.267 15.9922C143.343 15.9563 143.426 15.9364 143.513 15.9364H147.078C147.5 15.9364 147.894 15.9641 148.254 16.0223C148.357 16.0387 148.457 16.0577 148.554 16.079C148.651 16.1008 148.746 16.1251 148.837 16.1517C148.883 16.1653 148.928 16.1794 148.972 16.1934C149.149 16.2521 149.314 16.3214 149.465 16.4014C149.644 15.2635 149.464 14.4887 148.849 13.7871C148.17 13.0147 146.946 12.6841 145.379 12.6841H140.832C140.512 12.6841 140.239 12.9168 140.189 13.2334L138.295 25.2407C138.258 25.4783 138.441 25.6926 138.68 25.6926H141.488L142.193 21.2198L142.951 16.4169Z" fill="#253B80"/>
</svg>
