<svg width="14" height="16" viewBox="0 0 14 16" fill="none" xmlns="http://www.w3.org/2000/svg">
<path d="M13.1757 6.94623L2.09957 0.185178C1.91507 0.0682616 1.702 0.00427628 1.48362 0.000206979C1.26523 -0.00386232 1.04992 0.0521408 0.861198 0.162103C0.669682 0.267178 0.510028 0.42193 0.399035 0.610078C0.288041 0.798225 0.229812 1.01281 0.230474 1.23126V14.7687C0.229812 14.9872 0.288041 15.2018 0.399035 15.3899C0.510028 15.5781 0.669682 15.7328 0.861198 15.8379C1.04992 15.9479 1.26523 16.0039 1.48362 15.9998C1.702 15.9957 1.91507 15.9317 2.09957 15.8148L13.1757 9.05377C13.3572 8.94425 13.5074 8.78969 13.6116 8.60507C13.7159 8.42044 13.7707 8.21202 13.7707 8C13.7707 7.78798 13.7159 7.57956 13.6116 7.39494C13.5074 7.21031 13.3572 7.05575 13.1757 6.94623Z" fill="white"/>
</svg>
