<svg width="50" height="50" viewBox="0 0 50 50" fill="none" xmlns="http://www.w3.org/2000/svg">
<g filter="url(#filter0_d_6049_447)">
<rect x="3" y="2" width="44" height="44" rx="22" fill="white" shape-rendering="crispEdges"/>
<path d="M18.0312 33.4687C17.8125 33.4687 17.5625 33.4062 17.375 33.2812C16.9375 33.0312 16.6875 32.625 16.6875 32.125V15.875C16.6875 15.4062 16.9375 14.9687 17.375 14.7187C17.8125 14.4687 18.3125 14.5 18.75 14.75L32.75 22.9062C33.1562 23.1562 33.375 23.5625 33.375 24.0312C33.375 24.4687 33.1562 24.9062 32.75 25.125L18.7187 33.25C18.5 33.375 18.25 33.4687 18.0312 33.4687ZM18.0625 16V32L31.8125 24L18.0625 16Z" fill="#00A3FF"/>
</g>
<defs>
<filter id="filter0_d_6049_447" x="0" y="0" width="50" height="50" filterUnits="userSpaceOnUse" color-interpolation-filters="sRGB">
<feFlood flood-opacity="0" result="BackgroundImageFix"/>
<feColorMatrix in="SourceAlpha" type="matrix" values="0 0 0 0 0 0 0 0 0 0 0 0 0 0 0 0 0 0 127 0" result="hardAlpha"/>
<feOffset dy="1"/>
<feGaussianBlur stdDeviation="1.5"/>
<feComposite in2="hardAlpha" operator="out"/>
<feColorMatrix type="matrix" values="0 0 0 0 0.65098 0 0 0 0 0.686275 0 0 0 0 0.764706 0 0 0 0.4 0"/>
<feBlend mode="normal" in2="BackgroundImageFix" result="effect1_dropShadow_6049_447"/>
<feBlend mode="normal" in="SourceGraphic" in2="effect1_dropShadow_6049_447" result="shape"/>
</filter>
</defs>
</svg>
