<svg width="18" height="18" viewBox="0 0 18 18" fill="none" xmlns="http://www.w3.org/2000/svg">
<path d="M17.2705 14.7656L15.8643 2.64377C15.7237 1.40627 14.683 0.478149 13.4174 0.478149H4.55803C3.32053 0.478149 2.2799 1.40627 2.11115 2.64377L0.704904 14.7656C0.620529 15.4688 0.845529 16.1438 1.32365 16.6781C1.80178 17.2125 2.44865 17.4938 3.15178 17.4938H14.8237C15.5268 17.4938 16.2018 17.1844 16.6518 16.6781C17.1018 16.1719 17.3549 15.4688 17.2705 14.7656ZM15.7237 15.8344C15.4987 16.0875 15.1893 16.2281 14.8518 16.2281H3.15178C2.81428 16.2281 2.5049 16.0875 2.2799 15.8344C2.0549 15.5813 1.9424 15.2438 1.99865 14.9063L3.37678 2.81252C3.43303 2.2219 3.93928 1.7719 4.55803 1.7719H13.4455C14.0362 1.7719 14.5424 2.2219 14.6268 2.81252L16.033 14.9344C16.0612 15.2719 15.9487 15.5813 15.7237 15.8344Z" fill="#00A3FF"/>
<path d="M11.7297 4.33127C11.3922 4.41564 11.1672 4.75315 11.2516 5.09065C11.2797 5.2594 11.3078 5.42814 11.3078 5.56877C11.3078 6.83439 10.2672 7.87502 9.00156 7.87502C7.73594 7.87502 6.69531 6.83439 6.69531 5.56877C6.69531 5.40002 6.72344 5.2594 6.75156 5.09065C6.83594 4.75315 6.61094 4.41564 6.27344 4.33127C5.93594 4.24689 5.59844 4.4719 5.51406 4.8094C5.45781 5.06252 5.42969 5.31564 5.42969 5.56877C5.42969 7.53752 7.03281 9.14064 9.00156 9.14064C10.9703 9.14064 12.5734 7.53752 12.5734 5.56877C12.5734 5.31564 12.5453 5.06252 12.4891 4.8094C12.4047 4.4719 12.0672 4.27502 11.7297 4.33127Z" fill="#00A3FF"/>
</svg>
