<svg width="21" height="24" viewBox="0 0 21 24" fill="none" xmlns="http://www.w3.org/2000/svg">
<path d="M19.6898 10.5786L2.57656 1.00127C2.29141 0.834993 1.96307 0.75775 1.63369 0.779466C1.30432 0.801183 0.988962 0.920868 0.728118 1.12315C0.461725 1.33333 0.26831 1.62209 0.175331 1.94843C0.0823525 2.27476 0.094535 2.6221 0.210149 2.94112L3.06406 10.9138C3.09293 10.9933 3.14532 11.0621 3.21426 11.1111C3.2832 11.1601 3.36543 11.1869 3.44999 11.188H10.7828C10.9936 11.1847 11.1979 11.2614 11.3543 11.4028C11.5108 11.5442 11.6078 11.7396 11.6258 11.9497C11.6327 12.0606 11.6168 12.1717 11.5791 12.2763C11.5414 12.3808 11.4827 12.4764 11.4065 12.5574C11.3304 12.6383 11.2384 12.7027 11.1364 12.7467C11.0344 12.7906 10.9244 12.8132 10.8133 12.813H3.44999C3.36543 12.8141 3.2832 12.8409 3.21426 12.8899C3.14532 12.9389 3.09293 13.0077 3.06406 13.0872L0.210149 21.0599C0.124518 21.3055 0.0987153 21.568 0.134884 21.8256C0.171053 22.0831 0.26815 22.3284 0.418112 22.5409C0.568074 22.7534 0.766573 22.9271 0.997128 23.0475C1.22768 23.168 1.48364 23.2317 1.74374 23.2333C2.02053 23.2321 2.2927 23.1623 2.53593 23.0302L19.6898 13.4224C19.9411 13.2797 20.1501 13.0729 20.2955 12.8231C20.4409 12.5733 20.5175 12.2895 20.5175 12.0005C20.5175 11.7115 20.4409 11.4276 20.2955 11.1779C20.1501 10.9281 19.9411 10.7213 19.6898 10.5786Z" fill="white"/>
</svg>
