<svg width="18" height="18" viewBox="0 0 18 18" fill="none" xmlns="http://www.w3.org/2000/svg">
<g clip-path="url(#clip0_6274_32514)">
<path d="M16.3675 10.2094L15.2987 9.59065C15.3269 9.4219 15.3269 9.22502 15.3269 9.00002C15.3269 8.80315 15.3269 8.60627 15.2987 8.4094L16.3675 7.79065C17.0987 7.36877 17.3519 6.41252 16.93 5.68127L15.8331 3.76877C15.6362 3.40315 15.2987 3.15002 14.905 3.06565C14.5112 2.95315 14.0894 3.0094 13.7237 3.20627L12.655 3.85315C12.3456 3.62815 12.0081 3.43127 11.6425 3.26252V2.02502C11.6425 1.18127 10.9394 0.478149 10.0956 0.478149H7.90187C7.05812 0.478149 6.35499 1.18127 6.35499 2.02502V3.26252C5.98937 3.43127 5.65187 3.62815 5.34249 3.82502L4.27375 3.20627C3.90812 3.0094 3.51437 2.95315 3.0925 3.06565C2.69875 3.17815 2.36125 3.43127 2.16437 3.76877L1.0675 5.68127C0.645621 6.41252 0.898746 7.36877 1.63 7.79065L2.69875 8.4094C2.67062 8.57815 2.67062 8.77502 2.67062 9.00002C2.67062 9.1969 2.67062 9.39377 2.69875 9.59065L1.63 10.2094C0.898746 10.6313 0.645621 11.5875 1.0675 12.3188L2.16437 14.2313C2.36125 14.5969 2.69875 14.85 3.0925 14.9344C3.48625 15.0469 3.90812 14.9906 4.27375 14.7938L5.34249 14.175C5.65187 14.4 5.98937 14.5969 6.35499 14.7375V15.975C6.35499 16.8188 7.05812 17.5219 7.90187 17.5219H10.0956C10.9394 17.5219 11.6425 16.8188 11.6425 15.975V14.7375C12.0081 14.5688 12.3456 14.3719 12.655 14.1469L13.7237 14.7656C14.0894 14.9625 14.4831 15.0188 14.8769 14.9063C15.2706 14.7938 15.6081 14.5406 15.805 14.2031L16.9019 12.2906C17.3237 11.5594 17.0706 10.6313 16.3675 10.2094ZM15.8331 11.6719L14.7362 13.5844C14.7081 13.6406 14.6519 13.6969 14.5675 13.6969C14.4831 13.725 14.4269 13.6969 14.3706 13.6688L13.2456 13.0219C12.8237 12.7688 12.3175 12.7969 11.9237 13.0781C11.6706 13.275 11.3894 13.4156 11.08 13.5563C10.6581 13.7531 10.3769 14.175 10.3769 14.6531V15.9469C10.3769 16.0875 10.2644 16.2281 10.0956 16.2281H7.90187C7.76124 16.2281 7.62062 16.1156 7.62062 15.9469V14.6531C7.62062 14.175 7.33937 13.7531 6.91749 13.5563C6.60812 13.4156 6.32687 13.2469 6.07374 13.0781C5.87687 12.9375 5.62374 12.8531 5.37062 12.8531C5.14562 12.8531 4.94875 12.9094 4.78 13.0219L3.655 13.6688C3.59875 13.6969 3.51437 13.725 3.45812 13.6969C3.40187 13.6688 3.34562 13.6406 3.28937 13.5844L2.1925 11.6719C2.10812 11.5313 2.16437 11.3625 2.27687 11.3063L3.40187 10.6594C3.79562 10.4344 4.04875 9.95627 3.9925 9.50627C3.96437 9.36565 3.96437 9.1969 3.96437 9.02815C3.96437 8.83127 3.96437 8.69065 3.9925 8.55002C4.04875 8.0719 3.82375 7.6219 3.40187 7.3969L2.27687 6.75002C2.13625 6.66565 2.10812 6.4969 2.16437 6.3844L3.26125 4.4719C3.28937 4.41565 3.34562 4.3594 3.43 4.3594C3.51437 4.33127 3.57062 4.3594 3.62687 4.38752L4.75187 5.0344C5.17375 5.28752 5.68 5.2594 6.07374 4.97815C6.32687 4.78127 6.60812 4.64065 6.91749 4.50002C7.33937 4.30315 7.62062 3.88127 7.62062 3.40315V2.02502C7.62062 1.8844 7.73312 1.74377 7.90187 1.74377H10.0956C10.2362 1.74377 10.3769 1.85627 10.3769 2.02502V3.31877C10.3769 3.7969 10.6581 4.21877 11.08 4.41565C11.3894 4.55627 11.6706 4.72502 11.9237 4.89377C12.3175 5.17502 12.8237 5.20315 13.2175 4.97815L14.3425 4.33127C14.3987 4.30315 14.4831 4.27502 14.5394 4.30315C14.5956 4.33127 14.6519 4.3594 14.7081 4.41565L15.805 6.32815C15.8894 6.46877 15.8331 6.63752 15.7206 6.69377L14.5956 7.34065C14.2019 7.56565 13.9487 8.04377 14.005 8.49377C14.0331 8.6344 14.0331 8.80315 14.0331 8.9719C14.0331 9.16877 14.0331 9.3094 14.005 9.45002C13.9487 9.92815 14.2019 10.3781 14.5956 10.6031L15.7206 11.25C15.8612 11.3625 15.8894 11.5313 15.8331 11.6719Z" fill="#00A3FF"/>
<path d="M8.99922 5.37195C7.00234 5.37195 5.37109 7.0032 5.37109 9.00007C5.37109 10.9969 7.00234 12.6282 8.99922 12.6282C10.9961 12.6282 12.6273 10.9969 12.6273 9.00007C12.6273 7.0032 10.9961 5.37195 8.99922 5.37195ZM8.99922 11.3626C7.70547 11.3626 6.63672 10.2938 6.63672 9.00007C6.63672 7.70632 7.70547 6.63757 8.99922 6.63757C10.293 6.63757 11.3617 7.70632 11.3617 9.00007C11.3617 10.2938 10.293 11.3626 8.99922 11.3626Z" fill="#00A3FF"/>
</g>
<defs>
<clipPath id="clip0_6274_32514">
<rect width="18" height="18" fill="white"/>
</clipPath>
</defs>
</svg>
