<svg width="67" height="18" viewBox="0 0 67 18" fill="none" xmlns="http://www.w3.org/2000/svg">
<g clip-path="url(#clip0_7008_45348)">
<path d="M1.99023 11.7396C3.47888 13.2282 5.8607 13.2282 7.31626 11.7396L7.44858 11.6073C8.17636 10.8795 6.7208 7.00903 7.44858 6.28125L1.99023 11.7396Z" fill="url(#paint0_linear_7008_45348)"/>
<path d="M7.6139 6.11674L7.48158 6.24907C6.7538 6.97685 8.20936 10.8473 7.48158 11.5751L12.973 6.08366C11.4844 4.6281 9.10254 4.6281 7.6139 6.11674Z" fill="url(#paint1_linear_7008_45348)"/>
<path d="M1.99011 6.38157C0.534548 7.87021 0.534548 10.252 1.99011 11.7076L7.61386 6.08384C9.1025 4.5952 9.1025 2.21337 7.61386 0.757812L1.99011 6.38157Z" fill="url(#paint2_linear_7008_45348)"/>
<path d="M7.34948 11.7409C5.89392 13.2296 5.89392 15.6114 7.34948 17.067L12.9732 11.4432C14.4619 9.95457 14.4619 7.57275 12.9732 6.11719L7.34948 11.7409Z" fill="url(#paint3_linear_7008_45348)"/>
<path d="M34.8401 8.92766C34.7409 8.53068 34.5424 8.16679 34.3439 7.83598C33.9469 7.24053 33.4507 6.74432 32.8222 6.41351C31.8297 5.88421 30.6719 5.75189 29.6133 6.0827C27.3969 6.74432 26.1067 9.05998 26.7353 11.3095C26.8014 11.541 26.9337 11.8719 26.9337 11.8719C27.2976 12.732 27.9593 13.4267 28.7863 13.8236C29.4148 14.1544 30.1095 14.3529 30.8042 14.3529C31.2012 14.3529 31.5982 14.2868 31.9951 14.1875C32.8222 13.956 33.5499 13.4597 34.0792 12.7981L34.1123 12.765C34.2446 12.5996 34.377 12.4012 34.4762 12.2027C34.6747 11.8719 34.5424 11.4087 34.2116 11.2102C34.1123 11.1441 33.98 11.111 33.8477 11.111C33.583 11.111 33.3515 11.2433 33.2191 11.4749C33.0537 11.8057 32.7891 12.0703 32.5244 12.3019C32.4913 12.3019 32.4913 12.335 32.4583 12.3681C31.5982 13.0297 30.4072 13.0958 29.4479 12.5666C29.0178 12.335 28.654 12.0042 28.4224 11.5741L34.377 9.82084C34.7409 9.7216 34.9393 9.32463 34.8401 8.92766C34.8401 8.96074 34.8401 8.96074 34.8401 8.92766ZM30.8042 7.33977C31.2674 7.33977 31.7305 7.43901 32.1275 7.67058C32.5244 7.90215 32.8552 8.23296 33.1199 8.59685L33.153 8.66301L27.9923 10.1847C27.9923 9.68851 28.0916 9.1923 28.3231 8.76225C28.8194 7.90215 29.7456 7.33977 30.8042 7.33977Z" fill="white"/>
<path d="M42.4814 12.9973H38.5448L42.9445 6.5465C43.0769 6.3811 43.0107 6.11645 42.8453 5.98413C42.7791 5.95105 42.713 5.91797 42.6137 5.91797H37.023C36.6591 5.91797 36.3614 6.2157 36.3614 6.57959C36.3614 6.94348 36.6591 7.24121 37.023 7.24121H40.7612L36.3614 13.692C36.2622 13.8243 36.2622 13.9566 36.3283 14.089C36.3945 14.2213 36.5268 14.2874 36.6922 14.2874H42.4483C42.8122 14.2874 43.1099 13.9897 43.1099 13.6258C43.1099 13.2619 42.8453 12.9973 42.4814 12.9973Z" fill="white"/>
<path d="M51.1817 12.9955H47.2451L51.6448 6.54467C51.711 6.41235 51.7441 6.28003 51.6779 6.1477C51.6117 6.01538 51.4794 5.94922 51.314 5.94922H45.7233C45.3595 5.94922 45.0617 6.24695 45.0617 6.61084C45.0617 6.97473 45.3595 7.27246 45.7233 7.27246H49.4615L45.0948 13.7232C44.9625 13.8886 45.0286 14.1533 45.1941 14.2856C45.2602 14.3187 45.3264 14.3518 45.4256 14.3518H51.1817C51.5456 14.3518 51.8433 14.054 51.8433 13.6902C51.8433 13.3263 51.5456 12.9955 51.1817 12.9955Z" fill="white"/>
<path d="M55.0522 2.27734C54.6884 2.27734 54.3906 2.57507 54.3906 2.93896V13.6903C54.3906 14.0541 54.6884 14.3519 55.0522 14.3519C55.4161 14.3519 55.7139 14.0541 55.7139 13.6903V2.97204C55.7139 2.60815 55.4492 2.31042 55.0853 2.27734H55.0522Z" fill="white"/>
<path d="M66.0686 8.92651C65.9693 8.52954 65.7708 8.16565 65.5723 7.83484C64.5468 6.28003 62.6281 5.55225 60.8418 6.08155C58.6253 6.74317 57.3352 9.05883 57.9968 11.3083C58.063 11.5399 58.1953 11.8707 58.1953 11.8707C58.5592 12.7308 59.2208 13.4255 60.0478 13.8225C61.8342 14.7818 64.0506 14.3518 65.3408 12.797L65.3739 12.7639C65.5062 12.5985 65.6385 12.4 65.7377 12.2015C65.9362 11.8707 65.837 11.4076 65.4731 11.2091C65.4731 11.2091 65.4731 11.2091 65.44 11.2091C65.1092 11.0106 64.6461 11.1429 64.4807 11.4737C64.3153 11.8045 64.0506 12.0692 63.786 12.3008C63.7529 12.3008 63.7529 12.3338 63.7198 12.3669C63.4552 12.5654 63.1574 12.7308 62.8266 12.797C62.1319 12.9955 61.3711 12.9293 60.7094 12.5654C60.2794 12.3338 59.9155 12.003 59.6839 11.573L65.6054 9.85277C65.9693 9.72045 66.1678 9.32348 66.0686 8.92651ZM62.0327 7.33862C62.4958 7.33862 62.9589 7.43786 63.3559 7.66943C63.7529 7.901 64.0837 8.23181 64.3483 8.5957L64.3814 8.66186L59.2208 10.1836C59.2208 9.68737 59.32 9.19115 59.5516 8.7611C60.0478 7.86792 60.9741 7.30554 61.9996 7.30554L62.0327 7.33862Z" fill="white"/>
<path d="M24.485 10.5824C24.2535 10.2847 23.9557 10.02 23.6249 9.8546C22.9633 9.55687 22.2355 9.35838 21.5077 9.29222L21.3754 9.25914C20.8792 9.22606 20.4161 9.09374 19.9529 8.92833C19.7214 8.82909 19.556 8.59752 19.5891 8.33288C19.5891 7.7705 20.2176 7.34045 21.0115 7.34045C21.7724 7.34045 22.5333 7.57201 23.1618 8.00207C23.4926 8.20055 23.9557 8.10131 24.1542 7.7705C24.3527 7.43969 24.2535 6.97656 23.9227 6.77807C23.5588 6.54651 23.1618 6.34802 22.7317 6.18261C22.1694 5.98413 21.607 5.91797 21.0115 5.91797C20.2838 5.91797 19.5891 6.14954 19.0267 6.57959C18.4643 7.00964 18.1335 7.67126 18.1335 8.36596C18.1004 9.1599 18.5636 9.88768 19.2913 10.2185C19.8868 10.4831 20.5153 10.6485 21.1439 10.6816H21.2431C22.8641 10.9463 23.3603 11.1778 23.3603 11.7071C23.3603 12.3688 22.6987 12.7988 21.6401 12.8319H21.607C20.8461 12.8319 20.1184 12.6003 19.5229 12.1703L19.4237 12.1041C19.0928 11.9056 18.6297 12.0049 18.4312 12.3357C18.2327 12.6665 18.332 13.1296 18.6628 13.3281L18.729 13.3943H18.762C19.5891 13.9897 20.6146 14.3205 21.6401 14.3205H21.7062C22.5002 14.3536 23.2941 14.089 23.9557 13.6258C24.5181 13.1627 24.8489 12.5011 24.8489 11.7733C24.8489 11.3102 24.7166 10.9132 24.485 10.5824Z" fill="white"/>
</g>
<defs>
<linearGradient id="paint0_linear_7008_45348" x1="7.17689" y1="11.8852" x2="4.52724" y2="8.7262" gradientUnits="userSpaceOnUse">
<stop stop-color="#CE5DCB"/>
<stop offset="0.21" stop-color="#C558CC"/>
<stop offset="0.55" stop-color="#AC4ACF"/>
<stop offset="0.98" stop-color="#8534D4"/>
<stop offset="1" stop-color="#8333D4"/>
</linearGradient>
<linearGradient id="paint1_linear_7008_45348" x1="7.27386" y1="8.29188" x2="12.967" y2="8.29188" gradientUnits="userSpaceOnUse">
<stop offset="0.02" stop-color="#FF5667"/>
<stop offset="0.66" stop-color="#FC8B82"/>
<stop offset="1" stop-color="#FBA28E"/>
</linearGradient>
<linearGradient id="paint2_linear_7008_45348" x1="0.900522" y1="6.24594" x2="8.73388" y2="6.24594" gradientUnits="userSpaceOnUse">
<stop stop-color="#00B874"/>
<stop offset="0.51" stop-color="#29D3A2"/>
<stop offset="0.68" stop-color="#53DFB6"/>
<stop offset="1" stop-color="#9FF4D9"/>
</linearGradient>
<linearGradient id="paint3_linear_7008_45348" x1="6.24005" y1="11.5855" x2="14.0734" y2="11.5855" gradientUnits="userSpaceOnUse">
<stop stop-color="#FCD77E"/>
<stop offset="0.52" stop-color="#FEA500"/>
<stop offset="1" stop-color="#FF5B00"/>
</linearGradient>
<clipPath id="clip0_7008_45348">
<rect width="67" height="18" fill="white"/>
</clipPath>
</defs>
</svg>
