<svg width="14" height="18" viewBox="0 0 14 18" fill="none" xmlns="http://www.w3.org/2000/svg">
<path d="M3.28828 17.4938H6.46641C7.19766 17.4938 7.81641 16.875 7.81641 16.1438V14.2031C7.81641 13.8656 7.53516 13.5844 7.19766 13.5844C6.86016 13.5844 6.55078 13.8656 6.55078 14.2031V16.1719C6.55078 16.2281 6.52266 16.2563 6.46641 16.2563H3.28828C2.61328 16.2563 2.07891 15.7219 2.07891 15.0469L2.07891 2.98127C2.07891 2.30627 2.61328 1.7719 3.28828 1.7719H6.46641C6.52266 1.7719 6.55078 1.80002 6.55078 1.85627V3.7969C6.55078 4.1344 6.83203 4.41565 7.19766 4.41565C7.56328 4.41565 7.81641 4.1344 7.81641 3.7969V1.85627C7.81641 1.12502 7.19766 0.506273 6.46641 0.506273H3.28828C1.91016 0.506273 0.813282 1.63127 0.813282 2.98127L0.813282 15.0188C0.813282 16.3969 1.93828 17.4938 3.28828 17.4938Z" fill="#1E2749"/>
<path d="M11.0492 8.38125H6.01484C5.67734 8.38125 5.39609 8.6625 5.39609 9C5.39609 9.3375 5.67734 9.61875 6.01484 9.61875H11.0211L9.27734 11.3906C9.02422 11.6437 9.02422 12.0375 9.27734 12.2906C9.53047 12.5438 9.92422 12.5438 10.1773 12.2906L12.9898 9.42187C13.243 9.16875 13.243 8.775 12.9898 8.52187L10.1773 5.65312C10.0648 5.54062 9.89609 5.45625 9.72734 5.45625C9.55859 5.45625 9.41797 5.5125 9.27734 5.625C9.02422 5.87813 9.02422 6.27188 9.27734 6.525L11.0492 8.38125Z" fill="#1E2749"/>
</svg>
