<svg width="32" height="32" viewBox="0 0 32 32" fill="none" xmlns="http://www.w3.org/2000/svg">
<path d="M27.3633 9.6377C28.2001 10.4725 28.8639 11.4642 29.3169 12.556C29.7699 13.6478 30.003 14.8182 30.003 16.0002C30.003 17.1822 29.7699 18.3526 29.3169 19.4444C28.8639 20.5362 28.2001 21.5279 27.3633 22.3627" stroke="white" stroke-width="2" stroke-linecap="round" stroke-linejoin="round"/>
<path d="M10 11V21" stroke="white" stroke-width="2" stroke-linecap="round" stroke-linejoin="round"/>
<path d="M23.8242 13.1748C24.1961 13.5453 24.4912 13.9855 24.6926 14.4703C24.8939 14.9551 24.9976 15.4749 24.9976 15.9998C24.9976 16.5247 24.8939 17.0445 24.6926 17.5293C24.4912 18.0141 24.1961 18.4543 23.8242 18.8248" stroke="white" stroke-width="2" stroke-linecap="round" stroke-linejoin="round"/>
<path d="M6 5L26 27" stroke="white" stroke-width="2" stroke-linecap="round" stroke-linejoin="round"/>
<path d="M19 19.3004V28.0004L10 21.0004H4C3.73478 21.0004 3.48043 20.895 3.29289 20.7075C3.10536 20.52 3 20.2656 3 20.0004V12.0004C3 11.7352 3.10536 11.4808 3.29289 11.2933C3.48043 11.1057 3.73478 11.0004 4 11.0004H10L10.85 10.3379" stroke="white" stroke-width="2" stroke-linecap="round" stroke-linejoin="round"/>
<path d="M14.0234 7.875L18.9984 4V13.35" stroke="white" stroke-width="2" stroke-linecap="round" stroke-linejoin="round"/>
</svg>
