<svg width="32" height="32" viewBox="0 0 32 32" fill="none" xmlns="http://www.w3.org/2000/svg">
<path d="M27.3633 9.6377C28.2001 10.4725 28.8639 11.4642 29.3169 12.556C29.7699 13.6478 30.003 14.8182 30.003 16.0002C30.003 17.1822 29.7699 18.3526 29.3169 19.4444C28.8639 20.5362 28.2001 21.5279 27.3633 22.3627" stroke="white" stroke-width="2" stroke-linecap="round" stroke-linejoin="round"/>
<path d="M10 21H4C3.73478 21 3.48043 20.8946 3.29289 20.7071C3.10536 20.5196 3 20.2652 3 20V12C3 11.7348 3.10536 11.4804 3.29289 11.2929C3.48043 11.1054 3.73478 11 4 11H10L19 4V28L10 21Z" stroke="white" stroke-width="2" stroke-linecap="round" stroke-linejoin="round"/>
<path d="M10 11V21" stroke="white" stroke-width="2" stroke-linecap="round" stroke-linejoin="round"/>
<path d="M23.8242 13.1748C24.1961 13.5453 24.4912 13.9855 24.6926 14.4703C24.8939 14.9551 24.9976 15.4749 24.9976 15.9998C24.9976 16.5247 24.8939 17.0445 24.6926 17.5293C24.4912 18.0141 24.1961 18.4543 23.8242 18.8248" stroke="white" stroke-width="2" stroke-linecap="round" stroke-linejoin="round"/>
</svg>
