<svg width="32" height="33" viewBox="0 0 32 33" fill="none" xmlns="http://www.w3.org/2000/svg">
<path d="M30.7075 19.1138C30.8951 19.3014 31.0006 19.5559 31.0006 19.8213C31.0006 20.0867 30.8951 20.3411 30.7075 20.5288C30.5199 20.7164 30.2654 20.8218 30 20.8218C29.7346 20.8218 29.4801 20.7164 29.2925 20.5288L27 18.235L24.7075 20.5288C24.5199 20.7164 24.2654 20.8218 24 20.8218C23.7346 20.8218 23.4801 20.7164 23.2925 20.5288C23.1049 20.3411 22.9994 20.0867 22.9994 19.8213C22.9994 19.5559 23.1049 19.3014 23.2925 19.1138L25.5863 16.8213L23.2925 14.5288C23.1049 14.3411 22.9994 14.0867 22.9994 13.8213C22.9994 13.5559 23.1049 13.3014 23.2925 13.1138C23.4801 12.9261 23.7346 12.8207 24 12.8207C24.2654 12.8207 24.5199 12.9261 24.7075 13.1138L27 15.4075L29.2925 13.1138C29.4801 12.9261 29.7346 12.8207 30 12.8207C30.2654 12.8207 30.5199 12.9261 30.7075 13.1138C30.8951 13.3014 31.0006 13.5559 31.0006 13.8213C31.0006 14.0867 30.8951 14.3411 30.7075 14.5288L28.4137 16.8213L30.7075 19.1138ZM7.5 10.8213H4C3.46957 10.8213 2.96086 11.032 2.58579 11.4071C2.21071 11.7821 2 12.2909 2 12.8213V20.8213C2 21.3517 2.21071 21.8604 2.58579 22.2355C2.96086 22.6106 3.46957 22.8213 4 22.8213H7.5C7.63261 22.8213 7.75979 22.7686 7.85355 22.6748C7.94732 22.5811 8 22.4539 8 22.3213V11.3213C8 11.1887 7.94732 11.0615 7.85355 10.9677C7.75979 10.874 7.63261 10.8213 7.5 10.8213ZM19.6437 4.05254C19.4687 3.90767 19.2495 3.82676 19.0223 3.82313C18.795 3.81949 18.5734 3.89335 18.3937 4.03254L10.1975 10.4075C10.1367 10.4537 10.0873 10.5132 10.0531 10.5815C10.0188 10.6497 10.0007 10.7249 10 10.8013V22.8413C10.0002 22.9173 10.0178 22.9923 10.0514 23.0606C10.0849 23.1288 10.1336 23.1885 10.1938 23.235L18.39 29.61C18.5487 29.7335 18.741 29.8062 18.9417 29.8186C19.1424 29.8311 19.3422 29.7828 19.515 29.68C19.6671 29.5854 19.792 29.453 19.8777 29.2957C19.9634 29.1384 20.0068 28.9616 20.0037 28.7825V4.85254C20.0056 4.70066 19.974 4.55023 19.9111 4.41196C19.8482 4.27369 19.7557 4.15097 19.64 4.05254H19.6437Z" fill="white"/>
</svg>
