<svg width="55" height="54" viewBox="0 0 55 54" fill="none" xmlns="http://www.w3.org/2000/svg">
<path d="M27.5008 1.51917C13.4102 1.51917 2.01953 12.9098 2.01953 27.0004C2.01953 41.091 13.4102 52.566 27.5008 52.566C41.5914 52.566 53.0664 41.091 53.0664 27.0004C53.0664 12.9098 41.5914 1.51917 27.5008 1.51917ZM27.5008 48.7692C15.5195 48.7692 5.81641 38.9817 5.81641 27.0004C5.81641 15.0192 15.5195 5.31604 27.5008 5.31604C39.482 5.31604 49.2695 15.1035 49.2695 27.0848C49.2695 38.9817 39.482 48.7692 27.5008 48.7692Z" fill="#22AD5C"/>
<path d="M34.7571 19.1534L24.7165 28.9409L20.1602 24.469C19.4009 23.7096 18.2196 23.794 17.4602 24.469C16.7009 25.2284 16.7852 26.4096 17.4602 27.169L22.8602 32.4003C23.3665 32.9065 24.0415 33.1596 24.7165 33.1596C25.3915 33.1596 26.0665 32.9065 26.5727 32.4003L37.4571 21.9378C38.2165 21.1784 38.2165 19.9971 37.4571 19.2378C36.6977 18.4784 35.5165 18.4784 34.7571 19.1534Z" fill="#22AD5C"/>
</svg>
