<svg width="24" height="24" viewBox="0 0 24 24" fill="none" xmlns="http://www.w3.org/2000/svg">
<path d="M18.45 12.75C17.325 11.4 15.9 10.4625 14.325 9.97498C15.9 9.14998 16.95 7.49998 16.95 5.58748C16.95 2.84998 14.7375 0.599976 11.9625 0.599976C9.18745 0.599976 7.01245 2.88748 7.01245 5.62498C7.01245 7.49998 8.06245 9.14998 9.63745 10.0125C8.06245 10.5 6.67495 11.4375 5.51245 12.7875C3.86245 14.7375 2.92495 17.4375 2.88745 20.4C2.88745 20.7375 3.07495 21.0375 3.33745 21.15C4.34995 21.675 8.02495 23.325 11.9625 23.325C16.2375 23.325 19.65 21.6375 20.625 21.1125C20.8875 20.9625 21.075 20.6625 21.075 20.3625C21.0375 17.4375 20.1 14.7375 18.45 12.75ZM12 2.36248C13.8 2.36248 15.3 3.82498 15.3 5.66248C15.3 7.49998 13.8375 8.96247 12 8.96247C10.1625 8.96247 8.69995 7.49998 8.69995 5.66248C8.69995 3.82498 10.2 2.36248 12 2.36248ZM12 21.675C8.88745 21.675 5.84995 20.475 4.61245 19.875C4.76245 17.5125 5.51245 15.4125 6.82495 13.8375C8.17495 12.225 10.0125 11.325 12 11.325C13.9875 11.325 15.825 12.225 17.175 13.8375C18.4875 15.375 19.275 17.5125 19.3875 19.875C18.225 20.475 15.375 21.675 12 21.675Z" fill="white"/>
</svg>
