<svg width="143" height="39" viewBox="0 0 143 39" fill="none" xmlns="http://www.w3.org/2000/svg">
<mask id="mask0_6049_1543" style="mask-type:luminance" maskUnits="userSpaceOnUse" x="0" y="0" width="40" height="39">
<path fill-rule="evenodd" clip-rule="evenodd" d="M0 0H40V38.9381H0V0Z" fill="white"/>
</mask>
<g mask="url(#mask0_6049_1543)">
<path fill-rule="evenodd" clip-rule="evenodd" d="M0.826508 30.4139V16.2061L33.0389 0.780518L33.4519 15.3942L9.08609 33.6614L5.78226 31.6317L0.826508 30.4139Z" fill="white"/>
<path fill-rule="evenodd" clip-rule="evenodd" d="M32.3471 14.1722L16.6868 21.9272C16.5974 21.9716 16.5215 22.0385 16.4668 22.1215L10.1733 31.6673V31.7201C10.0152 31.914 9.85368 32.1048 9.70406 32.3061C9.56124 32.4978 9.3981 32.7161 9.24599 32.9484H9.15219V29.3935C9.04412 28.217 8.83968 27.0493 8.74148 25.87C8.73103 25.8728 8.71975 25.8723 8.7098 25.8773L1.16776 29.6122V17.0131L32.3471 1.57302V14.1722ZM37.4092 3.06231C35.9265 2.00262 34.3912 1.00069 32.8636 0C30.4101 1.24316 27.9523 2.52835 25.4415 3.60723C22.6296 4.81546 19.992 6.29433 17.2766 7.70293C11.5911 10.6522 5.77413 13.3986 0 16.1784V17.0639C0.0154264 17.0753 0.0261254 17.0924 0.0437912 17.1005V30.3416C0.721227 30.8609 1.28139 31.5231 1.85988 32.1623L6.66041 35.769C6.74956 35.815 6.83731 35.8651 6.92697 35.9099C7.26121 35.7535 7.59047 35.5885 7.89643 35.386C7.90713 35.3788 7.91758 35.3711 7.92828 35.3637C8.41686 35.1099 8.90545 34.856 9.39395 34.6023C9.8069 34.8387 10.208 35.0904 10.598 35.357C11.2143 35.6506 11.784 36.0316 12.3253 36.4774C12.5916 36.6512 12.8574 36.8257 13.1168 37.0096C13.9233 37.5815 14.5923 38.2645 15.2757 38.9381C16.3892 37.6303 17.0541 36.07 18.0353 34.6711C18.9932 33.3054 19.9324 31.9327 20.8654 30.5502C21.2005 30.0537 21.5419 29.4135 21.9501 28.8557C22.3149 28.65 22.656 28.4185 23.0172 28.1419C23.2471 27.9658 23.5417 27.8906 23.7731 27.6999C23.8281 27.6544 23.8815 27.6085 23.9354 27.5621C23.9587 27.5584 23.9808 27.5521 24.0048 27.5493C26.9047 26.1593 29.6144 24.417 32.5261 23.0514C35.0091 21.8871 37.5737 20.8392 40 19.5521V5.14616C39.1365 4.45575 38.3175 3.71145 37.4092 3.06231Z" fill="url(#paint0_linear_6049_1543)"/>
</g>
<path fill-rule="evenodd" clip-rule="evenodd" d="M8.81277 20.4968C8.89605 20.4579 8.96903 20.3811 9.03154 20.2665C9.09404 20.1519 9.12529 20.0415 9.12529 19.9355C9.12529 19.8236 9.09404 19.7411 9.03154 19.6878C8.96903 19.6345 8.89605 19.6274 8.81277 19.6663L7.47338 20.292V21.1226L8.81277 20.4968ZM7.47338 18.1253V18.7879L8.66097 18.2154C8.7264 18.1848 8.78744 18.1298 8.84402 18.0503C8.90052 17.9709 8.92885 17.8812 8.92885 17.781C8.92885 17.675 8.90052 17.6057 8.84402 17.5733C8.78744 17.5409 8.7264 17.5398 8.66097 17.5704L7.47338 18.1253ZM10.5966 18.5176C10.6889 18.7073 10.735 18.9316 10.735 19.1907C10.735 19.5501 10.6486 19.9232 10.4761 20.3101C10.3034 20.697 10.0699 21.0492 9.77511 21.3665C9.48045 21.6839 9.16037 21.9232 8.81521 22.0845L7.47582 22.7103V22.7191L5.77926 23.5119V17.3272L8.66342 15.9796C8.9908 15.8267 9.29293 15.7708 9.56974 15.8124C9.84663 15.8539 10.0667 15.9793 10.2305 16.1883C10.3942 16.3976 10.4761 16.6641 10.4761 16.988C10.4761 17.3414 10.3837 17.7115 10.1993 18.098C10.3719 18.1883 10.5043 18.3282 10.5966 18.5176Z" fill="#1E2749"/>
<path fill-rule="evenodd" clip-rule="evenodd" d="M17.3311 12.1565L18.9976 11.3315V15.5979C18.9976 16.0453 18.8865 16.4988 18.6643 16.9582C18.442 17.4176 18.1409 17.8378 17.7609 18.2191C17.3808 18.6003 16.9656 18.9024 16.5154 19.1253C16.065 19.3482 15.6514 19.4564 15.2742 19.45C14.8972 19.4436 14.5973 19.3207 14.3752 19.0814C14.153 18.842 14.0419 18.4985 14.0419 18.0511V13.7847L15.7084 12.9597V17.2261C15.7084 17.41 15.7946 17.5068 15.9672 17.5164C16.1396 17.5261 16.3224 17.483 16.5154 17.3875C16.7434 17.2745 16.9363 17.1331 17.0943 16.9629C17.2522 16.7929 17.3311 16.6128 17.3311 16.4228V12.1565Z" fill="#1E2749"/>
<path fill-rule="evenodd" clip-rule="evenodd" d="M24.5693 10.9098L25.7308 8.18136L27.6667 7.27295L25.4247 12.5396V14.5889L23.7141 15.3917V13.3424L21.472 10.1801L23.4079 9.27158L24.5693 10.9098Z" fill="#1E2749"/>
<path d="M62.71 27.277C61.17 27.277 59.8793 26.9397 58.838 26.265C57.7967 25.5757 57.056 24.6517 56.616 23.493L59.762 21.645C60.0407 22.3197 60.422 22.8183 60.906 23.141C61.39 23.449 62.0207 23.603 62.798 23.603C63.3553 23.603 63.7953 23.4783 64.118 23.229C64.4407 22.965 64.602 22.679 64.602 22.371C64.602 22.1217 64.5287 21.9163 64.382 21.755C64.2353 21.5937 63.964 21.4323 63.568 21.271C63.1867 21.095 62.6073 20.897 61.83 20.677C60.4513 20.281 59.344 19.7163 58.508 18.983C57.672 18.2497 57.254 17.2157 57.254 15.881C57.254 14.9423 57.4887 14.1283 57.958 13.439C58.4273 12.735 59.0507 12.1997 59.828 11.833C60.62 11.4517 61.4633 11.261 62.358 11.261C63.6193 11.261 64.7193 11.5617 65.658 12.163C66.6113 12.7497 67.3593 13.6003 67.902 14.715L64.69 16.585C64.426 16.013 64.1033 15.6023 63.722 15.353C63.3553 15.1037 62.9007 14.979 62.358 14.979C62.006 14.979 61.6907 15.067 61.412 15.243C61.1333 15.419 60.994 15.6317 60.994 15.881C60.994 16.101 61.0453 16.2917 61.148 16.453C61.2507 16.5997 61.4707 16.761 61.808 16.937C62.16 17.0983 62.6807 17.289 63.37 17.509C64.866 17.9637 66.0687 18.5723 66.978 19.335C67.8873 20.083 68.342 21.1683 68.342 22.591C68.342 23.5443 68.0927 24.373 67.594 25.077C67.11 25.781 66.4353 26.3237 65.57 26.705C64.7193 27.0863 63.766 27.277 62.71 27.277ZM78.5557 27.277C77.1183 27.277 75.791 26.925 74.5737 26.221C73.3563 25.5023 72.3883 24.5343 71.6697 23.317C70.9657 22.0997 70.6137 20.7723 70.6137 19.335C70.6137 17.8977 70.9657 16.5703 71.6697 15.353C72.3883 14.1357 73.3563 13.175 74.5737 12.471C75.791 11.7523 77.1183 11.393 78.5557 11.393C79.993 11.393 81.3203 11.7523 82.5377 12.471C83.755 13.175 84.7157 14.1357 85.4197 15.353C86.1383 16.5703 86.4977 17.8977 86.4977 19.335C86.4977 20.7723 86.1383 22.0997 85.4197 23.317C84.7157 24.5343 83.755 25.5023 82.5377 26.221C81.3203 26.925 79.993 27.277 78.5557 27.277ZM78.5557 23.515C79.3183 23.515 80.015 23.3317 80.6457 22.965C81.291 22.5837 81.797 22.0777 82.1637 21.447C82.545 20.8017 82.7357 20.0977 82.7357 19.335C82.7357 18.5723 82.545 17.8757 82.1637 17.245C81.797 16.5997 81.291 16.0863 80.6457 15.705C80.015 15.3237 79.3183 15.133 78.5557 15.133C77.793 15.133 77.089 15.3237 76.4437 15.705C75.813 16.0863 75.307 16.5997 74.9257 17.245C74.5443 17.8757 74.3537 18.5723 74.3537 19.335C74.3537 20.0977 74.5443 20.8017 74.9257 21.447C75.307 22.0777 75.813 22.5837 76.4437 22.965C77.089 23.3317 77.793 23.515 78.5557 23.515ZM89.185 19.335C89.185 17.8977 89.537 16.5703 90.241 15.353C90.9596 14.1357 91.9276 13.175 93.145 12.471C94.3623 11.7523 95.6896 11.393 97.127 11.393C98.6083 11.393 99.9723 11.7743 101.219 12.537C102.466 13.285 103.426 14.2897 104.101 15.551L100.801 17.311C100.434 16.6657 99.921 16.145 99.261 15.749C98.6156 15.3383 97.9043 15.133 97.127 15.133C96.3643 15.133 95.6603 15.3237 95.015 15.705C94.3843 16.0863 93.8783 16.5997 93.497 17.245C93.1156 17.8757 92.925 18.5723 92.925 19.335C92.925 20.0977 93.1156 20.8017 93.497 21.447C93.8783 22.0777 94.3843 22.5837 95.015 22.965C95.6603 23.3317 96.3643 23.515 97.127 23.515C97.919 23.515 98.645 23.3097 99.305 22.899C99.9796 22.4883 100.486 21.9383 100.823 21.249L104.145 23.053C103.47 24.329 102.502 25.3557 101.241 26.133C99.9796 26.8957 98.6083 27.277 97.127 27.277C95.6896 27.277 94.3623 26.925 93.145 26.221C91.9276 25.5023 90.9596 24.5343 90.241 23.317C89.537 22.0997 89.185 20.7723 89.185 19.335ZM107.837 26.969V11.569H111.577V26.969H107.837ZM129.635 26.969H125.631L124.641 24.285H119.339L118.349 26.969H114.345L119.977 11.569H123.981L129.635 26.969ZM122.001 17.003L120.637 20.721H123.343L122.001 17.003ZM136.129 11.569V23.427H142.113V26.969H132.389V11.569H136.129Z" fill="#1E2749"/>
<defs>
<linearGradient id="paint0_linear_6049_1543" x1="0" y1="0" x2="0" y2="38.9381" gradientUnits="userSpaceOnUse">
<stop stop-color="#29C0E9"/>
<stop offset="1" stop-color="#128CCF"/>
</linearGradient>
</defs>
</svg>
